<svg width="80" height="32" viewBox="0 0 80 32" fill="none" xmlns="http://www.w3.org/2000/svg">
<path d="M17.71 8.56657L17.628 7.88669L17.3411 5.48442L17.2591 5.03116H17.1771L17.0131 4.03399C16.9584 3.97356 16.9038 3.8678 16.8491 3.71671C16.8218 3.56563 16.7671 3.45987 16.6851 3.39943L16.6441 3.1728H16.5622L16.5212 3.03683C16.5212 2.97639 16.5075 2.94617 16.4802 2.94617C16.4802 2.91596 16.4802 2.87063 16.4802 2.8102L16.4392 2.71955C16.3298 2.59868 16.2205 2.47781 16.1112 2.35694C16.0292 2.20585 15.9336 2.06988 15.8242 1.94901H15.7422C15.7149 1.91879 15.6876 1.88857 15.6603 1.85836C15.6603 1.82814 15.4963 1.69216 15.1683 1.45042C14.8677 1.20869 14.69 1.08782 14.6354 1.08782C14.608 1.08782 14.567 1.07271 14.5124 1.04249V0.997167C14.4304 0.96695 14.3211 0.936733 14.1844 0.906515C14.0751 0.876298 13.7335 0.740321 13.1595 0.498585L13.0365 0.407932C12.9819 0.407932 12.9136 0.407932 12.8316 0.407932C12.7769 0.377715 12.7222 0.362607 12.6676 0.362607V0.317282C12.4216 0.287064 12.2303 0.241737 12.0937 0.181303V0.135978C11.8203 0.135978 11.5607 0.12087 11.3147 0.0906531C11.0961 0.0302177 10.8228 0 10.4948 0C10.3582 0 10.2215 0.0151084 10.0849 0.0453252C9.94822 0.0453252 9.81157 0.0604345 9.67492 0.0906531H8.73203L7.95311 0.181303C7.81646 0.21152 7.67981 0.226629 7.54316 0.226629C7.43384 0.226629 7.31085 0.241737 7.1742 0.271953L6.64126 0.317282C6.39529 0.317282 5.93067 0.423042 5.24741 0.634561L5.08343 0.679886L4.75547 0.77054C4.04488 1.04249 3.67592 1.17847 3.64859 1.17847V1.26912C3.5666 1.26912 3.51194 1.28423 3.48461 1.31445V1.35978C3.34796 1.35978 3.27963 1.38999 3.27963 1.45042C3.27963 1.51086 3.21131 1.54108 3.07466 1.54108V1.63173C2.55538 2.02455 2.29574 2.26629 2.29574 2.35694H2.17276C2.14543 2.38716 2.1181 2.41738 2.09077 2.44759C2.09077 2.47781 2.0771 2.50803 2.04977 2.53824H1.96778L1.63982 2.9915C1.61249 3.02172 1.58516 3.05194 1.55783 3.08215C1.55783 3.11237 1.54416 3.14259 1.51683 3.1728L1.10688 4.16997L1.02489 4.44193C0.860904 4.95562 0.778913 5.22757 0.778913 5.25779L0.737918 5.57507H0.655927L0.614931 5.93768C0.53294 6.45137 0.464615 6.8593 0.409954 7.16147C0.382624 7.43343 0.355294 7.62984 0.327963 7.75071L0.286968 8.11331C0.259638 8.20397 0.232307 8.37016 0.204977 8.6119C0.177647 8.82342 0.163982 9.03494 0.163982 9.24646C0.163982 9.42776 0.177647 9.56374 0.204977 9.65439C0.232307 9.74504 0.245972 9.86591 0.245972 10.017L0.204977 10.1076V11.966V12.5099C0.204977 12.7214 0.245972 12.8876 0.327963 13.0085C0.437284 13.1294 0.696922 13.1898 1.10688 13.1898C1.07955 13.1596 1.05222 13.1445 1.02489 13.1445V13.0538H1.22986L2.29574 13.0085C2.32307 13.0387 2.36407 13.0538 2.41873 13.0538V13.0085L2.95167 13.0538H3.03366C3.41629 13.0538 3.62126 13.0387 3.64859 13.0085V12.9632H4.4685C4.49583 12.9934 4.68714 13.0085 5.04244 13.0085V12.9632C5.0971 12.9632 5.13809 12.9632 5.16542 12.9632C5.19275 12.933 5.23375 12.9178 5.28841 12.9178C5.3704 12.9178 5.45239 12.933 5.53438 12.9632C5.6437 12.9632 5.73936 12.9632 5.82135 12.9632C6.20397 12.9632 6.39529 12.7668 6.39529 12.3739H6.47728V11.6034L6.55927 11.5581C6.55927 11.4674 6.5456 11.3617 6.51827 11.2408C6.49094 11.1199 6.47728 11.0444 6.47728 11.0142L6.68225 9.65439C6.73691 9.50331 6.76425 9.41265 6.76425 9.38243C6.79158 9.322 6.81891 9.26157 6.84624 9.20113L6.88723 9.11048L6.96922 8.83853L8.19909 7.47875H8.32207L8.69103 7.3881V7.29745H8.89601H9.22397L10.2079 7.61473V7.70538L10.4128 7.75071C10.6041 7.75071 10.6998 7.82625 10.6998 7.97734C10.7271 8.09821 10.7955 8.15864 10.9048 8.15864L10.9868 8.29462V8.43059C11.0414 8.43059 11.2191 8.92918 11.5197 9.92635L11.4787 9.83569C11.4787 9.98678 11.4651 10.1379 11.4377 10.289C11.4377 10.44 11.4377 10.6667 11.4377 10.9688L11.2327 12.0113L11.1508 12.2833C10.9048 12.6459 10.7681 12.8423 10.7408 12.8725C10.7135 12.9027 10.6725 12.933 10.6178 12.9632V13.0538L10.3308 13.3711C10.2762 13.4618 10.2079 13.5373 10.1259 13.5977C10.0439 13.6582 9.97555 13.7488 9.92089 13.8697H9.79791V13.9603L8.85501 14.6402L8.77302 14.8215L7.78913 15.3654C7.7618 15.3957 7.74814 15.441 7.74814 15.5014H7.62515L7.33818 15.6374L7.1332 15.7734C5.57538 16.8612 4.72814 17.4806 4.59149 17.6317L4.30452 17.7224C4.30452 17.7828 4.29085 17.8281 4.26352 17.8584H4.18153C4.04488 18.0094 3.89457 18.1605 3.73058 18.3116C3.59393 18.4325 3.42995 18.5534 3.23864 18.6742H3.11565C3.11565 18.7347 3.10199 18.7649 3.07466 18.7649H2.99267L2.86968 18.9008C2.81502 18.9008 2.7057 18.9764 2.54172 19.1275C2.37773 19.2786 2.10443 19.5656 1.72181 19.9887V20.0793L1.39384 20.4419C1.36651 20.4721 1.24353 20.7743 1.02489 21.3484H0.942895C0.915564 21.4089 0.888234 21.4844 0.860904 21.5751C0.860904 21.6657 0.847239 21.7413 0.819908 21.8017H0.778913C0.724253 21.8924 0.683257 22.0888 0.655927 22.3909H0.614931C0.614931 22.5118 0.573936 22.814 0.491945 23.2974C0.437284 23.7507 0.341629 24.3702 0.204977 25.1558L0.122986 25.5637V26.7875H0.0409954V27.1955H0.122986C0.095656 27.2559 0.0819909 27.3163 0.0819909 27.3768C0.0819909 27.4372 0.0683257 27.4976 0.0409954 27.5581H0.122986V28.2833C0.095656 28.4646 0.0819909 28.6459 0.0819909 28.8272C0.0819909 28.9783 0.0683257 29.1294 0.0409954 29.2805V30.5496C0.0409954 30.882 0.0273303 31.0633 0 31.0935C0.0546606 31.1237 0.095656 31.1539 0.122986 31.1841C0.150317 31.2144 0.204977 31.2446 0.286968 31.2748L0.327963 31.5014C0.355294 31.5921 0.382624 31.6374 0.409954 31.6374H0.532941V31.728H0.655927L0.778913 31.864L2.00878 31.9547C2.03611 31.9849 2.1181 32 2.25475 32C2.33674 32 2.48706 31.9698 2.7057 31.9093H5.16542C5.46606 31.9093 5.76669 31.9093 6.06732 31.9093C6.36796 31.8791 6.66859 31.864 6.96922 31.864H7.91212C8.15809 31.864 8.32207 31.8791 8.40406 31.9093V31.9547C8.43139 31.9849 8.52705 32 8.69103 32C8.77302 32 8.82768 32 8.85501 32C8.90967 32 8.99166 31.9849 9.10098 31.9547C9.21031 31.9547 9.40162 31.9396 9.67492 31.9093C9.94822 31.8791 10.3582 31.8489 10.9048 31.8187L11.2737 31.728C11.3011 31.6978 11.3557 31.6827 11.4377 31.6827C11.547 31.6827 11.6427 31.6978 11.7247 31.728C11.8067 31.7583 11.875 31.7734 11.9297 31.7734L11.9707 31.728C12.0253 31.728 12.0663 31.7432 12.0937 31.7734C12.1483 31.7734 12.203 31.7734 12.2576 31.7734V31.728C12.3396 31.728 12.3943 31.7432 12.4216 31.7734L15.2913 31.5921H15.7012C15.7832 31.5921 15.8516 31.6072 15.9062 31.6374C15.9609 31.6374 16.0155 31.6374 16.0702 31.6374L16.6441 31.5921H16.8491C16.9858 31.5921 17.0814 31.6374 17.1361 31.728H17.1771C17.1771 31.6374 17.1634 31.577 17.1361 31.5467C17.1634 31.5467 17.1907 31.5467 17.2181 31.5467C17.2454 31.5165 17.2727 31.5014 17.3001 31.5014L17.3821 31.5467C17.3821 31.4863 17.3684 31.441 17.3411 31.4108C17.3411 31.3805 17.3411 31.3352 17.3411 31.2748H17.3821C17.3821 31.1841 17.3821 31.0935 17.3821 31.0028C17.4094 30.882 17.4231 30.7611 17.4231 30.6402C17.4231 30.61 17.4094 30.5345 17.3821 30.4136C17.3821 30.2927 17.3821 30.1567 17.3821 30.0057C17.3821 29.9452 17.3821 29.8848 17.3821 29.8244C17.4094 29.7337 17.4231 29.6582 17.4231 29.5977H17.3821C17.4094 29.5675 17.4231 29.5373 17.4231 29.5071L17.3821 27.7394C17.3821 27.6185 17.3684 27.4674 17.3411 27.2861C17.3411 27.0746 17.3411 26.8782 17.3411 26.6969C17.3411 26.2738 17.3821 25.9868 17.4641 25.8357V25.5184L17.3821 25.4731V25.5637L17.1771 25.2465C17.0404 25.3069 16.8628 25.3522 16.6441 25.3824C16.4255 25.3824 16.2069 25.3824 15.9882 25.3824C15.7969 25.3824 15.6466 25.3824 15.5373 25.3824C15.4279 25.3522 15.3186 25.3371 15.2093 25.3371L14.7584 25.3824C14.7037 25.3824 14.649 25.3824 14.5944 25.3824C14.567 25.3522 14.5397 25.3371 14.5124 25.3371C14.4851 25.3371 14.4577 25.3522 14.4304 25.3824H14.3894V25.3371C14.1981 25.3069 14.0068 25.2918 13.8155 25.2918C13.6241 25.2918 13.4192 25.2767 13.2005 25.2465H12.7906V25.3371H11.6837C11.6564 25.3371 11.629 25.3522 11.6017 25.3824V25.3371C11.5744 25.3069 11.4787 25.2918 11.3147 25.2918C11.1781 25.2918 10.9731 25.322 10.6998 25.3824C10.6725 25.3522 10.5905 25.3371 10.4538 25.3371L9.30596 25.3824C9.03266 25.3824 8.86868 25.3975 8.81402 25.4278H8.40406C8.15809 25.4278 7.93945 25.4278 7.74814 25.4278C7.55682 25.3975 7.37918 25.3824 7.2152 25.3824L6.72325 24.4306C6.94189 23.9773 7.11954 23.5694 7.25619 23.2068C7.42017 22.8442 7.58415 22.542 7.74814 22.3003L8.11709 21.7564C8.19908 21.7564 8.26741 21.711 8.32207 21.6204C8.37673 21.5297 8.43139 21.4542 8.48605 21.3938H8.56804C8.6227 21.2427 8.81402 21.0916 9.14198 20.9405L9.05999 20.8952C9.19664 20.7743 9.31963 20.6837 9.42895 20.6232C9.53827 20.5326 9.62026 20.4721 9.67492 20.4419L10.0439 20.306C10.0985 20.2757 10.1395 20.2606 10.1669 20.2606C10.2215 20.2304 10.2762 20.2002 10.3308 20.17V20.1246C10.3855 20.1246 10.8365 19.8829 11.6837 19.3994L12.0527 19.3088C12.08 19.2786 12.203 19.2635 12.4216 19.2635L12.7496 19.1275C12.8316 19.0368 12.8999 18.9915 12.9546 18.9915H12.9955C13.0775 18.9915 13.4328 18.7951 14.0614 18.4023H14.1844L14.4304 18.2663C14.9223 17.8735 15.3323 17.5109 15.6603 17.1785C15.6876 17.2087 15.7012 17.254 15.7012 17.3144C15.8106 17.1634 15.8926 17.0274 15.9472 16.9065C16.0292 16.7856 16.1385 16.6346 16.2752 16.4533L16.3572 16.272C16.3572 16.2417 16.3845 16.2266 16.4392 16.2266V16.0907C16.4665 16.0907 16.4938 16.0755 16.5212 16.0453L17.0951 14.9122L17.628 12.9178L17.915 10.4703C17.8877 10.289 17.874 10.1228 17.874 9.97167C17.874 9.79037 17.8467 9.62417 17.792 9.47309V8.83853L17.71 8.56657ZM17.1771 11.2408C17.1771 11.3314 17.1361 11.694 17.0541 12.3286L16.9721 12.8725H16.8901C16.8901 12.8725 16.7398 13.4164 16.4392 14.5042L16.3982 14.6402L16.2752 14.7309V14.8669C16.2479 14.8971 16.2205 14.9122 16.1932 14.9122L16.1112 15.2295L15.9472 15.3654V15.5467C15.9199 15.577 15.8926 15.5921 15.8652 15.5921V15.6827C15.4826 16.1058 15.264 16.3777 15.2093 16.4986H15.1273V16.5892C15.0727 16.6195 15.018 16.6346 14.9633 16.6346C14.936 16.6346 14.9223 16.6497 14.9223 16.6799L14.8403 16.7252C14.813 16.7554 14.7993 16.8008 14.7993 16.8612L13.8974 17.5864H13.7745C13.7745 17.6166 13.7608 17.6468 13.7335 17.6771H13.6515C13.5968 17.7375 12.7769 18.1907 11.1918 19.0368H11.0278L10.6588 19.1275V19.2181C9.97555 19.5505 9.62026 19.7167 9.59293 19.7167L9.42895 19.8074L9.38795 19.9433L8.40406 20.4873C8.3494 20.5477 8.30841 20.593 8.28108 20.6232C8.28108 20.6534 8.24008 20.6686 8.15809 20.6686L7.62515 21.0765V21.1671H7.54316C7.4885 21.4089 7.36551 21.5902 7.1742 21.711C6.98289 21.8017 6.87357 21.9528 6.84624 22.1643C6.62759 22.5873 6.50461 22.7989 6.47728 22.7989L6.35429 23.1615C6.35429 23.2219 6.34063 23.3126 6.3133 23.4334C6.28596 23.5543 6.2723 23.5996 6.2723 23.5694V23.5241C6.2723 23.4939 6.28596 23.4485 6.3133 23.3881H6.2723C6.24497 23.4183 6.2313 23.5543 6.2313 23.796H6.14931L6.10832 25.745C6.13565 25.7753 6.19031 25.8055 6.2723 25.8357C6.38162 25.8659 6.44995 25.881 6.47728 25.881V26.0623C6.61393 26.0623 6.76425 26.0774 6.92823 26.1076C7.11954 26.1076 7.50216 26.1076 8.0761 26.1076C8.70469 26.1076 9.04632 26.0774 9.10098 26.017L9.79791 26.0623L10.8228 25.9717H11.5197C11.547 25.9415 11.5744 25.9263 11.6017 25.9263C11.629 25.9263 11.6564 25.9415 11.6837 25.9717C11.711 25.9717 11.7794 25.9717 11.8887 25.9717L12.7496 26.017L13.4875 25.881C13.4875 25.9112 13.6105 25.9263 13.8565 25.9263C13.9658 25.9263 14.0888 25.9263 14.2254 25.9263C14.3894 25.9263 14.5807 25.9112 14.7993 25.881V26.017C15.1 26.017 15.4006 26.0321 15.7012 26.0623C16.0292 26.0623 16.3025 26.0925 16.5212 26.153L16.8901 26.1983C16.8901 26.2285 16.8901 26.2587 16.8901 26.2889C16.9174 26.3192 16.9311 26.3645 16.9311 26.4249C16.9311 26.4854 16.9174 26.5458 16.8901 26.6062C16.8901 26.6364 16.8901 26.6818 16.8901 26.7422L17.0951 29.6431L17.0541 29.7337C17.0541 30.1265 17.0131 30.3834 16.9311 30.5042C16.8764 30.5949 16.6851 30.6402 16.3572 30.6402V30.7309L16.2342 30.6402V30.7309L14.6354 30.7762C14.5534 30.746 14.3484 30.7309 14.0204 30.7309L13.4055 30.7762H11.8067L11.1918 30.6402C10.9731 30.7007 10.8228 30.7309 10.7408 30.7309L8.978 30.7762C8.84135 30.7762 8.71836 30.7913 8.60904 30.8215C8.52705 30.8215 8.41773 30.8215 8.28108 30.8215V30.8669H5.3704C5.34307 30.8971 5.30207 30.9122 5.24741 30.9122C5.19275 30.9122 5.13809 30.8971 5.08343 30.8669C5.02877 30.8366 4.96045 30.8215 4.87846 30.8215C4.85113 30.8215 4.64615 30.8517 4.26352 30.9122C3.8809 30.9424 3.32063 30.9877 2.58271 31.0482L2.33674 30.8669V31.0482H2.17276L2.29574 30.9575L2.25475 30.9122C2.20009 30.8517 2.0771 30.8215 1.88579 30.8215H1.55783C1.5305 30.8517 1.50317 30.8669 1.47584 30.8669H1.27086C1.05222 30.8669 0.915564 30.8215 0.860904 30.7309C0.833574 30.6402 0.819908 30.5042 0.819908 30.3229V30.1416C0.847239 30.1114 0.860904 30.0812 0.860904 30.051V30.0057V28.3739L0.942895 28.3286V26.8782H1.02489C0.997555 26.8178 0.98389 26.7422 0.98389 26.6516C0.98389 26.5307 0.970225 26.3947 0.942895 26.2436C1.02489 25.458 1.07955 24.9141 1.10688 24.6119C1.16154 24.3097 1.18887 24.068 1.18887 23.8867C1.18887 23.8263 1.1752 23.7658 1.14787 23.7054C1.14787 23.6147 1.14787 23.509 1.14787 23.3881L1.35285 22.255C1.40751 22.1341 1.42117 22.0283 1.39384 21.9377C1.39384 21.847 1.50317 21.6808 1.72181 21.4391V21.3484C1.94045 21.1671 2.06344 21.0161 2.09077 20.8952L2.17276 20.7139C2.33674 20.6837 2.41873 20.593 2.41873 20.4419H2.50072L2.99267 19.898H3.07466C3.10199 19.8376 3.21131 19.7016 3.40262 19.4901C3.62126 19.2786 3.77158 19.1275 3.85357 19.0368H3.93556C3.99022 18.9764 4.01755 18.9311 4.01755 18.9008L4.63248 18.4023H4.75547L4.83746 18.2663H4.91945C4.97411 18.2059 4.98778 18.1756 4.96045 18.1756C4.96045 18.1454 5.0561 18.1001 5.24741 18.0397L6.3133 17.3598L6.39529 17.2238L6.60026 17.1785V17.0878L6.88723 16.9972C6.94189 16.9367 6.96922 16.8914 6.96922 16.8612C6.99655 16.8008 7.10587 16.7403 7.29719 16.6799V16.6346L7.50216 16.5439C8.0761 16.2417 8.47239 16.0453 8.69103 15.9547C8.90967 15.8338 9.04632 15.7583 9.10098 15.728C9.18297 15.6676 9.22397 15.6223 9.22397 15.5921C9.2513 15.5316 9.33329 15.4259 9.46994 15.2748H9.59293C9.59293 15.2144 9.6066 15.1841 9.63393 15.1841H9.71591C9.71591 15.0935 9.72958 15.0633 9.75691 15.0935C9.81157 15.0935 9.86623 15.0633 9.92089 15.0028V14.9575C9.94822 14.9575 10.0439 14.9273 10.2079 14.8669C10.3718 14.8064 10.4538 14.7309 10.4538 14.6402L10.5768 14.5949C11.0688 14.1719 11.3284 13.9452 11.3557 13.915C11.3831 13.8546 11.4241 13.8244 11.4787 13.8244V13.6884C11.9707 13.1445 12.2303 12.6912 12.2576 12.3286C12.285 11.9358 12.326 11.7092 12.3806 11.6487H12.4216C12.3943 11.6185 12.3806 11.5581 12.3806 11.4674L12.4216 10.8329L12.3396 10.6516V9.83569H12.2576L12.2166 9.56374L12.0527 7.97734H11.9707L11.8887 7.70538L11.2737 6.88952C10.5632 6.55713 10.0849 6.34561 9.8389 6.25496C9.59293 6.13409 9.42895 6.07365 9.34696 6.07365C9.2923 6.07365 9.2513 6.08876 9.22397 6.11898C9.22397 6.11898 9.19664 6.11898 9.14198 6.11898V6.16431L8.44506 6.25496C8.28108 6.34561 8.14442 6.42115 8.0351 6.48159C7.92578 6.5118 7.83013 6.55713 7.74814 6.61756L7.50216 6.75354H7.42017C7.31085 6.75354 7.24253 6.84419 7.2152 7.0255H7.09221L7.01022 7.2068C6.95556 7.26723 6.9009 7.32767 6.84624 7.3881C6.79157 7.41832 6.75058 7.44854 6.72325 7.47875L6.35429 8.20397C6.19031 8.68744 6.06732 9.11048 5.98533 9.47309C5.93067 9.8357 5.87601 10.0925 5.82135 10.2436H5.78035C5.78035 10.3041 5.76669 10.3494 5.73936 10.3796C5.73936 10.4098 5.73936 10.4551 5.73936 10.5156C5.73936 10.7875 5.75302 10.9991 5.78035 11.1501C5.83501 11.3012 5.86235 11.407 5.86235 11.4674C5.86235 11.4976 5.83501 11.6034 5.78035 11.7847L5.69836 12.0113H5.3704V12.102C5.39773 12.102 5.42506 12.1171 5.45239 12.1473H5.53438C5.47972 12.2077 5.4114 12.238 5.32941 12.238C5.24741 12.2077 5.17909 12.2077 5.12443 12.238L4.83746 12.2833L4.79646 12.3739V12.2833L3.81257 12.4646H1.7628V12.3739C1.70814 12.4042 1.63982 12.4193 1.55783 12.4193C1.47584 12.4193 1.40751 12.4344 1.35285 12.4646V12.3286L1.10688 12.2833C0.970225 12.2833 0.901899 12.1171 0.901899 11.7847C0.929229 11.4523 0.929229 11.1955 0.901899 11.0142H0.942895C0.942895 10.712 0.929229 10.5458 0.901899 10.5156H0.942895C0.942895 10.4249 0.929229 10.3645 0.901899 10.3343L0.942895 9.60907H1.02489C1.02489 9.54863 1.01122 9.50331 0.98389 9.47309C0.95656 9.44287 0.942895 9.39754 0.942895 9.33711H1.02489L1.06588 8.9745L1.10688 7.43343C1.27086 6.37583 1.36651 5.83192 1.39384 5.8017L1.51683 5.25779C1.54416 5.13692 1.57149 5.03116 1.59882 4.94051C1.62615 4.84986 1.65348 4.77431 1.68081 4.71388C1.70814 4.62323 1.72181 4.5628 1.72181 4.53258L2.09077 3.49009L3.11565 2.49292L3.48461 2.35694C3.48461 2.29651 3.49828 2.25118 3.52561 2.22096H3.6076C3.85357 1.88857 4.04488 1.72238 4.18153 1.72238V1.67705C4.20886 1.64684 4.35918 1.60151 4.63248 1.54108L6.06732 1.26912V1.17847L6.92823 0.861189L7.2152 0.815864C7.54316 0.755431 7.81646 0.710105 8.0351 0.679886C8.28108 0.649669 8.47239 0.634561 8.60904 0.634561L9.22397 0.54391C9.60659 0.54391 9.90723 0.559019 10.1259 0.589236C10.3445 0.589236 10.5222 0.604345 10.6588 0.634561C10.7955 0.634561 10.9048 0.649669 10.9868 0.679886C11.0688 0.679886 11.1644 0.679886 11.2737 0.679886H11.3557C11.4924 0.710105 11.6017 0.740323 11.6837 0.77054C11.7657 0.77054 11.834 0.77054 11.8887 0.77054L12.4216 0.815864L13.0775 1.04249L13.1185 1.13315L13.4055 1.17847C13.4328 1.17847 13.5285 1.2238 13.6925 1.31445C13.8838 1.37488 14.0751 1.46553 14.2664 1.5864C14.4577 1.67705 14.6217 1.78281 14.7584 1.90368C14.9223 1.99433 15.0043 2.06988 15.0043 2.13031H15.1273C15.1546 2.31162 15.2503 2.40227 15.4143 2.40227V2.49292C15.4143 2.52313 15.4416 2.53824 15.4963 2.53824V2.67422C15.6056 2.67422 15.7969 3.00661 16.0702 3.67139L16.1112 3.80736L16.1932 4.07932C16.2479 4.13975 16.3708 4.5628 16.5622 5.34844V5.43909H16.6441C16.6441 5.77148 16.6851 6.16431 16.7671 6.61756C16.8491 7.04061 16.9448 7.44854 17.0541 7.84136L17.0951 8.29462V8.7932C17.1224 8.94429 17.1361 9.09537 17.1361 9.24646C17.1634 9.36733 17.1771 9.50331 17.1771 9.65439V10.017V11.2408ZM7.46117 22.3909C7.54316 22.1794 7.59782 22.0737 7.62515 22.0737V22.119C7.62515 22.2096 7.58415 22.3003 7.50216 22.3909H7.46117Z" fill="#CDDAE6"/>
<path d="M38.9476 11.2408L38.9066 9.88102C38.9066 9.69972 38.8929 9.51841 38.8656 9.33711C38.8382 9.12559 38.8109 8.9745 38.7836 8.88385V8.52125C38.7563 8.40038 38.6879 8.17375 38.5786 7.84136C38.4966 7.50897 38.401 7.17658 38.2916 6.84419C38.1823 6.48159 38.073 6.17941 37.9637 5.93768C37.8817 5.66572 37.8407 5.52975 37.8407 5.52975V5.34844L37.5127 4.80453C37.4854 4.7441 37.4581 4.69877 37.4307 4.66855C37.4307 4.60812 37.4171 4.54769 37.3897 4.48725L37.3078 4.3966C37.1164 4.15486 36.9661 3.91312 36.8568 3.67139C36.7475 3.39943 36.6655 3.18791 36.6108 3.03683H36.5288V2.90085L35.5449 1.94901C35.5176 1.91879 35.4903 1.88857 35.463 1.85836C35.463 1.82814 35.4493 1.79792 35.422 1.76771L35.176 1.67705C35.1213 1.5864 34.8617 1.45043 34.3971 1.26912C34.0964 1.14825 33.8778 1.0576 33.7412 0.997167C33.6318 0.936732 33.5498 0.891406 33.4952 0.861189C33.4405 0.800755 33.3859 0.755431 33.3312 0.725214C33.3039 0.694995 33.2219 0.649669 33.0852 0.589236L31.4864 0.0906531L30.6665 0.0453252C30.3385 0.0453252 30.0516 0.0906513 29.8056 0.181303L28.4937 0.226629V0.317282L27.8378 0.362607L26.6489 0.679886V0.77054L26.444 0.861189L26.198 0.951843C26.1433 1.01228 25.911 1.14825 25.5011 1.35978H25.4191C25.3918 1.35978 25.3781 1.38999 25.3781 1.45042C25.1321 1.51086 24.9955 1.5864 24.9681 1.67705C24.9681 1.76771 24.9271 1.81303 24.8451 1.81303V1.94901C24.7905 2.00944 24.7222 2.06988 24.6402 2.13031C24.5855 2.19075 24.5308 2.25118 24.4762 2.31161L24.1072 2.71955V2.8102C24.0526 2.87063 23.9979 2.93107 23.9432 2.9915C23.8886 3.02172 23.8476 3.05194 23.8203 3.08215V3.21813C23.7929 3.21813 23.7519 3.24835 23.6973 3.30878V3.39943L23.2873 3.85269C22.8774 4.45704 22.6724 4.75921 22.6724 4.75921L22.5904 4.94051C22.5084 4.94051 22.4811 4.98584 22.5084 5.07649C22.5357 5.13692 22.4264 5.30312 22.1804 5.57507V5.66572C22.0985 5.93768 21.9618 6.28517 21.7705 6.70821C21.5792 7.10104 21.4972 7.31256 21.5245 7.34278L21.2785 8.20397L21.1966 8.88385L21.1146 9.29179C21.1146 9.322 21.0872 9.4882 21.0326 9.79037C21.0052 10.0623 20.9642 10.4551 20.9096 10.9688L20.8276 11.6941L20.7456 12.1926L20.6636 12.6006C20.6363 12.7517 20.6226 12.9027 20.6226 13.0538C20.6226 13.2049 20.6226 13.356 20.6226 13.5071V14.3229L20.2947 16.3173L20.3766 18.1303C20.404 18.2814 20.4176 18.4174 20.4176 18.5382C20.4176 18.6591 20.4176 18.78 20.4176 18.9008L20.3766 19.0368C20.404 19.0368 20.4176 19.067 20.4176 19.1275H20.3766C20.3766 19.1879 20.363 19.2332 20.3357 19.2635C20.3357 19.2937 20.3357 19.3239 20.3357 19.3541C20.3357 19.6563 20.3903 19.8678 20.4996 19.9887L20.5406 21.6204H20.6226L20.6636 22.119L20.7456 22.7082H20.8276V22.8442L20.9096 23.4334L21.4425 25.0198V25.2011H21.5245L21.5655 25.3371C21.5655 25.3975 21.5655 25.4429 21.5655 25.4731C21.5928 25.4731 21.6065 25.5033 21.6065 25.5637H21.6475C21.6748 25.594 21.7978 25.881 22.0165 26.4249L22.0575 26.5156C22.0575 26.6969 22.1121 26.7875 22.2214 26.7875C22.3308 26.7573 22.3854 26.8933 22.3854 27.1955H22.4264C22.4811 27.2559 22.4947 27.3012 22.4674 27.3314C22.4674 27.3314 22.5221 27.3919 22.6314 27.5127V27.6034C22.6861 27.6638 22.7544 27.7092 22.8364 27.7394V27.8754C22.891 27.9358 22.932 27.9811 22.9594 28.0113C23.014 28.0113 23.137 28.1473 23.3283 28.4193L23.7383 28.8725V29.0085C23.7656 29.0387 23.7929 29.0689 23.8203 29.0991C23.8476 29.0991 23.8749 29.1143 23.9023 29.1445V29.2351C24.1209 29.4164 24.3259 29.6431 24.5172 29.915C24.7358 30.1568 24.9681 30.3532 25.2141 30.5042V30.6402C25.2961 30.6402 25.3781 30.6855 25.4601 30.7762L27.2639 31.4561L27.6328 31.5467C27.6328 31.577 27.7285 31.6072 27.9198 31.6374C28.1384 31.6676 28.3708 31.6978 28.6167 31.728C28.8627 31.7583 29.095 31.7885 29.3136 31.8187C29.5596 31.8187 29.7099 31.8187 29.7646 31.8187L30.3795 31.9093H30.5435L32.1013 31.5467C32.1287 31.5165 32.156 31.5014 32.1833 31.5014C32.2107 31.5014 32.238 31.4863 32.2653 31.4561L33.1262 31.0028C33.3722 30.8517 33.5635 30.7611 33.7002 30.7309C33.8368 30.6704 33.9188 30.61 33.9461 30.5496L35.094 30.0057C35.1213 30.0057 35.1487 30.0057 35.176 30.0057C35.2033 29.9754 35.2307 29.9603 35.258 29.9603L35.34 29.915C35.4766 29.7035 35.5859 29.5373 35.6679 29.4164C35.7773 29.2653 35.8729 29.1294 35.9549 29.0085C36.0642 28.8876 36.1735 28.7668 36.2829 28.6459C36.3922 28.525 36.5425 28.3588 36.7338 28.1473L36.8158 27.83H36.8978C36.8978 27.7998 36.8841 27.7696 36.8568 27.7394L37.5127 26.2889L37.6357 25.9717C37.6904 25.9112 37.7177 25.8659 37.7177 25.8357C37.7177 25.8055 37.745 25.7601 37.7997 25.6997L38.4146 23.4334L38.4966 22.9802L38.7016 21.8017L38.7836 21.1671C38.7836 20.9858 38.7973 20.7894 38.8246 20.5779C38.8519 20.3362 38.8929 20.1246 38.9476 19.9433V19.5807C39.0022 19.3692 39.0432 19.1426 39.0706 18.9008C39.1252 18.6591 39.1799 18.4174 39.2345 18.1756C39.2345 18.0548 39.2209 17.949 39.1935 17.8584C39.1935 17.7375 39.1935 17.6015 39.1935 17.4504C39.2755 17.1483 39.3165 16.831 39.3165 16.4986C39.3165 16.2568 39.3029 16.0907 39.2755 16C39.2482 15.8791 39.2345 15.7583 39.2345 15.6374C39.2619 15.6374 39.2755 15.6223 39.2755 15.5921C39.2755 15.5014 39.2892 15.4259 39.3165 15.3654V14.4589C39.3165 14.3078 39.3029 14.1719 39.2755 14.051C39.2755 13.9301 39.2755 13.7941 39.2755 13.6431H39.2345L38.9476 11.2408ZM38.3326 15.3654C38.3053 15.7583 38.2506 16.2115 38.1687 16.7252C38.114 17.2087 38.0457 17.7073 37.9637 18.221C37.8817 18.7347 37.8134 19.2483 37.7587 19.762C37.704 20.2455 37.6767 20.6837 37.6767 21.0765H37.6357C37.6084 21.3787 37.5674 21.5751 37.5127 21.6657H37.4717L37.0208 23.8414L36.8978 23.932L36.3239 25.5184C36.2692 25.5184 36.2282 25.594 36.2009 25.745C36.1735 25.8659 36.1599 25.9112 36.1599 25.881H36.0779C36.0779 26.0019 36.0506 26.0774 35.9959 26.1076C35.9412 26.1076 35.9139 26.1681 35.9139 26.2889L35.8319 26.5156C35.8046 26.5458 35.7773 26.5609 35.7499 26.5609L35.135 27.83C35.0257 27.83 34.9847 27.8905 35.012 28.0113C35.0393 28.102 34.9983 28.1473 34.889 28.1473C34.9164 28.1775 34.93 28.2077 34.93 28.238C34.9027 28.2682 34.8754 28.2984 34.848 28.3286C34.8207 28.3286 34.7934 28.3437 34.766 28.3739V28.4646L34.1101 29.4164H34.0281C33.8095 29.6582 33.6318 29.8244 33.4952 29.915C33.3585 30.0057 33.2492 30.051 33.1672 30.051V30.0963L32.7983 30.3229C32.7436 30.3229 32.6753 30.3381 32.5933 30.3683C32.5113 30.3985 32.4703 30.4438 32.4703 30.5042L31.1994 30.9122C31.0628 30.9424 30.9125 30.9575 30.7485 30.9575C30.5845 30.9575 30.4342 30.9726 30.2975 31.0028V31.0482C30.2429 31.0482 30.1882 31.0633 30.1336 31.0935C30.0789 31.0935 30.0242 31.0935 29.9696 31.0935C29.7783 31.0935 29.587 31.0935 29.3956 31.0935C29.2043 31.0633 29.0813 31.033 29.0267 31.0028L27.4279 30.5496L27.3459 30.4136C26.9086 30.2323 26.5943 30.0963 26.403 30.0057C26.239 29.8848 26.1297 29.8093 26.075 29.779C26.0477 29.7186 26.034 29.6884 26.034 29.6884C26.0613 29.6884 26.0477 29.6884 25.993 29.6884V29.6431C25.9657 29.6128 25.9247 29.5826 25.87 29.5524C25.8154 29.5222 25.747 29.492 25.6651 29.4618C25.6104 29.4013 25.5421 29.3409 25.4601 29.2805H25.3781L25.3371 29.1445H25.2551C25.1185 29.084 24.9408 28.9178 24.7222 28.6459H24.5992C24.5718 28.6157 24.5445 28.5855 24.5172 28.5552C24.5172 28.525 24.5035 28.4948 24.4762 28.4646H24.3942L23.5743 27.5581L23.5333 27.4221C23.4786 27.3919 23.4513 27.3617 23.4513 27.3314C23.4513 27.271 23.424 27.2408 23.3693 27.2408L23.0004 26.5609L22.8774 26.5156L22.7544 26.1076V26.153C22.7271 26.153 22.6177 25.9868 22.4264 25.6544C22.2351 25.322 22.1395 25.0349 22.1395 24.7932L22.0575 24.7026L21.9755 24.4306L21.8115 23.9773L21.4015 22.4363L21.3195 21.5297C21.3195 21.1369 21.3059 20.9254 21.2785 20.8952L21.2375 20.6232L21.1556 19.5807H21.0736C20.9916 18.6742 20.9506 18.1303 20.9506 17.949V17.813C21.1419 16.1813 21.2649 15.2899 21.3195 15.1388C21.2922 15.0784 21.2785 14.9424 21.2785 14.7309V14.187L21.4425 11.2861C21.4425 11.1048 21.4289 10.9839 21.4015 10.9235L21.7705 8.65723L21.8525 8.24929L21.9345 7.97734C21.9345 7.82625 21.9618 7.72049 22.0165 7.66006L22.0985 7.3881L22.3854 6.75354C22.3854 6.72332 22.3854 6.69311 22.3854 6.66289C22.4128 6.63267 22.4264 6.60246 22.4264 6.57224L22.4674 6.43626C22.8227 5.8017 23.0823 5.31822 23.2463 4.98584C23.4376 4.65345 23.5743 4.41171 23.6563 4.26062C23.7383 4.07932 23.7793 3.97356 23.7793 3.94334C23.8066 3.91313 23.8339 3.88291 23.8613 3.85269V3.76204C23.8886 3.73182 23.9159 3.71671 23.9432 3.71671L24.1072 3.35411C24.3259 3.1728 24.4352 3.03683 24.4352 2.94617H24.5582L24.6402 2.8102C24.8588 2.74976 24.9955 2.67422 25.0501 2.58357L25.0911 2.53824H25.0091C24.9271 2.53824 24.8861 2.50803 24.8861 2.44759C24.9135 2.38716 25.4191 2.06988 26.403 1.49575L26.567 1.45042C26.5943 1.45042 26.6216 1.46553 26.6489 1.49575L28.6987 1.04249C28.7534 0.982059 28.89 0.951843 29.1087 0.951843C29.1907 0.951843 29.2727 0.96695 29.3546 0.997167C29.4366 0.997167 29.505 0.997167 29.5596 0.997167L30.5845 1.04249C30.6392 1.04249 30.7212 1.02738 30.8305 0.997167C30.9398 0.96695 31.0491 0.951843 31.1584 0.951843L33.4542 1.54108C33.4542 1.63173 33.4815 1.67705 33.5362 1.67705C33.5908 1.67705 33.6455 1.69216 33.7002 1.72238V1.76771L35.217 2.85553L35.299 3.08215C35.3536 3.11237 35.381 3.14259 35.381 3.1728C35.4083 3.1728 35.4493 3.18791 35.504 3.21813L35.5449 3.39943C35.5723 3.42965 35.5859 3.49009 35.5859 3.58074H35.6679C35.8866 4.00378 36.0232 4.26062 36.0779 4.35128C36.1326 4.44193 36.1872 4.51747 36.2419 4.5779V4.66855C36.2965 4.72899 36.3375 4.75921 36.3649 4.75921V4.89519C36.4195 4.89519 36.4742 4.9254 36.5288 4.98584V5.07649C36.5562 5.1067 36.5835 5.12181 36.6108 5.12181L37.3078 6.98017L37.3897 7.3881C37.3897 7.59962 37.4171 7.78093 37.4717 7.93201C37.5537 8.05288 37.6357 8.18886 37.7177 8.33994C37.7997 8.49103 37.868 8.65722 37.9227 8.83853C38.0047 9.01983 38.0457 9.26157 38.0457 9.56374C38.0457 9.68461 38.032 9.80548 38.0047 9.92635C38.0047 10.0472 38.0047 10.153 38.0047 10.2436C38.0047 10.4249 38.0457 10.5156 38.1277 10.5156L38.1687 10.7875C38.1413 10.8178 38.1277 10.8631 38.1277 10.9235L38.2916 12.0567C38.2916 12.238 38.3053 12.3286 38.3326 12.3286V13.0085C38.36 13.0689 38.3736 13.2502 38.3736 13.5524C38.401 13.8244 38.4146 14.0661 38.4146 14.2776V14.4589H38.3736L38.3326 15.3654ZM33.3312 14.5042C33.3312 13.8999 33.3039 13.3258 33.2492 12.7819C33.2219 12.238 33.1945 11.6638 33.1672 11.0595H33.1262C33.1535 11.0293 33.1672 10.9839 33.1672 10.9235L33.0852 9.83569H33.0032L32.9622 9.56374C32.9622 9.38244 32.9486 9.20113 32.9212 9.01983C32.9212 8.80831 32.9212 8.6119 32.9212 8.43059H32.8393C32.8393 8.27951 32.8119 8.20397 32.7573 8.20397H32.6753C32.6479 8.20397 32.5796 8.12842 32.4703 7.97734C32.3883 7.82625 32.279 7.66006 32.1423 7.47875C32.033 7.29745 31.9374 7.13126 31.8554 6.98017C31.7734 6.82908 31.7324 6.75354 31.7324 6.75354H31.6504C31.6231 6.72332 31.5821 6.69311 31.5274 6.66289C31.4727 6.60246 31.3771 6.5118 31.2404 6.39094L30.9945 6.30028V6.20963C30.9125 6.20963 30.8578 6.22474 30.8305 6.25496V6.16431C30.7485 6.19452 30.5845 6.20963 30.3385 6.20963L29.6826 6.30028C28.5894 6.81398 28.0291 7.07082 28.0018 7.07082L27.8788 7.11615C27.8788 7.17658 27.8651 7.2068 27.8378 7.2068C27.5918 7.41832 27.3732 7.62984 27.1819 7.84136C26.9906 8.05288 26.8949 8.4457 26.8949 9.01983C26.7583 9.17091 26.6899 9.38244 26.6899 9.65439L26.608 11.7394L26.444 12.9178V15.3654C26.444 15.4259 26.4576 15.4712 26.485 15.5014V16.8159C26.567 16.9669 26.608 17.2389 26.608 17.6317C26.608 17.8432 26.5806 18.0397 26.526 18.221C26.4986 18.4023 26.485 18.7347 26.485 19.2181C26.485 19.3088 26.485 19.3843 26.485 19.4448C26.5123 19.5052 26.526 19.5656 26.526 19.6261H26.6489V21.3484H26.7309L26.7719 21.5297C26.8266 22.2247 26.9496 22.9197 27.1409 23.6147C27.3595 24.2795 27.7012 24.7781 28.1658 25.1105L28.2478 25.2011C28.3844 25.2918 28.5484 25.3673 28.7397 25.4278C28.931 25.458 29.1223 25.5033 29.3136 25.5637L29.5596 25.6091C29.587 25.5788 29.6143 25.5637 29.6416 25.5637V25.6091C29.6963 25.6091 29.7509 25.6242 29.8056 25.6544C29.8876 25.6544 29.9559 25.6544 30.0106 25.6544C30.2839 25.6544 30.4889 25.6091 30.6255 25.5184L30.8305 25.4731C30.9398 25.4127 31.0901 25.3371 31.2814 25.2465C31.5001 25.1558 31.6094 25.0652 31.6094 24.9745L32.3063 24.3399V24.2493L32.5933 23.8867C32.6753 23.796 32.7163 23.7054 32.7163 23.6147H32.7573C32.7846 23.5845 32.7983 23.509 32.7983 23.3881L33.0442 22.6629C33.0442 22.3909 33.0579 22.2398 33.0852 22.2096L33.1672 21.6204L33.3312 19.7167C33.3312 19.5354 33.3175 19.3692 33.2902 19.2181C33.2902 19.0368 33.2902 18.8706 33.2902 18.7195C33.3175 18.6893 33.3312 18.5382 33.3312 18.2663V17.4504C33.3312 17.118 33.3449 16.9216 33.3722 16.8612L33.4132 16C33.4132 15.8489 33.3995 15.7129 33.3722 15.5921C33.3722 15.441 33.3585 15.2899 33.3312 15.1388V14.5042ZM32.6753 18.0397V18.8102H32.6343C32.6343 19.0519 32.6343 19.339 32.6343 19.6714C32.6616 19.9736 32.6753 20.2455 32.6753 20.4873V21.2125C32.6753 21.5751 32.6616 21.8017 32.6343 21.8923L32.3063 22.9802C32.279 23.0104 32.2653 23.1161 32.2653 23.2974C32.0467 23.7205 31.8827 23.932 31.7734 23.932V23.9773C31.746 24.0076 31.705 24.0378 31.6504 24.068C31.6231 24.068 31.6094 24.0982 31.6094 24.1586H31.4864C31.4864 24.2191 31.4727 24.2493 31.4454 24.2493H31.3634L31.3224 24.3853L29.4776 24.7026L29.3136 24.6119C29.0403 24.5515 28.767 24.4306 28.4937 24.2493C28.2478 24.068 28.1248 23.8716 28.1248 23.6601H28.0838C28.0291 23.509 27.9745 23.373 27.9198 23.2521C27.8651 23.1313 27.8105 22.9953 27.7558 22.8442L27.7148 22.5269L27.6328 21.8923C27.6328 21.8319 27.6192 21.8017 27.5918 21.8017C27.5918 21.7715 27.5918 21.7262 27.5918 21.6657H27.5508C27.5508 21.5146 27.5372 21.3636 27.5098 21.2125C27.5098 21.0614 27.5098 20.9103 27.5098 20.7592H27.4689C27.4415 20.6081 27.4279 20.4721 27.4279 20.3513C27.4279 20.2002 27.4279 20.0491 27.4279 19.898L27.3869 18.3116H27.3049L27.2639 17.0425C27.1272 16.4986 27.0589 15.9547 27.0589 15.4108C27.0589 14.9575 27.0999 14.5496 27.1819 14.187L27.0999 14.051H27.1409C27.1682 14.0208 27.1819 13.7941 27.1819 13.3711V13.3258L27.1409 13.3711L27.1819 13.3258L27.2229 11.8754C27.2229 11.8149 27.3459 11.1199 27.5918 9.79037H27.6738C27.6738 9.60906 27.6602 9.50331 27.6328 9.47309H27.7148V9.20113L27.7968 8.92918C27.8515 8.86874 27.8925 8.7932 27.9198 8.70255C27.9471 8.6119 27.9881 8.55146 28.0428 8.52125V8.43059C28.2888 8.15864 28.5347 7.93201 28.7807 7.75071C29.0267 7.56941 29.341 7.47875 29.7236 7.47875C30.2155 7.47875 30.5982 7.5543 30.8715 7.70538C31.1721 7.82625 31.4044 7.97734 31.5684 8.15864C31.7324 8.30972 31.8417 8.46081 31.8964 8.6119C31.9783 8.73277 32.0467 8.7932 32.1013 8.7932L32.1423 8.92918C32.1697 9.01983 32.1833 9.12559 32.1833 9.24646C32.1833 9.33711 32.197 9.42776 32.2243 9.51841H32.2653C32.2653 9.76015 32.279 10.0019 32.3063 10.2436C32.3336 10.4551 32.3473 10.6818 32.3473 10.9235L32.4293 12.238C32.5386 12.5703 32.5933 12.9632 32.5933 13.4164C32.6206 13.8697 32.6343 14.2776 32.6343 14.6402H32.6753C32.6479 14.6704 32.6343 14.7007 32.6343 14.7309L32.6753 15.8187H32.7573C32.7299 15.8489 32.7163 15.8791 32.7163 15.9093L32.6753 16.0453H32.7573L32.7163 16.4533V18.0397H32.6753Z" fill="#CDDAE6"/>
<path d="M59.9657 11.2408L59.9247 9.88102C59.9247 9.69972 59.9111 9.51841 59.8837 9.33711C59.8564 9.12559 59.8291 8.9745 59.8018 8.88385V8.52125C59.7744 8.40038 59.7061 8.17375 59.5968 7.84136C59.5148 7.50897 59.4191 7.17658 59.3098 6.84419C59.2005 6.48159 59.0912 6.17941 58.9818 5.93768C58.8998 5.66572 58.8589 5.52975 58.8589 5.52975V5.34844L58.5309 4.80453C58.5036 4.7441 58.4762 4.69877 58.4489 4.66855C58.4489 4.60812 58.4352 4.54769 58.4079 4.48725L58.3259 4.3966C58.1346 4.15486 57.9843 3.91312 57.875 3.67139C57.7656 3.39943 57.6837 3.18791 57.629 3.03683H57.547V2.90085L56.5631 1.94901C56.5358 1.91879 56.5085 1.88857 56.4811 1.85836C56.4811 1.82814 56.4675 1.79792 56.4401 1.76771L56.1942 1.67705C56.1395 1.5864 55.8799 1.45043 55.4152 1.26912C55.1146 1.14825 54.896 1.0576 54.7593 0.997167C54.65 0.936732 54.568 0.891406 54.5133 0.861189C54.4587 0.800755 54.404 0.755431 54.3494 0.725214C54.322 0.694995 54.24 0.649669 54.1034 0.589236L52.5046 0.0906531L51.6847 0.0453252C51.3567 0.0453252 51.0697 0.0906513 50.8238 0.181303L49.5119 0.226629V0.317282L48.856 0.362607L47.6671 0.679886V0.77054L47.4621 0.861189L47.2162 0.951843C47.1615 1.01228 46.9292 1.14825 46.5192 1.35978H46.4372C46.4099 1.35978 46.3962 1.38999 46.3962 1.45042C46.1503 1.51086 46.0136 1.5864 45.9863 1.67705C45.9863 1.76771 45.9453 1.81303 45.8633 1.81303V1.94901C45.8086 2.00944 45.7403 2.06988 45.6583 2.13031C45.6037 2.19075 45.549 2.25118 45.4943 2.31161L45.1254 2.71955V2.8102C45.0707 2.87063 45.0161 2.93107 44.9614 2.9915C44.9067 3.02172 44.8658 3.05194 44.8384 3.08215V3.21813C44.8111 3.21813 44.7701 3.24835 44.7154 3.30878V3.39943L44.3055 3.85269C43.8955 4.45704 43.6905 4.75921 43.6905 4.75921L43.6086 4.94051C43.5266 4.94051 43.4992 4.98584 43.5266 5.07649C43.5539 5.13692 43.4446 5.30312 43.1986 5.57507V5.66572C43.1166 5.93768 42.98 6.28517 42.7887 6.70821C42.5973 7.10104 42.5153 7.31256 42.5427 7.34278L42.2967 8.20397L42.2147 8.88385L42.1327 9.29179C42.1327 9.322 42.1054 9.4882 42.0507 9.79037C42.0234 10.0623 41.9824 10.4551 41.9277 10.9688L41.8458 11.6941L41.7638 12.1926L41.6818 12.6006C41.6544 12.7517 41.6408 12.9027 41.6408 13.0538C41.6408 13.2049 41.6408 13.356 41.6408 13.5071V14.3229L41.3128 16.3173L41.3948 18.1303C41.4221 18.2814 41.4358 18.4174 41.4358 18.5382C41.4358 18.6591 41.4358 18.78 41.4358 18.9008L41.3948 19.0368C41.4221 19.0368 41.4358 19.067 41.4358 19.1275H41.3948C41.3948 19.1879 41.3811 19.2332 41.3538 19.2635C41.3538 19.2937 41.3538 19.3239 41.3538 19.3541C41.3538 19.6563 41.4085 19.8678 41.5178 19.9887L41.5588 21.6204H41.6408L41.6818 22.119L41.7638 22.7082H41.8458V22.8442L41.9277 23.4334L42.4607 25.0198V25.2011H42.5427L42.5837 25.3371C42.5837 25.3975 42.5837 25.4429 42.5837 25.4731C42.611 25.4731 42.6247 25.5033 42.6247 25.5637H42.6657C42.693 25.594 42.816 25.881 43.0346 26.4249L43.0756 26.5156C43.0756 26.6969 43.1303 26.7875 43.2396 26.7875C43.3489 26.7573 43.4036 26.8933 43.4036 27.1955H43.4446C43.4992 27.2559 43.5129 27.3012 43.4856 27.3314C43.4856 27.3314 43.5402 27.3919 43.6496 27.5127V27.6034C43.7042 27.6638 43.7725 27.7092 43.8545 27.7394V27.8754C43.9092 27.9358 43.9502 27.9811 43.9775 28.0113C44.0322 28.0113 44.1552 28.1473 44.3465 28.4193L44.7564 28.8725V29.0085C44.7838 29.0387 44.8111 29.0689 44.8384 29.0991C44.8658 29.0991 44.8931 29.1143 44.9204 29.1445V29.2351C45.1391 29.4164 45.344 29.6431 45.5353 29.915C45.754 30.1568 45.9863 30.3532 46.2323 30.5042V30.6402C46.3143 30.6402 46.3962 30.6855 46.4782 30.7762L48.282 31.4561L48.651 31.5467C48.651 31.577 48.7467 31.6072 48.938 31.6374C49.1566 31.6676 49.3889 31.6978 49.6349 31.728C49.8809 31.7583 50.1132 31.7885 50.3318 31.8187C50.5778 31.8187 50.7281 31.8187 50.7828 31.8187L51.3977 31.9093H51.5617L53.1195 31.5467C53.1468 31.5165 53.1742 31.5014 53.2015 31.5014C53.2288 31.5014 53.2561 31.4863 53.2835 31.4561L54.1444 31.0028C54.3904 30.8517 54.5817 30.7611 54.7183 30.7309C54.855 30.6704 54.937 30.61 54.9643 30.5496L56.1122 30.0057C56.1395 30.0057 56.1668 30.0057 56.1942 30.0057C56.2215 29.9754 56.2488 29.9603 56.2761 29.9603L56.3581 29.915C56.4948 29.7035 56.6041 29.5373 56.6861 29.4164C56.7954 29.2653 56.8911 29.1294 56.9731 29.0085C57.0824 28.8876 57.1917 28.7668 57.301 28.6459C57.4104 28.525 57.5607 28.3588 57.752 28.1473L57.834 27.83H57.916C57.916 27.7998 57.9023 27.7696 57.875 27.7394L58.5309 26.2889L58.6539 25.9717C58.7085 25.9112 58.7359 25.8659 58.7359 25.8357C58.7359 25.8055 58.7632 25.7601 58.8179 25.6997L59.4328 23.4334L59.5148 22.9802L59.7198 21.8017L59.8018 21.1671C59.8018 20.9858 59.8154 20.7894 59.8427 20.5779C59.8701 20.3362 59.9111 20.1246 59.9657 19.9433V19.5807C60.0204 19.3692 60.0614 19.1426 60.0887 18.9008C60.1434 18.6591 60.198 18.4174 60.2527 18.1756C60.2527 18.0548 60.239 17.949 60.2117 17.8584C60.2117 17.7375 60.2117 17.6015 60.2117 17.4504C60.2937 17.1483 60.3347 16.831 60.3347 16.4986C60.3347 16.2568 60.321 16.0907 60.2937 16C60.2664 15.8791 60.2527 15.7583 60.2527 15.6374C60.28 15.6374 60.2937 15.6223 60.2937 15.5921C60.2937 15.5014 60.3074 15.4259 60.3347 15.3654V14.4589C60.3347 14.3078 60.321 14.1719 60.2937 14.051C60.2937 13.9301 60.2937 13.7941 60.2937 13.6431H60.2527L59.9657 11.2408ZM59.3508 15.3654C59.3235 15.7583 59.2688 16.2115 59.1868 16.7252C59.1322 17.2087 59.0638 17.7073 58.9818 18.221C58.8998 18.7347 58.8315 19.2483 58.7769 19.762C58.7222 20.2455 58.6949 20.6837 58.6949 21.0765H58.6539C58.6265 21.3787 58.5856 21.5751 58.5309 21.6657H58.4899L58.0389 23.8414L57.916 23.932L57.342 25.5184C57.2874 25.5184 57.2464 25.594 57.219 25.745C57.1917 25.8659 57.178 25.9112 57.178 25.881H57.0961C57.0961 26.0019 57.0687 26.0774 57.0141 26.1076C56.9594 26.1076 56.9321 26.1681 56.9321 26.2889L56.8501 26.5156C56.8228 26.5458 56.7954 26.5609 56.7681 26.5609L56.1532 27.83C56.0438 27.83 56.0028 27.8905 56.0302 28.0113C56.0575 28.102 56.0165 28.1473 55.9072 28.1473C55.9345 28.1775 55.9482 28.2077 55.9482 28.238C55.9209 28.2682 55.8935 28.2984 55.8662 28.3286C55.8389 28.3286 55.8115 28.3437 55.7842 28.3739V28.4646L55.1283 29.4164H55.0463C54.8276 29.6582 54.65 29.8244 54.5133 29.915C54.3767 30.0057 54.2674 30.051 54.1854 30.051V30.0963L53.8164 30.3229C53.7618 30.3229 53.6934 30.3381 53.6114 30.3683C53.5294 30.3985 53.4885 30.4438 53.4885 30.5042L52.2176 30.9122C52.0809 30.9424 51.9306 30.9575 51.7666 30.9575C51.6027 30.9575 51.4524 30.9726 51.3157 31.0028V31.0482C51.261 31.0482 51.2064 31.0633 51.1517 31.0935C51.0971 31.0935 51.0424 31.0935 50.9877 31.0935C50.7964 31.0935 50.6051 31.0935 50.4138 31.0935C50.2225 31.0633 50.0995 31.033 50.0448 31.0028L48.446 30.5496L48.364 30.4136C47.9267 30.2323 47.6124 30.0963 47.4211 30.0057C47.2572 29.8848 47.1478 29.8093 47.0932 29.779C47.0658 29.7186 47.0522 29.6884 47.0522 29.6884C47.0795 29.6884 47.0658 29.6884 47.0112 29.6884V29.6431C46.9838 29.6128 46.9429 29.5826 46.8882 29.5524C46.8335 29.5222 46.7652 29.492 46.6832 29.4618C46.6286 29.4013 46.5602 29.3409 46.4782 29.2805H46.3962L46.3553 29.1445H46.2733C46.1366 29.084 45.959 28.9178 45.7403 28.6459H45.6173C45.59 28.6157 45.5627 28.5855 45.5353 28.5552C45.5353 28.525 45.5217 28.4948 45.4943 28.4646H45.4124L44.5924 27.5581L44.5515 27.4221C44.4968 27.3919 44.4695 27.3617 44.4695 27.3314C44.4695 27.271 44.4421 27.2408 44.3875 27.2408L44.0185 26.5609L43.8955 26.5156L43.7725 26.1076V26.153C43.7452 26.153 43.6359 25.9868 43.4446 25.6544C43.2533 25.322 43.1576 25.0349 43.1576 24.7932L43.0756 24.7026L42.9936 24.4306L42.8296 23.9773L42.4197 22.4363L42.3377 21.5297C42.3377 21.1369 42.324 20.9254 42.2967 20.8952L42.2557 20.6232L42.1737 19.5807H42.0917C42.0097 18.6742 41.9687 18.1303 41.9687 17.949V17.813C42.16 16.1813 42.283 15.2899 42.3377 15.1388C42.3104 15.0784 42.2967 14.9424 42.2967 14.7309V14.187L42.4607 11.2861C42.4607 11.1048 42.447 10.9839 42.4197 10.9235L42.7887 8.65723L42.8706 8.24929L42.9526 7.97734C42.9526 7.82625 42.98 7.72049 43.0346 7.66006L43.1166 7.3881L43.4036 6.75354C43.4036 6.72332 43.4036 6.69311 43.4036 6.66289C43.4309 6.63267 43.4446 6.60246 43.4446 6.57224L43.4856 6.43626C43.8409 5.8017 44.1005 5.31822 44.2645 4.98584C44.4558 4.65345 44.5924 4.41171 44.6744 4.26062C44.7564 4.07932 44.7974 3.97356 44.7974 3.94334C44.8248 3.91313 44.8521 3.88291 44.8794 3.85269V3.76204C44.9067 3.73182 44.9341 3.71671 44.9614 3.71671L45.1254 3.35411C45.344 3.1728 45.4534 3.03683 45.4534 2.94617H45.5763L45.6583 2.8102C45.877 2.74976 46.0136 2.67422 46.0683 2.58357L46.1093 2.53824H46.0273C45.9453 2.53824 45.9043 2.50803 45.9043 2.44759C45.9316 2.38716 46.4372 2.06988 47.4211 1.49575L47.5851 1.45042C47.6124 1.45042 47.6398 1.46553 47.6671 1.49575L49.7169 1.04249C49.7715 0.982059 49.9082 0.951843 50.1268 0.951843C50.2088 0.951843 50.2908 0.96695 50.3728 0.997167C50.4548 0.997167 50.5231 0.997167 50.5778 0.997167L51.6027 1.04249C51.6573 1.04249 51.7393 1.02738 51.8486 0.997167C51.958 0.96695 52.0673 0.951843 52.1766 0.951843L54.4723 1.54108C54.4723 1.63173 54.4997 1.67705 54.5543 1.67705C54.609 1.67705 54.6637 1.69216 54.7183 1.72238V1.76771L56.2351 2.85553L56.3171 3.08215C56.3718 3.11237 56.3991 3.14259 56.3991 3.1728C56.4265 3.1728 56.4675 3.18791 56.5221 3.21813L56.5631 3.39943C56.5904 3.42965 56.6041 3.49009 56.6041 3.58074H56.6861C56.9047 4.00378 57.0414 4.26062 57.0961 4.35128C57.1507 4.44193 57.2054 4.51747 57.26 4.5779V4.66855C57.3147 4.72899 57.3557 4.75921 57.383 4.75921V4.89519C57.4377 4.89519 57.4923 4.9254 57.547 4.98584V5.07649C57.5743 5.1067 57.6017 5.12181 57.629 5.12181L58.3259 6.98017L58.4079 7.3881C58.4079 7.59962 58.4352 7.78093 58.4899 7.93201C58.5719 8.05288 58.6539 8.18886 58.7359 8.33994C58.8179 8.49103 58.8862 8.65722 58.9408 8.83853C59.0228 9.01983 59.0638 9.26157 59.0638 9.56374C59.0638 9.68461 59.0502 9.80548 59.0228 9.92635C59.0228 10.0472 59.0228 10.153 59.0228 10.2436C59.0228 10.4249 59.0638 10.5156 59.1458 10.5156L59.1868 10.7875C59.1595 10.8178 59.1458 10.8631 59.1458 10.9235L59.3098 12.0567C59.3098 12.238 59.3235 12.3286 59.3508 12.3286V13.0085C59.3781 13.0689 59.3918 13.2502 59.3918 13.5524C59.4191 13.8244 59.4328 14.0661 59.4328 14.2776V14.4589H59.3918L59.3508 15.3654ZM54.3494 14.5042C54.3494 13.8999 54.322 13.3258 54.2674 12.7819C54.24 12.238 54.2127 11.6638 54.1854 11.0595H54.1444C54.1717 11.0293 54.1854 10.9839 54.1854 10.9235L54.1034 9.83569H54.0214L53.9804 9.56374C53.9804 9.38244 53.9667 9.20113 53.9394 9.01983C53.9394 8.80831 53.9394 8.6119 53.9394 8.43059H53.8574C53.8574 8.27951 53.8301 8.20397 53.7754 8.20397H53.6934C53.6661 8.20397 53.5978 8.12842 53.4885 7.97734C53.4065 7.82625 53.2971 7.66006 53.1605 7.47875C53.0512 7.29745 52.9555 7.13126 52.8735 6.98017C52.7915 6.82908 52.7505 6.75354 52.7505 6.75354H52.6685C52.6412 6.72332 52.6002 6.69311 52.5456 6.66289C52.4909 6.60246 52.3952 6.5118 52.2586 6.39094L52.0126 6.30028V6.20963C51.9306 6.20963 51.876 6.22474 51.8486 6.25496V6.16431C51.7666 6.19452 51.6027 6.20963 51.3567 6.20963L50.7008 6.30028C49.6076 6.81398 49.0473 7.07082 49.02 7.07082L48.897 7.11615C48.897 7.17658 48.8833 7.2068 48.856 7.2068C48.61 7.41832 48.3914 7.62984 48.2 7.84136C48.0087 8.05288 47.9131 8.4457 47.9131 9.01983C47.7764 9.17091 47.7081 9.38244 47.7081 9.65439L47.6261 11.7394L47.4621 12.9178V15.3654C47.4621 15.4259 47.4758 15.4712 47.5031 15.5014V16.8159C47.5851 16.9669 47.6261 17.2389 47.6261 17.6317C47.6261 17.8432 47.5988 18.0397 47.5441 18.221C47.5168 18.4023 47.5031 18.7347 47.5031 19.2181C47.5031 19.3088 47.5031 19.3843 47.5031 19.4448C47.5305 19.5052 47.5441 19.5656 47.5441 19.6261H47.6671V21.3484H47.7491L47.7901 21.5297C47.8447 22.2247 47.9677 22.9197 48.159 23.6147C48.3777 24.2795 48.7193 24.7781 49.1839 25.1105L49.2659 25.2011C49.4026 25.2918 49.5666 25.3673 49.7579 25.4278C49.9492 25.458 50.1405 25.5033 50.3318 25.5637L50.5778 25.6091C50.6051 25.5788 50.6324 25.5637 50.6598 25.5637V25.6091C50.7144 25.6091 50.7691 25.6242 50.8238 25.6544C50.9057 25.6544 50.9741 25.6544 51.0287 25.6544C51.302 25.6544 51.507 25.6091 51.6437 25.5184L51.8486 25.4731C51.958 25.4127 52.1083 25.3371 52.2996 25.2465C52.5182 25.1558 52.6275 25.0652 52.6275 24.9745L53.3245 24.3399V24.2493L53.6114 23.8867C53.6934 23.796 53.7344 23.7054 53.7344 23.6147H53.7754C53.8027 23.5845 53.8164 23.509 53.8164 23.3881L54.0624 22.6629C54.0624 22.3909 54.0761 22.2398 54.1034 22.2096L54.1854 21.6204L54.3494 19.7167C54.3494 19.5354 54.3357 19.3692 54.3084 19.2181C54.3084 19.0368 54.3084 18.8706 54.3084 18.7195C54.3357 18.6893 54.3494 18.5382 54.3494 18.2663V17.4504C54.3494 17.118 54.363 16.9216 54.3904 16.8612L54.4314 16C54.4314 15.8489 54.4177 15.7129 54.3904 15.5921C54.3904 15.441 54.3767 15.2899 54.3494 15.1388V14.5042ZM53.6934 18.0397V18.8102H53.6524C53.6524 19.0519 53.6524 19.339 53.6524 19.6714C53.6798 19.9736 53.6934 20.2455 53.6934 20.4873V21.2125C53.6934 21.5751 53.6798 21.8017 53.6524 21.8923L53.3245 22.9802C53.2971 23.0104 53.2835 23.1161 53.2835 23.2974C53.0648 23.7205 52.9009 23.932 52.7915 23.932V23.9773C52.7642 24.0076 52.7232 24.0378 52.6685 24.068C52.6412 24.068 52.6275 24.0982 52.6275 24.1586H52.5046C52.5046 24.2191 52.4909 24.2493 52.4636 24.2493H52.3816L52.3406 24.3853L50.4958 24.7026L50.3318 24.6119C50.0585 24.5515 49.7852 24.4306 49.5119 24.2493C49.2659 24.068 49.1429 23.8716 49.1429 23.6601H49.1019C49.0473 23.509 48.9926 23.373 48.938 23.2521C48.8833 23.1313 48.8286 22.9953 48.774 22.8442L48.733 22.5269L48.651 21.8923C48.651 21.8319 48.6373 21.8017 48.61 21.8017C48.61 21.7715 48.61 21.7262 48.61 21.6657H48.569C48.569 21.5146 48.5553 21.3636 48.528 21.2125C48.528 21.0614 48.528 20.9103 48.528 20.7592H48.487C48.4597 20.6081 48.446 20.4721 48.446 20.3513C48.446 20.2002 48.446 20.0491 48.446 19.898L48.405 18.3116H48.323L48.282 17.0425C48.1454 16.4986 48.0771 15.9547 48.0771 15.4108C48.0771 14.9575 48.1181 14.5496 48.2 14.187L48.1181 14.051H48.159C48.1864 14.0208 48.2 13.7941 48.2 13.3711V13.3258L48.159 13.3711L48.2 13.3258L48.241 11.8754C48.241 11.8149 48.364 11.1199 48.61 9.79037H48.692C48.692 9.60906 48.6783 9.50331 48.651 9.47309H48.733V9.20113L48.815 8.92918C48.8696 8.86874 48.9106 8.7932 48.938 8.70255C48.9653 8.6119 49.0063 8.55146 49.0609 8.52125V8.43059C49.3069 8.15864 49.5529 7.93201 49.7989 7.75071C50.0448 7.56941 50.3591 7.47875 50.7418 7.47875C51.2337 7.47875 51.6163 7.5543 51.8896 7.70538C52.1903 7.82625 52.4226 7.97734 52.5866 8.15864C52.7505 8.30972 52.8599 8.46081 52.9145 8.6119C52.9965 8.73277 53.0648 8.7932 53.1195 8.7932L53.1605 8.92918C53.1878 9.01983 53.2015 9.12559 53.2015 9.24646C53.2015 9.33711 53.2152 9.42776 53.2425 9.51841H53.2835C53.2835 9.76015 53.2971 10.0019 53.3245 10.2436C53.3518 10.4551 53.3655 10.6818 53.3655 10.9235L53.4475 12.238C53.5568 12.5703 53.6114 12.9632 53.6114 13.4164C53.6388 13.8697 53.6524 14.2776 53.6524 14.6402H53.6934C53.6661 14.6704 53.6524 14.7007 53.6524 14.7309L53.6934 15.8187H53.7754C53.7481 15.8489 53.7344 15.8791 53.7344 15.9093L53.6934 16.0453H53.7754L53.7344 16.4533V18.0397H53.6934Z" fill="#CDDAE6"/>
<path d="M79.918 9.60907L79.836 9.56374L79.918 9.15581H79.836L79.795 6.30028C79.795 5.87724 79.7404 5.52975 79.631 5.25779L79.59 5.07649L79.2621 4.07932L78.7701 3.03683L78.4832 2.85553V2.71955C78.4558 2.68933 78.4285 2.67422 78.4012 2.67422C78.3738 2.644 78.3465 2.61379 78.3192 2.58357V2.49292C78.2919 2.49292 78.1962 2.43248 78.0322 2.31161C77.8956 2.16053 77.7862 1.96412 77.7043 1.72238H77.5813C77.5813 1.63173 77.472 1.54108 77.2533 1.45042L76.5974 1.13315C76.5974 1.07271 76.5837 1.04249 76.5564 1.04249C76.5564 1.01228 76.4607 0.96695 76.2694 0.906515L75.2855 0.453257V0.362607L75.0396 0.271953C74.8209 0.271953 74.5886 0.256845 74.3426 0.226629C74.0967 0.166195 73.8643 0.135978 73.6457 0.135978L72.6618 0.0906531C72.5252 0.0906531 72.3475 0.105761 72.1289 0.135978C71.9102 0.135978 71.6096 0.135978 71.227 0.135978L69.7511 0.181303L69.1772 0.271953C68.9586 0.362605 68.6716 0.453258 68.3163 0.54391C67.9883 0.604343 67.715 0.634561 67.4964 0.634561V0.679886L67.1684 0.861189C67.1411 0.861189 67.0454 0.921624 66.8815 1.04249C66.7175 1.16336 66.4988 1.2238 66.2255 1.2238V1.26912C66.1435 1.29934 66.0616 1.32956 65.9796 1.35978C65.9249 1.38999 65.8702 1.42021 65.8156 1.45042L65.7336 1.54108C65.6516 1.54108 65.5423 1.60151 65.4056 1.72238C65.269 1.84325 65.2007 1.91879 65.2007 1.94901H65.0777C64.9137 2.19075 64.7087 2.40227 64.4627 2.58357C64.2441 2.76487 64.0938 2.90085 64.0118 2.9915L63.3969 4.12465C63.3422 4.18508 63.3012 4.2153 63.2739 4.2153C63.2465 4.18508 63.2055 4.2153 63.1509 4.30595C63.1236 4.36638 63.0689 4.50236 62.9869 4.71388C62.9322 4.89518 62.8366 5.21246 62.6999 5.66572H62.6179C62.6179 5.99811 62.5906 6.3305 62.5359 6.66289C62.4813 6.99528 62.454 7.3881 62.454 7.84136C62.454 8.0831 62.4676 8.27951 62.495 8.43059C62.5496 8.55146 62.5769 8.65722 62.5769 8.74788V9.92635L62.6179 9.88102C62.6726 9.88102 62.6999 9.89613 62.6999 9.92635C62.7273 9.92635 62.7683 9.92635 62.8229 9.92635V9.83569C62.9596 9.86591 63.0826 9.88102 63.1919 9.88102C63.3285 9.88102 63.4652 9.88102 63.6018 9.88102C63.9025 9.91124 64.2578 9.91124 64.6677 9.88102C65.0777 9.8508 65.5423 9.83569 66.0616 9.83569L68.1113 9.88102C68.248 9.88102 68.3436 9.79037 68.3983 9.60907H68.4393C68.5486 9.33711 68.6033 9.20113 68.6033 9.20113C68.6306 9.17092 68.6716 9.1407 68.7263 9.11048L68.8083 8.83853C68.8356 8.80831 68.8766 8.77809 68.9312 8.74788C68.9859 8.68744 69.0406 8.62701 69.0952 8.56657V8.47592C69.2045 8.35505 69.3002 8.21908 69.3822 8.06799C69.4642 7.9169 69.5872 7.78093 69.7511 7.66006C69.9425 7.50897 70.2158 7.3881 70.5711 7.29745C70.9263 7.2068 71.432 7.16147 72.0879 7.16147L72.2519 7.2068V7.29745L73.0308 7.5694C73.0854 7.66006 73.1264 7.72049 73.1538 7.75071C73.1811 7.75071 73.2494 7.81114 73.3587 7.93201H73.3997L73.6867 8.6119C73.6867 8.91407 73.6867 9.18602 73.6867 9.42776C73.714 9.63928 73.7277 9.82059 73.7277 9.97167C73.7277 10.0623 73.714 10.1379 73.6867 10.1983C73.6867 10.2285 73.6867 10.2738 73.6867 10.3343L73.6457 10.7422C73.591 10.8026 73.5637 10.8782 73.5637 10.9688C73.591 11.0595 73.5637 11.1652 73.4817 11.2861C73.4271 11.407 73.3041 11.543 73.1128 11.6941C72.9215 11.8451 72.5798 12.0113 72.0879 12.1926H71.8829L70.3661 12.3739V12.4646L70.1201 12.3739H69.1772C69.1499 12.3739 69.1225 12.3739 69.0952 12.3739C69.0679 12.3437 69.0269 12.3286 68.9722 12.3286C68.9176 12.3286 68.8492 12.3437 68.7673 12.3739C68.6853 12.3739 68.5896 12.3739 68.4803 12.3739H68.3573C68.3026 12.3739 68.248 12.4042 68.1933 12.4646L68.1113 12.5099C68.1113 12.5704 68.1113 12.6157 68.1113 12.6459C68.1387 12.6761 68.1523 12.7063 68.1523 12.7365C68.1523 12.797 68.1387 12.8574 68.1113 12.9178C68.1113 12.9783 68.1113 13.0387 68.1113 13.0992L68.1523 13.2805C68.125 13.492 68.0977 13.8244 68.0703 14.2776C68.0703 14.7007 68.0703 15.0784 68.0703 15.4108C68.0703 15.5014 68.0703 15.6072 68.0703 15.728C68.0977 15.8489 68.1113 16 68.1113 16.1813C68.1113 16.3626 68.0977 16.5741 68.0703 16.8159C68.0703 17.0576 68.0703 17.3144 68.0703 17.5864V17.9037C68.0703 17.9943 68.0567 18.085 68.0293 18.1756C68.002 18.2361 67.9883 18.2965 67.9883 18.3569C67.9883 18.4174 68.0157 18.4778 68.0703 18.5382V18.5836C68.125 18.5836 68.166 18.5685 68.1933 18.5382C68.248 18.6591 68.289 18.7649 68.3163 18.8555L68.3983 18.9008V18.7649C68.453 18.7649 68.5076 18.78 68.5623 18.8102C68.6443 18.8102 68.7263 18.8102 68.8083 18.8102C68.8629 18.8102 68.9039 18.8102 68.9312 18.8102C68.9586 18.78 68.9996 18.7649 69.0542 18.7649H71.104L71.8829 18.8555C71.9376 18.8857 71.9786 18.916 72.0059 18.9462C72.0606 18.9462 72.1152 18.9613 72.1699 18.9915V19.0368C72.3339 19.0368 72.4295 19.0822 72.4568 19.1728C72.4842 19.2635 72.5252 19.339 72.5798 19.3994H72.7028C72.7028 19.4297 72.7165 19.4599 72.7438 19.4901L73.1538 19.762V19.8527C73.2084 19.9131 73.4134 20.5175 73.7687 21.6657V22.5269L73.6867 22.9802C73.4681 23.4032 73.3451 23.6298 73.3177 23.6601L73.1948 23.7054C73.1948 23.7658 73.1674 23.8263 73.1128 23.8867H73.0308L72.7438 23.9773L72.5388 24.068V24.1586C71.8009 24.4004 71.4183 24.5212 71.391 24.5212C71.2543 24.5212 71.104 24.5061 70.94 24.4759C70.8034 24.4457 70.7077 24.4004 70.653 24.3399L70.4891 24.2946C70.3524 24.2946 70.2568 24.2644 70.2021 24.204L70.0791 24.1586L69.9971 24.0227C70.0245 24.0227 69.9561 24.0076 69.7921 23.9773C69.6282 23.9169 69.5462 23.8263 69.5462 23.7054H69.4232C69.3959 23.6752 69.3822 23.6449 69.3822 23.6147H69.3002L69.0542 23.3428V23.2521C69.0269 23.2219 68.9312 23.0557 68.7673 22.7535C68.6306 22.4514 68.5623 22.2852 68.5623 22.255V22.2096C68.5623 22.1794 68.5486 22.1492 68.5213 22.119L68.0293 21.5751C67.8654 21.5751 67.7014 21.5751 67.5374 21.5751C67.3734 21.5449 67.2094 21.5297 67.0454 21.5297C66.9361 21.5297 66.7721 21.56 66.5535 21.6204C66.3622 21.6506 66.0889 21.6959 65.7336 21.7564H65.3646L63.5608 21.9377L62.8639 22.0283L62.8229 21.8923V25.3371L62.7819 25.2918L63.3559 28.1473L63.4379 28.4646C63.6565 29.1596 63.8205 29.5826 63.9298 29.7337C64.0664 29.8848 64.1758 29.9603 64.2578 29.9603L64.2988 29.915V30.0057H64.3807L64.4627 30.187C64.4901 30.2172 64.5584 30.2776 64.6677 30.3683C64.777 30.4287 64.8317 30.4891 64.8317 30.5496H64.9547L65.5286 30.9575C65.5833 30.9877 65.6379 31.0028 65.6926 31.0028C65.7473 31.0028 65.8702 31.0331 66.0616 31.0935L68.7673 31.6374V31.728L69.1362 31.7734L70.3661 31.864C70.3934 31.864 70.4207 31.864 70.4481 31.864C70.4754 31.8338 70.5027 31.8187 70.5301 31.8187V31.864C71.1313 31.864 71.7463 31.8187 72.3749 31.728C73.0308 31.6072 73.673 31.4561 74.3016 31.2748L75.6545 31.0482V30.9575C75.6818 30.9273 75.7091 30.9122 75.7365 30.9122C75.8185 30.9122 75.8868 30.8971 75.9415 30.8669L76.0234 30.7762L75.9824 30.8215C76.0098 30.8215 76.1054 30.7762 76.2694 30.6856C76.4334 30.5949 76.611 30.5042 76.8024 30.4136C76.9937 30.2927 77.1576 30.187 77.2943 30.0963C77.431 30.0057 77.4993 29.9452 77.4993 29.915L77.8272 29.5524L78.1552 29.0085C78.1825 28.9783 78.2235 28.9632 78.2782 28.9632L78.3192 28.8272C78.5925 28.3135 78.7701 27.9509 78.8521 27.7394C78.9341 27.5279 78.9751 27.3919 78.9751 27.3314H79.0161C79.0161 27.271 79.0161 27.2257 79.0161 27.1955C79.0434 27.135 79.0571 27.0746 79.0571 27.0142H79.0981C79.1254 26.9839 79.1528 26.8933 79.1801 26.7422C79.2348 26.5609 79.3167 26.3192 79.4261 26.017H79.5081C79.5081 25.9868 79.4807 25.881 79.4261 25.6997C79.3987 25.5184 79.3851 25.4127 79.3851 25.3824H79.4261C79.4534 25.3522 79.4671 25.1709 79.4671 24.8385H79.5081C79.5081 24.7479 79.4944 24.6874 79.4671 24.6572L79.672 22.8442L79.754 21.0312C79.7814 21.0009 79.795 20.9707 79.795 20.9405H79.754L79.795 20.8952C79.8224 20.865 79.836 20.729 79.836 20.4873C79.836 20.3362 79.8224 20.2002 79.795 20.0793C79.795 19.9282 79.795 19.8225 79.795 19.762L79.836 18.6289V16.7252H79.918C79.8907 16.695 79.877 16.6648 79.877 16.6346H79.836C79.836 16.5439 79.8497 16.4986 79.877 16.4986L79.918 15.6374C79.9453 15.6072 79.959 15.4561 79.959 15.1841L79.918 14.051C79.918 13.9906 79.9317 13.9452 79.959 13.915L79.918 12.4646H79.836C79.8633 12.4042 79.877 12.3437 79.877 12.2833C79.877 12.2229 79.8907 12.1624 79.918 12.102H79.836V12.0113C79.836 11.7696 79.8633 11.5732 79.918 11.4221C79.9727 11.271 80 11.1199 80 10.9688C80 10.7271 79.9453 10.5005 79.836 10.289V9.60907H79.918ZM79.0981 11.1048C79.0708 11.2559 79.0434 11.3919 79.0161 11.5127C79.0161 11.6336 79.0161 11.7243 79.0161 11.7847C79.0161 11.8451 79.0161 12.1171 79.0161 12.6006C79.0161 13.0538 79.0298 13.7035 79.0571 14.5496H79.0161L79.0571 14.7309C79.0571 15.0028 79.0571 15.2748 79.0571 15.5467C79.0844 15.8187 79.0981 16.0907 79.0981 16.3626H79.0571V16.8612C79.0571 16.9216 79.0434 16.9821 79.0161 17.0425C79.0161 17.0727 79.0161 17.118 79.0161 17.1785H79.0571C79.0298 17.39 79.0161 17.5562 79.0161 17.6771C79.0161 17.7677 79.0161 17.8281 79.0161 17.8584L79.0571 17.949C79.0298 18.5231 79.0024 18.9764 78.9751 19.3088C78.9751 19.611 78.9751 19.7923 78.9751 19.8527V20.1246H78.8931L78.4422 23.7054C78.4695 23.7356 78.4832 23.8262 78.4832 23.9773L78.4422 24.4306L78.3602 24.9292C78.3602 25.0198 78.3465 25.1105 78.3192 25.2011C78.3192 25.2918 78.3192 25.3673 78.3192 25.4278H78.2782C78.2509 25.4882 78.2372 25.5486 78.2372 25.6091C78.2372 25.6695 78.2235 25.7299 78.1962 25.7904L78.1142 26.017C78.0869 26.1681 78.0322 26.4249 77.9502 26.7875C77.8956 27.1501 77.7999 27.5883 77.6633 28.102H77.5813V28.1926C77.3626 28.4948 77.185 28.7365 77.0483 28.9178C76.939 29.0689 76.857 29.1596 76.8024 29.1898V29.3258C76.7204 29.3258 76.6657 29.356 76.6384 29.4164C76.611 29.4769 76.5837 29.5222 76.5564 29.5524H76.4744C76.4471 29.5826 76.2967 29.6884 76.0234 29.8697C75.7775 30.051 75.5315 30.1416 75.2855 30.1416L74.6706 30.4136C74.6433 30.4136 74.6159 30.4287 74.5886 30.4589C74.5613 30.4589 74.5203 30.4589 74.4656 30.4589V30.5042C74.329 30.5345 74.1786 30.5647 74.0147 30.5949C73.8507 30.5949 73.5637 30.6704 73.1538 30.8215L72.8668 30.8669C72.8121 30.8669 72.7438 30.8669 72.6618 30.8669C72.6072 30.8669 72.5115 30.882 72.3749 30.9122V30.9575C71.9376 31.0179 71.5959 31.0633 71.35 31.0935C71.104 31.1237 70.9263 31.1388 70.817 31.1388L70.735 31.0935H70.1201C70.0381 31.0633 69.8468 31.0482 69.5462 31.0482L68.2343 30.8669C68.2343 30.8366 68.2206 30.8064 68.1933 30.7762L67.6194 30.6856V30.5949C67.5374 30.5949 67.1548 30.4589 66.4715 30.187V30.1416L65.3236 29.5524L65.0367 29.3711C65.0367 29.2805 64.941 29.1445 64.7497 28.9632C64.5584 28.7517 64.3944 28.5703 64.2578 28.4193L63.8478 27.6034C63.8478 27.4825 63.8341 27.407 63.8068 27.3768H63.7658C63.7658 27.3163 63.7521 27.2559 63.7248 27.1955C63.7248 27.1048 63.7248 27.0293 63.7248 26.9688H63.6838C63.5198 26.2436 63.4242 25.8206 63.3969 25.6997C63.3969 25.5486 63.3832 25.3975 63.3559 25.2465V24.6572H63.2739L63.3559 24.3853H63.2739L63.3559 24.2493V23.3881C63.3559 23.3277 63.3695 23.2672 63.3969 23.2068C63.4242 23.1464 63.4379 23.0708 63.4379 22.9802H63.5198V22.8442C63.6292 22.814 63.7112 22.7989 63.7658 22.7989C63.8205 22.7989 63.8888 22.7989 63.9708 22.7989C64.0528 22.7989 64.1758 22.7989 64.3398 22.7989C64.5311 22.7687 64.818 22.7384 65.2007 22.7082L65.5286 22.6629C65.5833 22.6629 65.7746 22.6629 66.1026 22.6629C66.4578 22.6629 66.9498 22.6478 67.5784 22.6176L67.9064 22.7082C67.9883 22.7989 68.0293 22.95 68.0293 23.1615C68.0293 23.373 68.0567 23.5392 68.1113 23.6601L68.1933 23.9773L68.3163 24.0227L68.4803 24.6119C68.6443 24.8234 68.7673 24.9896 68.8492 25.1105C68.9586 25.2011 69.0269 25.2616 69.0542 25.2918H69.1362C69.1635 25.322 69.1772 25.3522 69.1772 25.3824H69.3002C69.3275 25.4127 69.3412 25.4429 69.3412 25.4731L70.2431 25.9717L70.5711 26.017C70.7897 26.017 70.9947 26.017 71.186 26.017C71.3773 25.9868 71.5823 25.9717 71.8009 25.9717V25.9263C71.8283 25.8961 71.9239 25.881 72.0879 25.881V25.7904C72.0879 25.8206 72.1016 25.8357 72.1289 25.8357C72.2109 25.8357 72.4295 25.6846 72.7848 25.3824C73.1401 25.0803 73.4681 24.763 73.7687 24.4306V24.3399C73.796 24.3097 73.8097 24.2795 73.8097 24.2493C73.837 24.2191 73.8643 24.1889 73.8917 24.1586L74.3426 23.3428C74.3426 23.2823 74.3426 23.2219 74.3426 23.1615C74.37 23.101 74.3836 23.0406 74.3836 22.9802L74.0557 19.3541C74.0557 19.2332 74.0147 19.1426 73.9327 19.0822V18.9915C73.7414 18.8706 73.6457 18.78 73.6457 18.7195L73.5227 18.6742C73.5227 18.644 73.4817 18.5836 73.3997 18.4929C73.3451 18.4023 73.2631 18.3569 73.1538 18.3569L71.7189 18.0397L70.3251 17.8584L69.5462 17.9037C69.2182 17.9037 69.0406 17.8886 69.0132 17.8584L68.9722 17.813L68.6853 14.187C68.7126 14.0359 68.7263 13.8848 68.7263 13.7337C68.7263 13.5524 68.7399 13.3862 68.7673 13.2351L68.8083 13.1898C69.1909 13.1898 69.3959 13.2049 69.4232 13.2351L70.2841 13.1898C70.3387 13.1898 70.3797 13.2049 70.4071 13.2351C70.4344 13.2351 70.4754 13.2351 70.5301 13.2351C70.5574 13.2049 70.6667 13.1898 70.858 13.1898V13.2351L70.94 13.1898C71.3226 13.1294 71.6096 13.084 71.8009 13.0538C71.9922 13.0236 72.1016 13.0085 72.1289 13.0085H72.2929C72.3475 13.0085 72.4022 13.0085 72.4568 13.0085C72.5388 12.9783 72.6072 12.9632 72.6618 12.9632V12.9178C72.8531 12.8272 73.0171 12.7668 73.1538 12.7365C73.2904 12.6761 73.3861 12.6308 73.4407 12.6006V12.5099C73.5501 12.4797 73.673 12.389 73.8097 12.238C73.9737 12.0869 74.083 11.9358 74.1377 11.7847L74.3836 10.8329C74.411 10.8026 74.4246 10.6818 74.4246 10.4703L74.3016 9.01983C74.3016 8.9594 74.3016 8.91407 74.3016 8.88385C74.329 8.82342 74.3426 8.76298 74.3426 8.70255H74.3016C74.2196 8.46081 74.1377 8.21907 74.0557 7.97734C74.001 7.70538 73.9737 7.5543 73.9737 7.52408H73.9327C73.878 7.31256 73.796 7.16147 73.6867 7.07082C73.6047 6.98017 73.5227 6.88952 73.4407 6.79887H73.3587C73.3314 6.76865 73.3177 6.73843 73.3177 6.70821H73.2767C73.2494 6.678 72.9488 6.54202 72.3749 6.30028V6.20963L71.5549 6.16431C71.473 6.13409 71.3636 6.10387 71.227 6.07365C71.0903 6.04344 70.9537 6.02833 70.817 6.02833C70.7624 6.02833 70.7214 6.04344 70.694 6.07365C70.6667 6.07365 70.6394 6.07365 70.6121 6.07365V6.11898C70.4754 6.17941 70.3524 6.22474 70.2431 6.25496C70.1338 6.28517 70.0518 6.31539 69.9971 6.34561C69.9425 6.34561 69.7102 6.42115 69.3002 6.57224C68.9176 6.72333 68.5623 7.10104 68.2343 7.70538L68.0293 8.52125C67.9747 8.52125 67.8927 8.47592 67.7834 8.38527V8.47592H67.7014V8.6119H67.5784V8.70255H67.0045C66.5125 8.82342 65.9112 8.92918 65.2007 9.01983C64.4901 9.08027 63.9025 9.11048 63.4379 9.11048H63.3559C63.3012 9.11048 63.2602 9.12559 63.2329 9.15581C63.2055 9.15581 63.1782 9.15581 63.1509 9.15581C63.0962 9.15581 63.0552 9.09537 63.0279 8.9745C63.0006 8.82342 62.9732 8.67233 62.9459 8.52125C62.9186 8.37016 62.8912 8.21908 62.8639 8.06799C62.8639 7.9169 62.8639 7.81114 62.8639 7.75071L62.8229 7.66006L62.9459 6.11898C63.2465 5.30312 63.4515 4.83475 63.5608 4.71388V4.62323C63.6155 4.5628 63.6702 4.47214 63.7248 4.35128C63.8068 4.23041 63.9025 4.09443 64.0118 3.94334L64.0938 3.89802C64.0938 3.83758 64.1758 3.70161 64.3398 3.49009C64.5311 3.27856 64.654 3.14259 64.7087 3.08215L64.9957 2.94617C65.023 2.88574 65.0367 2.85553 65.0367 2.85553C65.064 2.82531 65.0913 2.77998 65.1187 2.71955H65.2417C65.2143 2.74976 65.2416 2.71955 65.3236 2.6289C65.4056 2.50803 65.5149 2.37205 65.6516 2.22096C65.8156 2.06988 65.9932 1.9339 66.1845 1.81303C66.4032 1.66195 66.6218 1.5864 66.8405 1.5864L66.9635 1.49575L68.1523 1.17847C68.207 1.17847 68.248 1.19358 68.2753 1.2238C68.33 1.2238 68.3846 1.2238 68.4393 1.2238V1.17847C68.5213 1.14825 68.6989 1.13315 68.9722 1.13315L70.817 0.861189C70.9263 0.830972 71.022 0.815864 71.104 0.815864C71.2133 0.815864 71.309 0.815864 71.391 0.815864H71.8829H72.0059L74.0967 0.951843L75.6545 1.45042L76.8844 1.85836L77.7043 2.40227C77.7862 2.52314 77.8682 2.644 77.9502 2.76487C78.0322 2.85552 78.1142 2.94618 78.1962 3.03683V3.21813C78.3055 3.24835 78.3738 3.30878 78.4012 3.39943L78.6062 4.62323C78.6335 4.71388 78.6745 4.89518 78.7291 5.16714C78.7838 5.40888 78.8658 5.74127 78.9751 6.16431L78.9341 6.20963C78.9341 6.23985 78.9205 6.25496 78.8931 6.25496C78.8931 6.25496 78.8931 6.27007 78.8931 6.30028C78.8931 6.3305 78.9205 6.37583 78.9751 6.43626L79.1801 9.11048H79.1391L79.0981 11.1048Z" fill="#CDDAE6"/>
</svg>
