<svg width="24" height="24" viewBox="0 0 24 24" fill="none" xmlns="http://www.w3.org/2000/svg">
<path d="M12.0007 0.333252C5.56065 0.333252 0.333984 5.55992 0.333984 11.9999C0.333984 18.4399 5.56065 23.6666 12.0007 23.6666C18.4407 23.6666 23.6673 18.4399 23.6673 11.9999C23.6673 5.55992 18.4407 0.333252 12.0007 0.333252ZM12.0007 21.3333C6.85565 21.3333 2.66732 17.1449 2.66732 11.9999C2.66732 6.85492 6.85565 2.66659 12.0007 2.66659C17.1457 2.66659 21.334 6.85492 21.334 11.9999C21.334 17.1449 17.1457 21.3333 12.0007 21.3333ZM17.3557 6.84325L9.66732 14.5316L6.64565 11.5216L5.00065 13.1666L9.66732 17.8333L19.0007 8.49992L17.3557 6.84325Z" fill="#5B6771"/>
</svg>
