<svg width="196" height="50" viewBox="0 0 196 50" fill="none" xmlns="http://www.w3.org/2000/svg">
<path d="M120.907 14.9146C113.937 14.9146 108.284 20.5365 108.284 27.4691C108.284 34.4017 113.937 40.0236 120.907 40.0236C127.877 40.0236 133.53 34.4017 133.53 27.4691C133.53 20.5365 127.877 14.9146 120.907 14.9146ZM120.907 37.3673C115.412 37.3673 110.955 32.9348 110.955 27.4691C110.955 22.0034 115.412 17.5709 120.907 17.5709C126.403 17.5709 130.859 22.0034 130.859 27.4691C130.859 32.9348 126.403 37.3673 120.907 37.3673Z" fill="#333333"/>
<path d="M69.703 14.9272C62.7327 14.9272 57.0801 20.5492 57.0801 27.4818C57.0801 34.4144 62.7327 40.0363 69.703 40.0363C76.6733 40.0363 82.3259 34.4144 82.3259 27.4818C82.3259 20.5492 76.6733 14.9272 69.703 14.9272ZM69.703 37.38C64.2075 37.38 59.7509 32.9475 59.7509 27.4818C59.7509 22.0161 64.2075 17.5836 69.703 17.5836C75.1985 17.5836 79.6551 22.0161 79.6551 27.4818C79.6551 32.9475 75.1985 37.38 69.703 37.38Z" fill="#079C58"/>
<path d="M105.078 34.4686C101.192 38.3335 94.8884 38.3335 91.0024 34.4686C87.1165 30.6037 87.1165 24.3344 91.0024 20.4695C94.8884 16.6046 101.192 16.6046 105.078 20.4695L106.966 18.5912C102.038 13.69 94.0451 13.69 89.114 18.5912C84.186 23.4925 84.186 31.4423 89.114 36.3468C94.0419 41.2513 102.035 41.2481 106.966 36.3468L105.078 34.4686Z" fill="#333333"/>
<path d="M54.5087 15.1599H51.8379V39.7907H54.5087V15.1599Z" fill="#079C58"/>
<path d="M153.45 23.2853C153.45 18.6615 149.683 14.9146 145.034 14.9146C140.385 14.9146 136.617 18.6615 136.617 23.2853V40.0236H139.266V23.2853C139.266 20.1188 141.847 17.5485 145.034 17.5485C148.217 17.5485 150.802 20.1156 150.802 23.2853V40.0236H153.45V23.2853Z" fill="#333333"/>
<path d="M167.634 23.2853C167.634 18.6615 163.867 14.9146 159.218 14.9146C154.569 14.9146 150.802 18.6615 150.802 23.2853V40.0236H153.45V23.2853C153.45 20.1188 156.031 17.5485 159.218 17.5485C162.402 17.5485 164.986 20.1156 164.986 23.2853V40.0236H167.634V23.2853Z" fill="#333333"/>
<path d="M181.819 23.2853C181.819 18.6615 178.052 14.9146 173.403 14.9146C168.754 14.9146 164.986 18.6615 164.986 23.2853V40.0236H167.635V23.2853C167.635 20.1188 170.216 17.5485 173.403 17.5485C176.586 17.5485 179.171 20.1156 179.171 23.2853V40.0236H181.819V23.2853Z" fill="#333333"/>
<path d="M196 23.2853C196 18.6615 192.232 14.9146 187.583 14.9146C182.934 14.9146 179.167 18.6615 179.167 23.2853V40.0236H181.815V23.2853C181.815 20.1188 184.396 17.5485 187.583 17.5485C190.767 17.5485 193.351 20.1156 193.351 23.2853V40.0236H196V23.2853Z" fill="#333333"/>
<path d="M36.3658 32.8733C39.2288 28.207 37.7464 22.1158 33.0547 19.2682C28.3629 16.4207 22.2386 17.8951 19.3755 22.5614C16.5124 27.2277 17.9948 33.3189 22.6866 36.1665C27.3783 39.0141 33.5027 37.5397 36.3658 32.8733Z" fill="#079C58"/>
<path d="M47.6766 19.5701C46.6186 16.9457 45.0411 14.5891 42.9442 12.5036C36.8043 6.39695 26.7528 3.27187 17.9164 1.67425V20.0006C19.1412 18.4349 20.7571 17.1338 22.7033 16.2665C29.0645 13.4284 36.535 16.2537 39.3885 22.5804C42.2421 28.9071 39.4014 36.3371 33.0402 39.1752C26.679 42.0133 19.2085 39.188 16.355 32.8613C15.656 31.3115 15.3001 29.6947 15.252 28.0971H15.2456V1.22781C6.76194 -0.0668658 0 0.000100288 0 0.000100288L0.0128249 0.0128557C0.00961869 0.370008 -0.211611 29.9913 12.5845 42.718C14.6813 44.8036 17.0475 46.3725 19.6895 47.4248C22.3282 48.4771 25.0246 49.0033 27.7724 49.0033C28.2373 49.0033 28.699 48.981 29.1607 48.9523C37.8784 48.8789 45.5894 45.3393 45.5894 45.3393C45.5894 45.3393 49.1739 37.6063 49.222 28.8943C49.2477 28.467 49.2669 28.0397 49.2669 27.6124C49.2637 24.8764 48.7347 22.1946 47.6766 19.5701Z" fill="#079C58"/>
<path d="M17.9169 0.67627H15.2461V1.23113C16.1214 1.36506 17.0127 1.51175 17.9169 1.67757V0.67627Z" fill="white"/>
</svg>
