<svg width="80" height="32" viewBox="0 0 80 32" fill="none" xmlns="http://www.w3.org/2000/svg">
<path d="M14.3471 1.82222C14.3471 1.67407 14.3471 1.52593 14.3471 1.37778C14.3761 1.22963 14.3906 1.08148 14.3906 0.933331H14.3471C14.3181 0.874073 14.3036 0.844444 14.3036 0.844444C14.3036 0.814815 14.2891 0.77037 14.2601 0.71111H14.1732C14.2022 0.681481 14.2167 0.607407 14.2167 0.488888C14.1877 0.459259 14.1732 0.429629 14.1732 0.4C14.1732 0.34074 14.1587 0.296295 14.1297 0.266666L13.9558 0.222222C13.8978 0.162964 13.8689 0.133334 13.8689 0.133334C13.8689 0.103703 13.8254 0.0888877 13.7384 0.0888877C13.6515 0.0888877 13.5645 0.103703 13.4776 0.133334C13.4196 0.162964 13.3761 0.177778 13.3471 0.177778V0.133334C13.1732 0.133334 12.9993 0.162964 12.8254 0.222222C12.6515 0.251851 12.4776 0.266666 12.3037 0.266666H12.3472V0.133334C12.2313 0.133334 12.1588 0.118519 12.1298 0.0888877C12.1008 0.0592585 11.8979 0.0444439 11.5212 0.0444439C11.4052 0.0444439 11.2458 0.0592585 11.0429 0.0888877C10.84 0.0888877 10.6226 0.0888877 10.3908 0.0888877C10.1879 0.0888877 9.985 0.103703 9.78211 0.133334C9.60821 0.133334 9.46329 0.133334 9.34735 0.133334C9.08649 0.133334 8.94157 0.118519 8.91259 0.0888877V0.177778C8.8836 0.148149 8.69521 0.133334 8.3474 0.133334V0.0444439C8.28943 0.0444439 8.21697 0.0444439 8.13002 0.0444439C8.07205 0.0148146 8.01408 0 7.95612 0V0.0888877C7.92713 0.0592585 7.89815 0.0444439 7.86916 0.0444439C7.84018 0.0444439 7.8112 0.0296292 7.78221 0L6.73879 0.0444439V0.133334C6.7098 0.162964 6.63734 0.177778 6.52141 0.177778C6.46344 0.177778 6.40547 0.177778 6.3475 0.177778C6.28953 0.148149 6.23157 0.133334 6.1736 0.133334L5.13017 0.177778C4.98525 0.177778 4.8983 0.192593 4.86932 0.222222V0.0888877C4.75338 0.148148 4.66643 0.281481 4.60846 0.488888C4.57948 0.696296 4.536 0.85926 4.47803 0.977779L4.30413 1.2C4.27514 1.25926 4.26065 1.31852 4.26065 1.37778C4.26065 1.40741 4.24616 1.45185 4.21718 1.51111L3.9998 1.91111C3.9998 1.97037 3.9853 2.01482 3.95632 2.04444C3.95632 2.07407 3.95632 2.1037 3.95632 2.13333L3.69546 2.53333C3.55054 2.85926 3.43461 3.15556 3.34766 3.42222C3.2607 3.68889 3.21723 3.85185 3.21723 3.91111L2.65204 5.02222H2.56509L2.47813 5.24444C2.47813 5.48148 2.33321 5.79259 2.04337 6.17778L1.9999 6.31111C1.97091 6.31111 1.94193 6.32593 1.91295 6.35556V6.53333L0.826045 8.93333H0.739093C0.739093 9.11111 0.724601 9.21481 0.695617 9.24444L0.565189 9.46667C0.507221 9.58519 0.463744 9.68889 0.43476 9.77778L0.391284 10C0.3623 10.0296 0.333316 10.0444 0.304332 10.0444V10.0889C0.21738 10.1778 0.130428 10.3407 0.0434761 10.5778L0 10.5333L0 10.6667C0.0579681 10.7259 0.115936 10.7556 0.173904 10.7556L0.130428 10.8889H0.21738C0.246364 10.9481 0.985457 11.1259 2.43466 11.4222C2.49263 11.4222 2.62305 11.437 2.82594 11.4667C3.05782 11.4667 3.21723 11.4963 3.30418 11.5556L3.60851 11.6444L3.56504 11.7333L4.08675 11.8667L4.04327 11.9111L4.39108 11.8667L4.73889 11.9556L4.82584 11.8667C4.85483 11.8667 4.91279 11.8815 4.99975 11.9111C5.0867 11.9111 5.20263 11.9259 5.34755 11.9556L5.47798 12.0444L5.91274 11.9556L6.08665 11.8222C6.11563 11.7926 6.13012 11.763 6.13012 11.7333C6.13012 11.7037 6.14461 11.6741 6.1736 11.6444L6.30403 11.3333C6.30403 11.3333 6.33301 11.2593 6.39098 11.1111H6.43445C6.55039 10.9926 6.65183 10.7852 6.73879 10.4889H6.82574C6.88371 10.4296 6.8982 10.3556 6.86922 10.2667C6.86922 10.1481 6.92718 10.0889 7.04312 10.0889L7.13007 9.82222C7.18804 9.7037 7.23152 9.58519 7.2605 9.46667C7.31847 9.34815 7.40542 9.24444 7.52136 9.15556L7.56483 9.11111V9.73333C7.56483 9.85185 7.55034 9.97037 7.52136 10.0889C7.52136 10.1778 7.52136 10.2815 7.52136 10.4H7.56483C7.56483 10.4296 7.55034 10.4593 7.52136 10.4889C7.52136 10.6667 7.52136 10.7852 7.52136 10.8444C7.55034 10.8741 7.56483 10.9185 7.56483 10.9778C7.56483 11.0667 7.55034 11.1556 7.52136 11.2444C7.52136 11.3037 7.52136 11.363 7.52136 11.4222V11.8222C7.55034 11.8222 7.56483 11.8519 7.56483 11.9111C7.56483 11.9704 7.55034 12.1481 7.52136 12.4444C7.52136 12.7111 7.50686 13.0963 7.47788 13.6H7.52136C7.52136 13.7481 7.50686 13.9704 7.47788 14.2667C7.47788 14.563 7.4489 14.7852 7.39093 14.9333C7.36194 15.7926 7.33296 16.4296 7.30398 16.8444C7.27499 17.2593 7.24601 17.5852 7.21702 17.8222C7.21702 18.0296 7.20253 18.2222 7.17355 18.4C7.17355 18.5481 7.17355 18.7704 7.17355 19.0667C7.17355 19.2148 7.18804 19.3037 7.21702 19.3333L7.2605 20.3111C7.20253 20.3704 7.11558 22.0593 6.99964 25.3778H7.04312C7.01414 25.5556 6.99964 25.7333 6.99964 25.9111C6.99964 26.0889 6.98515 26.2667 6.95617 26.4444V27.6444C6.95617 27.8815 6.95617 28.2963 6.95617 28.8889C6.98515 29.4519 7.01414 30.2074 7.04312 31.1556C7.01414 31.1852 6.99964 31.2296 6.99964 31.2889L7.04312 31.4667C7.04312 31.4963 7.0721 31.5407 7.13007 31.6V31.6444L7.21702 31.6V31.6444C7.27499 31.6444 7.30398 31.6296 7.30398 31.6C7.33296 31.5407 7.37644 31.5111 7.4344 31.5111C7.40542 31.5111 7.46339 31.5259 7.60831 31.5556C7.78221 31.5852 7.97061 31.6148 8.1735 31.6444C8.37638 31.6444 8.56478 31.6593 8.73868 31.6889C8.94157 31.7185 9.05751 31.7333 9.08649 31.7333H12.4776C12.8834 31.7333 13.1153 31.7481 13.1732 31.7778V31.7333C13.2892 31.7037 13.3616 31.6741 13.3906 31.6444C13.3616 31.5259 13.3327 31.4667 13.3037 31.4667C13.3037 31.437 13.3037 31.3926 13.3037 31.3333H13.8689C13.8689 31.2444 13.8544 31.1407 13.8254 31.0222C13.7964 30.8741 13.7819 30.7259 13.7819 30.5778C13.7819 30.4593 13.7964 30.3852 13.8254 30.3556C13.8834 30.2963 13.9123 30.237 13.9123 30.1778C13.9123 30.1481 13.8978 30.1185 13.8689 30.0889C13.8689 30.0593 13.8689 30.0296 13.8689 30L13.9123 29.9111C13.9413 29.8815 13.9558 29.763 13.9558 29.5556V29.0667C13.9558 28.5926 13.9413 28.2815 13.9123 28.1333C13.8833 27.9556 13.8689 27.7778 13.8689 27.6V26.9778C13.8689 26.8593 13.8689 26.5926 13.8689 26.1778C13.8689 25.763 13.8833 25.2148 13.9123 24.5333H13.8689C13.8689 24.3852 13.8689 24.3407 13.8689 24.4C13.8689 24.4296 13.8689 24.3556 13.8689 24.1778C13.8978 23.9704 13.9123 23.5556 13.9123 22.9333C13.9413 22.3111 13.9703 21.2593 13.9993 19.7778H14.0428V19.7333C14.0428 19.6741 14.0573 19.5259 14.0862 19.2889C14.1152 19.0519 14.1297 18.7259 14.1297 18.3111L14.1732 13.7333C14.2022 13.5852 14.2167 13.437 14.2167 13.2889C14.2167 13.1407 14.2312 12.9926 14.2601 12.8444H14.1732L14.2601 12.8L14.3036 11.6C14.3616 11.3037 14.3906 11.1407 14.3906 11.1111H14.3471V9.24444C14.3181 9.21481 14.3036 9.03704 14.3036 8.71111V7.2C14.3036 6.78518 14.3181 6.47407 14.3471 6.26667C14.3761 6.05926 14.3906 5.94074 14.3906 5.91111L14.3471 2.08889C14.3471 2.02963 14.3471 2 14.3471 2C14.3761 2 14.3906 1.97037 14.3906 1.91111C14.3616 1.88148 14.3471 1.85185 14.3471 1.82222ZM13.0863 6.4C13.0863 6.48889 13.1008 6.54815 13.1298 6.57778L13.0863 6.93333L13.1298 11.9556V12.2667C13.1298 12.5926 13.1153 12.9333 13.0863 13.2889C13.0573 13.6444 13.0428 13.9852 13.0428 14.3111C13.0428 14.5481 13.0428 14.7407 13.0428 14.8889C13.0718 15.037 13.0863 15.2148 13.0863 15.4222C13.0863 15.6296 13.0718 15.7481 13.0428 15.7778V16.8C13.0428 16.8593 13.0283 16.9185 12.9993 16.9778C12.9993 17.037 12.9993 17.0963 12.9993 17.1556C12.9993 17.3333 12.9993 17.5111 12.9993 17.6889C13.0283 17.8667 13.0428 18.0296 13.0428 18.1778C13.0428 18.6222 13.0283 19.0963 12.9993 19.6C12.9993 20.0741 12.9704 20.5185 12.9124 20.9333L12.9993 20.9778C12.9704 21.0667 12.9559 21.2444 12.9559 21.5111L12.9993 22.3556V23.6C12.9993 23.6593 13.0138 23.7037 13.0428 23.7333C13.0138 23.763 12.9993 24 12.9993 24.4444C12.9993 24.7407 12.9993 25.0518 12.9993 25.3778C13.0283 25.7037 13.0428 26.0296 13.0428 26.3556C13.0428 27.363 13.0283 28.163 12.9993 28.7556C12.9704 29.3185 12.9124 29.7481 12.8254 30.0444C12.7675 30.3407 12.6805 30.5333 12.5646 30.6222C12.4776 30.6815 12.3472 30.7111 12.1733 30.7111H11.6081C11.3762 30.7111 11.1878 30.7259 11.0429 30.7556L8.99954 30.9778C8.94157 30.9778 8.8981 30.9778 8.86911 30.9778C8.84013 30.9481 8.79665 30.9333 8.73868 30.9333L8.65173 30.9778C8.33291 30.9778 8.159 30.963 8.13002 30.9333L8.08654 25.2444C8.11553 24.7111 8.13002 24.2815 8.13002 23.9556C8.159 23.6296 8.1735 23.1556 8.1735 22.5333C8.1735 21.9111 8.1735 21.0222 8.1735 19.8667C8.20248 18.6815 8.26045 16.9926 8.3474 14.8L8.3474 14.2222C8.3474 13.9259 8.36189 13.7333 8.39088 13.6444C8.33291 13.6444 8.30392 13.5852 8.30392 13.4667H8.3474C8.40537 13.4074 8.43435 13.2889 8.43435 13.1111C8.43435 12.9333 8.43435 12.7556 8.43435 12.5778C8.43435 12.163 8.41986 11.9259 8.39088 11.8667C8.39088 11.8074 8.39088 11.7481 8.39088 11.6889L8.47783 11.6444H8.39088C8.41986 11.4667 8.43435 11.3185 8.43435 11.2C8.43435 11.0519 8.43435 10.9037 8.43435 10.7556V10.1333C8.40537 10.1037 8.39088 9.97037 8.39088 9.73333C8.39088 9.67407 8.39088 9.51111 8.39088 9.24444C8.41986 8.97778 8.44884 8.62222 8.47783 8.17778C8.44884 8.14815 8.43435 8.02963 8.43435 7.82222C8.43435 7.55555 8.50681 7.34815 8.65173 7.2C8.56478 6.93333 8.47783 6.8 8.39088 6.8L8.30392 6.84444V6.75556C8.159 6.81481 8.07205 6.88889 8.04307 6.97778L7.4344 7.82222L7.0866 8.57778H6.99964L6.26055 10.2222H6.1736V10.3111L6.21707 10.2667C6.10114 10.3852 5.99969 10.5037 5.91274 10.6222C5.85477 10.7407 5.79681 10.8593 5.73884 10.9778C5.68087 11.0667 5.65189 11.1556 5.65189 11.2444L5.60841 11.3333C5.57943 11.363 5.53595 11.3778 5.47798 11.3778L0.956473 10.1778C0.956473 10.2074 0.941981 10.237 0.912997 10.2667C0.912997 10.2074 0.985457 10.0593 1.13038 9.82222C1.2753 9.58518 1.34776 9.43704 1.34776 9.37778H1.39123C1.4492 9.25926 1.52166 9.06667 1.60861 8.8C1.69557 8.53333 1.76803 8.37037 1.82599 8.31111L1.91295 7.91111H1.9999L2.1738 7.42222C2.20279 7.36296 2.21728 7.33333 2.21728 7.33333C2.21728 7.3037 2.23177 7.25926 2.26075 7.2L2.65204 6.35556C2.68102 6.2963 2.69551 6.25185 2.69551 6.22222C2.7245 6.16296 2.75348 6.1037 2.78247 6.04444L3.0868 5.28889L3.17375 5.24444L3.30418 4.8L3.95632 3.46667C3.9853 3.40741 3.9998 3.37778 3.9998 3.37778C3.9998 3.34815 4.01429 3.3037 4.04327 3.24444L4.1737 2.84444C4.23167 2.84444 4.27514 2.82963 4.30413 2.8V2.66667C4.33311 2.63704 4.40557 2.51852 4.52151 2.31111C4.63744 2.07407 4.78236 1.80741 4.95627 1.51111H4.99975L4.95627 1.37778H5.21713C5.39103 1.37778 5.49247 1.36296 5.52146 1.33333V1.37778C6.15911 1.34815 6.69531 1.33333 7.13007 1.33333C7.56483 1.33333 7.91264 1.33333 8.1735 1.33333L9.2604 1.33333L10.6082 1.15556H12.0863V1.06667L13.2167 1.06667C13.2167 1.24444 13.2167 1.43704 13.2167 1.64444C13.2457 1.85185 13.2602 2.07407 13.2602 2.31111V2.75555C13.2312 2.75555 13.2022 2.77037 13.1732 2.8V3.6L13.0863 6.4Z" fill="#9EB5C8"/>
<path d="M36.7464 16.2222L36.703 13.9111C36.645 13.4667 36.6015 13.0667 36.5725 12.7111C36.5435 12.3259 36.529 12 36.529 11.7333C36.529 10.963 36.5725 10.1778 36.6595 9.37778H36.5725V8.4C36.5435 8.37037 36.529 8.34074 36.529 8.31111L36.3551 5.28889L36.0943 4.44445C36.0943 4.38518 35.9639 3.95555 35.703 3.15555C35.3262 2.8 35.0364 2.53333 34.8335 2.35555C34.6306 2.14815 34.4857 2 34.3987 1.91111C34.3118 1.82222 34.2683 1.76296 34.2683 1.73333C34.2683 1.7037 34.2683 1.68889 34.2683 1.68889L33.6596 1.33333L32.5293 0.8L30.3989 0.444444C30.1671 0.444444 29.9207 0.444444 29.6598 0.444444C29.399 0.414815 29.1381 0.4 28.8773 0.4C28.5584 0.4 28.2396 0.444445 27.9208 0.533334C27.6309 0.592593 27.3701 0.622222 27.1382 0.622222C27.1092 0.622222 26.8629 0.651851 26.3991 0.71111C25.9644 0.740741 25.3267 0.814814 24.4862 0.933331L24.3123 0.977779C23.4717 1.18519 23.008 1.28889 22.921 1.28889L22.7906 1.33333C22.7906 1.39259 22.7471 1.43704 22.6602 1.46667C22.5732 1.46667 22.5008 1.46667 22.4428 1.46667L22.3559 1.55555C22.2979 1.61481 22.1964 1.65926 22.0515 1.68889C21.9066 1.68889 21.7617 1.73333 21.6168 1.82222L21.4429 1.91111C21.3849 1.97037 21.2834 2.02963 21.1385 2.08889C20.9936 2.11852 20.7907 2.22222 20.5299 2.4C20.269 2.57778 19.9502 2.87407 19.5734 3.28889C19.2256 3.67407 18.8343 4.23704 18.3995 4.97778H18.3561C18.2981 5.03704 18.1677 5.80741 17.9648 7.28889H17.8778L17.7039 8.48889L17.6604 10.5778C17.6604 10.8741 17.6749 11.0667 17.7039 11.1556L17.7474 11.2444C17.7764 11.4815 17.7909 11.6889 17.7909 11.8667C17.7909 12.0148 17.7909 12.1185 17.7909 12.1778H17.8343C17.8633 12.2074 17.9938 12.6815 18.2256 13.6C18.5734 14.2222 18.8198 14.7111 18.9647 15.0667C19.1386 15.4222 19.2691 15.7037 19.356 15.9111C19.4719 16.0889 19.5879 16.237 19.7038 16.3556C19.8198 16.4741 20.0226 16.5926 20.3125 16.7111V16.8444L21.1385 17.4222C21.2834 17.5407 21.3994 17.6444 21.4863 17.7333C21.5733 17.7926 21.6747 17.8667 21.7907 17.9556C21.9356 18.0444 22.124 18.1333 22.3559 18.2222C22.5877 18.3111 22.95 18.4148 23.4428 18.5333V18.6222L24.3992 18.8444C24.5441 18.9037 24.7036 18.9333 24.8775 18.9333C25.0514 18.9333 25.2253 18.9333 25.3992 18.9333H26.0513C26.1673 18.9333 26.2832 18.9333 26.3991 18.9333C26.5151 18.9333 26.6165 18.9481 26.7035 18.9778H26.8774V18.8889C28.0947 18.6222 28.8048 18.4889 29.0077 18.4889L29.0946 18.4889C29.1816 18.4889 29.2541 18.4593 29.312 18.4C29.5729 18.4 29.7033 18.5926 29.7033 18.9778C29.7033 19.3037 29.7033 19.5704 29.7033 19.7778C29.7033 19.9556 29.6888 20.1481 29.6598 20.3556C29.6308 20.563 29.5729 20.8148 29.4859 21.1111C29.428 21.3778 29.341 21.763 29.2251 22.2667H29.1816C29.0077 22.5333 28.9062 22.7407 28.8773 22.8889C28.8483 23.0074 28.7903 23.1111 28.7034 23.2C28.6164 23.2593 28.4425 23.3333 28.1816 23.4222C27.9208 23.5111 27.4715 23.6593 26.8339 23.8667V23.8222C26.7759 23.8222 26.689 23.8222 26.573 23.8222C26.4861 23.7926 26.4136 23.7778 26.3557 23.7778L26.2252 23.6889C25.2688 23.1259 24.7181 22.6519 24.5731 22.2667L24.5297 22.1333C24.5007 22.1333 24.4717 22.1185 24.4427 22.0889L24.3992 22C24.3992 21.9407 24.3992 21.8963 24.3992 21.8667C24.4282 21.837 24.4427 21.7926 24.4427 21.7333C24.3847 21.7333 24.3413 21.7185 24.3123 21.6889L24.0949 21.6L24.0514 21.6889L24.0079 21.6444C23.834 21.6444 23.6601 21.6444 23.4862 21.6444C23.3413 21.6148 23.1819 21.6 23.008 21.6V21.6444H22.921C22.7761 21.6444 22.5587 21.6593 22.2689 21.6889C21.9791 21.7185 21.6023 21.7333 21.1385 21.7333L17.9648 21.7778V21.8667C17.8778 21.8667 17.8343 21.837 17.8343 21.7778L17.617 21.8667C17.617 22.4593 17.646 22.9778 17.7039 23.4222C17.7619 23.8667 17.7909 24.3407 17.7909 24.8444H17.8343C17.8633 24.9037 17.8778 25.0222 17.8778 25.2V25.5556H17.9648L18.0517 26.5778V26.6667C18.0227 26.8148 18.0517 26.9926 18.1387 27.2C18.2546 27.3778 18.4285 27.6741 18.6604 28.0889C18.9212 28.5926 19.1531 28.963 19.356 29.2C19.5589 29.4074 19.7328 29.5556 19.8777 29.6444C20.0226 29.7333 20.1241 29.7926 20.1821 29.8222C20.269 29.8519 20.3125 29.9259 20.3125 30.0444H20.4429C20.4429 30.0741 20.4864 30.1185 20.5733 30.1778C20.6603 30.237 20.9501 30.3704 21.4429 30.5778C21.8486 30.7852 22.124 30.8889 22.2689 30.8889V30.9333L24.747 31.6889L24.834 31.6444L26.2252 31.7778V31.8667L27.6599 31.9111C27.6889 31.9407 28.1527 31.9556 29.0512 31.9556V32H29.3555C30.225 31.8815 30.6888 31.7926 30.7467 31.7333L31.225 31.5556L32.2684 31.2889L33.2683 30.6667C33.6162 30.4593 33.7901 30.3556 33.7901 30.3556C33.819 30.3556 33.848 30.3111 33.877 30.2222H33.964C33.9929 30.1926 34.0654 30.1037 34.1813 29.9556C34.2973 29.8074 34.4567 29.6 34.6596 29.3333L34.79 29.1556H34.9204C34.9204 29.1259 34.9639 29.037 35.0509 28.8889C35.1668 28.7407 35.2827 28.5778 35.3987 28.4C35.5436 28.2222 35.6595 28.0593 35.7465 27.9111C35.8624 27.763 35.9204 27.6741 35.9204 27.6444L35.8334 27.6889C35.8624 27.5111 35.9059 27.3037 35.9639 27.0667C36.0218 26.8 36.0798 26.5926 36.1378 26.4444V26.3111L36.4421 24.7111C36.558 24.3556 36.6015 23.9407 36.5725 23.4667C36.5435 22.9926 36.587 22.5778 36.703 22.2222L36.8769 19.3778C36.8769 19.2296 36.8624 19.1111 36.8334 19.0222C36.8334 18.9037 36.8334 18.6519 36.8334 18.2667C36.8334 17.8815 36.8479 17.6444 36.8769 17.5556C36.9058 17.4667 36.9203 17.363 36.9203 17.2444C36.9203 17.0074 36.9058 16.8741 36.8769 16.8444V16.2222H36.7464ZM35.703 18.3111V24.9778L35.4856 25.8667C35.4566 26.0741 35.4277 26.2222 35.3987 26.3111C35.3987 26.3704 35.3987 26.4444 35.3987 26.5333H35.3552C35.2972 26.5926 35.2538 26.7704 35.2248 27.0667H35.1378V27.2889L34.7465 28.1778C34.7175 28.2074 34.7031 28.237 34.7031 28.2667C34.7031 28.2963 34.6886 28.3259 34.6596 28.3556C34.6596 28.3852 34.6596 28.4296 34.6596 28.4889L34.5726 28.6222C34.5147 28.8296 34.4422 28.9778 34.3552 29.0667C34.2973 29.1556 34.1668 29.3037 33.964 29.5111L32.7901 30.1778C32.7321 30.2074 32.6742 30.2222 32.6162 30.2222C32.5872 30.2222 32.5437 30.237 32.4858 30.2667L31.6163 30.6667H31.4424V30.7556L30.7033 30.8889L29.4425 31.0667V31.0222C29.4135 31.0518 29.341 31.0667 29.2251 31.0667V31.0222C29.1961 31.0518 29.1671 31.0667 29.1381 31.0667L25.9209 31.2L25.5731 31.1556V31.0667L22.8776 30.4V30.3111C22.7037 30.3111 22.6022 30.2963 22.5732 30.2667L22.4863 30.1778C21.8776 29.8519 21.5153 29.6593 21.3994 29.6C21.2834 29.5111 21.211 29.437 21.182 29.3778L20.5733 29.0222C20.2545 28.4296 20.0082 27.9852 19.8342 27.6889C19.6603 27.3926 19.5589 27.2296 19.5299 27.2L19.443 26.6667C19.414 26.6667 19.356 26.5778 19.2691 26.4C19.2111 26.1926 19.1531 25.9704 19.0952 25.7333C19.0082 25.4667 18.9212 25.1556 18.8343 24.8L18.4865 23.4667C18.4575 23.437 18.443 23.3481 18.443 23.2C18.443 22.9037 18.4865 22.7259 18.5734 22.6667C18.6604 22.6074 18.6894 22.5778 18.6604 22.5778H18.8343V22.4889L21.3559 22.2222H22.7471V22.1333L23.3558 22.0889C23.3848 22.1185 23.5297 22.1333 23.7906 22.1333C23.8195 22.4 23.863 22.6519 23.921 22.8889C23.979 23.0963 24.0369 23.2889 24.0949 23.4667L24.0514 23.6444C24.0514 23.6741 24.1094 23.7185 24.2253 23.7778C24.3702 23.837 24.4427 23.9556 24.4427 24.1333L24.4862 24.2222C24.5441 24.3111 24.5876 24.3704 24.6166 24.4C24.6746 24.4296 24.7325 24.4741 24.7905 24.5333L26.7035 25.2444C26.7614 25.2741 26.8774 25.3037 27.0513 25.3333C27.2542 25.3333 27.4426 25.3333 27.6165 25.3333C27.6744 25.3333 27.7324 25.3333 27.7904 25.3333C27.8483 25.3037 27.8918 25.2889 27.9208 25.2889L28.7903 25.0222L28.9642 24.8444C28.9932 24.8148 29.1236 24.6518 29.3555 24.3556C29.5874 24.0593 29.9207 23.6296 30.3554 23.0667L30.4859 22.0889H30.5728L30.6598 19.4667C30.6598 19.2296 30.6453 19.0222 30.6163 18.8444C30.5873 18.637 30.5728 18.4296 30.5728 18.2222H30.6598L30.3989 17.9111C30.3699 17.8815 30.341 17.8222 30.312 17.7333C30.312 17.6148 30.312 17.5407 30.312 17.5111C30.1381 17.5111 29.9931 17.5556 29.8772 17.6444C29.7903 17.7333 29.6743 17.8074 29.5294 17.8667L28.0947 18.0444C27.9498 18.0444 27.7759 18.0593 27.573 18.0889C27.3991 18.0889 27.2107 18.0889 27.0078 18.0889C26.9208 18.0889 26.8194 18.0889 26.7035 18.0889C26.5875 18.0593 26.4571 18.0296 26.3122 18H25.6166L23.4428 17.6889L21.5733 16.8889C21.5443 16.8593 21.5298 16.8296 21.5298 16.8L21.3559 16.8444C21.3269 16.8444 21.2834 16.8148 21.2255 16.7556L20.9646 16.4889C20.8777 16.3704 20.5299 16.0593 19.9212 15.5556L19.7908 15.4222C19.6748 15.2444 19.5734 15.0963 19.4864 14.9778C19.4285 14.8296 19.3705 14.7111 19.3125 14.6222L19.0952 14.0444C18.9502 13.5407 18.8778 13.2741 18.8778 13.2444H18.8343L18.7473 11.6444C18.7473 11.4963 18.7473 11.3481 18.7473 11.2C18.7763 11.0222 18.7908 10.8593 18.7908 10.7111C18.7618 10.1481 18.7473 9.71852 18.7473 9.42222C18.7473 9.0963 18.7473 8.87407 18.7473 8.75556C18.7473 8.60741 18.7473 8.48889 18.7473 8.4C18.7763 8.28148 18.8053 8.16296 18.8343 8.04444C18.9502 7.27407 19.0227 6.68148 19.0517 6.26667C19.1096 5.85185 19.1386 5.62963 19.1386 5.6L19.2256 5.46667L19.2691 5.51111C19.327 5.51111 19.385 5.39259 19.443 5.15555C19.5009 4.88889 19.6893 4.5037 20.0082 4C20.269 3.73333 20.4719 3.52592 20.6168 3.37778C20.7907 3.22963 20.9211 3.11111 21.0081 3.02222L21.2255 2.8C21.2255 2.8 21.2545 2.78519 21.3124 2.75555H21.3994C21.4574 2.6963 21.5588 2.62222 21.7037 2.53333C21.8486 2.44444 22.1964 2.23704 22.7471 1.91111L23.0515 1.86667L25.0514 1.64444V1.55555L28.399 1.37778C28.6889 1.31852 28.8193 1.28889 28.7903 1.28889C28.9062 1.28889 29.8337 1.33333 31.5728 1.42222L32.8771 1.86667L33.051 2.04444C33.1089 2.13333 33.1669 2.19259 33.2249 2.22222C33.3118 2.25185 33.4133 2.31111 33.5292 2.4C33.6741 2.45926 33.8335 2.57778 34.0074 2.75555C34.1813 2.93333 34.3842 3.2 34.6161 3.55555C35.1088 4.32592 35.4132 4.96296 35.5291 5.46667C35.674 5.94074 35.7465 6.38518 35.7465 6.8H35.79C35.8189 6.85926 35.8334 7.11111 35.8334 7.55556H35.8769V13.4222L35.703 14.0889V18.3111ZM30.3989 9.91111C30.3989 9.79259 30.4134 9.71852 30.4424 9.68889L30.3989 9.37778C30.3699 9.34815 30.2685 9.22963 30.0946 9.02222C29.9497 8.78518 29.7178 8.45926 29.399 8.04444V8C29.1961 7.91111 29.0222 7.83704 28.8773 7.77778C28.7323 7.71852 28.5874 7.67407 28.4425 7.64444L26.7904 7.55556V7.6C26.5585 7.6 26.4281 7.61481 26.3991 7.64444L26.1817 7.73333C26.1817 7.82222 26.0078 8.05926 25.66 8.44444L25.5731 8.62222C25.5151 8.62222 25.4861 8.63704 25.4861 8.66667L25.1818 9.68889C25.1818 9.74815 25.1673 9.82222 25.1383 9.91111C25.1383 9.97037 25.1383 10.0296 25.1383 10.0889L25.1818 10.3556H25.2688L25.1818 10.4444C25.1818 10.5037 25.1963 10.5333 25.2253 10.5333L25.4861 11.5111H25.5731V11.6L26.1383 12.2222C26.2252 12.3111 26.3267 12.3852 26.4426 12.4444H26.5296C26.8774 12.5926 27.1382 12.7111 27.3121 12.8C27.515 12.8593 27.6454 12.9037 27.7034 12.9333L27.7904 12.8H28.8338L29.0512 12.7111L29.399 12.4889C29.4859 12.4593 29.5584 12.3556 29.6164 12.1778L29.8337 12.1333C30.0366 11.8963 30.225 11.1556 30.3989 9.91111ZM28.7468 12.3111C28.6019 12.3111 28.515 12.3259 28.486 12.3556V12.4444H27.6599V12.3556L26.9643 12.1333C26.1817 11.3333 25.7905 10.6222 25.7905 10C25.7905 9.85185 25.7905 9.7037 25.7905 9.55556C25.8194 9.40741 25.8484 9.25926 25.8774 9.11111L26.2687 8.44444C26.3846 8.41481 26.6165 8.35556 26.9643 8.26667C27.3121 8.14815 27.6599 8.05926 28.0077 8C28.6454 8 29.1381 8.25185 29.4859 8.75556C29.8627 9.22963 30.0511 9.65926 30.0511 10.0444C30.0511 10.0444 30.0221 10.1926 29.9642 10.4889L29.0512 12.1333L28.7468 12.3111Z" fill="#9EB5C8"/>
<path d="M58.3408 10.0889L58.2538 10.0444L58.3408 9.64444H58.2538L58.2103 6.84444C58.2103 6.42963 58.1524 6.08889 58.0364 5.82222L57.993 5.64444L57.6452 4.66667L57.1234 3.64444L56.8191 3.46667V3.33333C56.7901 3.3037 56.7611 3.28889 56.7322 3.28889C56.7032 3.25926 56.6742 3.22963 56.6452 3.2V3.11111C56.6162 3.11111 56.5148 3.05185 56.3409 2.93333C56.196 2.78518 56.08 2.59259 55.9931 2.35555H55.8626C55.8626 2.26667 55.7467 2.17778 55.5148 2.08889L54.8192 1.77778C54.8192 1.71852 54.8047 1.68889 54.7757 1.68889C54.7757 1.65926 54.6743 1.61481 54.4714 1.55555L53.428 1.11111V1.02222L53.1671 0.933331C52.9353 0.933331 52.6889 0.918517 52.428 0.888888C52.1672 0.829629 51.9208 0.8 51.6889 0.8L50.6455 0.755556C50.5006 0.755556 50.3122 0.770371 50.0803 0.8C49.8485 0.8 49.5296 0.8 49.1239 0.8L47.5587 0.844444L46.9501 0.933331C46.7182 1.02222 46.4138 1.11111 46.0371 1.2C45.6892 1.25926 45.3994 1.28889 45.1675 1.28889V1.33333L44.8197 1.51111C44.7907 1.51111 44.6893 1.57037 44.5154 1.68889C44.3415 1.80741 44.1096 1.86667 43.8198 1.86667V1.91111C43.7328 1.94074 43.6459 1.97037 43.5589 2C43.501 2.02963 43.443 2.05926 43.385 2.08889L43.2981 2.17778C43.2111 2.17778 43.0952 2.23704 42.9503 2.35555C42.8053 2.47407 42.7329 2.54815 42.7329 2.57778H42.6024C42.4285 2.81481 42.2112 3.02222 41.9503 3.2C41.7184 3.37778 41.559 3.51111 41.4721 3.6L40.8199 4.71111C40.762 4.77037 40.7185 4.8 40.6895 4.8C40.6605 4.77037 40.617 4.8 40.5591 4.88889C40.5301 4.94815 40.4721 5.08148 40.3852 5.28889C40.3272 5.46667 40.2258 5.77778 40.0808 6.22222H39.9939C39.9939 6.54815 39.9649 6.87407 39.9069 7.2C39.849 7.52592 39.82 7.91111 39.82 8.35556C39.82 8.59259 39.8345 8.78518 39.8635 8.93333C39.9214 9.05185 39.9504 9.15555 39.9504 9.24444V10.4L39.9939 10.3556C40.0519 10.3556 40.0808 10.3704 40.0808 10.4C40.1098 10.4 40.1533 10.4 40.2113 10.4V10.3111C40.3562 10.3407 40.4866 10.3556 40.6026 10.3556C40.7475 10.3556 40.8924 10.3556 41.0373 10.3556C41.3561 10.3852 41.7329 10.3852 42.1677 10.3556C42.6025 10.3259 43.0952 10.3111 43.6459 10.3111L45.8197 10.3556C45.9646 10.3556 46.066 10.2667 46.124 10.0889H46.1675C46.2834 9.82222 46.3414 9.68889 46.3414 9.68889C46.3704 9.65926 46.4138 9.62963 46.4718 9.6L46.5588 9.33333C46.5877 9.3037 46.6312 9.27407 46.6892 9.24444C46.7472 9.18519 46.8051 9.12593 46.8631 9.06667V8.97778C46.979 8.85926 47.0805 8.72593 47.1674 8.57778C47.2544 8.42963 47.3848 8.2963 47.5587 8.17778C47.7616 8.02963 48.0514 7.91111 48.4282 7.82222C48.805 7.73333 49.3412 7.68889 50.0368 7.68889L50.2108 7.73333V7.82222L51.0368 8.08889C51.0948 8.17778 51.1382 8.23704 51.1672 8.26667C51.1962 8.26667 51.2687 8.32593 51.3846 8.44444H51.4281L51.7324 9.11111C51.7324 9.40741 51.7324 9.67407 51.7324 9.91111C51.7614 10.1185 51.7759 10.2963 51.7759 10.4444C51.7759 10.5333 51.7614 10.6074 51.7324 10.6667C51.7324 10.6963 51.7324 10.7407 51.7324 10.8L51.6889 11.2C51.631 11.2593 51.602 11.3333 51.602 11.4222C51.631 11.5111 51.602 11.6148 51.515 11.7333C51.4571 11.8519 51.3266 11.9852 51.1238 12.1333C50.9209 12.2815 50.5586 12.4444 50.0368 12.6222H49.8195L48.2109 12.8V12.8889L47.95 12.8H46.9501C46.9211 12.8 46.8921 12.8 46.8631 12.8C46.8341 12.7704 46.7906 12.7556 46.7327 12.7556C46.6747 12.7556 46.6022 12.7704 46.5153 12.8C46.4283 12.8 46.3269 12.8 46.211 12.8H46.0805C46.0226 12.8 45.9646 12.8296 45.9066 12.8889L45.8197 12.9333C45.8197 12.9926 45.8197 13.037 45.8197 13.0667C45.8487 13.0963 45.8632 13.1259 45.8632 13.1556C45.8632 13.2148 45.8487 13.2741 45.8197 13.3333C45.8197 13.3926 45.8197 13.4519 45.8197 13.5111L45.8632 13.6889C45.8342 13.8963 45.8052 14.2222 45.7762 14.6667C45.7762 15.0815 45.7762 15.4519 45.7762 15.7778C45.7762 15.8667 45.7762 15.9704 45.7762 16.0889C45.8052 16.2074 45.8197 16.3556 45.8197 16.5333C45.8197 16.7111 45.8052 16.9185 45.7762 17.1556C45.7762 17.3926 45.7762 17.6444 45.7762 17.9111V18.2222C45.7762 18.3111 45.7617 18.4 45.7327 18.4889C45.7037 18.5481 45.6892 18.6074 45.6892 18.6667C45.6892 18.7259 45.7182 18.7852 45.7762 18.8444V18.8889C45.8342 18.8889 45.8776 18.8741 45.9066 18.8444C45.9646 18.963 46.0081 19.0667 46.0371 19.1556L46.124 19.2V19.0667C46.182 19.0667 46.2399 19.0815 46.2979 19.1111C46.3849 19.1111 46.4718 19.1111 46.5588 19.1111C46.6167 19.1111 46.6602 19.1111 46.6892 19.1111C46.7182 19.0815 46.7617 19.0667 46.8196 19.0667H48.9934L49.8195 19.1556C49.8774 19.1852 49.9209 19.2148 49.9499 19.2444C50.0079 19.2444 50.0658 19.2593 50.1238 19.2889V19.3333C50.2977 19.3333 50.3992 19.3778 50.4281 19.4667C50.4571 19.5556 50.5006 19.6296 50.5586 19.6889H50.689C50.689 19.7185 50.7035 19.7481 50.7325 19.7778L51.1672 20.0444V20.1333C51.2252 20.1926 51.4426 20.7852 51.8194 21.9111V22.7556L51.7324 23.2C51.5005 23.6148 51.3701 23.837 51.3411 23.8667L51.2107 23.9111C51.2107 23.9704 51.1817 24.0296 51.1238 24.0889H51.0368L50.7325 24.1778L50.5151 24.2667V24.3556C49.7325 24.5926 49.3267 24.7111 49.2978 24.7111C49.1528 24.7111 48.9934 24.6963 48.8195 24.6667C48.6746 24.637 48.5732 24.5926 48.5152 24.5333L48.3413 24.4889C48.1964 24.4889 48.0949 24.4593 48.037 24.4L47.9065 24.3556L47.8196 24.2222C47.8486 24.2222 47.7761 24.2074 47.6022 24.1778C47.4283 24.1185 47.3413 24.0296 47.3413 23.9111H47.2109C47.1819 23.8815 47.1674 23.8519 47.1674 23.8222H47.0805L46.8196 23.5556V23.4667C46.7906 23.437 46.6892 23.2741 46.5153 22.9778C46.3704 22.6815 46.2979 22.5185 46.2979 22.4889V22.4444C46.2979 22.4148 46.2834 22.3852 46.2544 22.3556L45.7327 21.8222C45.5588 21.8222 45.3849 21.8222 45.211 21.8222C45.0371 21.7926 44.8632 21.7778 44.6893 21.7778C44.5734 21.7778 44.3995 21.8074 44.1676 21.8667C43.9647 21.8963 43.6749 21.9407 43.2981 22H42.9068L40.9938 22.1778L40.2547 22.2667L40.2113 22.1333V25.5111L40.1678 25.4667L40.7765 28.2667L40.8634 28.5778C41.0953 29.2593 41.2692 29.6741 41.3851 29.8222C41.53 29.9704 41.646 30.0444 41.7329 30.0444L41.7764 30V30.0889H41.8634L41.9503 30.2667C41.9793 30.2963 42.0518 30.3556 42.1677 30.4444C42.2836 30.5037 42.3416 30.563 42.3416 30.6222H42.472L43.0807 31.0222C43.1387 31.0518 43.1966 31.0667 43.2546 31.0667C43.3126 31.0667 43.443 31.0963 43.6459 31.1556L46.5153 31.6889V31.7778L46.9066 31.8222L48.2109 31.9111C48.2398 31.9111 48.2688 31.9111 48.2978 31.9111C48.3268 31.8815 48.3558 31.8667 48.3848 31.8667V31.9111C49.0224 31.9111 49.6746 31.8667 50.3412 31.7778C51.0368 31.6593 51.7179 31.5111 52.3846 31.3333L53.8193 31.1111V31.0222C53.8483 30.9926 53.8772 30.9778 53.9062 30.9778C53.9932 30.9778 54.0656 30.963 54.1236 30.9333L54.2106 30.8444L54.1671 30.8889C54.1961 30.8889 54.2975 30.8444 54.4714 30.7556C54.6453 30.6667 54.8337 30.5778 55.0366 30.4889C55.2395 30.3704 55.4134 30.2667 55.5583 30.1778C55.7032 30.0889 55.7757 30.0296 55.7757 30L56.1235 29.6444L56.4713 29.1111C56.5003 29.0815 56.5438 29.0667 56.6017 29.0667L56.6452 28.9333C56.9351 28.4296 57.1234 28.0741 57.2104 27.8667C57.2974 27.6593 57.3408 27.5259 57.3408 27.4667H57.3843C57.3843 27.4074 57.3843 27.363 57.3843 27.3333C57.4133 27.2741 57.4278 27.2148 57.4278 27.1556H57.4713C57.5002 27.1259 57.5292 27.037 57.5582 26.8889C57.6162 26.7111 57.7031 26.4741 57.8191 26.1778H57.906C57.906 26.1481 57.877 26.0444 57.8191 25.8667C57.7901 25.6889 57.7756 25.5852 57.7756 25.5556H57.8191C57.848 25.5259 57.8625 25.3481 57.8625 25.0222H57.906C57.906 24.9333 57.8915 24.8741 57.8625 24.8444L58.0799 23.0667L58.1669 21.2889C58.1959 21.2593 58.2103 21.2296 58.2103 21.2H58.1669L58.2103 21.1556C58.2393 21.1259 58.2538 20.9926 58.2538 20.7556C58.2538 20.6074 58.2393 20.4741 58.2103 20.3556C58.2103 20.2074 58.2103 20.1037 58.2103 20.0444L58.2538 18.9333V17.0667H58.3408C58.3118 17.037 58.2973 17.0074 58.2973 16.9778H58.2538C58.2538 16.8889 58.2683 16.8444 58.2973 16.8444L58.3408 16C58.3698 15.9704 58.3843 15.8222 58.3843 15.5556L58.3408 14.4444C58.3408 14.3852 58.3553 14.3407 58.3843 14.3111L58.3408 12.8889H58.2538C58.2828 12.8296 58.2973 12.7704 58.2973 12.7111C58.2973 12.6519 58.3118 12.5926 58.3408 12.5333H58.2538V12.4444C58.2538 12.2074 58.2828 12.0148 58.3408 11.8667C58.3987 11.7185 58.4277 11.5704 58.4277 11.4222C58.4277 11.1852 58.3698 10.963 58.2538 10.7556V10.0889H58.3408ZM57.4713 11.5556C57.4423 11.7037 57.4133 11.837 57.3843 11.9556C57.3843 12.0741 57.3843 12.163 57.3843 12.2222C57.3843 12.2815 57.3843 12.5481 57.3843 13.0222C57.3843 13.4667 57.3988 14.1037 57.4278 14.9333H57.3843L57.4278 15.1111C57.4278 15.3778 57.4278 15.6444 57.4278 15.9111C57.4568 16.1778 57.4713 16.4444 57.4713 16.7111H57.4278V17.2C57.4278 17.2593 57.4133 17.3185 57.3843 17.3778C57.3843 17.4074 57.3843 17.4519 57.3843 17.5111H57.4278C57.3988 17.7185 57.3843 17.8815 57.3843 18C57.3843 18.0889 57.3843 18.1481 57.3843 18.1778L57.4278 18.2667C57.3988 18.8296 57.3698 19.2741 57.3408 19.6C57.3408 19.8963 57.3408 20.0741 57.3408 20.1333V20.4H57.2539L56.7756 23.9111C56.8046 23.9407 56.8191 24.0296 56.8191 24.1778L56.7756 24.6222L56.6887 25.1111C56.6887 25.2 56.6742 25.2889 56.6452 25.3778C56.6452 25.4667 56.6452 25.5407 56.6452 25.6H56.6017C56.5728 25.6593 56.5583 25.7185 56.5583 25.7778C56.5583 25.837 56.5438 25.8963 56.5148 25.9556L56.4278 26.1778C56.3988 26.3259 56.3409 26.5778 56.2539 26.9333C56.196 27.2889 56.0945 27.7185 55.9496 28.2222H55.8626V28.3111C55.6308 28.6074 55.4424 28.8444 55.2975 29.0222C55.1815 29.1704 55.0946 29.2593 55.0366 29.2889V29.4222C54.9496 29.4222 54.8917 29.4518 54.8627 29.5111C54.8337 29.5704 54.8047 29.6148 54.7757 29.6444H54.6888C54.6598 29.6741 54.5004 29.7778 54.2106 29.9556C53.9497 30.1333 53.6888 30.2222 53.428 30.2222L52.7758 30.4889C52.7469 30.4889 52.7179 30.5037 52.6889 30.5333C52.6599 30.5333 52.6164 30.5333 52.5585 30.5333V30.5778C52.4135 30.6074 52.2541 30.637 52.0802 30.6667C51.9063 30.6667 51.602 30.7407 51.1672 30.8889L50.8629 30.9333C50.8049 30.9333 50.7325 30.9333 50.6455 30.9333C50.5875 30.9333 50.4861 30.9481 50.3412 30.9778V31.0222C49.8774 31.0815 49.5151 31.1259 49.2543 31.1556C48.9934 31.1852 48.805 31.2 48.6891 31.2L48.6021 31.1556H47.95C47.863 31.1259 47.6602 31.1111 47.3413 31.1111L45.9501 30.9333C45.9501 30.9037 45.9356 30.8741 45.9066 30.8444L45.298 30.7556V30.6667C45.211 30.6667 44.8052 30.5333 44.0806 30.2667V30.2222L42.8633 29.6444L42.559 29.4667C42.559 29.3778 42.4575 29.2444 42.2546 29.0667C42.0518 28.8593 41.8778 28.6815 41.7329 28.5333L41.2982 27.7333C41.2982 27.6148 41.2837 27.5407 41.2547 27.5111H41.2112C41.2112 27.4519 41.1967 27.3926 41.1677 27.3333C41.1677 27.2444 41.1677 27.1704 41.1677 27.1111H41.1243C40.9504 26.4 40.8489 25.9852 40.8199 25.8667C40.8199 25.7185 40.8054 25.5704 40.7765 25.4222V24.8444H40.6895L40.7765 24.5778H40.6895L40.7765 24.4444V23.6C40.7765 23.5407 40.7909 23.4815 40.8199 23.4222C40.8489 23.363 40.8634 23.2889 40.8634 23.2H40.9504V23.0667C41.0663 23.037 41.1532 23.0222 41.2112 23.0222C41.2692 23.0222 41.3416 23.0222 41.4286 23.0222C41.5155 23.0222 41.646 23.0222 41.8199 23.0222C42.0228 22.9926 42.3271 22.963 42.7329 22.9333L43.0807 22.8889C43.1387 22.8889 43.3415 22.8889 43.6893 22.8889C44.0661 22.8889 44.5879 22.8741 45.2545 22.8444L45.6023 22.9333C45.6892 23.0222 45.7327 23.1704 45.7327 23.3778C45.7327 23.5852 45.7617 23.7481 45.8197 23.8667L45.9066 24.1778L46.0371 24.2222L46.211 24.8C46.3849 25.0074 46.5153 25.1704 46.6022 25.2889C46.7182 25.3778 46.7906 25.437 46.8196 25.4667H46.9066C46.9356 25.4963 46.9501 25.5259 46.9501 25.5556H47.0805C47.1095 25.5852 47.124 25.6148 47.124 25.6444L48.0804 26.1333L48.4282 26.1778C48.6601 26.1778 48.8775 26.1778 49.0804 26.1778C49.2833 26.1481 49.5006 26.1333 49.7325 26.1333V26.0889C49.7615 26.0593 49.8629 26.0444 50.0368 26.0444V25.9556C50.0368 25.9852 50.0513 26 50.0803 26C50.1673 26 50.3992 25.8519 50.7759 25.5556C51.1527 25.2593 51.5005 24.9481 51.8194 24.6222V24.5333C51.8484 24.5037 51.8628 24.4741 51.8628 24.4444C51.8918 24.4148 51.9208 24.3852 51.9498 24.3556L52.428 23.5556C52.428 23.4963 52.428 23.437 52.428 23.3778C52.457 23.3185 52.4715 23.2593 52.4715 23.2L52.1237 19.6444C52.1237 19.5259 52.0802 19.437 51.9933 19.3778V19.2889C51.7904 19.1704 51.6889 19.0815 51.6889 19.0222L51.5585 18.9778C51.5585 18.9481 51.515 18.8889 51.4281 18.8C51.3701 18.7111 51.2832 18.6667 51.1672 18.6667L49.6456 18.3556L48.1674 18.1778L47.3413 18.2222C46.9935 18.2222 46.8051 18.2074 46.7761 18.1778L46.7327 18.1333L46.4283 14.5778C46.4573 14.4296 46.4718 14.2815 46.4718 14.1333C46.4718 13.9556 46.4863 13.7926 46.5153 13.6444L46.5588 13.6C46.9645 13.6 47.1819 13.6148 47.2109 13.6444L48.1239 13.6C48.1819 13.6 48.2253 13.6148 48.2543 13.6444C48.2833 13.6444 48.3268 13.6444 48.3848 13.6444C48.4137 13.6148 48.5297 13.6 48.7326 13.6V13.6444L48.8195 13.6C49.2253 13.5407 49.5296 13.4963 49.7325 13.4667C49.9354 13.437 50.0513 13.4222 50.0803 13.4222H50.2542C50.3122 13.4222 50.3702 13.4222 50.4281 13.4222C50.5151 13.3926 50.5875 13.3778 50.6455 13.3778V13.3333C50.8484 13.2444 51.0223 13.1852 51.1672 13.1556C51.3121 13.0963 51.4136 13.0519 51.4716 13.0222V12.9333C51.5875 12.9037 51.7179 12.8148 51.8628 12.6667C52.0367 12.5185 52.1527 12.3704 52.2107 12.2222L52.4715 11.2889C52.5005 11.2593 52.515 11.1407 52.515 10.9333L52.3846 9.51111C52.3846 9.45185 52.3846 9.40741 52.3846 9.37778C52.4135 9.31852 52.428 9.25926 52.428 9.2H52.3846C52.2976 8.96296 52.2107 8.72593 52.1237 8.48889C52.0657 8.22222 52.0367 8.07407 52.0367 8.04444H51.9933C51.9353 7.83704 51.8484 7.68889 51.7324 7.6C51.6455 7.51111 51.5585 7.42222 51.4716 7.33333H51.3846C51.3556 7.3037 51.3411 7.27407 51.3411 7.24444H51.2977C51.2687 7.21481 50.9499 7.08148 50.3412 6.84444V6.75556L49.4717 6.71111C49.3847 6.68148 49.2688 6.65185 49.1239 6.62222C48.9789 6.59259 48.834 6.57778 48.6891 6.57778C48.6311 6.57778 48.5877 6.59259 48.5587 6.62222C48.5297 6.62222 48.5007 6.62222 48.4717 6.62222V6.66667C48.3268 6.72593 48.1964 6.77037 48.0804 6.8C47.9645 6.82963 47.8775 6.85926 47.8196 6.88889C47.7616 6.88889 47.5152 6.96296 47.0805 7.11111C46.6747 7.25926 46.2979 7.62963 45.9501 8.22222L45.7327 9.02222C45.6748 9.02222 45.5878 8.97778 45.4719 8.88889V8.97778H45.3849V9.11111H45.2545V9.2H44.6458C44.1241 9.31852 43.4865 9.42222 42.7329 9.51111C41.9793 9.57037 41.3561 9.6 40.8634 9.6H40.7765C40.7185 9.6 40.675 9.61481 40.646 9.64444C40.617 9.64444 40.5881 9.64444 40.5591 9.64444C40.5011 9.64444 40.4576 9.58519 40.4286 9.46667C40.3997 9.31852 40.3707 9.17037 40.3417 9.02222C40.3127 8.87407 40.2837 8.72593 40.2547 8.57778C40.2547 8.42963 40.2547 8.32593 40.2547 8.26667L40.2113 8.17778L40.3417 6.66667C40.6605 5.86667 40.8779 5.40741 40.9938 5.28889V5.2C41.0518 5.14074 41.1098 5.05185 41.1677 4.93333C41.2547 4.81482 41.3561 4.68148 41.4721 4.53333L41.559 4.48889C41.559 4.42963 41.646 4.2963 41.8199 4.08889C42.0228 3.88148 42.1532 3.74815 42.2112 3.68889L42.5155 3.55555C42.5445 3.4963 42.559 3.46667 42.559 3.46667C42.588 3.43704 42.6169 3.39259 42.6459 3.33333H42.7764C42.7474 3.36296 42.7764 3.33333 42.8633 3.24444C42.9503 3.12593 43.0662 2.99259 43.2111 2.84444C43.385 2.6963 43.5734 2.56296 43.7763 2.44445C44.0082 2.2963 44.24 2.22222 44.4719 2.22222L44.6023 2.13333L45.8632 1.82222C45.9211 1.82222 45.9646 1.83704 45.9936 1.86667C46.0515 1.86667 46.1095 1.86667 46.1675 1.86667V1.82222C46.2544 1.79259 46.4428 1.77778 46.7327 1.77778L48.6891 1.51111C48.805 1.48148 48.9065 1.46667 48.9934 1.46667C49.1094 1.46667 49.2108 1.46667 49.2978 1.46667H49.8195H49.9499L52.1672 1.6L53.8193 2.08889L55.1235 2.48889L55.9931 3.02222C56.08 3.14074 56.167 3.25926 56.2539 3.37778C56.3409 3.46667 56.4278 3.55556 56.5148 3.64444V3.82222C56.6307 3.85185 56.7032 3.91111 56.7322 4L56.9495 5.2C56.9785 5.28889 57.022 5.46667 57.08 5.73333C57.1379 5.97037 57.2249 6.2963 57.3408 6.71111L57.2974 6.75556C57.2974 6.78518 57.2829 6.8 57.2539 6.8C57.2539 6.8 57.2539 6.81481 57.2539 6.84444C57.2539 6.87407 57.2829 6.91852 57.3408 6.97778L57.5582 9.6H57.5147L57.4713 11.5556Z" fill="#9EB5C8"/>
<path d="M79.9565 4.31111L80 4.13333L79.913 4.08889L80 4.04445L79.9565 4C79.9275 3.67407 79.8986 3.43704 79.8696 3.28889C79.8696 3.14074 79.8696 3.02222 79.8696 2.93333C79.8696 2.81481 79.8696 2.75555 79.8696 2.75555C79.8986 2.75555 79.913 2.72592 79.913 2.66667L79.8261 2.62222L79.913 2.53333C79.942 2.05926 79.9565 1.68889 79.9565 1.42222C79.9565 1.12593 79.9565 0.933334 79.9565 0.844444L79.8261 0.755556C79.7102 0.637038 79.5073 0.577778 79.2174 0.577778L79.0001 0.622222V0.533334C78.8551 0.592593 78.6957 0.622222 78.5218 0.622222C78.3769 0.622222 78.232 0.622222 78.0871 0.622222C77.5943 0.622222 77.3335 0.607408 77.3045 0.577778V0.666666C77.2465 0.666666 77.1885 0.666666 77.1306 0.666666C77.1016 0.637037 77.0436 0.622222 76.9567 0.622222C76.8697 0.622222 76.7683 0.637037 76.6523 0.666666C76.5654 0.666666 76.4639 0.666666 76.348 0.666666C76.29 0.666666 76.2321 0.666666 76.1741 0.666666C76.1451 0.637037 76.1016 0.622222 76.0437 0.622222C75.9857 0.622222 75.9422 0.637037 75.9132 0.666666C75.9132 0.666666 75.8988 0.666666 75.8698 0.666666C75.8408 0.637037 75.7393 0.622222 75.5654 0.622222L74.6959 0.666666C74.6669 0.637037 74.638 0.622222 74.609 0.622222C74.58 0.622222 74.551 0.607408 74.522 0.577778V0.666666C74.4641 0.637037 74.3336 0.622222 74.1307 0.622222L71.0874 0.577778C70.8845 0.577778 70.7686 0.592593 70.7396 0.622222L67.5224 0.622222C67.4354 0.622222 67.334 0.622222 67.218 0.622222C67.1311 0.592593 67.0296 0.577778 66.9137 0.577778C66.7688 0.577778 66.6818 0.592593 66.6529 0.622222L64.3486 0.71111C64.2617 0.681481 64.0733 0.666666 63.7834 0.666666H62.74C62.0734 0.725926 61.6676 0.755556 61.5227 0.755556C61.4067 0.725925 61.3198 0.74074 61.2618 0.8L61.2183 0.933331H61.3053V1.06667C61.2473 1.06667 61.2039 1.08148 61.1749 1.11111C61.1749 1.2 61.1894 1.25926 61.2183 1.28889H61.2618C61.2328 1.34815 61.2183 1.42222 61.2183 1.51111C61.2183 1.57037 61.2039 1.62963 61.1749 1.68889L61.1314 3.51111L61.2183 4.13333C61.1894 4.16296 61.1749 4.19259 61.1749 4.22222C61.1749 4.28148 61.1749 4.37037 61.1749 4.48889C61.2039 4.60741 61.2183 4.72593 61.2183 4.84444C61.2183 5.05185 61.2039 5.17037 61.1749 5.2L61.1314 5.33333C61.1314 5.39259 61.1169 5.46667 61.0879 5.55556C61.0879 5.64444 61.0879 5.71852 61.0879 5.77778H61.0444C60.9865 6.07407 60.9575 6.25185 60.9575 6.31111C60.9575 6.42963 60.9575 6.53333 60.9575 6.62222C60.9865 6.71111 61.001 6.78519 61.001 6.84444H61.2618L62.3922 6.8C62.9719 6.82963 63.4211 6.84444 63.74 6.84444C64.0878 6.84444 64.3341 6.84444 64.479 6.84444L65.6529 6.88889C66.1456 6.91852 66.6094 6.94815 67.0441 6.97778C67.5079 6.97778 67.9861 7.00741 68.4788 7.06666C68.5078 7.03704 68.6527 7.02222 68.9136 7.02222C69.2904 7.02222 69.6817 7.03704 70.0875 7.06666C70.5222 7.0963 70.9425 7.11111 71.3483 7.11111C71.4642 7.11111 71.5656 7.11111 71.6526 7.11111C71.7395 7.08148 71.8265 7.06666 71.9135 7.06666V7.11111C71.9424 7.14074 72.0149 7.15556 72.1308 7.15556C72.1019 7.21481 72.0729 7.28889 72.0439 7.37778C72.0149 7.46667 71.9859 7.54074 71.9569 7.6L71.9135 7.82222C71.8555 7.82222 71.812 7.83704 71.783 7.86667V8L70.957 9.77778L70.9135 9.73333L70.87 9.86666L70.7831 9.95556C70.7831 10.0148 70.7541 10.1185 70.6961 10.2667C70.6382 10.4148 70.4932 10.7259 70.2614 11.2H70.2179C70.2179 11.2593 70.2034 11.3037 70.1744 11.3333H70.1309C70.073 11.4518 70.015 11.5704 69.957 11.6889C69.8991 11.837 69.8266 12 69.7396 12.1778C69.6817 12.3556 69.6092 12.563 69.5223 12.8L69.4353 12.9333C69.4063 12.9926 69.3918 13.037 69.3918 13.0667C69.3918 13.0667 69.3773 13.0963 69.3484 13.1556L69.2614 13.2889L69.044 13.8222C69.015 13.8815 69.0006 13.9407 69.0006 14C69.0006 14.0296 68.9861 14.0741 68.9571 14.1333H68.9136C68.6817 14.8148 68.5513 15.1704 68.5223 15.2L68.4354 15.2889C68.4064 15.3481 68.3629 15.4519 68.3049 15.6C68.276 15.7481 68.2035 15.9556 68.0876 16.2222H68.0441C67.9571 16.4 67.8847 16.563 67.8267 16.7111C67.7977 16.8296 67.7542 16.9333 67.6963 17.0222L67.5658 17.2889H67.5224C67.5224 17.2889 67.4789 17.363 67.3919 17.5111C67.334 17.6296 67.247 17.7778 67.1311 17.9556C67.0441 18.1333 66.9572 18.2963 66.8702 18.4444C66.8123 18.563 66.7833 18.6222 66.7833 18.6222V18.6667C66.7833 18.6963 66.7398 18.7556 66.6529 18.8444L66.392 19.5556C66.363 19.6148 66.3485 19.6741 66.3485 19.7333C66.3485 19.763 66.334 19.8074 66.305 19.8667L66.2181 19.9556C66.0152 20.4593 65.9138 20.7407 65.9138 20.8C65.9138 20.8296 65.8993 20.8741 65.8703 20.9333H65.8268C65.7978 20.963 65.7833 21.037 65.7833 21.1556C65.2616 22.1926 65.0008 22.7407 65.0008 22.8L64.8703 22.8889V23.0667C64.7834 23.0667 64.6819 23.1852 64.566 23.4222C64.479 23.6296 64.4066 23.763 64.3486 23.8222L63.7834 25.0667C63.7255 25.0667 63.5226 25.4667 63.1748 26.2667H63.1313C63.1313 26.563 63.0588 26.8296 62.9139 27.0667C62.769 27.2741 62.6386 27.4963 62.5226 27.7333L62.4792 27.6889V27.8222L61.9574 28.8444C61.9285 28.8741 61.8995 28.8889 61.8705 28.8889L61.827 29.1556C61.7111 29.1556 61.6531 29.2444 61.6531 29.4222H61.6096C61.5806 29.4519 61.5662 29.4815 61.5662 29.5111C61.5662 29.5407 61.5517 29.5704 61.5227 29.6H61.4792C61.4502 29.6 61.3778 29.7926 61.2618 30.1778C61.1459 30.563 60.972 30.9926 60.7401 31.4667V31.7333L60.9575 31.7778C60.9575 31.8667 61.0444 31.9111 61.2183 31.9111L61.1749 31.9556L61.2618 31.9111L62.3052 31.7778L63.9139 31.7333C64.0588 31.7333 64.2182 31.7481 64.3921 31.7778C64.566 31.7778 64.7254 31.7778 64.8703 31.7778L65.8703 31.6889C66.1022 31.6889 66.2326 31.7037 66.2616 31.7333V31.6444L66.3485 31.7333L66.7398 31.6444C66.8268 31.6444 66.8847 31.6593 66.9137 31.6889L67.0441 31.7333C67.0441 31.8222 67.0586 31.8815 67.0876 31.9111H67.1311C67.1311 31.8518 67.1891 31.7185 67.305 31.5111C67.4209 31.2741 67.5658 30.9926 67.7398 30.6667L69.0006 28.0444C69.3194 27.4815 69.5078 27.1556 69.5658 27.0667C69.6237 26.9481 69.6817 26.8889 69.7396 26.8889V26.7111C70.0005 26.3259 70.1454 26.1333 70.1744 26.1333V26C70.2903 25.8815 70.3628 25.7481 70.3918 25.6L71.0439 24.4444H71.1309V24.3111L71.87 22.8889L72.0004 22.8V22.6667L72.0439 22.7111V22.5778L72.6525 21.6V21.4667C72.6815 21.4074 72.7105 21.3481 72.7395 21.2889C72.7975 21.2296 72.8409 21.1852 72.8699 21.1556L72.9569 21.0667V20.8889L73.3482 20.1778L73.4786 20.1333L73.5221 19.9111L74.4785 18.1778H74.5655L74.609 18.0444C74.609 17.9852 74.609 17.9556 74.609 17.9556C74.638 17.9259 74.6524 17.8815 74.6524 17.8222H74.6959C74.6959 17.7926 75.0147 17.1852 75.6524 16V15.8667C75.7973 15.8667 75.8553 15.7778 75.8263 15.6C75.8263 15.4222 75.8988 15.3333 76.0437 15.3333V15.1556L76.4784 14.3556C76.4784 14.2963 76.4784 14.2667 76.4784 14.2667C76.5074 14.237 76.5219 14.1926 76.5219 14.1333L76.7393 13.7333C76.7973 13.6444 76.8407 13.5704 76.8697 13.5111C76.8987 13.4519 76.9277 13.3926 76.9567 13.3333C76.9857 13.2741 77.0146 13.2296 77.0436 13.2L77.4349 12.5333C77.4639 12.5333 77.4784 12.5185 77.4784 12.4889C77.4784 12.4593 77.4929 12.4148 77.5219 12.3556L77.5653 12.2667L78.0001 11.4222L78.3914 10.6667L79.1305 9.24444C79.1595 9.21481 79.2029 9.12593 79.2609 8.97778H79.3044C79.3624 8.85926 79.4058 8.75556 79.4348 8.66667L80 7.2L79.9565 6.88889C79.8986 6.82963 79.8696 6.78518 79.8696 6.75556C79.8696 6.72593 79.8696 6.62222 79.8696 6.44444C79.8696 6.26667 79.8841 6.01481 79.913 5.68889L80 4.31111H79.9565ZM78.9131 7.06666C78.7682 7.48148 78.6377 7.77778 78.5218 7.95556C78.4349 8.13333 78.3914 8.25185 78.3914 8.31111H78.3044L78.261 8.53333L78.2175 8.48889V8.62222C77.9276 9.18518 77.7393 9.46667 77.6523 9.46667V9.64444C77.0726 10.6815 76.7828 11.2296 76.7828 11.2889L76.6089 11.6L75.9567 12.8444L75.1742 14.3556C75.1452 14.3852 75.1162 14.4 75.0872 14.4L74.9133 14.7556L74.6524 15.3333C74.6235 15.3926 74.551 15.5704 74.4351 15.8667L74.0003 16.5333L73.609 17.4222L72.783 19.0222L72.696 19.2C72.4931 19.4074 72.3482 19.6593 72.2613 19.9556C72.1743 20.2222 72.1308 20.3852 72.1308 20.4444L72.0004 20.5333C71.9424 20.5926 71.8845 20.7407 71.8265 20.9778C71.7685 21.1852 71.6671 21.4519 71.5222 21.7778L71.0874 22.6667H71.0005L70.87 23.0667L70.4353 23.8222C70.4063 23.8815 70.3918 23.9259 70.3918 23.9556C70.3918 23.9556 70.3048 24.1185 70.1309 24.4444H70.0875L69.2614 26.0444C69.1455 26.0444 69.0585 26.163 69.0006 26.4C68.9426 26.6074 68.8846 26.7407 68.8267 26.8L68.7397 27.0222H68.6527L68.3484 27.5111C68.3484 27.5704 68.3339 27.6148 68.3049 27.6444C68.3049 27.6444 68.3049 27.6741 68.3049 27.7333L68.131 28.0444L67.6528 28.8889C67.6238 28.9481 67.6093 28.9926 67.6093 29.0222C67.6093 29.0222 67.5948 29.0519 67.5658 29.1111L67.5224 29.2444C67.4354 29.3926 67.3775 29.4963 67.3485 29.5556C67.3195 29.6148 67.2905 29.6741 67.2615 29.7333C67.2325 29.763 67.1891 29.837 67.1311 29.9556C67.0731 30.0444 66.9717 30.2222 66.8268 30.4889V30.6222H66.7398V30.7556C66.7108 30.7556 66.6818 30.7704 66.6529 30.8V30.8889L66.5224 30.9333L66.3485 30.8444C66.0587 30.7852 65.8993 30.7556 65.8703 30.7556V30.7111L65.8268 30.7556L65.2181 30.8444C64.6385 30.9333 64.1747 31.0074 63.8269 31.0667C63.5081 31.0963 63.3052 31.1259 63.2182 31.1556L62.3922 31.2C62.2183 31.2 62.1169 31.1852 62.0879 31.1556V30.7111H62.1748C62.1748 30.6815 62.1748 30.6518 62.1748 30.6222C62.2038 30.5926 62.2183 30.563 62.2183 30.5333L62.3922 30.0889L62.4357 30.1333C62.4936 30.0148 62.5371 29.9111 62.5661 29.8222H62.6096C62.6675 29.6148 62.6965 29.5111 62.6965 29.5111C62.7255 29.4815 62.769 29.4667 62.827 29.4667V29.3333L63.3052 28.3111C63.5081 28.0148 63.6095 27.8222 63.6095 27.7333H63.653C63.653 27.6741 64.0008 26.8593 64.6964 25.2889C64.8124 25.1407 64.8848 25.0222 64.9138 24.9333C64.9718 24.8148 65.0153 24.7407 65.0442 24.7111H65.0877L65.1747 24.4889L65.5225 23.7333L65.6094 23.5111C65.8123 23.037 65.9427 22.8 66.0007 22.8V22.6222H66.0877L66.392 21.9111L66.5224 21.8222L66.5659 21.6889C66.5949 21.6296 66.6673 21.4667 66.7833 21.2C66.9282 20.9333 67.1166 20.5481 67.3485 20.0444H67.3919L67.4789 19.8667C67.4789 19.837 67.4789 19.8222 67.4789 19.8222C67.4789 19.7926 67.4789 19.763 67.4789 19.7333C67.5079 19.6741 67.5514 19.5852 67.6093 19.4667C67.6963 19.3481 67.8122 19.1556 67.9571 18.8889L68.218 18.2667L68.3049 18C68.5078 17.6444 68.6093 17.4667 68.6093 17.4667C68.6383 17.437 68.6527 17.3926 68.6527 17.3333L68.6962 17.2H68.7832C68.8122 17.1704 68.8267 17.1407 68.8267 17.1111C68.8267 17.0222 68.8411 16.9481 68.8701 16.8889L68.9136 16.8C69.1165 16.2963 69.2469 16.0148 69.3049 15.9556L69.4788 15.6889L69.8701 14.8889L69.957 14.6667H70.044V14.5333C70.073 14.5037 70.102 14.4889 70.1309 14.4889L70.1744 14.3111C70.1744 14.2815 70.1889 14.2222 70.2179 14.1333C70.2759 14.0444 70.3193 13.9704 70.3483 13.9111L70.4787 13.7778C70.4787 13.7185 70.4787 13.6741 70.4787 13.6444C70.5077 13.6148 70.5222 13.5852 70.5222 13.5556L70.5657 13.3778H70.6526L70.7831 12.9778L71.2178 12.2222C71.2178 12.163 71.2323 12.1333 71.2613 12.1333L71.3483 12C71.3483 11.8519 71.4062 11.7778 71.5222 11.7778L71.6091 11.5111C71.6381 11.4519 71.6526 11.4074 71.6526 11.3778C71.6816 11.3185 71.7106 11.2593 71.7395 11.2L71.8265 10.9778H71.9135L72.3917 9.95556C72.3917 9.92593 72.3917 9.8963 72.3917 9.86666C72.4207 9.83704 72.4352 9.80741 72.4352 9.77778L72.5656 9.6C72.5946 9.54074 72.6091 9.4963 72.6091 9.46667C72.6091 9.40741 72.6236 9.34815 72.6525 9.28889L73.0873 8.35556H73.1743L73.2177 8.13333C73.2757 8.07407 73.2902 8.04444 73.2612 8.04444C73.2612 8.04444 73.2902 8.01481 73.3482 7.95556L73.4786 7.6C73.5076 7.57037 73.5221 7.54074 73.5221 7.51111C73.5221 7.48148 73.5366 7.45185 73.5655 7.42222H73.6525C73.6525 7.12593 73.638 6.96296 73.609 6.93333H73.6525C73.6525 6.87407 73.6525 6.82963 73.6525 6.8C73.6815 6.77037 73.696 6.72593 73.696 6.66667L72.7395 6.57778C72.3337 6.54815 71.754 6.5037 71.0005 6.44444C70.2469 6.38518 69.4788 6.34074 68.6962 6.31111C67.9137 6.25185 67.1891 6.20741 66.5224 6.17778C65.8558 6.14815 65.421 6.13333 65.2181 6.13333C64.8124 6.13333 64.4211 6.14815 64.0443 6.17778C63.6965 6.20741 63.3632 6.22222 63.0443 6.22222C62.8125 6.22222 62.6531 6.17778 62.5661 6.08889C62.5081 6.08889 62.4212 6.1037 62.3052 6.13333C62.2183 6.13333 62.1313 6.13333 62.0444 6.13333C61.8125 6.13333 61.6821 6.07407 61.6531 5.95556C61.6531 5.83704 61.6386 5.73333 61.6096 5.64444L61.5227 5.37778C61.5227 5.34815 61.5227 5.31852 61.5227 5.28889C61.5517 5.22963 61.5662 5.15556 61.5662 5.06667C61.5662 4.97778 61.5517 4.87407 61.5227 4.75556C61.5227 4.60741 61.5227 4.45926 61.5227 4.31111C61.5227 3.57037 61.5806 3.08148 61.6966 2.84444C61.6966 2.75556 61.6821 2.6963 61.6531 2.66667H61.7401L61.6966 2C61.6966 1.88148 61.6966 1.74815 61.6966 1.6C61.7256 1.42222 61.8125 1.33333 61.9574 1.33333C61.9574 1.39259 61.9864 1.42222 62.0444 1.42222L63.9139 1.33333C64.1457 1.36296 64.4066 1.39259 64.6964 1.42222C64.9863 1.42222 65.1602 1.42222 65.2181 1.42222H66.1746V1.37778C66.3195 1.37778 66.4934 1.39259 66.6963 1.42222C66.9282 1.42222 67.1456 1.42222 67.3485 1.42222C67.6093 1.42222 67.8267 1.39259 68.0006 1.33333C68.0586 1.36296 68.2035 1.37778 68.4354 1.37778C68.8122 1.34815 69.0875 1.33333 69.2614 1.33333C69.4643 1.3037 69.6237 1.28889 69.7396 1.28889C69.8846 1.28889 69.9715 1.3037 70.0005 1.33333C70.0295 1.33333 70.073 1.33333 70.1309 1.33333L73.3482 1.06667C73.551 1.06667 73.7394 1.06667 73.9134 1.06667C74.1162 1.03704 74.3191 1.02222 74.522 1.02222H75.0003C75.2611 1.02222 75.4205 1.00741 75.4785 0.977779C75.5075 1.00741 75.5365 1.02222 75.5654 1.02222C76.6378 1.05185 77.4639 1.08148 78.0436 1.11111C78.6233 1.11111 78.9711 1.11111 79.087 1.11111V1.42222H78.9131V1.51111L78.8696 1.46667C78.8696 1.7037 78.8986 2.02963 78.9566 2.44445C79.0145 2.85926 79.0435 3.2 79.0435 3.46667L79.087 5.55556C79.087 5.7037 79.0725 5.85185 79.0435 6C79.0435 6.14815 79.0435 6.2963 79.0435 6.44444V6.93333L78.9131 7.06666ZM79.2609 5.77778H79.3479L79.3044 6.04444H79.2609V5.77778Z" fill="#9EB5C8"/>
</svg>
