<svg width="80" height="32" viewBox="0 0 80 32" fill="none" xmlns="http://www.w3.org/2000/svg">
<path d="M14.3739 1.82222C14.3739 1.67408 14.3739 1.52593 14.3739 1.37778C14.403 1.22963 14.4175 1.08148 14.4175 0.933332H14.3739C14.3449 0.874074 14.3304 0.844445 14.3304 0.844445C14.3304 0.814815 14.3159 0.77037 14.2868 0.71111H14.1997C14.2288 0.681481 14.2433 0.607407 14.2433 0.488889C14.2142 0.459259 14.1997 0.429629 14.1997 0.4C14.1997 0.34074 14.1852 0.296296 14.1562 0.266667L13.9819 0.222222C13.9239 0.162964 13.8948 0.133335 13.8948 0.133335C13.8948 0.103704 13.8513 0.0888885 13.7641 0.0888885C13.677 0.0888885 13.5899 0.103704 13.5028 0.133335C13.4447 0.162964 13.4012 0.177779 13.3721 0.177779V0.133335C13.1979 0.133335 13.0237 0.162964 12.8494 0.222222C12.6752 0.251851 12.501 0.266667 12.3267 0.266667H12.3703V0.133335C12.2542 0.133335 12.1816 0.11852 12.1525 0.0888885C12.1235 0.0592592 11.9202 0.0444442 11.5427 0.0444442C11.4266 0.0444442 11.2669 0.0592592 11.0636 0.0888885C10.8603 0.0888885 10.6425 0.0888885 10.4102 0.0888885C10.207 0.0888885 10.0037 0.103704 9.80042 0.133335C9.62619 0.133335 9.481 0.133335 9.36485 0.133335C9.1035 0.133335 8.95831 0.11852 8.92927 0.0888885V0.177779C8.90023 0.14815 8.71148 0.133335 8.36302 0.133335V0.0444442C8.30495 0.0444442 8.23235 0.0444442 8.14524 0.0444442C8.08716 0.014815 8.02908 0 7.97101 0V0.0888885C7.94197 0.0592592 7.91293 0.0444442 7.88389 0.0444442C7.85485 0.0444442 7.82582 0.0296292 7.79678 0L6.7514 0.0444442V0.133335C6.72236 0.162964 6.64977 0.177779 6.53361 0.177779C6.47554 0.177779 6.41746 0.177779 6.35938 0.177779C6.30131 0.14815 6.24323 0.133335 6.18515 0.133335L5.13978 0.177779C4.99458 0.177779 4.90747 0.192593 4.87843 0.222222V0.0888885C4.76228 0.148149 4.67516 0.281482 4.61709 0.488889C4.58805 0.696297 4.54449 0.85926 4.48641 0.977778L4.31218 1.2C4.28315 1.25926 4.26863 1.31852 4.26863 1.37778C4.26863 1.40741 4.25411 1.45185 4.22507 1.51111L4.00728 1.91111C4.00728 1.97037 3.99276 2.01482 3.96373 2.04445C3.96373 2.07407 3.96373 2.1037 3.96373 2.13333L3.70238 2.53333C3.55719 2.85926 3.44104 3.15556 3.35392 3.42222C3.26681 3.68889 3.22325 3.85185 3.22325 3.91111L2.657 5.02222H2.56989L2.48277 5.24444C2.48277 5.48148 2.33758 5.79259 2.0472 6.17778L2.00364 6.31111C1.9746 6.31111 1.94556 6.32593 1.91653 6.35556V6.53333L0.827591 8.93333H0.740476C0.740476 9.11111 0.725957 9.21481 0.696919 9.24444L0.566246 9.46667C0.50817 9.58519 0.464612 9.68889 0.435574 9.77778L0.392017 10C0.362978 10.0296 0.33394 10.0444 0.304902 10.0444V10.0889C0.217787 10.1778 0.130672 10.3407 0.0435574 10.5778L0 10.5333L0 10.6667C0.0580766 10.7259 0.116153 10.7556 0.17423 10.7556L0.130672 10.8889H0.217787C0.246825 10.9481 0.987302 11.1259 2.43922 11.4222C2.49729 11.4222 2.62796 11.437 2.83123 11.4667C3.06354 11.4667 3.22325 11.4963 3.31036 11.5556L3.61527 11.6444L3.57171 11.7333L4.0944 11.8667L4.05084 11.9111L4.3993 11.8667L4.74776 11.9556L4.83487 11.8667C4.86391 11.8667 4.92199 11.8815 5.0091 11.9111C5.09622 11.9111 5.21237 11.9259 5.35756 11.9556L5.48823 12.0444L5.92381 11.9556L6.09804 11.8222C6.12708 11.7926 6.1416 11.763 6.1416 11.7333C6.1416 11.7037 6.15612 11.6741 6.18515 11.6444L6.31583 11.3333C6.31583 11.3333 6.34486 11.2593 6.40294 11.1111H6.4465C6.56265 10.9926 6.66429 10.7852 6.7514 10.4889H6.83851C6.89659 10.4296 6.91111 10.3556 6.88207 10.2667C6.88207 10.1481 6.94015 10.0889 7.0563 10.0889L7.14342 9.82222C7.20149 9.7037 7.24505 9.58519 7.27409 9.46667C7.33217 9.34815 7.41928 9.24444 7.53543 9.15556L7.57899 9.11111V9.73333C7.57899 9.85185 7.56447 9.97037 7.53543 10.0889C7.53543 10.1778 7.53543 10.2815 7.53543 10.4H7.57899C7.57899 10.4296 7.56447 10.4593 7.53543 10.4889C7.53543 10.6667 7.53543 10.7852 7.53543 10.8444C7.56447 10.8741 7.57899 10.9185 7.57899 10.9778C7.57899 11.0667 7.56447 11.1556 7.53543 11.2444C7.53543 11.3037 7.53543 11.363 7.53543 11.4222V11.8222C7.56447 11.8222 7.57899 11.8519 7.57899 11.9111C7.57899 11.9704 7.56447 12.1481 7.53543 12.4444C7.53543 12.7111 7.52091 13.0963 7.49188 13.6H7.53543C7.53543 13.7481 7.52091 13.9704 7.49188 14.2667C7.49188 14.563 7.46284 14.7852 7.40476 14.9333C7.37572 15.7926 7.34668 16.4296 7.31765 16.8444C7.28861 17.2593 7.25957 17.5852 7.23053 17.8222C7.23053 18.0296 7.21601 18.2222 7.18697 18.4C7.18697 18.5481 7.18697 18.7704 7.18697 19.0667C7.18697 19.2148 7.20149 19.3037 7.23053 19.3333L7.27409 20.3111C7.21601 20.3704 7.1289 22.0593 7.01274 25.3778H7.0563C7.02726 25.5556 7.01274 25.7333 7.01274 25.9111C7.01274 26.0889 6.99823 26.2667 6.96919 26.4444V27.6444C6.96919 27.8815 6.96919 28.2963 6.96919 28.8889C6.99823 29.4519 7.02726 30.2074 7.0563 31.1556C7.02726 31.1852 7.01274 31.2296 7.01274 31.2889L7.0563 31.4667C7.0563 31.4963 7.08534 31.5407 7.14342 31.6V31.6444L7.23053 31.6V31.6444C7.28861 31.6444 7.31765 31.6296 7.31765 31.6C7.34668 31.5407 7.39024 31.5111 7.44832 31.5111C7.41928 31.5111 7.47736 31.5259 7.62255 31.5556C7.79678 31.5852 7.98553 31.6148 8.1888 31.6444C8.39206 31.6444 8.58081 31.6593 8.75504 31.6889C8.95831 31.7185 9.07446 31.7333 9.1035 31.7333L12.501 31.7333C12.9075 31.7333 13.1398 31.7481 13.1979 31.7778V31.7333C13.3141 31.7037 13.3866 31.6741 13.4157 31.6444C13.3866 31.5259 13.3576 31.4667 13.3286 31.4667C13.3286 31.437 13.3286 31.3926 13.3286 31.3333H13.8948C13.8948 31.2444 13.8803 31.1407 13.8513 31.0222C13.8222 30.8741 13.8077 30.7259 13.8077 30.5778C13.8077 30.4593 13.8222 30.3852 13.8513 30.3556C13.9093 30.2963 13.9384 30.237 13.9384 30.1778C13.9384 30.1481 13.9239 30.1185 13.8948 30.0889C13.8948 30.0593 13.8948 30.0296 13.8948 30L13.9384 29.9111C13.9674 29.8815 13.9819 29.763 13.9819 29.5556V29.0667C13.9819 28.5926 13.9674 28.2815 13.9384 28.1333C13.9093 27.9556 13.8948 27.7778 13.8948 27.6V26.9778C13.8948 26.8593 13.8948 26.5926 13.8948 26.1778C13.8948 25.763 13.9093 25.2148 13.9384 24.5333H13.8948C13.8948 24.3852 13.8948 24.3407 13.8948 24.4C13.8948 24.4296 13.8948 24.3556 13.8948 24.1778C13.9239 23.9704 13.9384 23.5556 13.9384 22.9333C13.9674 22.3111 13.9965 21.2593 14.0255 19.7778H14.069V19.7333C14.069 19.6741 14.0836 19.5259 14.1126 19.2889C14.1416 19.0519 14.1562 18.7259 14.1562 18.3111L14.1997 13.7333C14.2288 13.5852 14.2433 13.437 14.2433 13.2889C14.2433 13.1407 14.2578 12.9926 14.2868 12.8444H14.1997L14.2868 12.8L14.3304 11.6C14.3885 11.3037 14.4175 11.1407 14.4175 11.1111H14.3739V9.24444C14.3449 9.21481 14.3304 9.03704 14.3304 8.71111V7.2C14.3304 6.78519 14.3449 6.47407 14.3739 6.26666C14.403 6.05926 14.4175 5.94074 14.4175 5.91111L14.3739 2.08889C14.3739 2.02963 14.3739 2 14.3739 2C14.403 2 14.4175 1.97037 14.4175 1.91111C14.3885 1.88148 14.3739 1.85185 14.3739 1.82222ZM13.1108 6.4C13.1108 6.48889 13.1253 6.54815 13.1543 6.57778L13.1108 6.93333L13.1543 11.9556V12.2667C13.1543 12.5926 13.1398 12.9333 13.1108 13.2889C13.0817 13.6444 13.0672 13.9852 13.0672 14.3111C13.0672 14.5481 13.0672 14.7407 13.0672 14.8889C13.0963 15.037 13.1108 15.2148 13.1108 15.4222C13.1108 15.6296 13.0963 15.7481 13.0672 15.7778L13.0672 16.8C13.0672 16.8593 13.0527 16.9185 13.0237 16.9778C13.0237 17.037 13.0237 17.0963 13.0237 17.1556C13.0237 17.3333 13.0237 17.5111 13.0237 17.6889C13.0527 17.8667 13.0672 18.0296 13.0672 18.1778C13.0672 18.6222 13.0527 19.0963 13.0237 19.6C13.0237 20.0741 12.9946 20.5185 12.9366 20.9333L13.0237 20.9778C12.9946 21.0667 12.9801 21.2444 12.9801 21.5111L13.0237 22.3556V23.6C13.0237 23.6593 13.0382 23.7037 13.0672 23.7333C13.0382 23.763 13.0237 24 13.0237 24.4444C13.0237 24.7407 13.0237 25.0519 13.0237 25.3778C13.0527 25.7037 13.0672 26.0296 13.0672 26.3556C13.0672 27.363 13.0527 28.163 13.0237 28.7556C12.9946 29.3185 12.9366 29.7481 12.8494 30.0444C12.7914 30.3407 12.7042 30.5333 12.5881 30.6222C12.501 30.6815 12.3703 30.7111 12.1961 30.7111H11.6298C11.3975 30.7111 11.2088 30.7259 11.0636 30.7556L9.01639 30.9778C8.95831 30.9778 8.91475 30.9778 8.88571 30.9778C8.85668 30.9481 8.81312 30.9333 8.75504 30.9333L8.66793 30.9778C8.34851 30.9778 8.17428 30.963 8.14524 30.9333L8.10168 25.2444C8.13072 24.7111 8.14524 24.2815 8.14524 23.9556C8.17428 23.6296 8.1888 23.1556 8.1888 22.5333C8.1888 21.9111 8.1888 21.0222 8.1888 19.8667C8.21783 18.6815 8.27591 16.9926 8.36302 14.8V14.2222C8.36302 13.9259 8.37754 13.7333 8.40658 13.6444C8.34851 13.6444 8.31947 13.5852 8.31947 13.4667H8.36302C8.4211 13.4074 8.45014 13.2889 8.45014 13.1111C8.45014 12.9333 8.45014 12.7556 8.45014 12.5778C8.45014 12.163 8.43562 11.9259 8.40658 11.8667C8.40658 11.8074 8.40658 11.7481 8.40658 11.6889L8.4937 11.6444H8.40658C8.43562 11.4667 8.45014 11.3185 8.45014 11.2C8.45014 11.0519 8.45014 10.9037 8.45014 10.7556V10.1333C8.4211 10.1037 8.40658 9.97037 8.40658 9.73333C8.40658 9.67407 8.40658 9.51111 8.40658 9.24444C8.43562 8.97778 8.46466 8.62222 8.4937 8.17778C8.46466 8.14815 8.45014 8.02963 8.45014 7.82222C8.45014 7.55555 8.52274 7.34815 8.66793 7.2C8.58081 6.93333 8.4937 6.8 8.40658 6.8L8.31947 6.84444V6.75556C8.17428 6.81481 8.08716 6.88889 8.05812 6.97778L7.44832 7.82222L7.09986 8.57778H7.01274L6.27227 10.2222H6.18515V10.3111L6.22871 10.2667C6.11256 10.3852 6.01092 10.5037 5.92381 10.6222C5.86573 10.7407 5.80766 10.8593 5.74958 10.9778C5.6915 11.0667 5.66246 11.1556 5.66246 11.2444L5.61891 11.3333C5.58987 11.363 5.54631 11.3778 5.48823 11.3778L0.958263 10.1778C0.958263 10.2074 0.943744 10.237 0.914706 10.2667C0.914706 10.2074 0.987301 10.0593 1.13249 9.82222C1.27768 9.58519 1.35028 9.43704 1.35028 9.37778H1.39384C1.45191 9.25926 1.52451 9.06667 1.61162 8.8C1.69874 8.53333 1.77134 8.37037 1.82941 8.31111L1.91653 7.91111H2.00364L2.17787 7.42222C2.20691 7.36296 2.22143 7.33333 2.22143 7.33333C2.22143 7.3037 2.23595 7.25926 2.26499 7.2L2.657 6.35556C2.68604 6.2963 2.70056 6.25185 2.70056 6.22222C2.7296 6.16296 2.75864 6.1037 2.78767 6.04444L3.09258 5.28889L3.17969 5.24444L3.31036 4.8L3.96373 3.46667C3.99276 3.40741 4.00728 3.37778 4.00728 3.37778C4.00728 3.34815 4.0218 3.3037 4.05084 3.24445L4.18151 2.84444C4.23959 2.84444 4.28315 2.82963 4.31218 2.8L4.31218 2.66667C4.34122 2.63704 4.41382 2.51852 4.52997 2.31111C4.64612 2.07407 4.79132 1.80741 4.96555 1.51111H5.0091L4.96555 1.37778H5.22689C5.40112 1.37778 5.50275 1.36296 5.53179 1.33333V1.37778C6.17063 1.34815 6.70784 1.33333 7.14342 1.33333C7.57899 1.33333 7.92745 1.33333 8.1888 1.33333L9.27773 1.33333L10.628 1.15556L12.109 1.15556V1.06667L13.2415 1.06667C13.2415 1.24444 13.2415 1.43704 13.2415 1.64445C13.2705 1.85185 13.285 2.07407 13.285 2.31111V2.75555C13.256 2.75555 13.2269 2.77037 13.1979 2.8V3.6L13.1108 6.4Z" fill="#9EB5C8"/>
<path d="M36.8152 16.2222L36.7716 13.9111C36.7136 13.4667 36.67 13.0667 36.641 12.7111C36.6119 12.3259 36.5974 12 36.5974 11.7333C36.5974 10.963 36.641 10.1778 36.7281 9.37778H36.641V8.4C36.6119 8.37037 36.5974 8.34074 36.5974 8.31111L36.4232 5.28889L36.1618 4.44444C36.1618 4.38518 36.0312 3.95555 35.7698 3.15555C35.3923 2.8 35.1019 2.53333 34.8987 2.35556C34.6954 2.14815 34.5502 2 34.4631 1.91111C34.376 1.82222 34.3324 1.76296 34.3324 1.73333C34.3324 1.7037 34.3324 1.68889 34.3324 1.68889L33.7226 1.33333L32.5901 0.8L30.4558 0.444444C30.2235 0.444444 29.9767 0.444444 29.7153 0.444444C29.454 0.414815 29.1927 0.4 28.9313 0.4C28.6119 0.4 28.2925 0.444445 27.9731 0.533335C27.6827 0.592593 27.4213 0.622222 27.189 0.622222C27.16 0.622222 26.9132 0.651851 26.4485 0.71111C26.013 0.740741 25.3741 0.814815 24.532 0.933332L24.3578 0.977778C23.5157 1.18518 23.0511 1.28889 22.9639 1.28889L22.8333 1.33333C22.8333 1.39259 22.7897 1.43704 22.7026 1.46667C22.6155 1.46667 22.5429 1.46667 22.4848 1.46667L22.3977 1.55555C22.3396 1.61481 22.238 1.65926 22.0928 1.68889C21.9476 1.68889 21.8024 1.73333 21.6572 1.82222L21.483 1.91111C21.4249 1.97037 21.3233 2.02963 21.1781 2.08889C21.0329 2.11852 20.8296 2.22222 20.5683 2.4C20.3069 2.57778 19.9875 2.87407 19.61 3.28889C19.2616 3.67407 18.8696 4.23704 18.434 4.97778H18.3904C18.3323 5.03704 18.2017 5.80741 17.9984 7.28889H17.9113L17.7371 8.48889L17.6935 10.5778C17.6935 10.8741 17.708 11.0667 17.7371 11.1556L17.7806 11.2444C17.8097 11.4815 17.8242 11.6889 17.8242 11.8667C17.8242 12.0148 17.8242 12.1185 17.8242 12.1778H17.8677C17.8968 12.2074 18.0274 12.6815 18.2597 13.6C18.6082 14.2222 18.855 14.7111 19.0002 15.0667C19.1745 15.4222 19.3051 15.7037 19.3922 15.9111C19.5084 16.0889 19.6245 16.237 19.7407 16.3556C19.8569 16.4741 20.0601 16.5926 20.3505 16.7111V16.8444L21.1781 17.4222C21.3233 17.5407 21.4394 17.6444 21.5266 17.7333C21.6137 17.7926 21.7153 17.8667 21.8315 17.9556C21.9766 18.0444 22.1654 18.1333 22.3977 18.2222C22.63 18.3111 22.993 18.4148 23.4866 18.5333V18.6222L24.4449 18.8444C24.5901 18.9037 24.7498 18.9333 24.924 18.9333C25.0983 18.9333 25.2725 18.9333 25.4467 18.9333H26.1001C26.2162 18.9333 26.3324 18.9333 26.4485 18.9333C26.5647 18.9333 26.6663 18.9481 26.7534 18.9778H26.9277V18.8889C28.1473 18.6222 28.8587 18.4889 29.062 18.4889H29.1491C29.2362 18.4889 29.3088 18.4593 29.3669 18.4C29.6282 18.4 29.7589 18.5926 29.7589 18.9778C29.7589 19.3037 29.7589 19.5704 29.7589 19.7778C29.7589 19.9556 29.7444 20.1481 29.7153 20.3556C29.6863 20.563 29.6282 20.8148 29.5411 21.1111C29.483 21.3778 29.3959 21.763 29.2798 22.2667H29.2362C29.062 22.5333 28.9604 22.7407 28.9313 22.8889C28.9023 23.0074 28.8442 23.1111 28.7571 23.2C28.67 23.2593 28.4957 23.3333 28.2344 23.4222C27.973 23.5111 27.523 23.6593 26.8841 23.8667V23.8222C26.826 23.8222 26.7389 23.8222 26.6228 23.8222C26.5357 23.7926 26.4631 23.7778 26.405 23.7778L26.2743 23.6889C25.316 23.1259 24.7643 22.6518 24.6191 22.2667L24.5756 22.1333C24.5465 22.1333 24.5175 22.1185 24.4885 22.0889L24.4449 22C24.4449 21.9407 24.4449 21.8963 24.4449 21.8667C24.4739 21.837 24.4885 21.7926 24.4885 21.7333C24.4304 21.7333 24.3868 21.7185 24.3578 21.6889L24.14 21.6L24.0964 21.6889L24.0529 21.6444C23.8787 21.6444 23.7044 21.6444 23.5302 21.6444C23.385 21.6148 23.2253 21.6 23.0511 21.6V21.6444H22.9639C22.8188 21.6444 22.601 21.6593 22.3106 21.6889C22.0202 21.7185 21.6427 21.7333 21.1781 21.7333L17.9984 21.7778V21.8667C17.9113 21.8667 17.8677 21.837 17.8677 21.7778L17.6499 21.8667C17.6499 22.4593 17.679 22.9778 17.7371 23.4222C17.7951 23.8667 17.8242 24.3407 17.8242 24.8444H17.8677C17.8968 24.9037 17.9113 25.0222 17.9113 25.2V25.5556H17.9984L18.0855 26.5778V26.6667C18.0565 26.8148 18.0855 26.9926 18.1726 27.2C18.2888 27.3778 18.463 27.6741 18.6953 28.0889C18.9567 28.5926 19.189 28.963 19.3922 29.2C19.5955 29.4074 19.7697 29.5556 19.9149 29.6444C20.0601 29.7333 20.1618 29.7926 20.2198 29.8222C20.3069 29.8519 20.3505 29.9259 20.3505 30.0444H20.4812C20.4812 30.0741 20.5247 30.1185 20.6118 30.1778C20.699 30.237 20.9893 30.3704 21.483 30.5778C21.8895 30.7852 22.1654 30.8889 22.3106 30.8889V30.9333L24.7934 31.6889L24.8805 31.6444L26.2743 31.7778V31.8667L27.7117 31.9111C27.7407 31.9407 28.2054 31.9556 29.1055 31.9556V32H29.4104C30.2816 31.8815 30.7462 31.7926 30.8043 31.7333L31.2834 31.5556L32.3288 31.2889L33.3306 30.6667C33.6791 30.4593 33.8533 30.3556 33.8533 30.3556C33.8823 30.3556 33.9114 30.3111 33.9404 30.2222H34.0275C34.0566 30.1926 34.1292 30.1037 34.2453 29.9556C34.3615 29.8074 34.5212 29.6 34.7244 29.3333L34.8551 29.1556H34.9858C34.9858 29.1259 35.0294 29.037 35.1165 28.8889C35.2326 28.7407 35.3488 28.5778 35.4649 28.4C35.6101 28.2222 35.7263 28.0593 35.8134 27.9111C35.9295 27.763 35.9876 27.6741 35.9876 27.6444L35.9005 27.6889C35.9295 27.5111 35.9731 27.3037 36.0312 27.0667C36.0892 26.8 36.1473 26.5926 36.2054 26.4444V26.3111L36.5103 24.7111C36.6265 24.3556 36.67 23.9407 36.641 23.4667C36.6119 22.9926 36.6555 22.5778 36.7716 22.2222L36.9459 19.3778C36.9459 19.2296 36.9314 19.1111 36.9023 19.0222C36.9023 18.9037 36.9023 18.6519 36.9023 18.2667C36.9023 17.8815 36.9168 17.6444 36.9459 17.5556C36.9749 17.4667 36.9894 17.363 36.9894 17.2444C36.9894 17.0074 36.9749 16.8741 36.9459 16.8444V16.2222H36.8152ZM35.7698 18.3111L35.7698 24.9778L35.552 25.8667C35.523 26.0741 35.494 26.2222 35.4649 26.3111C35.4649 26.3704 35.4649 26.4444 35.4649 26.5333H35.4214C35.3633 26.5926 35.3197 26.7704 35.2907 27.0667H35.2036V27.2889L34.8116 28.1778C34.7825 28.2074 34.768 28.237 34.768 28.2667C34.768 28.2963 34.7535 28.3259 34.7244 28.3556C34.7244 28.3852 34.7244 28.4296 34.7244 28.4889L34.6373 28.6222C34.5793 28.8296 34.5067 28.9778 34.4195 29.0667C34.3615 29.1556 34.2308 29.3037 34.0275 29.5111L32.8515 30.1778C32.7934 30.2074 32.7353 30.2222 32.6772 30.2222C32.6482 30.2222 32.6047 30.237 32.5466 30.2667L31.6754 30.6667H31.5012V30.7556L30.7607 30.8889L29.4976 31.0667V31.0222C29.4685 31.0519 29.3959 31.0667 29.2798 31.0667V31.0222C29.2507 31.0519 29.2217 31.0667 29.1927 31.0667L25.9694 31.2L25.621 31.1556V31.0667L22.9204 30.4V30.3111C22.7462 30.3111 22.6445 30.2963 22.6155 30.2667L22.5284 30.1778C21.9186 29.8519 21.5556 29.6593 21.4394 29.6C21.3233 29.5111 21.2507 29.437 21.2217 29.3778L20.6118 29.0222C20.2924 28.4296 20.0456 27.9852 19.8714 27.6889C19.6971 27.3926 19.5955 27.2296 19.5665 27.2L19.4794 26.6667C19.4503 26.6667 19.3922 26.5778 19.3051 26.4C19.247 26.1926 19.189 25.9704 19.1309 25.7333C19.0438 25.4667 18.9567 25.1556 18.8696 24.8L18.5211 23.4667C18.4921 23.437 18.4775 23.3481 18.4775 23.2C18.4775 22.9037 18.5211 22.7259 18.6082 22.6667C18.6953 22.6074 18.7244 22.5778 18.6953 22.5778H18.8696V22.4889L21.3959 22.2222H22.7897V22.1333L23.3995 22.0889C23.4286 22.1185 23.5737 22.1333 23.8351 22.1333C23.8641 22.4 23.9077 22.6519 23.9658 22.8889C24.0238 23.0963 24.0819 23.2889 24.14 23.4667L24.0964 23.6444C24.0964 23.6741 24.1545 23.7185 24.2707 23.7778C24.4159 23.837 24.4885 23.9556 24.4885 24.1333L24.532 24.2222C24.5901 24.3111 24.6336 24.3704 24.6627 24.4C24.7208 24.4296 24.7788 24.4741 24.8369 24.5333L26.7534 25.2444C26.8115 25.2741 26.9277 25.3037 27.1019 25.3333C27.3052 25.3333 27.4939 25.3333 27.6681 25.3333C27.7262 25.3333 27.7843 25.3333 27.8424 25.3333C27.9005 25.3037 27.944 25.2889 27.9731 25.2889L28.8442 25.0222L29.0184 24.8444C29.0475 24.8148 29.1781 24.6519 29.4104 24.3556C29.6428 24.0593 29.9767 23.6296 30.4123 23.0667L30.5429 22.0889H30.6301L30.7172 19.4667C30.7172 19.2296 30.7027 19.0222 30.6736 18.8444C30.6446 18.637 30.6301 18.4296 30.6301 18.2222H30.7172L30.4558 17.9111C30.4268 17.8815 30.3977 17.8222 30.3687 17.7333C30.3687 17.6148 30.3687 17.5407 30.3687 17.5111C30.1945 17.5111 30.0493 17.5556 29.9331 17.6444C29.846 17.7333 29.7299 17.8074 29.5847 17.8667L28.1473 18.0444C28.0021 18.0444 27.8279 18.0593 27.6246 18.0889C27.4504 18.0889 27.2616 18.0889 27.0583 18.0889C26.9712 18.0889 26.8696 18.0889 26.7534 18.0889C26.6373 18.0593 26.5066 18.0296 26.3614 18H25.6645L23.4866 17.6889L21.6137 16.8889C21.5846 16.8593 21.5701 16.8296 21.5701 16.8L21.3959 16.8444C21.3668 16.8444 21.3233 16.8148 21.2652 16.7556L21.0039 16.4889C20.9167 16.3704 20.5683 16.0593 19.9585 15.5556L19.8278 15.4222C19.7117 15.2444 19.61 15.0963 19.5229 14.9778C19.4648 14.8296 19.4068 14.7111 19.3487 14.6222L19.1309 14.0444C18.9857 13.5407 18.9131 13.2741 18.9131 13.2444H18.8696L18.7824 11.6444C18.7824 11.4963 18.7824 11.3481 18.7824 11.2C18.8115 11.0222 18.826 10.8593 18.826 10.7111C18.797 10.1481 18.7824 9.71852 18.7824 9.42222C18.7824 9.0963 18.7824 8.87407 18.7824 8.75556C18.7824 8.60741 18.7824 8.48889 18.7824 8.4C18.8115 8.28148 18.8405 8.16296 18.8696 8.04445C18.9857 7.27408 19.0583 6.68148 19.0873 6.26666C19.1454 5.85185 19.1745 5.62963 19.1745 5.6L19.2616 5.46667L19.3051 5.51111C19.3632 5.51111 19.4213 5.39259 19.4794 5.15555C19.5374 4.88889 19.7262 4.5037 20.0456 4C20.3069 3.73333 20.5102 3.52592 20.6554 3.37778C20.8296 3.22963 20.9603 3.11111 21.0474 3.02222L21.2652 2.8C21.2652 2.8 21.2942 2.78519 21.3523 2.75555H21.4394C21.4975 2.6963 21.5991 2.62222 21.7443 2.53333C21.8895 2.44445 22.238 2.23704 22.7897 1.91111L23.0946 1.86667L25.0983 1.64445V1.55555L28.4522 1.37778C28.7426 1.31852 28.8732 1.28889 28.8442 1.28889C28.9604 1.28889 29.8896 1.33333 31.6319 1.42222L32.9386 1.86667L33.1128 2.04445C33.1709 2.13333 33.229 2.19259 33.2871 2.22222C33.3742 2.25185 33.4758 2.31111 33.592 2.4C33.7371 2.45926 33.8969 2.57778 34.0711 2.75555C34.2453 2.93333 34.4486 3.2 34.6809 3.55556C35.1745 4.32593 35.4794 4.96296 35.5956 5.46667C35.7408 5.94074 35.8134 6.38519 35.8134 6.8H35.8569C35.886 6.85926 35.9005 7.11111 35.9005 7.55556H35.9441V13.4222L35.7698 14.0889V18.3111ZM30.4558 9.91111C30.4558 9.79259 30.4703 9.71852 30.4994 9.68889L30.4558 9.37778C30.4268 9.34815 30.3252 9.22963 30.1509 9.02222C30.0057 8.78518 29.7734 8.45926 29.454 8.04445V8C29.2507 7.91111 29.0765 7.83704 28.9313 7.77778C28.7861 7.71852 28.6409 7.67407 28.4957 7.64444L26.8406 7.55556V7.6C26.6082 7.6 26.4776 7.61482 26.4485 7.64444L26.2308 7.73334C26.2308 7.82222 26.0565 8.05926 25.7081 8.44444L25.621 8.62222C25.5629 8.62222 25.5338 8.63704 25.5338 8.66667L25.2289 9.68889C25.2289 9.74815 25.2144 9.82222 25.1854 9.91111C25.1854 9.97037 25.1854 10.0296 25.1854 10.0889L25.2289 10.3556H25.316L25.2289 10.4444C25.2289 10.5037 25.2435 10.5333 25.2725 10.5333L25.5338 11.5111H25.621V11.6L26.1872 12.2222C26.2743 12.3111 26.3759 12.3852 26.4921 12.4444H26.5792C26.9277 12.5926 27.189 12.7111 27.3632 12.8C27.5665 12.8593 27.6972 12.9037 27.7553 12.9333L27.8424 12.8H28.8878L29.1055 12.7111L29.454 12.4889C29.5411 12.4593 29.6137 12.3556 29.6718 12.1778L29.8896 12.1333C30.0928 11.8963 30.2816 11.1556 30.4558 9.91111ZM28.8006 12.3111C28.6554 12.3111 28.5683 12.3259 28.5393 12.3556V12.4444H27.7117V12.3556L27.0148 12.1333C26.2308 11.3333 25.8387 10.6222 25.8387 10C25.8387 9.85185 25.8387 9.70371 25.8387 9.55556C25.8678 9.40741 25.8968 9.25926 25.9259 9.11111L26.3179 8.44444C26.434 8.41481 26.6663 8.35556 27.0148 8.26667C27.3632 8.14815 27.7117 8.05926 28.0602 8C28.699 8 29.1927 8.25185 29.5411 8.75556C29.9186 9.22963 30.1074 9.65926 30.1074 10.0444C30.1074 10.0444 30.0783 10.1926 30.0203 10.4889L29.1055 12.1333L28.8006 12.3111Z" fill="#9EB5C8"/>
<path d="M55.7494 3.02222C55.7494 2.93333 55.7349 2.8 55.7059 2.62222C55.7059 2.44444 55.6913 2.26667 55.6623 2.08889C55.6623 1.88148 55.6478 1.68889 55.6187 1.51111C55.6187 1.33333 55.6187 1.21481 55.6187 1.15556C55.6187 1.03704 55.6187 0.933334 55.6187 0.844445C55.6478 0.755555 55.6623 0.651852 55.6623 0.533335C55.5171 0.503704 55.4445 0.474074 55.4445 0.444444C55.4735 0.414815 55.4155 0.4 55.2703 0.4L55.1832 0.488889C55.1832 0.51852 55.1541 0.533335 55.096 0.533335C55.038 0.533335 54.9654 0.51852 54.8783 0.488889C54.7911 0.459259 54.7186 0.444444 54.6605 0.444444C54.5734 0.444444 54.5153 0.459259 54.4862 0.488889L53.7893 0.533335C53.557 0.533335 53.3392 0.54815 53.136 0.577779C52.9327 0.577779 52.7585 0.577779 52.6133 0.577779C52.5262 0.577779 52.439 0.577779 52.3519 0.577779C52.2939 0.54815 52.2358 0.533335 52.1777 0.533335V0.622222C52.1487 0.592593 52.1196 0.592593 52.0906 0.622222C52.0616 0.622222 52.018 0.607408 51.9599 0.577779V0.533335C51.9309 0.562964 51.292 0.577779 50.0434 0.577779C49.753 0.577779 49.5933 0.562964 49.5643 0.533335V0.577779C49.5352 0.607408 49.4917 0.622222 49.4336 0.622222C49.3465 0.622222 49.2884 0.592593 49.2594 0.533335C49.2303 0.474075 49.1868 0.444444 49.1287 0.444444L49.0416 0.488889C49.0706 0.459259 49.0125 0.503704 48.8673 0.622222C48.7221 0.740741 48.6496 0.814815 48.6496 0.844445L48.6931 1.02222L48.5189 1.15556V1.28889L48.2575 1.64445C48.2285 1.67407 48.1995 1.7037 48.1704 1.73333C48.1414 1.73333 47.9817 1.95556 47.6913 2.4C47.6622 2.42963 47.6332 2.45926 47.6042 2.48889C47.6042 2.51852 47.5897 2.54815 47.5606 2.57778V2.66667C47.5025 2.72593 47.4154 2.85926 47.2993 3.06667C47.1831 3.24444 47.096 3.33333 47.0379 3.33333V3.46667C47.0379 3.4963 46.9799 3.58518 46.8637 3.73333C46.7766 3.85185 46.6749 3.98519 46.5588 4.13333C46.4426 4.25185 46.341 4.37037 46.2539 4.48889C46.1668 4.60741 46.1232 4.66667 46.1232 4.66667L46.0361 4.88889C46.0071 4.91852 45.92 5.02222 45.7748 5.2C45.6586 5.37778 45.4844 5.65926 45.2521 6.04444L45.1214 6.35556C44.9181 6.8 44.7294 7.08148 44.5551 7.2V7.28889C44.5261 7.31852 44.4971 7.33333 44.468 7.33333V7.46667C44.4971 7.46667 44.41 7.61481 44.2067 7.91111C44.0034 8.20741 43.7856 8.53333 43.5533 8.88889C43.321 9.24444 43.1032 9.57037 42.9 9.86667C42.6967 10.163 42.6096 10.3111 42.6386 10.3111V10.4L42.508 10.4889L41.8982 11.5556C41.8982 11.5852 41.8691 11.6296 41.811 11.6889C41.4045 12.2519 41.1432 12.6074 41.027 12.7556C40.9399 12.8741 40.8963 12.9481 40.8963 12.9778C40.8963 12.9778 40.9108 12.9926 40.9399 13.0222H40.8963H40.9399C40.9399 13.0519 40.8963 13.1407 40.8092 13.2889C40.7511 13.437 40.6785 13.5852 40.5914 13.7333C40.5043 13.8815 40.4172 14.0296 40.3301 14.1778C40.243 14.2963 40.1704 14.3556 40.1123 14.3556V14.4889C40.0252 14.4889 39.9526 14.6963 39.8945 15.1111L39.8074 15.6L39.1976 16.6222L39.2411 16.7556H39.3283V17.4667L39.6767 20.3556V20.9333C39.7058 20.963 39.7203 20.9926 39.7203 21.0222L39.7638 21.5556L39.7203 21.6889C39.7203 21.7481 39.7203 21.7778 39.7203 21.7778C39.7493 21.7778 39.7638 21.8074 39.7638 21.8667L39.7203 21.9111C39.6912 21.9407 39.6767 22.0296 39.6767 22.1778C39.6767 22.8889 39.8655 23.2444 40.243 23.2444C40.301 23.2444 40.3736 23.2444 40.4608 23.2444C40.5479 23.2148 40.635 23.2 40.7221 23.2L44.5987 23.1556C44.6278 23.1259 44.7149 23.1111 44.8601 23.1111C45.0052 23.1111 45.0924 23.1259 45.1214 23.1556C45.1795 23.1556 45.3973 23.1556 45.7748 23.1556C46.1813 23.1556 46.7475 23.1407 47.4735 23.1111V23.0667L48.0833 23.1556H48.3447C48.577 23.1556 48.7221 23.3037 48.7802 23.6C48.8383 23.8667 48.8673 24.163 48.8673 24.4889V25.3778H48.8238C48.8238 25.4074 48.8238 25.4667 48.8238 25.5556C48.8528 25.6444 48.8673 25.763 48.8673 25.9111C48.8673 26.0889 48.8528 26.2963 48.8238 26.5333C48.8238 26.7407 48.8238 27.0074 48.8238 27.3333H48.7802L48.8238 27.3778C48.7947 27.4074 48.7802 27.437 48.7802 27.4667V28.5778L48.6931 28.6667C48.6931 28.7556 48.7076 28.8148 48.7367 28.8444H48.7802L48.6931 28.9778V31.2L48.7802 31.6889C48.8093 31.7185 48.8238 31.7926 48.8238 31.9111C48.8819 31.9111 48.9399 31.9111 48.998 31.9111C49.0561 31.8815 49.1142 31.8667 49.1722 31.8667H49.9563C49.9853 31.837 50.1015 31.8222 50.3047 31.8222C50.508 31.8222 50.9 31.8074 51.4808 31.7778H51.9164C52.1196 31.7778 52.2358 31.763 52.2648 31.7333H54.704V31.8222L54.8347 31.7333C54.8637 31.763 54.8783 31.8074 54.8783 31.8667C55.0815 31.837 55.1686 31.8074 55.1396 31.7778C55.1106 31.7481 55.1251 31.6741 55.1832 31.5556L55.2703 31.5556C55.2703 31.437 55.2848 31.363 55.3138 31.3333L55.3574 30.4889C55.3864 30.3407 55.401 30.0296 55.401 29.5556C55.43 29.0518 55.4735 28.3852 55.5316 27.5556C55.5607 27.4667 55.5752 27.3926 55.5752 27.3333C55.5752 27.2741 55.5897 27.2148 55.6187 27.1556L55.793 25.2444V24.4889C55.822 24.2519 55.8801 24.0889 55.9672 24C56.0543 23.8815 56.1414 23.8074 56.2285 23.7778C56.3447 23.7481 56.4754 23.7481 56.6206 23.7778C56.7658 23.7778 56.9109 23.763 57.0561 23.7333L57.8402 23.7778C57.8692 23.7481 57.9563 23.6889 58.1015 23.6C58.2467 23.4815 58.3629 23.3926 58.45 23.3333C58.45 23.1852 58.4355 23.0815 58.4064 23.0222C58.3774 22.963 58.3483 22.8741 58.3193 22.7556C58.3774 22.7556 58.4209 22.7704 58.45 22.8V22.7111H58.3629L58.3629 20.8C58.3919 20.7407 58.4064 20.5926 58.4064 20.3556C58.4064 20.2074 58.3919 20.0148 58.3629 19.7778C58.3629 19.5111 58.3629 19.3037 58.3629 19.1556C58.3629 19.0963 58.3629 18.9333 58.3629 18.6667C58.3629 18.3704 58.3774 17.9407 58.4064 17.3778C58.4064 17.2593 58.3919 17.1704 58.3629 17.1111C58.3629 17.0519 58.3629 16.9778 58.3629 16.8889C58.3629 16.7407 58.3774 16.6518 58.4064 16.6222C58.0289 16.4741 57.5788 16.4 57.0561 16.4C56.5625 16.3704 56.2285 16.3556 56.0543 16.3556V15.3778C56.0543 15.1704 56.0543 14.9926 56.0543 14.8444C56.0543 14.6667 56.0398 14.5185 56.0108 14.4C56.0108 14.3407 56.0108 14.2815 56.0108 14.2222C56.0398 14.1333 56.0543 14.0148 56.0543 13.8667C56.0543 13.7185 56.0398 13.5704 56.0108 13.4222C56.0108 13.2444 56.0108 13.037 56.0108 12.8L55.9672 12.1333V10.1778C55.9672 10.1185 55.9527 10.0593 55.9236 10C55.9236 9.94074 55.9236 9.88148 55.9236 9.82222L55.9672 9.73333C55.9962 9.7037 56.0108 9.6 56.0108 9.42222C56.0108 9.3037 55.9962 9.2 55.9672 9.11111C55.9672 8.99259 55.9672 8.9037 55.9672 8.84444L56.0108 8.8C56.0108 8.41482 55.9962 8.1037 55.9672 7.86667C55.9382 7.62963 55.9236 7.34815 55.9236 7.02222L55.8801 6.8H55.793V6.44444L55.7494 3.02222ZM57.9708 18.8889C57.9128 19.1259 57.8837 19.3333 57.8837 19.5111V21.9111C57.8837 22.1481 57.8547 22.3852 57.7966 22.6222L57.753 23.1111C57.695 23.1111 57.6369 23.1111 57.5788 23.1111C57.5498 23.0815 57.5062 23.0667 57.4482 23.0667L55.4445 23.0222C55.4155 22.9926 55.401 22.963 55.401 22.9333C55.43 22.8741 55.43 22.8296 55.401 22.8L55.1832 22.7556C55.1832 22.8444 55.1541 22.9333 55.096 23.0222C55.067 23.1111 54.9799 23.2296 54.8347 23.3778V23.9556C54.8347 24.0148 54.8202 24.0741 54.7911 24.1333C54.7911 24.163 54.7911 24.237 54.7911 24.3556C54.7911 24.4148 54.7911 24.5185 54.7911 24.6667C54.8202 24.7852 54.8492 24.963 54.8783 25.2V25.8222H54.9654L54.8783 25.8667V26.8L54.7911 27.6444C54.7911 27.7037 54.7911 27.7481 54.7911 27.7778C54.8202 27.8074 54.8347 27.8519 54.8347 27.9111H54.704L54.6605 30.1333C54.6605 30.2519 54.675 30.3259 54.704 30.3556H54.6605C54.6314 30.4741 54.6169 30.5926 54.6169 30.7111C54.6169 30.8 54.6024 30.9037 54.5734 31.0222L54.5298 31.0667C54.3846 31.0963 54.1378 31.1111 53.7893 31.1111H52.1777V31.2C52.1196 31.2 52.0906 31.1852 52.0906 31.1556L51.2194 31.1111H51.0017C50.7403 31.1111 50.479 31.1259 50.2176 31.1556C49.9853 31.1852 49.753 31.2 49.5207 31.2C49.3755 31.2 49.2884 31.2 49.2594 31.2C49.2594 31.1704 49.2594 30.9926 49.2594 30.6667V30.5778C49.2884 30.5778 49.3029 30.5481 49.3029 30.4889C49.2739 30.4593 49.2594 30.4296 49.2594 30.4L49.4336 28.5333C49.4626 28.4444 49.4917 28.4 49.5207 28.4H49.6078V28.2667V26.4444C49.6078 26.2667 49.6223 26.0593 49.6514 25.8222C49.6804 25.5852 49.6949 25.3481 49.6949 25.1111C49.6078 24.0148 49.4917 23.3333 49.3465 23.0667L49.0416 22.6222L44.8165 22.5778C44.7584 22.5778 44.7149 22.5778 44.6858 22.5778C44.6858 22.5481 44.6568 22.5333 44.5987 22.5333C44.5697 22.5333 44.4971 22.5333 44.3809 22.5333C44.2648 22.5037 44.076 22.4889 43.8147 22.4889C43.6695 22.4889 43.4953 22.5037 43.292 22.5333C43.1178 22.5333 42.9145 22.5333 42.6822 22.5333H42.3337L41.1577 22.4889C41.0125 22.4889 40.8673 22.5037 40.7221 22.5333C40.6059 22.5333 40.4753 22.5333 40.3301 22.5333C40.3301 22.3259 40.243 20.9481 40.0687 18.4H40.0252L40.0687 18.3111V17.6C40.0687 17.4815 40.0833 17.4074 40.1123 17.3778V16.8444C40.2285 16.7259 40.3301 16.6518 40.4172 16.6222L40.5479 16.2222C40.635 16.163 40.7221 16.0741 40.8092 15.9556C40.8673 15.837 40.9254 15.6741 40.9834 15.4667C41.0415 15.2593 41.0706 14.9926 41.0706 14.6667C41.1286 14.6667 41.1867 14.6222 41.2448 14.5333C41.3029 14.4444 41.4045 14.2963 41.5497 14.0889C41.6949 13.8519 41.8836 13.5407 42.1159 13.1556C42.3773 12.7407 42.7257 12.2222 43.1613 11.6C43.2194 11.363 43.292 11.2444 43.3791 11.2444V11.1111L43.4662 10.8889C43.7566 10.4444 43.9744 10.0741 44.1196 9.77778C44.2938 9.45185 44.4245 9.24444 44.5116 9.15556L44.9472 8.4C44.9762 8.34074 45.0198 8.28148 45.0778 8.22222C45.1069 8.19259 45.1214 8.16296 45.1214 8.13333H45.2085C45.2376 8.04444 45.2666 7.97037 45.2956 7.91111C45.3247 7.85185 45.3537 7.79259 45.3827 7.73334L45.4699 7.64444C45.5279 7.37778 45.6876 7.05185 45.949 6.66667C46.2394 6.25185 46.4717 5.94074 46.6459 5.73333V5.64444C46.733 5.55556 46.7766 5.48148 46.7766 5.42222H46.8637V5.33333C46.9799 5.15556 47.125 4.93333 47.2993 4.66667C47.4445 4.42963 47.6187 4.16296 47.822 3.86667C48.0543 3.54074 48.3301 3.15556 48.6496 2.71111C48.9109 2.32593 49.0416 2.11852 49.0416 2.08889C49.0706 2.05926 49.1142 2.02963 49.1722 2V1.91111L49.3029 1.82222L49.4336 1.42222H49.9563H50.0869C50.145 1.42222 50.1886 1.42222 50.2176 1.42222C50.2757 1.39259 50.3193 1.37778 50.3483 1.37778V1.42222L53.2666 1.33333C53.4118 1.33333 53.5425 1.33333 53.6587 1.33333C53.8038 1.3037 53.949 1.28889 54.0942 1.28889C54.1523 1.28889 54.2249 1.3037 54.312 1.33333C54.3991 1.33333 54.5153 1.34815 54.6605 1.37778L54.704 4.22222C54.7331 4.25185 54.7476 4.35556 54.7476 4.53333C54.7476 4.68148 54.7331 4.81481 54.704 4.93333C54.704 5.05185 54.704 5.14074 54.704 5.2L54.7911 5.91111V7.77778L54.8783 8.08889V10.3111H54.9654L55.0089 11.4222C55.0089 12.1926 55.0235 12.963 55.0525 13.7333C55.0815 14.4741 55.096 15.2444 55.096 16.0444C55.096 16.1037 55.0815 16.2074 55.0525 16.3556C55.0525 16.4741 55.0525 16.6074 55.0525 16.7556C55.0525 17.0222 55.096 17.1852 55.1832 17.2444C55.2993 17.3037 55.43 17.3333 55.5752 17.3333V17.2444C55.7204 17.2148 55.9382 17.2 56.2285 17.2C56.548 17.1704 56.7948 17.1556 56.969 17.1556C57.1142 17.1556 57.2013 17.1704 57.2304 17.2C57.2594 17.2 57.332 17.2 57.4482 17.2C57.5643 17.2 57.6369 17.1852 57.6659 17.1556L57.8837 17.1111V18.6667H57.9708V18.8889ZM51.3501 16.7111V15.7778H51.263L51.3066 12.1333C51.3066 11.5407 51.3646 11.0519 51.4808 10.6667L51.5243 10.3111C51.5534 9.48148 51.5824 9.05185 51.6115 9.02222C51.6115 8.81481 51.5969 8.6963 51.5679 8.66667L51.4808 8.44444C51.4227 8.44444 51.3791 8.45926 51.3501 8.48889C51.3211 8.48889 51.2775 8.48889 51.2194 8.48889C51.2194 8.34074 51.2049 8.19259 51.1759 8.04445C51.1759 7.86667 51.1759 7.7037 51.1759 7.55556C51.1759 7.4963 51.2049 7.31852 51.263 7.02222C51.0888 7.05185 51.0162 7.0963 51.0452 7.15556C51.0742 7.18519 51.0452 7.22963 50.9581 7.28889H50.871L50.0434 8.08889C49.9853 8.11852 49.9418 8.14815 49.9127 8.17778C49.9127 8.17778 49.8837 8.19259 49.8256 8.22222V8.35556C49.7385 8.35556 49.6514 8.47408 49.5643 8.71111C49.5062 8.94815 49.2739 9.24444 48.8673 9.6V9.68889C48.8383 9.71852 48.8093 9.74815 48.7802 9.77778C48.7512 9.77778 48.7076 9.80741 48.6496 9.86667V10C48.5915 10.0593 48.5479 10.0889 48.5189 10.0889V10.2222C48.2575 10.637 48.0978 10.8741 48.0397 10.9333C48.0107 10.9926 47.9671 11.0815 47.9091 11.2H47.822C47.7929 11.2296 47.7348 11.3037 47.6477 11.4222C47.5897 11.5111 47.488 11.6593 47.3428 11.8667H47.2557L47.2993 11.9556C47.2993 12.0148 47.2702 12.0741 47.2122 12.1333C47.1541 12.1926 47.1105 12.2667 47.0815 12.3556L46.0361 14C45.978 14.0593 45.92 14.0889 45.8619 14.0889V14.2222L45.7312 14.3111V14.4C45.4699 15.1704 45.3101 15.5852 45.2521 15.6444H45.165C45.1359 15.7037 45.0924 15.837 45.0343 16.0444C44.9762 16.2222 44.8891 16.4593 44.7729 16.7556L44.5116 17.0222C44.5116 17.1407 44.5552 17.2148 44.6423 17.2444V17.1111H44.7729L44.8165 17.3778C44.8455 17.3778 44.8746 17.3778 44.9036 17.3778C44.9327 17.3481 44.9762 17.3333 45.0343 17.3333L45.165 17.4222V17.3778C45.6586 17.3778 46.0071 17.3778 46.2103 17.3778C46.4136 17.3481 46.6314 17.3333 46.8637 17.3333V17.2889C47.4445 17.2593 47.8946 17.2444 48.214 17.2444C48.5334 17.2148 48.7221 17.2 48.7802 17.2C48.9545 17.2 49.0706 17.2148 49.1287 17.2444C49.4481 17.2444 49.8111 17.2296 50.2176 17.2C50.6532 17.1704 50.9436 17.0815 51.0888 16.9333L51.1323 16.8444C51.1323 16.7852 51.1178 16.7556 51.0888 16.7556L51.1323 16.6222C51.1614 16.6222 51.2049 16.6519 51.263 16.7111L51.4372 16.7556L51.3501 16.7111ZM50.3047 15.8667C50.3338 15.8963 50.3483 15.9407 50.3483 16H50.3047L50.2176 16.6222L49.8692 16.6667C49.8111 16.6667 49.6804 16.6815 49.4771 16.7111C49.3029 16.7111 49.0996 16.7111 48.8673 16.7111C48.8383 16.6815 48.7076 16.6667 48.4753 16.6667L48.1269 16.7556H47.3864H46.6459H45.8183C45.8183 16.7259 45.8183 16.7111 45.8183 16.7111C45.8474 16.6815 45.8619 16.6518 45.8619 16.6222C45.8619 16.5926 45.8764 16.5778 45.9054 16.5778L46.1232 16.2667C46.1813 16.2667 46.2249 16.2074 46.2539 16.0889C46.312 15.9704 46.4572 15.7926 46.6895 15.5556L47.0379 14.5333C47.096 14.3259 47.1686 14.1481 47.2557 14C47.3428 13.8222 47.4154 13.7185 47.4735 13.6889V13.6C47.4735 13.5704 47.5025 13.5556 47.5606 13.5556V13.4222C47.6187 13.3926 47.6477 13.3778 47.6477 13.3778C47.6768 13.3481 47.7203 13.3185 47.7784 13.2889L47.5606 13.1556C47.5897 13.1259 47.6187 13.1111 47.6477 13.1111C47.6768 13.0815 47.7058 13.0519 47.7348 13.0222V12.9333C47.7929 12.8741 47.8365 12.8444 47.8655 12.8444C47.8946 12.8148 47.9236 12.7852 47.9526 12.7556V12.6667C48.0978 12.4296 48.214 12.2519 48.3011 12.1333C48.3882 12.0148 48.4463 11.9407 48.4753 11.9111H48.5624L48.6496 11.6444C48.7076 11.6444 48.7512 11.6296 48.7802 11.6L48.8673 11.3333L49.3465 10.8444V10.7111C49.4336 10.7111 49.4771 10.6519 49.4771 10.5333H49.5207C49.5497 10.5037 49.5933 10.4296 49.6514 10.3111L49.7385 10.3111C49.7966 10.1037 49.8982 9.92593 50.0434 9.77778H50.0869C50.0869 10.1926 50.0724 10.5926 50.0434 10.9778C50.0434 11.363 50.0434 11.763 50.0434 12.1778C50.1305 12.563 50.2031 12.9481 50.2612 13.3333C50.3193 13.6889 50.3483 14.0741 50.3483 14.4889H50.3047C50.3338 14.5185 50.3483 14.563 50.3483 14.6222V15.5111L50.3047 15.8667ZM55.9672 7.06667L55.9236 7.2L55.8801 7.06667H55.9672Z" fill="#9EB5C8"/>
<path d="M79.4773 20.0444L79.4338 19.6889L78.8675 19.2C78.8675 19.1704 78.853 19.1407 78.824 19.1111C78.824 19.0815 78.824 19.0519 78.824 19.0222L78.7804 18.9333C78.7804 18.6667 78.6933 18.4444 78.5191 18.2667L78.2141 17.7778C78.1561 17.7778 78.0835 17.7333 77.9964 17.6444C77.9383 17.5259 77.8512 17.4074 77.735 17.2889H77.6479V17.1556C77.5317 17.1556 77.4156 17.0667 77.2994 16.8889H77.1688C77.1688 16.8296 77.0817 16.7704 76.9074 16.7111C76.7622 16.6222 76.6896 16.5481 76.6896 16.4889L75.7314 16.1333C75.0345 15.8963 74.7005 15.7778 74.7296 15.7778L74.6424 15.6444L74.294 15.6C73.8003 15.4815 73.4228 15.3926 73.1615 15.3333C72.9292 15.2741 72.7259 15.2444 72.5517 15.2444L71.7241 15.2444C71.2885 15.2444 71.0272 15.2593 70.9401 15.2889V15.3333C70.9401 15.363 70.8529 15.4222 70.6787 15.5111C70.5045 15.6 70.3012 15.6889 70.0689 15.7778C69.8656 15.8667 69.6479 15.9556 69.4156 16.0444C69.2123 16.1037 69.0816 16.1333 69.0235 16.1333V16.1778C68.9655 16.2074 68.8638 16.2667 68.7186 16.3556C68.5734 16.4444 68.3557 16.563 68.0653 16.7111V16.8C67.9491 16.8296 67.833 16.8889 67.7168 16.9778C67.6587 16.9185 67.6297 16.7704 67.6297 16.5333V16.0889C67.6297 16.0593 67.6152 15.9111 67.5861 15.6444C67.5861 15.3481 67.5861 15.037 67.5861 14.7111C67.5861 14.3556 67.5716 14.0296 67.5426 13.7333C67.5426 13.437 67.5426 13.2593 67.5426 13.2L67.7604 11.0667H67.7168L67.7604 10.9778C67.7894 10.8593 67.8039 10.7407 67.8039 10.6222C67.8039 10.5037 67.8184 10.3704 67.8475 10.2222L67.9346 10.0889C67.9346 10 67.9346 9.91111 67.9346 9.82222C67.9636 9.73333 67.9782 9.62963 67.9782 9.51111L68.0217 9.42222L68.1088 9.2C68.1379 9.17037 68.1524 9.11111 68.1524 9.02222C68.1524 8.93333 68.1669 8.87407 68.1959 8.84444V8.75556C68.3411 8.72593 68.4863 8.63704 68.6315 8.48889C68.7767 8.34074 68.9219 8.17778 69.0671 8C69.2123 7.82222 69.3284 7.67408 69.4156 7.55556C69.5317 7.40741 69.6188 7.33333 69.6769 7.33333V7.28889C69.735 7.22963 69.764 7.21482 69.764 7.24444C69.793 7.24444 69.8511 7.2 69.9382 7.11111L70.0254 7.06667C70.0834 7.06667 70.127 7.08148 70.156 7.11111C70.2141 7.11111 70.2722 7.11111 70.3303 7.11111L70.5045 7.02222C70.5335 7.05185 70.5916 7.06667 70.6787 7.06667L71.9854 7.51111L72.029 7.64444H72.1161C72.1451 7.64444 72.1597 7.67408 72.1597 7.73334H72.2903C72.2903 7.79259 72.3194 7.85185 72.3774 7.91111C72.4646 7.94074 72.5372 7.98519 72.5952 8.04445V8.13333C72.6243 8.16296 72.6533 8.17778 72.6824 8.17778L72.7259 8.31111C72.8421 8.57778 72.9001 8.77037 72.9001 8.88889H72.9873L73.0308 9.77778C73.0308 9.8963 73.0308 10.0296 73.0308 10.1778C73.0599 10.3259 73.0889 10.4741 73.1179 10.6222L73.1615 10.8889C73.1615 10.9185 73.176 10.9481 73.205 10.9778C73.3212 10.9481 73.4228 10.9333 73.5099 10.9333C73.6261 10.9333 73.7132 10.9333 73.7713 10.9333H74.8167C74.9619 10.9333 75.1506 10.9037 75.3829 10.8444H76.0798L77.9964 10.7556C78.461 10.7852 78.6933 10.8296 78.6933 10.8889L78.8675 10.8C79.0417 10.7407 79.1579 10.6667 79.216 10.5778C79.216 10.4889 79.1869 10.4296 79.1289 10.4C79.0998 10.3407 79.0853 10.0593 79.0853 9.55556C79.0853 9.37778 79.0998 9.27407 79.1289 9.24444C79.0998 9.15555 79.0853 8.81481 79.0853 8.22222L79.0417 7.82222H78.9546C78.9837 7.64444 78.9982 7.46667 78.9982 7.28889C78.9982 7.11111 79.0127 6.93333 79.0417 6.75556H78.9546L78.824 5.95556L78.3884 4.66667C78.2722 4.48889 78.1851 4.32593 78.127 4.17778C78.069 4.02963 78.0109 3.91111 77.9528 3.82222L77.7786 3.51111L76.9945 2.4C76.4428 1.98519 75.8185 1.67407 75.1216 1.46667C74.4247 1.25926 73.7132 1.03704 72.9873 0.8L69.5898 0.844445L68.5008 0.977778V1.06667L68.1959 1.06667L67.2812 1.46667C67.0489 1.46667 66.7876 1.51111 66.4972 1.6C66.2359 1.68889 65.96 1.79259 65.6696 1.91111C65.4083 2.02963 65.1614 2.16296 64.9291 2.31111C64.6968 2.42963 64.5226 2.54815 64.4064 2.66667L63.9273 3.02222H63.7966C63.7966 3.05185 63.7821 3.08148 63.7531 3.11111H63.666C63.666 3.2 63.6079 3.28889 63.4917 3.37778C63.3756 3.43704 63.303 3.48148 63.274 3.51111L62.4899 4.26667C62.4318 4.2963 62.3883 4.32592 62.3592 4.35555C62.3592 4.35555 62.3302 4.37037 62.2721 4.4V4.53333C62.2431 4.53333 62.0979 4.81482 61.8366 5.37778L61.5752 5.95556H61.4881L61.3574 6.35556L61.0525 6.53333L60.7476 7.55556C60.7476 7.7037 60.7331 7.85185 60.7041 8C60.7041 8.11852 60.7041 8.25185 60.7041 8.4L60.7476 8.66667C60.7476 8.6963 60.7476 8.8 60.7476 8.97778C60.7476 9.12593 60.7331 9.34815 60.7041 9.64444V9.82222V10.9778L60.6605 11.0222C60.6315 11.0519 60.617 11.2296 60.617 11.5556H60.6605L60.617 11.6V14.3556L60.5298 14.4889H60.617L60.4863 17.9556C60.5153 17.9852 60.5298 18.0593 60.5298 18.1778V18.2667L60.4427 18.6222C60.4427 18.7704 60.4427 18.9333 60.4427 19.1111C60.4718 19.2889 60.4863 19.4074 60.4863 19.4667L60.5298 21.1111H60.617L60.7041 22.0444C60.7331 22.1926 60.7476 22.3259 60.7476 22.4444C60.7476 22.5333 60.7476 22.637 60.7476 22.7556C60.7476 23.0519 60.7331 23.2889 60.7041 23.4667C60.675 23.6444 60.6605 23.7778 60.6605 23.8667V23.9111V24.1778C60.6605 24.2963 60.675 24.4 60.7041 24.4889C60.7331 24.5778 60.7476 24.6518 60.7476 24.7111C60.7476 24.7704 60.7331 24.8296 60.7041 24.8889C60.7041 24.9481 60.7041 25.0074 60.7041 25.0667L60.8783 25.9111C60.9073 25.9111 60.9219 25.8815 60.9219 25.8222L61.2703 26.4L61.793 27.6889C61.793 27.7481 61.8075 27.8222 61.8366 27.9111C61.8656 28 61.9092 28.0444 61.9672 28.0444V28.1778C62.0253 28.2074 62.185 28.3556 62.4464 28.6222C62.7367 28.8593 62.9981 29.0963 63.2304 29.3333H63.3175C63.4917 29.5111 63.6515 29.6889 63.7966 29.8667C63.9709 30.0444 64.1451 30.2222 64.3193 30.4H64.4064C64.9872 30.8148 65.3212 31.0222 65.4083 31.0222L65.8438 31.2V31.2889H65.9745C66.4682 31.437 66.7005 31.5111 66.6714 31.5111V31.5556C66.7005 31.5852 66.7731 31.6 66.8892 31.6V31.6889C67.0344 31.6889 67.1215 31.7037 67.1506 31.7333V31.7778C67.7604 31.837 68.4863 31.8815 69.3284 31.9111L69.372 32C69.4591 32 69.5027 31.9852 69.5027 31.9556C69.5317 31.9259 69.5753 31.9111 69.6333 31.9111V31.9556L73.4228 31.4667L74.294 31.3333C75.1361 31.037 75.6152 30.8889 75.7314 30.8889V30.8C75.7604 30.8 75.7895 30.8148 75.8185 30.8444C75.8185 30.8444 75.804 30.8593 75.7749 30.8889C75.7749 30.8593 75.862 30.7852 76.0363 30.6667C76.2105 30.5481 76.6316 30.3111 77.2994 29.9556L77.3866 29.9556C77.3866 29.8667 77.4301 29.7926 77.5172 29.7333C77.6043 29.6741 77.6769 29.6148 77.735 29.5556L77.8657 29.6444C78.069 29.6148 78.1996 29.4519 78.2577 29.1556C78.3448 28.8593 78.461 28.7111 78.6062 28.7111V28.6222C78.6352 28.5926 78.6642 28.5778 78.6933 28.5778V28.4444C78.7514 28.4444 78.7949 28.4296 78.824 28.4L79.216 27.5556L79.3031 27.2C79.3031 27.1407 79.3031 27.0963 79.3031 27.0667C79.3321 27.0074 79.3466 26.9481 79.3466 26.8889L79.8258 25.2444C79.8548 25.2148 79.8693 25.0963 79.8693 24.8889H79.9564V24.1778C79.9564 24.0593 79.9564 23.9407 79.9564 23.8222C79.9855 23.7037 80 23.5852 80 23.4667C80 23.2296 79.9855 23.0963 79.9564 23.0667L79.5644 20.0444H79.4773ZM78.824 20.1778C78.882 21.037 78.9256 21.7037 78.9546 22.1778C78.9837 22.6222 78.9982 22.8593 78.9982 22.8889V23.0222V24.3556V24.9778V25.1556L78.9111 25.6444L78.5626 27.0222C78.5626 27.0519 78.5191 27.1704 78.4319 27.3778C78.3739 27.5556 78.3303 27.6593 78.3013 27.6889H78.2577C78.2287 27.7481 78.2141 27.8074 78.2141 27.8667C78.2141 27.8963 78.1996 27.9407 78.1706 28L78.127 28.0889C78.069 28.1481 78.0109 28.2519 77.9528 28.4C77.8947 28.5185 77.8512 28.5926 77.8221 28.6222V28.7111C77.735 28.7407 77.6769 28.7852 77.6479 28.8444C77.6479 28.8741 77.6189 28.9185 77.5608 28.9778L77.0381 29.2L76.951 29.3333C76.9219 29.363 76.8929 29.3778 76.8639 29.3778C76.8348 29.3778 76.8058 29.3926 76.7768 29.4222C76.7477 29.4222 76.7042 29.4222 76.6461 29.4222L76.4719 29.5111C75.7169 29.8074 75.2668 29.9556 75.1216 29.9556L74.686 30.1778C74.3666 30.2667 74.1198 30.3407 73.9455 30.4C73.8003 30.4296 73.6987 30.4593 73.6406 30.4889C73.5825 30.5185 73.539 30.5333 73.5099 30.5333C73.5099 30.5333 73.4954 30.5333 73.4664 30.5333V30.5778L71.5063 30.9778L70.8094 31.0222L69.8511 31.1111C67.9927 30.9333 67.0489 30.8296 67.0199 30.8L65.931 30.2667C65.9019 30.2667 65.8729 30.2667 65.8438 30.2667C65.8148 30.237 65.7858 30.2222 65.7567 30.2222V30.1778C65.7277 30.1481 65.6841 30.1333 65.6261 30.1333H65.4518C65.3647 30.1333 65.2486 30.0741 65.1034 29.9556C64.9582 29.8074 64.7839 29.6444 64.5807 29.4667C64.4064 29.2889 64.2177 29.1111 64.0144 28.9333C63.8402 28.7259 63.695 28.5481 63.5789 28.4V28.3111C63.4627 28.2222 63.3175 28.1333 63.1433 28.0444C62.9981 27.9556 62.8674 27.8518 62.7513 27.7333L62.2721 26.3556L61.8801 25.2889L61.7494 23.8222C61.6623 23.6148 61.6188 23.3185 61.6188 22.9333L61.401 19.7778C61.401 19.7185 61.4155 19.6741 61.4445 19.6444L61.401 18.0889C61.3719 18 61.3574 17.8074 61.3574 17.5111L61.4445 16.0444C61.4445 15.8667 61.4445 15.6889 61.4445 15.5111C61.4736 15.3333 61.4881 15.1407 61.4881 14.9333H61.5317L61.4881 14.8444L61.5752 14.7556V12.0444L61.6623 10.5333C61.7494 10.237 61.793 9.86667 61.793 9.42222L61.7494 8.8L61.8801 7.42222L62.8384 5.15555L62.9255 4.97778C63.274 4.62222 63.4627 4.44444 63.4917 4.44444C63.5208 4.41481 63.5643 4.37037 63.6224 4.31111V4.22222C63.7966 4.04444 63.9128 3.91111 63.9709 3.82222C64.058 3.73333 64.1161 3.67407 64.1451 3.64444L64.4064 3.46667L66.0616 2.8C66.1197 2.8 66.1778 2.8 66.2359 2.8C66.323 2.77037 66.4391 2.72593 66.5843 2.66667H66.8021C66.9183 2.63704 67.5281 2.45926 68.6315 2.13333V2.08889C68.7186 2.08889 69.3429 1.97037 70.5045 1.73333L72.7259 1.73333C72.7259 1.79259 72.755 1.82222 72.813 1.82222V1.73333L74.3811 2.13333C74.4101 2.16296 74.4827 2.19259 74.5989 2.22222C74.686 2.25185 74.7876 2.28148 74.9038 2.31111C75.0199 2.34074 75.1651 2.38518 75.3394 2.44444L75.4265 2.57778C75.4846 2.57778 75.5862 2.62222 75.7314 2.71111C75.9056 2.77037 75.9782 2.81482 75.9492 2.84444H76.0798L76.0363 2.8C76.0653 2.8 76.1815 2.96296 76.3847 3.28889C76.617 3.58519 76.8493 3.76296 77.0817 3.82222V3.91111H77.2123C77.2414 3.94074 77.2704 3.98518 77.2994 4.04444C77.3575 4.1037 77.4446 4.20741 77.5608 4.35555L77.9092 5.02222V5.15555L78.5626 7.28889L78.6062 10.1333C78.2287 10.1333 77.8947 10.1778 77.6043 10.2667L75.7314 10.3556C75.7023 10.3852 75.6007 10.4 75.4265 10.4C75.3103 10.4 75.2087 10.4 75.1216 10.4C75.0345 10.3704 74.9619 10.3556 74.9038 10.3556H74.1633L73.7713 10.2222C73.7713 9.98519 73.7568 9.71852 73.7277 9.42222C73.6987 9.12593 73.6551 8.84444 73.5971 8.57778C73.539 8.31111 73.4664 8.08889 73.3793 7.91111C73.2922 7.73333 73.1905 7.64444 73.0744 7.64444V7.51111C72.9582 7.51111 72.7549 7.33333 72.4646 6.97778H72.3774C72.3484 6.94815 72.3339 6.91852 72.3339 6.88889H72.2468C71.4918 6.47407 71.0562 6.26666 70.9401 6.26666C70.7658 6.26666 70.5771 6.2963 70.3738 6.35556C70.1996 6.38518 70.0544 6.42963 69.9382 6.48889L69.764 6.57778L68.6315 7.2C68.5734 7.2 68.5154 7.21482 68.4573 7.24444C68.4282 7.24444 68.3847 7.24444 68.3266 7.24444V7.28889C68.2395 7.31852 68.1379 7.36296 68.0217 7.42222L68.3266 7.51111C68.1524 7.51111 68.0653 7.58519 68.0653 7.73334C68.0653 7.88148 68.0508 7.98519 68.0217 8.04445H67.9346L67.2377 8.88889C67.2377 8.94815 67.2232 9.02222 67.1941 9.11111C67.1941 9.2 67.1941 9.27407 67.1941 9.33333H67.1506C67.0925 9.39259 67.0489 9.67407 67.0199 10.1778C66.9909 10.6815 66.9037 11.4963 66.7586 12.6222L66.715 15.9111C66.6279 16.0889 66.5843 16.4889 66.5843 17.1111C66.5843 17.2296 66.5843 17.3481 66.5843 17.4667C66.6133 17.5852 66.6279 17.7185 66.6279 17.8667V18.2222H66.5408C66.5408 18.4593 66.5988 18.637 66.715 18.7556V18.8C66.715 18.8296 66.7295 18.8593 66.7586 18.8889H66.8457C66.9037 18.8296 66.9328 18.7704 66.9328 18.7111H67.107L67.3248 18.2667L67.9346 17.9556C67.9346 17.8667 67.9636 17.837 68.0217 17.8667C68.0798 17.8667 68.1379 17.837 68.1959 17.7778V17.7333C68.254 17.7037 68.4137 17.6148 68.6751 17.4667C68.9655 17.2889 69.1397 17.1852 69.1978 17.1556L69.2849 17.0667C69.343 17.037 69.3865 16.9778 69.4156 16.8889C69.4736 16.8 69.5317 16.7407 69.5898 16.7111V16.6667C70.1996 16.4593 70.5045 16.3259 70.5045 16.2667L70.6352 16.2222L70.3303 16.1778L70.4609 16.1333C70.6932 16.0741 70.9546 16.0593 71.245 16.0889C71.5353 16.0889 71.7967 16.0593 72.029 16L72.2903 15.9556C72.4355 15.8963 72.5807 15.8815 72.7259 15.9111C72.9001 15.9111 73.1034 15.8963 73.3357 15.8667C73.3938 15.8667 73.4373 15.9259 73.4664 16.0444C73.5245 16.1333 73.5825 16.1926 73.6406 16.2222C74.0181 16.3704 74.3811 16.4593 74.7296 16.4889C75.1071 16.5185 75.4991 16.563 75.9056 16.6222V16.6667C75.9927 16.6963 76.1089 16.7111 76.2541 16.7111C76.3121 16.7111 76.3412 16.7259 76.3412 16.7556L76.3847 16.8C76.5009 16.9185 76.6025 16.9926 76.6896 17.0222C76.7768 17.0222 76.8203 17.0519 76.8203 17.1111H76.951L77.3866 17.5556V17.6889C77.4156 17.6889 77.4446 17.7037 77.4737 17.7333L77.9092 18.5778L77.9528 18.8444C77.9818 18.8741 77.9964 18.9037 77.9964 18.9333C77.9964 19.0222 78.0109 19.0963 78.0399 19.1556L78.0835 19.2889L78.6497 19.6889C78.6788 19.7185 78.6933 19.837 78.6933 20.0444L78.7368 20.1778H78.824ZM74.9909 21.3333V21.3778C74.9909 21.3185 74.9764 21.2889 74.9473 21.2889L74.8167 21.2V21.1111C74.7876 21.0815 74.715 21.0222 74.5989 20.9333C74.4827 20.8148 74.3956 20.7556 74.3375 20.7556L74.294 20.6667H73.1615V20.6222L71.5499 20.8889L71.5934 20.9778C71.303 21.037 70.9981 21.1556 70.6787 21.3333C70.3883 21.4815 70.1996 21.5556 70.1125 21.5556V21.6C69.8221 21.8963 69.6624 22.0889 69.6333 22.1778L69.5898 22.3556C69.5607 22.3852 69.5462 22.4296 69.5462 22.4889L69.4156 22.5333L69.3284 23.1111L69.2849 23.4222L69.4156 24.4444H69.5027C69.5027 24.5037 69.5172 24.5481 69.5462 24.5778L69.6333 24.8H69.7205L70.156 25.5111H70.2867L70.3303 25.6C70.3593 25.6296 70.4174 25.6741 70.5045 25.7333C70.6206 25.7926 70.6787 25.8518 70.6787 25.9111L70.8094 25.8667L71.2885 26L71.5063 25.9556L72.2468 26.0444C72.45 26.0444 72.5662 26.0296 72.5952 26L74.1198 25.2889C74.4101 25.0815 74.5698 24.9481 74.5989 24.8889C74.6279 24.8296 74.6715 24.7704 74.7296 24.7111L75.2958 23.5556L75.5136 22.8444L75.3394 22.8889L75.5136 22.8C75.5136 22.6519 75.4555 22.4296 75.3394 22.1333C75.2522 21.8074 75.1651 21.6148 75.078 21.5556V21.4667L74.9909 21.3333ZM74.5989 23.6444C74.5989 23.7926 74.5698 23.8963 74.5118 23.9556C74.4537 24.0148 74.4101 24.0444 74.3811 24.0444V24.0889C74.3811 24.1481 74.3375 24.2222 74.2504 24.3111C74.1923 24.4 74.1343 24.4741 74.0762 24.5333H73.9455C73.9455 24.5926 73.931 24.637 73.902 24.6667C73.902 24.6963 73.902 24.7407 73.902 24.8L73.5971 24.8444V24.9333L72.9437 25.2C72.8276 25.2593 72.6098 25.3333 72.2903 25.4222C72 25.4815 71.7531 25.5111 71.5499 25.5111V25.4222L71.5063 25.4667L71.3321 25.3778C71.303 25.3778 71.274 25.3926 71.245 25.4222C71.2159 25.3926 71.2014 25.363 71.2014 25.3333L70.4174 25.0667V24.9778H70.3303V24.7556L70.0689 24.4444V24.3111H69.9818L69.8947 24V23.5111C69.9528 23.4519 70.0254 23.363 70.1125 23.2444C70.1996 23.0963 70.3012 22.9481 70.4174 22.8V22.7111C70.5045 22.6519 70.5771 22.5778 70.6352 22.4889C70.7223 22.3704 70.8239 22.2667 70.9401 22.1778H71.0272L70.9836 22.1333L71.2014 22.0444V21.9556C71.2595 21.9259 71.3176 21.9111 71.3756 21.9111C71.4627 21.9111 71.5499 21.8815 71.637 21.8222L71.8983 21.6889C72.0435 21.6 72.2177 21.5407 72.421 21.5111C72.6533 21.4815 72.8276 21.4667 72.9437 21.4667C73.3502 21.4667 73.7277 21.5704 74.0762 21.7778C74.4247 21.9852 74.5989 22.2963 74.5989 22.7111V23.6444Z" fill="#9EB5C8"/>
</svg>
