<svg width="80" height="32" viewBox="0 0 80 32" fill="none" xmlns="http://www.w3.org/2000/svg">
<path d="M14.1113 1.82222C14.1113 1.67407 14.1113 1.52593 14.1113 1.37778C14.1398 1.22963 14.1541 1.08148 14.1541 0.933333H14.1113C14.0828 0.874075 14.0686 0.844445 14.0686 0.844445C14.0686 0.814815 14.0543 0.77037 14.0258 0.71111H13.9403C13.9688 0.681481 13.9831 0.607407 13.9831 0.488889C13.9545 0.459259 13.9403 0.429629 13.9403 0.4C13.9403 0.34074 13.926 0.296295 13.8975 0.266665L13.7265 0.222223C13.6695 0.162965 13.641 0.133335 13.641 0.133335C13.641 0.103704 13.5982 0.0888885 13.5127 0.0888885C13.4272 0.0888885 13.3416 0.103704 13.2561 0.133335C13.1991 0.162964 13.1563 0.177779 13.1278 0.177779V0.133335C12.9568 0.133335 12.7857 0.162965 12.6147 0.222223C12.4436 0.251852 12.2726 0.266665 12.1015 0.266665H12.1443V0.133335C12.0303 0.133335 11.959 0.11852 11.9305 0.0888885C11.902 0.0592592 11.7024 0.0444442 11.3318 0.0444442C11.2178 0.0444442 11.061 0.0592592 10.8615 0.0888885C10.6619 0.0888885 10.4481 0.0888885 10.22 0.0888885C10.0205 0.0888885 9.82092 0.103704 9.62137 0.133335C9.45032 0.133335 9.30778 0.133335 9.19375 0.133335C8.93718 0.133335 8.79464 0.11852 8.76614 0.0888885V0.177779C8.73763 0.14815 8.55233 0.133335 8.21023 0.133335V0.0444442C8.15322 0.0444442 8.08195 0.0444442 7.99643 0.0444442C7.93941 0.014815 7.88239 0 7.82538 0V0.0888885C7.79687 0.0592592 7.76836 0.0444442 7.73986 0.0444442C7.71135 0.0444442 7.68284 0.0296292 7.65433 0L6.62805 0.0444442V0.133335C6.59955 0.162964 6.52828 0.177779 6.41425 0.177779C6.35723 0.177779 6.30021 0.177779 6.2432 0.177779C6.18618 0.14815 6.12917 0.133335 6.07215 0.133335L5.04587 0.177779C4.90333 0.177779 4.81781 0.192594 4.7893 0.222223V0.0888885C4.67527 0.148149 4.58975 0.281482 4.53273 0.488889C4.50423 0.696297 4.46146 0.859261 4.40445 0.977779L4.2334 1.2C4.20489 1.25926 4.19064 1.31852 4.19064 1.37778C4.19064 1.40741 4.17639 1.45185 4.14788 1.51111L3.93407 1.91111C3.93407 1.97037 3.91982 2.01482 3.89131 2.04445C3.89131 2.07407 3.89131 2.1037 3.89131 2.13333L3.63474 2.53333C3.4922 2.85926 3.37817 3.15556 3.29265 3.42222C3.20712 3.68889 3.16436 3.85185 3.16436 3.91111L2.60846 5.02222H2.52294L2.43741 5.24444C2.43741 5.48148 2.29487 5.79259 2.0098 6.17778L1.96704 6.31111C1.93853 6.31111 1.91002 6.32593 1.88151 6.35556V6.53333L0.812471 8.93333H0.726948C0.726948 9.11111 0.712694 9.21481 0.684186 9.24444L0.555901 9.46667C0.498886 9.58518 0.456124 9.68889 0.427616 9.77778L0.384855 10C0.356347 10.0296 0.327839 10.0444 0.299331 10.0444V10.0889C0.213808 10.1778 0.128285 10.3407 0.0427616 10.5778L0 10.5333V10.6667C0.0570155 10.7259 0.114031 10.7556 0.171047 10.7556L0.128285 10.8889H0.213808C0.242316 10.9481 0.969264 11.1259 2.39465 11.4222C2.45167 11.4222 2.57995 11.437 2.77951 11.4667C3.00757 11.4667 3.16436 11.4963 3.24988 11.5556L3.54922 11.6444L3.50645 11.7333L4.01959 11.8667L3.97683 11.9111L4.31892 11.8667L4.66102 11.9556L4.74654 11.8667C4.77505 11.8667 4.83207 11.8815 4.91759 11.9111C5.00311 11.9111 5.11714 11.9259 5.25968 11.9556L5.38797 12.0444L5.81558 11.9556L5.98663 11.8222C6.01514 11.7926 6.02939 11.763 6.02939 11.7333C6.02939 11.7037 6.04364 11.6741 6.07215 11.6444L6.20044 11.3333C6.20044 11.3333 6.22894 11.2593 6.28596 11.1111H6.32872C6.44275 10.9926 6.54253 10.7852 6.62805 10.4889H6.71358C6.77059 10.4296 6.78485 10.3556 6.75634 10.2667C6.75634 10.1481 6.81335 10.0889 6.92738 10.0889L7.01291 9.82222C7.06992 9.7037 7.11269 9.58518 7.14119 9.46667C7.19821 9.34815 7.28373 9.24444 7.39776 9.15555L7.44052 9.11111V9.73333C7.44052 9.85185 7.42627 9.97037 7.39776 10.0889C7.39776 10.1778 7.39776 10.2815 7.39776 10.4H7.44052C7.44052 10.4296 7.42627 10.4593 7.39776 10.4889C7.39776 10.6667 7.39776 10.7852 7.39776 10.8444C7.42627 10.8741 7.44052 10.9185 7.44052 10.9778C7.44052 11.0667 7.42627 11.1556 7.39776 11.2444C7.39776 11.3037 7.39776 11.363 7.39776 11.4222V11.8222C7.42627 11.8222 7.44052 11.8519 7.44052 11.9111C7.44052 11.9704 7.42627 12.1481 7.39776 12.4444C7.39776 12.7111 7.38351 13.0963 7.355 13.6H7.39776C7.39776 13.7481 7.38351 13.9704 7.355 14.2667C7.355 14.563 7.32649 14.7852 7.26948 14.9333C7.24097 15.7926 7.21246 16.4296 7.18395 16.8444C7.15545 17.2593 7.12694 17.5852 7.09843 17.8222C7.09843 18.0296 7.08418 18.2222 7.05567 18.4C7.05567 18.5481 7.05567 18.7704 7.05567 19.0667C7.05567 19.2148 7.06992 19.3037 7.09843 19.3333L7.14119 20.3111C7.08418 20.3704 6.99865 22.0593 6.88462 25.3778H6.92738C6.89888 25.5556 6.88462 25.7333 6.88462 25.9111C6.88462 26.0889 6.87037 26.2667 6.84186 26.4444V27.6444C6.84186 27.8815 6.84186 28.2963 6.84186 28.8889C6.87037 29.4519 6.89888 30.2074 6.92738 31.1556C6.89888 31.1852 6.88462 31.2296 6.88462 31.2889L6.92738 31.4667C6.92738 31.4963 6.95589 31.5407 7.01291 31.6V31.6444L7.09843 31.6V31.6444C7.15545 31.6444 7.18395 31.6296 7.18395 31.6C7.21246 31.5407 7.25522 31.5111 7.31224 31.5111C7.28373 31.5111 7.34075 31.5259 7.48329 31.5556C7.65433 31.5852 7.83963 31.6148 8.03919 31.6444C8.23874 31.6444 8.42404 31.6593 8.59509 31.6889C8.79464 31.7185 8.90867 31.7333 8.93718 31.7333H12.2726C12.6717 31.7333 12.8998 31.7481 12.9568 31.7778V31.7333C13.0708 31.7037 13.1421 31.6741 13.1706 31.6444C13.1421 31.5259 13.1136 31.4667 13.0851 31.4667C13.0851 31.437 13.0851 31.3926 13.0851 31.3333H13.641C13.641 31.2444 13.6267 31.1407 13.5982 31.0222C13.5697 30.8741 13.5554 30.7259 13.5554 30.5778C13.5554 30.4593 13.5697 30.3852 13.5982 30.3556C13.6552 30.2963 13.6837 30.237 13.6837 30.1778C13.6837 30.1481 13.6695 30.1185 13.641 30.0889C13.641 30.0593 13.641 30.0296 13.641 30L13.6837 29.9111C13.7122 29.8815 13.7265 29.763 13.7265 29.5556V29.0667C13.7265 28.5926 13.7122 28.2815 13.6837 28.1333C13.6552 27.9556 13.641 27.7778 13.641 27.6V26.9778C13.641 26.8593 13.641 26.5926 13.641 26.1778C13.641 25.763 13.6552 25.2148 13.6837 24.5333H13.641C13.641 24.3852 13.641 24.3407 13.641 24.4C13.641 24.4296 13.641 24.3556 13.641 24.1778C13.6695 23.9704 13.6837 23.5556 13.6837 22.9333C13.7122 22.3111 13.7407 21.2593 13.7692 19.7778H13.812V19.7333C13.812 19.6741 13.8263 19.5259 13.8548 19.2889C13.8833 19.0519 13.8975 18.7259 13.8975 18.3111L13.9403 13.7333C13.9688 13.5852 13.9831 13.437 13.9831 13.2889C13.9831 13.1407 13.9973 12.9926 14.0258 12.8444H13.9403L14.0258 12.8L14.0686 11.6C14.1256 11.3037 14.1541 11.1407 14.1541 11.1111H14.1113V9.24444C14.0828 9.21481 14.0686 9.03704 14.0686 8.71111V7.2C14.0686 6.78519 14.0828 6.47408 14.1113 6.26667C14.1398 6.05926 14.1541 5.94074 14.1541 5.91111L14.1113 2.08889C14.1113 2.02963 14.1113 2 14.1113 2C14.1398 2 14.1541 1.97037 14.1541 1.91111C14.1256 1.88148 14.1113 1.85185 14.1113 1.82222ZM12.8713 6.4C12.8713 6.48889 12.8855 6.54815 12.914 6.57778L12.8713 6.93333L12.914 11.9556V12.2667C12.914 12.5926 12.8998 12.9333 12.8713 13.2889C12.8427 13.6444 12.8285 13.9852 12.8285 14.3111C12.8285 14.5481 12.8285 14.7407 12.8285 14.8889C12.857 15.037 12.8713 15.2148 12.8713 15.4222C12.8713 15.6296 12.857 15.7481 12.8285 15.7778V16.8C12.8285 16.8593 12.8142 16.9185 12.7857 16.9778C12.7857 17.037 12.7857 17.0963 12.7857 17.1556C12.7857 17.3333 12.7857 17.5111 12.7857 17.6889C12.8142 17.8667 12.8285 18.0296 12.8285 18.1778C12.8285 18.6222 12.8142 19.0963 12.7857 19.6C12.7857 20.0741 12.7572 20.5185 12.7002 20.9333L12.7857 20.9778C12.7572 21.0667 12.743 21.2444 12.743 21.5111L12.7857 22.3556V23.6C12.7857 23.6593 12.8 23.7037 12.8285 23.7333C12.8 23.763 12.7857 24 12.7857 24.4444C12.7857 24.7407 12.7857 25.0519 12.7857 25.3778C12.8142 25.7037 12.8285 26.0296 12.8285 26.3556C12.8285 27.363 12.8142 28.163 12.7857 28.7556C12.7572 29.3185 12.7002 29.7481 12.6147 30.0444C12.5577 30.3407 12.4721 30.5333 12.3581 30.6222C12.2726 30.6815 12.1443 30.7111 11.9733 30.7111H11.4174C11.1893 30.7111 11.004 30.7259 10.8615 30.7556L8.85166 30.9778C8.79464 30.9778 8.75188 30.9778 8.72337 30.9778C8.69487 30.9481 8.6521 30.9333 8.59509 30.9333L8.50957 30.9778C8.19598 30.9778 8.02493 30.963 7.99643 30.9333L7.95366 25.2444C7.98217 24.7111 7.99643 24.2815 7.99643 23.9556C8.02493 23.6296 8.03919 23.1556 8.03919 22.5333C8.03919 21.9111 8.03919 21.0222 8.03919 19.8667C8.0677 18.6815 8.12471 16.9926 8.21023 14.8V14.2222C8.21023 13.9259 8.22449 13.7333 8.253 13.6444C8.19598 13.6444 8.16747 13.5852 8.16747 13.4667H8.21023C8.26725 13.4074 8.29576 13.2889 8.29576 13.1111C8.29576 12.9333 8.29576 12.7556 8.29576 12.5778C8.29576 12.163 8.2815 11.9259 8.253 11.8667C8.253 11.8074 8.253 11.7481 8.253 11.6889L8.33852 11.6444H8.253C8.2815 11.4667 8.29576 11.3185 8.29576 11.2C8.29576 11.0519 8.29576 10.9037 8.29576 10.7556V10.1333C8.26725 10.1037 8.253 9.97037 8.253 9.73333C8.253 9.67407 8.253 9.51111 8.253 9.24444C8.2815 8.97778 8.31001 8.62222 8.33852 8.17778C8.31001 8.14815 8.29576 8.02963 8.29576 7.82222C8.29576 7.55556 8.36703 7.34815 8.50957 7.2C8.42404 6.93333 8.33852 6.8 8.253 6.8L8.16747 6.84444V6.75556C8.02493 6.81482 7.93941 6.88889 7.9109 6.97778L7.31224 7.82222L6.97015 8.57778H6.88462L6.15768 10.2222H6.07215V10.3111L6.11491 10.2667C6.00088 10.3852 5.90111 10.5037 5.81558 10.6222C5.75857 10.7407 5.70155 10.8593 5.64454 10.9778C5.58752 11.0667 5.55901 11.1556 5.55901 11.2444L5.51625 11.3333C5.48774 11.363 5.44498 11.3778 5.38797 11.3778L0.940756 10.1778C0.940756 10.2074 0.926502 10.237 0.897994 10.2667C0.897994 10.2074 0.969264 10.0593 1.1118 9.82222C1.25434 9.58519 1.32561 9.43704 1.32561 9.37778H1.36837C1.42539 9.25926 1.49666 9.06667 1.58218 8.8C1.6677 8.53333 1.73897 8.37037 1.79599 8.31111L1.88151 7.91111H1.96704L2.13808 7.42222C2.16659 7.36296 2.18084 7.33333 2.18084 7.33333C2.18084 7.3037 2.1951 7.25926 2.22361 7.2L2.60846 6.35556C2.63697 6.2963 2.65122 6.25185 2.65122 6.22222C2.67973 6.16296 2.70824 6.1037 2.73674 6.04444L3.03608 5.28889L3.1216 5.24444L3.24988 4.8L3.89131 3.46667C3.91982 3.40741 3.93407 3.37778 3.93407 3.37778C3.93407 3.34815 3.94832 3.3037 3.97683 3.24445L4.10512 2.84445C4.16213 2.84445 4.20489 2.82963 4.2334 2.8V2.66667C4.26191 2.63704 4.33318 2.51852 4.44721 2.31111C4.56124 2.07407 4.70378 1.80741 4.87483 1.51111H4.91759L4.87483 1.37778H5.1314C5.30244 1.37778 5.40222 1.36296 5.43073 1.33333V1.37778C6.0579 1.34815 6.58529 1.33333 7.01291 1.33333C7.44052 1.33333 7.78262 1.33333 8.03919 1.33333H9.10823L10.4338 1.15556H11.8877V1.06667H12.9995C12.9995 1.24444 12.9995 1.43704 12.9995 1.64445C13.028 1.85185 13.0423 2.07407 13.0423 2.31111V2.75556C13.0138 2.75556 12.9853 2.77037 12.9568 2.8V3.6L12.8713 6.4Z" fill="#9EB5C8"/>
<path d="M36.1426 16.2222L36.0998 13.9111C36.0428 13.4667 36.0001 13.0667 35.9716 12.7111C35.943 12.3259 35.9288 12 35.9288 11.7333C35.9288 10.963 35.9715 10.1778 36.0571 9.37778H35.9716V8.4C35.943 8.37037 35.9288 8.34074 35.9288 8.31111L35.7577 5.28889L35.5012 4.44444C35.5012 4.38518 35.3729 3.95556 35.1163 3.15556C34.7457 2.8 34.4606 2.53333 34.2611 2.35556C34.0615 2.14815 33.919 2 33.8335 1.91111C33.7479 1.82222 33.7052 1.76296 33.7052 1.73333C33.7052 1.7037 33.7052 1.68889 33.7052 1.68889L33.1065 1.33333L31.9947 0.8L29.8994 0.444444C29.6713 0.444444 29.429 0.444444 29.1725 0.444444C28.9159 0.414815 28.6593 0.4 28.4027 0.4C28.0892 0.4 27.7756 0.444445 27.462 0.533335C27.1769 0.592593 26.9203 0.622223 26.6923 0.622223C26.6638 0.622223 26.4215 0.651851 25.9653 0.71111C25.5377 0.740741 24.9105 0.814816 24.0838 0.933333L23.9128 0.977779C23.086 1.18519 22.6299 1.28889 22.5444 1.28889L22.4161 1.33333C22.4161 1.39259 22.3734 1.43704 22.2878 1.46667C22.2023 1.46667 22.131 1.46667 22.074 1.46667L21.9885 1.55555C21.9315 1.61481 21.8317 1.65926 21.6892 1.68889C21.5466 1.68889 21.4041 1.73333 21.2616 1.82222L21.0905 1.91111C21.0335 1.97037 20.9337 2.02963 20.7912 2.08889C20.6486 2.11852 20.4491 2.22222 20.1925 2.4C19.9359 2.57778 19.6224 2.87407 19.2518 3.28889C18.9097 3.67407 18.5248 4.23704 18.0972 4.97778H18.0544C17.9974 5.03704 17.8691 5.80741 17.6696 7.28889H17.5841L17.413 8.48889L17.3702 10.5778C17.3702 10.8741 17.3845 11.0667 17.413 11.1556L17.4558 11.2444C17.4843 11.4815 17.4985 11.6889 17.4985 11.8667C17.4985 12.0148 17.4985 12.1185 17.4985 12.1778H17.5413C17.5698 12.2074 17.6981 12.6815 17.9261 13.6C18.2682 14.2222 18.5106 14.7111 18.6531 15.0667C18.8241 15.4222 18.9524 15.7037 19.0379 15.9111C19.152 16.0889 19.266 16.237 19.38 16.3556C19.4941 16.4741 19.6936 16.5926 19.9787 16.7111V16.8444L20.7912 17.4222C20.9337 17.5407 21.0477 17.6444 21.1333 17.7333C21.2188 17.7926 21.3186 17.8667 21.4326 17.9556C21.5751 18.0444 21.7604 18.1333 21.9885 18.2222C22.2166 18.3111 22.5729 18.4148 23.0575 18.5333V18.6222L23.9983 18.8444C24.1408 18.9037 24.2976 18.9333 24.4687 18.9333C24.6397 18.9333 24.8108 18.9333 24.9818 18.9333H25.6232C25.7373 18.9333 25.8513 18.9333 25.9653 18.9333C26.0794 18.9333 26.1791 18.9481 26.2647 18.9778H26.4357V18.8889C27.633 18.6222 28.3315 18.4889 28.531 18.4889H28.6166C28.7021 18.4889 28.7733 18.4593 28.8304 18.4C29.0869 18.4 29.2152 18.5926 29.2152 18.9778C29.2152 19.3037 29.2152 19.5704 29.2152 19.7778C29.2152 19.9556 29.201 20.1481 29.1725 20.3556C29.1439 20.563 29.0869 20.8148 29.0014 21.1111C28.9444 21.3778 28.8589 21.763 28.7448 22.2667H28.7021C28.531 22.5333 28.4313 22.7407 28.4027 22.8889C28.3742 23.0074 28.3172 23.1111 28.2317 23.2C28.1462 23.2593 27.9751 23.3333 27.7186 23.4222C27.462 23.5111 27.0201 23.6593 26.3929 23.8667V23.8222C26.3359 23.8222 26.2504 23.8222 26.1364 23.8222C26.0509 23.7926 25.9796 23.7778 25.9226 23.7778L25.7943 23.6889C24.8535 23.1259 24.3119 22.6518 24.1693 22.2667L24.1266 22.1333C24.0981 22.1333 24.0696 22.1185 24.0411 22.0889L23.9983 22C23.9983 21.9407 23.9983 21.8963 23.9983 21.8667C24.0268 21.837 24.0411 21.7926 24.0411 21.7333C23.984 21.7333 23.9413 21.7185 23.9128 21.6889L23.699 21.6L23.6562 21.6889L23.6134 21.6444C23.4424 21.6444 23.2713 21.6444 23.1003 21.6444C22.9578 21.6148 22.801 21.6 22.6299 21.6V21.6444H22.5444C22.4019 21.6444 22.1881 21.6593 21.903 21.6889C21.6179 21.7185 21.2473 21.7333 20.7912 21.7333L17.6696 21.7778V21.8667C17.5841 21.8667 17.5413 21.837 17.5413 21.7778L17.3275 21.8667C17.3275 22.4593 17.356 22.9778 17.413 23.4222C17.47 23.8667 17.4985 24.3407 17.4985 24.8444H17.5413C17.5698 24.9037 17.5841 25.0222 17.5841 25.2V25.5556H17.6696L17.7551 26.5778V26.6667C17.7266 26.8148 17.7551 26.9926 17.8406 27.2C17.9547 27.3778 18.1257 27.6741 18.3538 28.0889C18.6103 28.5926 18.8384 28.963 19.0379 29.2C19.2375 29.4074 19.4085 29.5556 19.5511 29.6444C19.6936 29.7333 19.7934 29.7926 19.8504 29.8222C19.9359 29.8519 19.9787 29.9259 19.9787 30.0444H20.107C20.107 30.0741 20.1497 30.1185 20.2353 30.1778C20.3208 30.237 20.6059 30.3704 21.0905 30.5778C21.4896 30.7852 21.7604 30.8889 21.903 30.8889V30.9333L24.3404 31.6889L24.4259 31.6444L25.7943 31.7778V31.8667L27.2054 31.9111C27.2339 31.9407 27.6901 31.9556 28.5738 31.9556V32H28.8731C29.7284 31.8815 30.1845 31.7926 30.2415 31.7333L30.7119 31.5556L31.7382 31.2889L32.7217 30.6667C33.0638 30.4593 33.2348 30.3556 33.2348 30.3556C33.2633 30.3556 33.2918 30.3111 33.3203 30.2222H33.4059C33.4344 30.1926 33.5056 30.1037 33.6197 29.9556C33.7337 29.8074 33.8905 29.6 34.09 29.3333L34.2183 29.1556H34.3466C34.3466 29.1259 34.3894 29.037 34.4749 28.8889C34.5889 28.7407 34.703 28.5778 34.817 28.4C34.9595 28.2222 35.0736 28.0593 35.1591 27.9111C35.2731 27.763 35.3301 27.6741 35.3301 27.6444L35.2446 27.6889C35.2731 27.5111 35.3159 27.3037 35.3729 27.0667C35.4299 26.8 35.4869 26.5926 35.5439 26.4444V26.3111L35.8433 24.7111C35.9573 24.3556 36.0001 23.9407 35.9716 23.4667C35.943 22.9926 35.9858 22.5778 36.0998 22.2222L36.2709 19.3778C36.2709 19.2296 36.2566 19.1111 36.2281 19.0222C36.2281 18.9037 36.2281 18.6519 36.2281 18.2667C36.2281 17.8815 36.2424 17.6444 36.2709 17.5556C36.2994 17.4667 36.3136 17.363 36.3136 17.2444C36.3136 17.0074 36.2994 16.8741 36.2709 16.8444V16.2222H36.1426ZM35.1163 18.3111V24.9778L34.9025 25.8667C34.874 26.0741 34.8455 26.2222 34.817 26.3111C34.817 26.3704 34.817 26.4444 34.817 26.5333H34.7742C34.7172 26.5926 34.6744 26.7704 34.6459 27.0667H34.5604V27.2889L34.1756 28.1778C34.1471 28.2074 34.1328 28.237 34.1328 28.2667C34.1328 28.2963 34.1185 28.3259 34.09 28.3556C34.09 28.3852 34.09 28.4296 34.09 28.4889L34.0045 28.6222C33.9475 28.8296 33.8762 28.9778 33.7907 29.0667C33.7337 29.1556 33.6054 29.3037 33.4059 29.5111L32.2513 30.1778C32.1943 30.2074 32.1373 30.2222 32.0802 30.2222C32.0517 30.2222 32.009 30.237 31.952 30.2667L31.0967 30.6667H30.9257V30.7556L30.1987 30.8889L28.9586 31.0667V31.0222C28.9301 31.0519 28.8589 31.0667 28.7448 31.0667V31.0222C28.7163 31.0519 28.6878 31.0667 28.6593 31.0667L25.495 31.2L25.1529 31.1556V31.0667L22.5016 30.4V30.3111C22.3306 30.3111 22.2308 30.2963 22.2023 30.2667L22.1168 30.1778C21.5181 29.8519 21.1618 29.6593 21.0477 29.6C20.9337 29.5111 20.8624 29.437 20.8339 29.3778L20.2353 29.0222C19.9217 28.4296 19.6794 27.9852 19.5083 27.6889C19.3373 27.3926 19.2375 27.2296 19.209 27.2L19.1235 26.6667C19.095 26.6667 19.0379 26.5778 18.9524 26.4C18.8954 26.1926 18.8384 25.9704 18.7814 25.7333C18.6959 25.4667 18.6103 25.1556 18.5248 24.8L18.1827 23.4667C18.1542 23.437 18.14 23.3481 18.14 23.2C18.14 22.9037 18.1827 22.7259 18.2682 22.6667C18.3538 22.6074 18.3823 22.5778 18.3538 22.5778H18.5248V22.4889L21.005 22.2222H22.3734V22.1333L22.972 22.0889C23.0005 22.1185 23.1431 22.1333 23.3996 22.1333C23.4281 22.4 23.4709 22.6519 23.5279 22.8889C23.5849 23.0963 23.6419 23.2889 23.699 23.4667L23.6562 23.6444C23.6562 23.6741 23.7132 23.7185 23.8273 23.7778C23.9698 23.837 24.0411 23.9556 24.0411 24.1333L24.0838 24.2222C24.1408 24.3111 24.1836 24.3704 24.2121 24.4C24.2691 24.4296 24.3261 24.4741 24.3832 24.5333L26.2647 25.2444C26.3217 25.2741 26.4357 25.3037 26.6068 25.3333C26.8063 25.3333 26.9916 25.3333 27.1627 25.3333C27.2197 25.3333 27.2767 25.3333 27.3337 25.3333C27.3907 25.3037 27.4335 25.2889 27.462 25.2889L28.3172 25.0222L28.4883 24.8444C28.5168 24.8148 28.6451 24.6519 28.8731 24.3556C29.1012 24.0593 29.429 23.6296 29.8566 23.0667L29.9849 22.0889H30.0704L30.156 19.4667C30.156 19.2296 30.1417 19.0222 30.1132 18.8444C30.0847 18.637 30.0704 18.4296 30.0704 18.2222H30.156L29.8994 17.9111C29.8709 17.8815 29.8424 17.8222 29.8139 17.7333C29.8139 17.6148 29.8139 17.5407 29.8139 17.5111C29.6428 17.5111 29.5003 17.5556 29.3863 17.6444C29.3007 17.7333 29.1867 17.8074 29.0442 17.8667L27.633 18.0444C27.4905 18.0444 27.3195 18.0593 27.1199 18.0889C26.9488 18.0889 26.7635 18.0889 26.564 18.0889C26.4785 18.0889 26.3787 18.0889 26.2647 18.0889C26.1506 18.0593 26.0223 18.0296 25.8798 18H25.1956L23.0575 17.6889L21.2188 16.8889C21.1903 16.8593 21.176 16.8296 21.176 16.8L21.005 16.8444C20.9765 16.8444 20.9337 16.8148 20.8767 16.7556L20.6201 16.4889C20.5346 16.3704 20.1925 16.0593 19.5938 15.5556L19.4656 15.4222C19.3515 15.2444 19.2518 15.0963 19.1662 14.9778C19.1092 14.8296 19.0522 14.7111 18.9952 14.6222L18.7814 14.0444C18.6388 13.5407 18.5676 13.2741 18.5676 13.2444H18.5248L18.4393 11.6444C18.4393 11.4963 18.4393 11.3481 18.4393 11.2C18.4678 11.0222 18.482 10.8593 18.482 10.7111C18.4535 10.1481 18.4393 9.71852 18.4393 9.42222C18.4393 9.09629 18.4393 8.87407 18.4393 8.75556C18.4393 8.60741 18.4393 8.48889 18.4393 8.4C18.4678 8.28148 18.4963 8.16296 18.5248 8.04445C18.6388 7.27408 18.7101 6.68148 18.7386 6.26667C18.7956 5.85185 18.8241 5.62963 18.8241 5.6L18.9097 5.46667L18.9524 5.51111C19.0094 5.51111 19.0665 5.39259 19.1235 5.15556C19.1805 4.88889 19.3658 4.5037 19.6794 4C19.9359 3.73333 20.1355 3.52592 20.278 3.37778C20.4491 3.22963 20.5774 3.11111 20.6629 3.02222L20.8767 2.8C20.8767 2.8 20.9052 2.78519 20.9622 2.75556H21.0477C21.1048 2.6963 21.2045 2.62222 21.3471 2.53333C21.4896 2.44444 21.8317 2.23704 22.3734 1.91111L22.6727 1.86667L24.6397 1.64445V1.55555L27.9324 1.37778C28.2174 1.31852 28.3457 1.28889 28.3172 1.28889C28.4313 1.28889 29.3435 1.33333 31.054 1.42222L32.3368 1.86667L32.5079 2.04445C32.5649 2.13333 32.6219 2.19259 32.6789 2.22222C32.7644 2.25185 32.8642 2.31111 32.9782 2.4C33.1208 2.45926 33.2776 2.57778 33.4486 2.75556C33.6197 2.93333 33.8192 3.2 34.0473 3.55556C34.5319 4.32593 34.8312 4.96296 34.9453 5.46667C35.0878 5.94074 35.1591 6.38518 35.1591 6.8H35.2018C35.2304 6.85926 35.2446 7.11111 35.2446 7.55555H35.2874V13.4222L35.1163 14.0889V18.3111ZM29.8994 9.91111C29.8994 9.79259 29.9137 9.71852 29.9422 9.68889L29.8994 9.37778C29.8709 9.34815 29.7711 9.22963 29.6001 9.02222C29.4575 8.78518 29.2295 8.45926 28.9159 8.04445V8C28.7163 7.91111 28.5453 7.83704 28.4027 7.77778C28.2602 7.71852 28.1177 7.67407 27.9751 7.64444L26.3502 7.55555V7.6C26.1221 7.6 25.9938 7.61481 25.9653 7.64444L25.7515 7.73334C25.7515 7.82222 25.5805 8.05926 25.2384 8.44444L25.1529 8.62222C25.0958 8.62222 25.0673 8.63704 25.0673 8.66666L24.768 9.68889C24.768 9.74815 24.7538 9.82222 24.7252 9.91111C24.7252 9.97037 24.7252 10.0296 24.7252 10.0889L24.768 10.3556H24.8535L24.768 10.4444C24.768 10.5037 24.7823 10.5333 24.8108 10.5333L25.0673 11.5111H25.1529V11.6L25.7088 12.2222C25.7943 12.3111 25.8941 12.3852 26.0081 12.4444H26.0936C26.4357 12.5926 26.6923 12.7111 26.8633 12.8C27.0629 12.8593 27.1912 12.9037 27.2482 12.9333L27.3337 12.8H28.36L28.5738 12.7111L28.9159 12.4889C29.0014 12.4593 29.0727 12.3556 29.1297 12.1778L29.3435 12.1333C29.5431 11.8963 29.7284 11.1556 29.8994 9.91111ZM28.2745 12.3111C28.1319 12.3111 28.0464 12.3259 28.0179 12.3556V12.4444H27.2054V12.3556L26.5212 12.1333C25.7515 11.3333 25.3667 10.6222 25.3667 10C25.3667 9.85185 25.3667 9.70371 25.3667 9.55556C25.3952 9.40741 25.4237 9.25926 25.4522 9.11111L25.837 8.44444C25.9511 8.41481 26.1791 8.35556 26.5212 8.26667C26.8633 8.14815 27.2054 8.05926 27.5475 8C28.1747 8 28.6593 8.25185 29.0014 8.75556C29.372 9.22963 29.5573 9.65926 29.5573 10.0444C29.5573 10.0444 29.5288 10.1926 29.4718 10.4889L28.5738 12.1333L28.2745 12.3111Z" fill="#9EB5C8"/>
<path d="M57.767 16.8444C57.6814 16.3407 57.6102 15.9704 57.5531 15.7333C57.5246 15.4667 57.4676 15.2296 57.3821 15.0222C57.3251 14.8148 57.2396 14.5926 57.1255 14.3556C57.04 14.1185 56.8975 13.7481 56.6979 13.2444C56.6694 13.2148 56.6552 13.1704 56.6552 13.1111H56.5696L56.0993 12.4889H55.971C55.9425 12.4593 55.7287 12.3111 55.3295 12.0444C54.9589 11.7778 54.3888 11.363 53.6191 10.8V10.7556C53.5621 10.7259 53.505 10.7111 53.448 10.7111C53.4195 10.6815 53.3768 10.6519 53.3197 10.6222L53.1915 10.5333C53.1344 10.5037 53.0062 10.4741 52.8066 10.4444C52.6356 10.4148 52.3932 10.3704 52.0797 10.3111L51.9086 10.2222C51.481 10.1037 51.1246 10.0444 50.8396 10.0444V9.95556L50.4547 9.91111C48.8583 9.82222 47.8605 9.77778 47.4614 9.77778H46.7772C46.7202 9.77778 46.6774 9.76296 46.6489 9.73333H46.2641V9.64445C46.2356 9.64445 46.2071 9.57037 46.1786 9.42222C46.15 9.27407 46.1215 9.11111 46.093 8.93333L46.0075 8.35555C45.979 8.26667 45.9647 8.1037 45.9647 7.86666C46.2783 7.86666 46.5634 7.86666 46.82 7.86666C47.1051 7.83703 47.3759 7.82222 47.6325 7.82222C47.832 7.82222 48.0173 7.83703 48.1883 7.86666C48.3594 7.86666 48.5162 7.88148 48.6587 7.91111L51.3527 7.86666C51.3812 7.86666 51.5095 7.86666 51.7376 7.86666C51.9941 7.83703 52.3647 7.80741 52.8494 7.77778L53.277 7.73334V7.64444C53.3055 7.64444 53.4623 7.67408 53.7474 7.73334C54.0609 7.76296 54.5171 7.80741 55.1157 7.86666L57.5531 7.51111C57.5817 7.48148 57.5959 7.45185 57.5959 7.42222C57.6244 7.39259 57.6529 7.36296 57.6814 7.33333L57.7242 7.28889C57.7242 7.22963 57.7099 7.2 57.6814 7.2L57.8097 5.82222C57.7812 5.79259 57.7527 5.77778 57.7242 5.77778L57.6814 3.82223L57.8097 3.77778L57.767 1.24444C57.767 1.18519 57.7527 1.15556 57.7242 1.15556C57.7242 1.12593 57.7242 1.08148 57.7242 1.02222L52.3362 0.888889L51.6948 0.71111H51.1389C51.0534 0.740741 50.8681 0.755556 50.583 0.755556L48.787 0.888889C48.2454 0.888889 47.7037 0.903704 47.1621 0.933333C46.6489 0.933333 46.1358 0.933333 45.6227 0.933333H44.6391C44.069 0.933333 42.6151 1.02222 40.2775 1.2V1.24444C40.2204 1.24444 40.1492 1.24444 40.0636 1.24444C40.0066 1.21482 39.9496 1.2 39.8926 1.2L39.636 1.33333C39.579 1.54074 39.5362 1.73333 39.5077 1.91111C39.5077 2.05926 39.5077 2.19259 39.5077 2.31111C39.5077 2.51852 39.522 2.91852 39.5505 3.51111C39.579 4.1037 39.5933 4.88889 39.5933 5.86667C39.5933 6.22222 39.579 6.50371 39.5505 6.71111C39.5505 6.91852 39.5505 7.05185 39.5505 7.11111V7.2H39.465C39.465 7.25926 39.4792 7.28889 39.5077 7.28889L39.5933 8.62222C39.5933 8.82963 39.579 9.22963 39.5505 9.82222C39.5505 10.3852 39.522 10.9926 39.465 11.6444C39.4365 12.2667 39.408 12.8444 39.3795 13.3778C39.3795 13.9111 39.3795 14.237 39.3795 14.3556C39.3795 14.4148 39.3795 14.4741 39.3795 14.5333C39.408 14.5926 39.4222 14.6519 39.4222 14.7111L39.465 15.7333C39.4365 15.763 39.408 15.7778 39.3795 15.7778C39.3795 15.9852 39.4222 16.0741 39.5077 16.0444C39.5933 15.9852 39.636 16.0296 39.636 16.1778L39.5933 16.2667C39.5933 16.2963 39.6218 16.3111 39.6788 16.3111C39.7643 16.3111 39.8071 16.3852 39.8071 16.5333C40.1207 16.5333 40.2917 16.5185 40.3202 16.4889V16.4444H42.0734C42.387 16.4444 42.6436 16.4296 42.8431 16.4C43.0712 16.3704 43.2137 16.3704 43.2708 16.4C43.3278 16.4 43.4846 16.4148 43.7411 16.4444C43.9977 16.4444 44.3398 16.4593 44.7674 16.4889L45.4944 16.4444C45.6654 16.4148 45.808 16.4 45.922 16.4C46.036 16.4 46.1215 16.4 46.1786 16.4C46.3781 16.4 46.934 16.5037 47.8463 16.7111V16.7556C47.8748 16.7556 48.4307 16.8444 49.514 17.0222V17.0667C49.799 17.1556 49.9986 17.2 50.1126 17.2V17.2889H50.1981C50.2552 17.2889 50.3549 17.3778 50.4975 17.5556C50.6685 17.7037 50.7683 17.7778 50.7968 17.7778L50.8396 17.8667L51.1389 18.4889C51.1959 18.6074 51.2387 18.7111 51.2672 18.8L51.3099 19.1111C51.3099 19.2 51.3099 19.437 51.3099 19.8222C51.3385 20.2074 51.3527 20.5185 51.3527 20.7556L51.3099 21.3778V21.8222C51.3099 21.9704 51.2672 22.163 51.1817 22.4C51.1246 22.637 50.9679 23.0667 50.7113 23.6889L50.583 23.7333V23.8222C50.5545 23.8519 50.412 23.9704 50.1554 24.1778C49.9273 24.3556 49.571 24.637 49.0863 25.0222L48.2739 25.1111L47.9745 25.0667L46.991 24.7556C46.877 24.6667 46.763 24.5778 46.6489 24.4889C46.5349 24.3704 46.4209 24.2518 46.3068 24.1333L46.2641 24C46.2071 23.8222 46.1643 23.6741 46.1358 23.5556C46.1358 23.4074 46.1215 23.2889 46.093 23.2C46.0645 23.0815 46.0503 22.9926 46.0503 22.9333L45.922 22.8L45.7937 22.5333C45.7937 22.5333 45.7794 22.5037 45.7509 22.4444H45.4944C45.4944 22.3259 45.4374 22.2519 45.3233 22.2222L43.5701 22.2667L42.2445 22.3556H41.8169C41.5603 22.3556 41.3037 22.3556 41.0472 22.3556C40.7906 22.3259 40.5198 22.3111 40.2347 22.3111V22.3556C40.1777 22.3556 40.1349 22.3704 40.1064 22.4C40.0779 22.4 40.0351 22.4 39.9781 22.4L39.9354 22.4444C39.8783 22.5333 39.8356 23.1704 39.8071 24.3556H39.8926V25.9111L39.9781 27.0667L40.8761 29.5556L41.1754 30L42.159 31.0222H42.2445C42.33 31.0519 42.4298 31.0963 42.5438 31.1556C42.7719 31.2741 43.057 31.3926 43.399 31.5111L43.7411 31.6C43.7696 31.6 43.7982 31.6148 43.8267 31.6444C43.8552 31.6444 43.8837 31.6444 43.9122 31.6444V31.6889C43.9692 31.7185 44.0832 31.7333 44.2543 31.7333C44.3113 31.7333 44.3541 31.7185 44.3826 31.6889L45.7509 31.9556C46.2071 31.9556 46.6204 31.9556 46.991 31.9556C47.3616 31.9556 47.6895 31.9407 47.9745 31.9111C48.1171 31.9111 48.2739 31.9259 48.4449 31.9556C48.6445 31.9556 48.8298 31.9556 49.0008 31.9556C49.3714 31.9556 49.7278 31.9407 50.0699 31.9111C50.412 31.8519 50.7826 31.8222 51.1817 31.8222V31.7333H51.5238L53.5336 31.2889C53.5336 31.2889 53.6048 31.2593 53.7474 31.2C53.9184 31.1111 54.1037 31.0222 54.3033 30.9333C54.5028 30.8444 54.7024 30.7407 54.9019 30.6222C55.13 30.5037 55.301 30.3852 55.4151 30.2667H55.5006C55.5291 30.237 55.5576 30.2074 55.5861 30.1778C55.6146 30.1185 55.6574 30.0593 55.7144 30H55.7999C56.0565 29.6741 56.2703 29.4074 56.4413 29.2C56.6124 28.963 56.7264 28.8 56.7834 28.7111L56.8262 28.6222C56.8547 28.5926 56.8975 28.5185 56.9545 28.4C57.0115 28.2815 57.0685 28.163 57.1255 28.0444L57.2111 27.9556C57.3251 27.3333 57.3964 26.8741 57.4249 26.5778C57.4819 26.2815 57.5246 26.0593 57.5531 25.9111C57.5817 25.7333 57.5959 25.6 57.5959 25.5111C57.5959 25.3926 57.6102 25.2296 57.6387 25.0222H57.5531C57.6957 22.7704 57.7812 20.9333 57.8097 19.5111L57.8525 18.0889H57.938L57.8525 18.0444L57.938 17.9556H57.8525V17.3778L57.767 16.8444ZM57.2966 19.7333C57.2111 20.7111 57.1683 21.2593 57.1683 21.3778C57.1683 21.4667 57.1683 21.5556 57.1683 21.6444C57.1968 21.7333 57.2111 21.8222 57.2111 21.9111C57.2111 22.237 57.1968 22.5185 57.1683 22.7556C57.1398 22.963 57.1255 23.1852 57.1255 23.4222L57.0828 24.2222C56.9687 24.5481 56.8832 24.9185 56.8262 25.3333C56.7977 25.7481 56.7834 26.163 56.7834 26.5778L56.6979 26.7111C56.2703 27.7185 55.9425 28.3407 55.7144 28.5778V28.6667C55.6859 28.6963 55.6146 28.7852 55.5006 28.9333C55.4151 29.0815 55.2725 29.2741 55.073 29.5111C54.3888 29.8667 54.0467 30.0741 54.0467 30.1333V30.1778C54.0467 30.237 53.9754 30.2667 53.8329 30.2667L53.7046 30.3556C53.6191 30.4148 52.9349 30.637 51.652 31.0222H50.7113C50.3692 31.0222 50.0984 31.0667 49.8988 31.1556C48.7585 31.2148 47.8748 31.2593 47.2476 31.2889C46.6204 31.3185 46.2498 31.3333 46.1358 31.3333C45.9362 31.3333 45.8222 31.3185 45.7937 31.2889L43.8694 30.9778C43.8694 30.9481 43.8552 30.9185 43.8267 30.8889H43.7411C43.6841 30.8296 43.2708 30.5778 42.5011 30.1333H42.4155C42.3015 29.9852 42.1305 29.837 41.9024 29.6889C41.7028 29.5407 41.5603 29.3037 41.4748 28.9778H41.3893V28.8889C41.3893 28.8 41.3322 28.6963 41.2182 28.5778L40.534 26.5333L40.4913 25.9556C40.3772 25.7185 40.306 25.437 40.2775 25.1111C40.2775 24.7852 40.2775 24.3556 40.2775 23.8222C40.2775 23.4963 40.306 23.3037 40.363 23.2444V23.1556C40.534 23.1556 40.6338 23.1407 40.6623 23.1111L43.057 22.8889L43.5273 22.9778H43.6556L43.8267 22.9333H45.4088V23.0222L45.4944 23.7778H45.5799L46.093 25.2889L46.3496 25.4222C47.0338 25.8667 47.4614 26.0889 47.6325 26.0889V26.1778H47.8035C48.4022 26.1778 48.8868 26.1037 49.2574 25.9556L49.4284 25.9111C49.4855 25.8815 49.571 25.837 49.685 25.7778C49.799 25.6889 49.9701 25.5704 50.1981 25.4222H50.3264C50.3264 25.3926 50.3407 25.363 50.3692 25.3333H50.4547L51.1817 24.4L51.3099 24.3556V24.2667C51.3099 24.237 51.3385 24.2222 51.3955 24.2222L51.6948 23.5556C51.6948 23.4074 51.8231 22.8889 52.0797 22H52.1652L52.1224 21.1111C52.0654 20.5778 52.0226 20.163 51.9941 19.8667C51.9656 19.5704 51.9514 19.3926 51.9514 19.3333L51.9086 18.8889L51.6948 18.3111C51.5523 17.9556 51.4525 17.7185 51.3955 17.6C51.3385 17.4518 51.2957 17.363 51.2672 17.3333C51.2672 17.2741 51.2529 17.2593 51.2244 17.2889C51.2244 17.2889 51.2102 17.2593 51.1817 17.2V17.1111L51.0106 17.0222H51.0534C51.0534 16.963 50.9536 16.8889 50.754 16.8C50.5545 16.6815 50.3834 16.5778 50.2409 16.4889V16.4444C50.0984 16.4444 49.9986 16.4296 49.9416 16.4L49.7278 16.3111C49.5852 16.2815 49.5282 16.2667 49.5567 16.2667C49.5852 16.2667 49.5567 16.2667 49.4712 16.2667C49.4142 16.2667 49.2574 16.2667 49.0008 16.2667C48.7728 16.237 48.3166 16.163 47.6325 16.0444L47.2476 15.9111L45.2806 15.7333L44.5108 15.6444C44.2828 15.6444 44.069 15.6444 43.8694 15.6444C43.6984 15.6148 43.5416 15.6 43.399 15.6C43.2565 15.6 43.1425 15.6148 43.057 15.6444C42.9999 15.6444 42.9429 15.6444 42.8859 15.6444H41.7741C41.6031 15.6148 41.432 15.6 41.261 15.6C41.1184 15.5704 40.9759 15.5407 40.8333 15.5111L40.4057 15.4222L40.363 12.4889C40.3345 12.4593 40.3202 12.3704 40.3202 12.2222L40.1919 9.46667V6.84444H40.1064C40.1349 6.34074 40.1492 5.92593 40.1492 5.6C40.1492 5.27407 40.1492 4.99259 40.1492 4.75555V3.82223C40.1492 3.67408 40.1634 3.52592 40.1919 3.37778H40.2775L40.3202 2C40.3487 1.94074 40.363 1.91111 40.363 1.91111C40.3915 1.91111 40.4057 1.88148 40.4057 1.82222C40.6623 1.82222 40.8761 1.85185 41.0472 1.91111C41.2467 1.97037 41.432 2 41.6031 2C41.8311 2 42.0164 1.97037 42.159 1.91111C42.3015 1.82222 42.444 1.77778 42.5866 1.77778L45.3233 1.55555H47.0338H47.2904L47.718 1.64445H48.5732H49.3857C49.4427 1.64445 49.5282 1.64445 49.6422 1.64445C49.7563 1.61482 49.9131 1.6 50.1126 1.6C50.2837 1.6 50.4832 1.61482 50.7113 1.64445C50.9393 1.64445 51.2102 1.64445 51.5238 1.64445H51.5665C51.5665 1.61482 51.595 1.6 51.652 1.6L51.7376 1.68889L51.7803 1.6C51.8088 1.57037 51.9229 1.55555 52.1224 1.55555C52.265 1.55555 52.3932 1.57037 52.5073 1.6C52.6213 1.6 52.7211 1.6 52.8066 1.6L52.8921 1.55555L56.0565 1.6C56.085 1.6 56.142 1.61482 56.2275 1.64445C56.3131 1.67407 56.3986 1.68889 56.4841 1.68889C56.5696 1.68889 56.6266 1.67407 56.6552 1.64445L56.8262 1.6L56.9117 2.13333H56.9972L57.04 2.31111C57.097 3.14074 57.1398 3.80741 57.1683 4.31111C57.1968 4.81482 57.2111 5.17037 57.2111 5.37778C57.2111 5.61482 57.1968 5.83704 57.1683 6.04444C57.1683 6.25185 57.154 6.42963 57.1255 6.57778C56.4984 6.60741 55.8284 6.62222 55.1157 6.62222C54.403 6.59259 53.7046 6.63704 53.0204 6.75556L52.9349 6.66667C52.8779 6.6963 52.8351 6.71111 52.8066 6.71111C52.8066 6.71111 52.7781 6.72593 52.7211 6.75556V6.66667H51.9086V6.88889H50.583H49.7278C49.6422 6.88889 49.5852 6.90371 49.5567 6.93333H49.2146C49.2431 6.90371 49.2574 6.85926 49.2574 6.8C49.1149 6.82963 48.9723 6.87407 48.8298 6.93333C48.7157 6.96296 48.5875 6.99259 48.4449 7.02222L46.7345 7.15556L45.7937 7.24444L45.6654 7.15556C45.4374 7.21481 45.2806 7.37778 45.195 7.64444H45.3233L45.3661 9.46667C45.3661 9.91111 45.3803 10.163 45.4088 10.2222C45.4659 10.2815 45.5799 10.3407 45.7509 10.4C45.808 10.3407 45.979 10.3111 46.2641 10.3111H46.5634V10.4L46.6917 10.4444C46.7487 10.4444 46.9198 10.4889 47.2048 10.5778C47.4899 10.637 47.9318 10.6667 48.5304 10.6667C48.5875 10.6667 48.6445 10.6667 48.7015 10.6667C48.787 10.637 48.8868 10.6222 49.0008 10.6222C49.4855 10.7704 49.9843 10.8889 50.4975 10.9778C51.0106 11.0667 51.4953 11.1407 51.9514 11.2L52.0797 11.3778L53.1915 11.9556C53.1915 12.0148 53.4053 12.1778 53.8329 12.4444C53.8329 12.4741 53.9612 12.6519 54.2177 12.9778C54.4743 13.2741 54.7736 13.6296 55.1157 14.0444C55.4578 14.4593 55.7857 14.8889 56.0993 15.3333C56.4128 15.7481 56.6124 16.0741 56.6979 16.3111L56.7407 16.4C56.8832 16.963 56.9687 17.3185 56.9972 17.4667C57.0258 17.5852 57.0685 17.7185 57.1255 17.8667L57.1683 18.1333C57.1968 18.4889 57.2396 19.0222 57.2966 19.7333Z" fill="#9EB5C8"/>
<path d="M79.4869 20.0444L79.4441 19.6889L78.8882 19.2C78.8882 19.1704 78.8739 19.1407 78.8454 19.1111C78.8454 19.0815 78.8454 19.0519 78.8454 19.0222L78.8027 18.9333C78.8027 18.6667 78.7171 18.4444 78.5461 18.2667L78.2468 17.7778C78.1898 17.7778 78.1185 17.7333 78.033 17.6444C77.976 17.5259 77.8904 17.4074 77.7764 17.2889H77.6909V17.1556C77.5768 17.1556 77.4628 17.0667 77.3488 16.8889H77.2205C77.2205 16.8296 77.135 16.7704 76.9639 16.7111C76.8214 16.6222 76.7501 16.5481 76.7501 16.4889L75.8094 16.1333C75.1252 15.8963 74.7973 15.7778 74.8258 15.7778L74.7403 15.6444L74.3982 15.6C73.9136 15.4815 73.543 15.3926 73.2864 15.3333C73.0584 15.2741 72.8588 15.2444 72.6878 15.2444H71.8753C71.4477 15.2444 71.1911 15.2593 71.1056 15.2889V15.3333C71.1056 15.363 71.0201 15.4222 70.849 15.5111C70.678 15.6 70.4784 15.6889 70.2503 15.7778C70.0508 15.8667 69.837 15.9556 69.6089 16.0444C69.4094 16.1037 69.2811 16.1333 69.2241 16.1333V16.1778C69.1671 16.2074 69.0673 16.2667 68.9247 16.3556C68.7822 16.4444 68.5684 16.563 68.2833 16.7111V16.8C68.1693 16.8296 68.0553 16.8889 67.9412 16.9778C67.8842 16.9185 67.8557 16.7704 67.8557 16.5333V16.0889C67.8557 16.0593 67.8414 15.9111 67.8129 15.6444C67.8129 15.3481 67.8129 15.037 67.8129 14.7111C67.8129 14.3556 67.7987 14.0296 67.7702 13.7333C67.7702 13.437 67.7702 13.2593 67.7702 13.2L67.984 11.0667H67.9412L67.984 10.9778C68.0125 10.8593 68.0267 10.7407 68.0267 10.6222C68.0267 10.5037 68.041 10.3704 68.0695 10.2222L68.155 10.0889C68.155 10 68.155 9.91111 68.155 9.82222C68.1835 9.73333 68.1978 9.62963 68.1978 9.51111L68.2405 9.42222L68.3261 9.2C68.3546 9.17037 68.3688 9.11111 68.3688 9.02222C68.3688 8.93333 68.3831 8.87407 68.4116 8.84445V8.75556C68.5541 8.72593 68.6967 8.63704 68.8392 8.48889C68.9818 8.34074 69.1243 8.17778 69.2668 8C69.4094 7.82222 69.5234 7.67407 69.6089 7.55555C69.723 7.40741 69.8085 7.33333 69.8655 7.33333V7.28889C69.9225 7.22963 69.951 7.21482 69.951 7.24444C69.9795 7.24444 70.0365 7.2 70.1221 7.11111L70.2076 7.06667C70.2646 7.06667 70.3074 7.08148 70.3359 7.11111C70.3929 7.11111 70.4499 7.11111 70.5069 7.11111L70.678 7.02222C70.7065 7.05185 70.7635 7.06667 70.849 7.06667L72.1319 7.51111L72.1746 7.64444H72.2601C72.2887 7.64444 72.3029 7.67408 72.3029 7.73334H72.4312C72.4312 7.79259 72.4597 7.85185 72.5167 7.91111C72.6022 7.94074 72.6735 7.98519 72.7305 8.04445V8.13333C72.759 8.16296 72.7875 8.17778 72.816 8.17778L72.8588 8.31111C72.9728 8.57778 73.0299 8.77037 73.0299 8.88889H73.1154L73.1581 9.77778C73.1581 9.8963 73.1581 10.0296 73.1581 10.1778C73.1866 10.3259 73.2152 10.4741 73.2437 10.6222L73.2864 10.8889C73.2864 10.9185 73.3007 10.9481 73.3292 10.9778C73.4432 10.9481 73.543 10.9333 73.6285 10.9333C73.7425 10.9333 73.8281 10.9333 73.8851 10.9333H74.9114C75.0539 10.9333 75.2392 10.9037 75.4673 10.8444H76.1515L78.033 10.7556C78.4891 10.7852 78.7171 10.8296 78.7171 10.8889L78.8882 10.8C79.0592 10.7407 79.1733 10.6667 79.2303 10.5778C79.2303 10.4889 79.2018 10.4296 79.1448 10.4C79.1163 10.3407 79.102 10.0593 79.102 9.55556C79.102 9.37778 79.1163 9.27407 79.1448 9.24444C79.1163 9.15555 79.102 8.81481 79.102 8.22222L79.0592 7.82222H78.9737C79.0022 7.64445 79.0165 7.46667 79.0165 7.28889C79.0165 7.11111 79.0307 6.93333 79.0592 6.75556H78.9737L78.8454 5.95556L78.4178 4.66667C78.3038 4.48889 78.2183 4.32592 78.1613 4.17778C78.1042 4.02963 78.0472 3.91111 77.9902 3.82223L77.8192 3.51111L77.0494 2.4C76.5078 1.98519 75.8949 1.67407 75.2107 1.46667C74.5265 1.25926 73.8281 1.03704 73.1154 0.8L69.78 0.844445L68.7109 0.977779V1.06667H68.4116L67.5136 1.46667C67.2855 1.46667 67.029 1.51111 66.7439 1.6C66.4873 1.68889 66.2165 1.79259 65.9314 1.91111C65.6749 2.02963 65.4325 2.16296 65.2045 2.31111C64.9764 2.42963 64.8054 2.54815 64.6913 2.66667L64.221 3.02222H64.0927C64.0927 3.05185 64.0784 3.08148 64.0499 3.11111H63.9644C63.9644 3.2 63.9074 3.28889 63.7933 3.37778C63.6793 3.43704 63.608 3.48148 63.5795 3.51111L62.8098 4.26667C62.7528 4.2963 62.71 4.32593 62.6815 4.35556C62.6815 4.35556 62.653 4.37037 62.596 4.4V4.53333C62.5675 4.53333 62.425 4.81482 62.1684 5.37778L61.9118 5.95556H61.8263L61.698 6.35556L61.3987 6.53333L61.0994 7.55555C61.0994 7.7037 61.0851 7.85185 61.0566 8C61.0566 8.11852 61.0566 8.25185 61.0566 8.4L61.0994 8.66666C61.0994 8.69629 61.0994 8.8 61.0994 8.97778C61.0994 9.12593 61.0851 9.34815 61.0566 9.64445V9.82222V10.9778L61.0138 11.0222C60.9853 11.0519 60.9711 11.2296 60.9711 11.5556H61.0138L60.9711 11.6V14.3556L60.8856 14.4889H60.9711L60.8428 17.9556C60.8713 17.9852 60.8856 18.0593 60.8856 18.1778V18.2667L60.8 18.6222C60.8 18.7704 60.8 18.9333 60.8 19.1111C60.8285 19.2889 60.8428 19.4074 60.8428 19.4667L60.8856 21.1111H60.9711L61.0566 22.0444C61.0851 22.1926 61.0994 22.3259 61.0994 22.4444C61.0994 22.5333 61.0994 22.637 61.0994 22.7556C61.0994 23.0519 61.0851 23.2889 61.0566 23.4667C61.0281 23.6444 61.0138 23.7778 61.0138 23.8667V23.9111V24.1778C61.0138 24.2963 61.0281 24.4 61.0566 24.4889C61.0851 24.5778 61.0994 24.6518 61.0994 24.7111C61.0994 24.7704 61.0851 24.8296 61.0566 24.8889C61.0566 24.9481 61.0566 25.0074 61.0566 25.0667L61.2276 25.9111C61.2561 25.9111 61.2704 25.8815 61.2704 25.8222L61.6125 26.4L62.1256 27.6889C62.1256 27.7481 62.1399 27.8222 62.1684 27.9111C62.1969 28 62.2397 28.0444 62.2967 28.0444V28.1778C62.3537 28.2074 62.5105 28.3556 62.7671 28.6222C63.0521 28.8593 63.3087 29.0963 63.5368 29.3333H63.6223C63.7933 29.5111 63.9501 29.6889 64.0927 29.8667C64.2637 30.0444 64.4348 30.2222 64.6058 30.4H64.6913C65.2615 30.8148 65.5893 31.0222 65.6749 31.0222L66.1025 31.2V31.2889H66.2308C66.7154 31.437 66.9434 31.5111 66.9149 31.5111V31.5556C66.9434 31.5852 67.0147 31.6 67.1287 31.6V31.6889C67.2713 31.6889 67.3568 31.7037 67.3853 31.7333V31.7778C67.984 31.837 68.6967 31.8815 69.5234 31.9111L69.5662 32C69.6517 32 69.6944 31.9852 69.6944 31.9556C69.723 31.9259 69.7657 31.9111 69.8227 31.9111V31.9556L73.543 31.4667L74.3982 31.3333C75.2249 31.037 75.6953 30.8889 75.8094 30.8889V30.8C75.8379 30.8 75.8664 30.8148 75.8949 30.8444C75.8949 30.8444 75.8806 30.8593 75.8521 30.8889C75.8521 30.8593 75.9376 30.7852 76.1087 30.6667C76.2797 30.5481 76.6931 30.3111 77.3488 29.9556H77.4343C77.4343 29.8667 77.4771 29.7926 77.5626 29.7333C77.6481 29.6741 77.7194 29.6148 77.7764 29.5556L77.9047 29.6444C78.1042 29.6148 78.2325 29.4519 78.2895 29.1556C78.3751 28.8593 78.4891 28.7111 78.6316 28.7111V28.6222C78.6601 28.5926 78.6886 28.5778 78.7171 28.5778V28.4444C78.7742 28.4444 78.8169 28.4296 78.8454 28.4L79.2303 27.5556L79.3158 27.2C79.3158 27.1407 79.3158 27.0963 79.3158 27.0667C79.3443 27.0074 79.3586 26.9481 79.3586 26.8889L79.829 25.2444C79.8575 25.2148 79.8717 25.0963 79.8717 24.8889H79.9572V24.1778C79.9572 24.0593 79.9572 23.9407 79.9572 23.8222C79.9857 23.7037 80 23.5852 80 23.4667C80 23.2296 79.9857 23.0963 79.9572 23.0667L79.5724 20.0444H79.4869ZM78.8454 20.1778C78.9025 21.037 78.9452 21.7037 78.9737 22.1778C79.0022 22.6222 79.0165 22.8593 79.0165 22.8889V23.0222V24.3556V24.9778V25.1556L78.931 25.6444L78.5889 27.0222C78.5889 27.0519 78.5461 27.1704 78.4606 27.3778C78.4036 27.5556 78.3608 27.6593 78.3323 27.6889H78.2895C78.261 27.7481 78.2468 27.8074 78.2468 27.8667C78.2468 27.8963 78.2325 27.9407 78.204 28L78.1613 28.0889C78.1042 28.1481 78.0472 28.2519 77.9902 28.4C77.9332 28.5185 77.8904 28.5926 77.8619 28.6222V28.7111C77.7764 28.7407 77.7194 28.7852 77.6909 28.8444C77.6909 28.8741 77.6624 28.9185 77.6053 28.9778L77.0922 29.2L77.0067 29.3333C76.9782 29.363 76.9497 29.3778 76.9212 29.3778C76.8927 29.3778 76.8641 29.3926 76.8356 29.4222C76.8071 29.4222 76.7644 29.4222 76.7074 29.4222L76.5363 29.5111C75.7951 29.8074 75.3532 29.9556 75.2107 29.9556L74.7831 30.1778C74.4695 30.2667 74.2272 30.3407 74.0561 30.4C73.9136 30.4296 73.8138 30.4593 73.7568 30.4889C73.6998 30.5185 73.657 30.5333 73.6285 30.5333C73.6285 30.5333 73.6143 30.5333 73.5858 30.5333V30.5778L71.6615 30.9778L70.9773 31.0222L70.0365 31.1111C68.212 30.9333 67.2855 30.8296 67.257 30.8L66.188 30.2667C66.1595 30.2667 66.131 30.2667 66.1025 30.2667C66.074 30.237 66.0455 30.2222 66.0169 30.2222V30.1778C65.9884 30.1481 65.9457 30.1333 65.8887 30.1333H65.7176C65.6321 30.1333 65.5181 30.0741 65.3755 29.9556C65.233 29.8074 65.0619 29.6444 64.8624 29.4667C64.6913 29.2889 64.506 29.1111 64.3065 28.9333C64.1354 28.7259 63.9929 28.5481 63.8789 28.4V28.3111C63.7648 28.2222 63.6223 28.1333 63.4512 28.0444C63.3087 27.9556 63.1804 27.8518 63.0664 27.7333L62.596 26.3556L62.2112 25.2889L62.0829 23.8222C61.9974 23.6148 61.9546 23.3185 61.9546 22.9333L61.7408 19.7778C61.7408 19.7185 61.755 19.6741 61.7835 19.6444L61.7408 18.0889C61.7123 18 61.698 17.8074 61.698 17.5111L61.7835 16.0444C61.7835 15.8667 61.7835 15.6889 61.7835 15.5111C61.812 15.3333 61.8263 15.1407 61.8263 14.9333H61.8691L61.8263 14.8444L61.9118 14.7556V12.0444L61.9974 10.5333C62.0829 10.237 62.1256 9.86666 62.1256 9.42222L62.0829 8.8L62.2112 7.42222L63.1519 5.15556L63.2374 4.97778C63.5795 4.62222 63.7648 4.44444 63.7933 4.44444C63.8218 4.41481 63.8646 4.37037 63.9216 4.31111V4.22222C64.0927 4.04444 64.2067 3.91111 64.2637 3.82223C64.3492 3.73334 64.4063 3.67407 64.4348 3.64444L64.6913 3.46667L66.3163 2.8C66.3733 2.8 66.4303 2.8 66.4873 2.8C66.5728 2.77037 66.6869 2.72593 66.8294 2.66667H67.0432C67.1572 2.63704 67.7559 2.45926 68.8392 2.13333V2.08889C68.9247 2.08889 69.5377 1.97037 70.678 1.73333H72.8588C72.8588 1.79259 72.8873 1.82222 72.9443 1.82222V1.73333L74.4837 2.13333C74.5123 2.16296 74.5835 2.19259 74.6976 2.22222C74.7831 2.25185 74.8829 2.28148 74.9969 2.31111C75.1109 2.34074 75.2535 2.38519 75.4245 2.44445L75.51 2.57778C75.567 2.57778 75.6668 2.62222 75.8094 2.71111C75.9804 2.77037 76.0517 2.81482 76.0232 2.84445H76.1515L76.1087 2.8C76.1372 2.8 76.2512 2.96296 76.4508 3.28889C76.6788 3.58518 76.9069 3.76297 77.135 3.82223V3.91111H77.2633C77.2918 3.94074 77.3203 3.98519 77.3488 4.04445C77.4058 4.1037 77.4913 4.20741 77.6053 4.35556L77.9474 5.02222V5.15556L78.5889 7.28889L78.6316 10.1333C78.261 10.1333 77.9332 10.1778 77.6481 10.2667L75.8094 10.3556C75.7808 10.3852 75.6811 10.4 75.51 10.4C75.396 10.4 75.2962 10.4 75.2107 10.4C75.1252 10.3704 75.0539 10.3556 74.9969 10.3556H74.2699L73.8851 10.2222C73.8851 9.98518 73.8708 9.71852 73.8423 9.42222C73.8138 9.12593 73.7711 8.84445 73.714 8.57778C73.657 8.31111 73.5858 8.08889 73.5002 7.91111C73.4147 7.73333 73.3149 7.64444 73.2009 7.64444V7.51111C73.0869 7.51111 72.8873 7.33334 72.6022 6.97778H72.5167C72.4882 6.94815 72.4739 6.91852 72.4739 6.88889H72.3884C71.6472 6.47407 71.2196 6.26667 71.1056 6.26667C70.9345 6.26667 70.7492 6.2963 70.5497 6.35556C70.3786 6.38518 70.2361 6.42963 70.1221 6.48889L69.951 6.57778L68.8392 7.2C68.7822 7.2 68.7252 7.21482 68.6682 7.24444C68.6397 7.24444 68.5969 7.24444 68.5399 7.24444V7.28889C68.4544 7.31852 68.3546 7.36296 68.2405 7.42222L68.5399 7.51111C68.3688 7.51111 68.2833 7.58519 68.2833 7.73334C68.2833 7.88148 68.2691 7.98519 68.2405 8.04445H68.155L67.4708 8.88889C67.4708 8.94815 67.4566 9.02222 67.4281 9.11111C67.4281 9.2 67.4281 9.27407 67.4281 9.33333H67.3853C67.3283 9.39259 67.2855 9.67407 67.257 10.1778C67.2285 10.6815 67.143 11.4963 67.0005 12.6222L66.9577 15.9111C66.8722 16.0889 66.8294 16.4889 66.8294 17.1111C66.8294 17.2296 66.8294 17.3481 66.8294 17.4667C66.8579 17.5852 66.8722 17.7185 66.8722 17.8667V18.2222H66.7867C66.7867 18.4593 66.8437 18.637 66.9577 18.7556V18.8C66.9577 18.8296 66.972 18.8593 67.0005 18.8889H67.086C67.143 18.8296 67.1715 18.7704 67.1715 18.7111H67.3426L67.5564 18.2667L68.155 17.9556C68.155 17.8667 68.1835 17.837 68.2405 17.8667C68.2976 17.8667 68.3546 17.837 68.4116 17.7778V17.7333C68.4686 17.7037 68.6254 17.6148 68.882 17.4667C69.167 17.2889 69.3381 17.1852 69.3951 17.1556L69.4806 17.0667C69.5377 17.037 69.5804 16.9778 69.6089 16.8889C69.6659 16.8 69.723 16.7407 69.78 16.7111V16.6667C70.3786 16.4593 70.678 16.3259 70.678 16.2667L70.8062 16.2222L70.5069 16.1778L70.6352 16.1333C70.8633 16.0741 71.1198 16.0593 71.4049 16.0889C71.69 16.0889 71.9466 16.0593 72.1746 16L72.4312 15.9556C72.5737 15.8963 72.7163 15.8815 72.8588 15.9111C73.0299 15.9111 73.2294 15.8963 73.4575 15.8667C73.5145 15.8667 73.5572 15.9259 73.5858 16.0444C73.6428 16.1333 73.6998 16.1926 73.7568 16.2222C74.1274 16.3704 74.4837 16.4593 74.8258 16.4889C75.1964 16.5185 75.5813 16.563 75.9804 16.6222V16.6667C76.0659 16.6963 76.18 16.7111 76.3225 16.7111C76.3795 16.7111 76.408 16.7259 76.408 16.7556L76.4508 16.8C76.5648 16.9185 76.6646 16.9926 76.7501 17.0222C76.8356 17.0222 76.8784 17.0519 76.8784 17.1111H77.0067L77.4343 17.5556V17.6889C77.4628 17.6889 77.4913 17.7037 77.5198 17.7333L77.9474 18.5778L77.9902 18.8444C78.0187 18.8741 78.033 18.9037 78.033 18.9333C78.033 19.0222 78.0472 19.0963 78.0757 19.1556L78.1185 19.2889L78.6744 19.6889C78.7029 19.7185 78.7171 19.837 78.7171 20.0444L78.7599 20.1778H78.8454ZM75.0824 21.3333V21.3778C75.0824 21.3185 75.0682 21.2889 75.0396 21.2889L74.9114 21.2V21.1111C74.8829 21.0815 74.8116 21.0222 74.6976 20.9333C74.5835 20.8148 74.498 20.7556 74.441 20.7556L74.3982 20.6667H73.2864V20.6222L71.7042 20.8889L71.747 20.9778C71.4619 21.037 71.1626 21.1556 70.849 21.3333C70.5639 21.4815 70.3786 21.5556 70.2931 21.5556V21.6C70.008 21.8963 69.8512 22.0889 69.8227 22.1778L69.78 22.3556C69.7515 22.3852 69.7372 22.4296 69.7372 22.4889L69.6089 22.5333L69.5234 23.1111L69.4806 23.4222L69.6089 24.4444H69.6944C69.6944 24.5037 69.7087 24.5481 69.7372 24.5778L69.8227 24.8H69.9083L70.3359 25.5111H70.4641L70.5069 25.6C70.5354 25.6296 70.5924 25.6741 70.678 25.7333C70.792 25.7926 70.849 25.8518 70.849 25.9111L70.9773 25.8667L71.4477 26L71.6615 25.9556L72.3884 26.0444C72.588 26.0444 72.702 26.0296 72.7305 26L74.2272 25.2889C74.5123 25.0815 74.6691 24.9481 74.6976 24.8889C74.7261 24.8296 74.7688 24.7704 74.8258 24.7111L75.3817 23.5556L75.5956 22.8444L75.4245 22.8889L75.5956 22.8C75.5956 22.6519 75.5385 22.4296 75.4245 22.1333C75.339 21.8074 75.2535 21.6148 75.1679 21.5556V21.4667L75.0824 21.3333ZM74.6976 23.6444C74.6976 23.7926 74.6691 23.8963 74.612 23.9556C74.555 24.0148 74.5123 24.0444 74.4837 24.0444V24.0889C74.4837 24.1481 74.441 24.2222 74.3555 24.3111C74.2984 24.4 74.2414 24.4741 74.1844 24.5333H74.0561C74.0561 24.5926 74.0419 24.637 74.0134 24.6667C74.0134 24.6963 74.0134 24.7407 74.0134 24.8L73.714 24.8444V24.9333L73.0726 25.2C72.9586 25.2593 72.7448 25.3333 72.4312 25.4222C72.1461 25.4815 71.9038 25.5111 71.7042 25.5111V25.4222L71.6615 25.4667L71.4904 25.3778C71.4619 25.3778 71.4334 25.3926 71.4049 25.4222C71.3764 25.3926 71.3622 25.363 71.3622 25.3333L70.5924 25.0667V24.9778H70.5069V24.7556L70.2503 24.4444V24.3111H70.1648L70.0793 24V23.5111C70.1363 23.4519 70.2076 23.363 70.2931 23.2444C70.3786 23.0963 70.4784 22.9481 70.5924 22.8V22.7111C70.678 22.6519 70.7492 22.5778 70.8062 22.4889C70.8918 22.3704 70.9916 22.2667 71.1056 22.1778H71.1911L71.1483 22.1333L71.3622 22.0444V21.9556C71.4192 21.9259 71.4762 21.9111 71.5332 21.9111C71.6187 21.9111 71.7042 21.8815 71.7898 21.8222L72.0463 21.6889C72.1889 21.6 72.3599 21.5407 72.5595 21.5111C72.7875 21.4815 72.9586 21.4667 73.0726 21.4667C73.4717 21.4667 73.8423 21.5704 74.1844 21.7778C74.5265 21.9852 74.6976 22.2963 74.6976 22.7111V23.6444Z" fill="#9EB5C8"/>
</svg>
