<svg width="80" height="32" viewBox="0 0 80 32" fill="none" xmlns="http://www.w3.org/2000/svg">
<path d="M14.4777 1.82222C14.4777 1.67407 14.4777 1.52593 14.4777 1.37778C14.507 1.22963 14.5216 1.08148 14.5216 0.933333H14.4777C14.4485 0.874075 14.4338 0.844445 14.4338 0.844445C14.4338 0.814815 14.4192 0.77037 14.39 0.71111H14.3022C14.3315 0.681481 14.3461 0.607407 14.3461 0.488889C14.3169 0.459259 14.3022 0.429629 14.3022 0.4C14.3022 0.34074 14.2876 0.296295 14.2584 0.266665L14.0829 0.222223C14.0244 0.162965 13.9951 0.133335 13.9951 0.133335C13.9951 0.103704 13.9513 0.0888885 13.8635 0.0888885C13.7758 0.0888885 13.688 0.103704 13.6003 0.133335C13.5418 0.162964 13.4979 0.177779 13.4687 0.177779V0.133335C13.2932 0.133335 13.1177 0.162965 12.9422 0.222223C12.7667 0.251852 12.5912 0.266665 12.4157 0.266665H12.4596V0.133335C12.3426 0.133335 12.2695 0.11852 12.2403 0.0888885C12.211 0.0592592 12.0063 0.0444442 11.626 0.0444442C11.5091 0.0444442 11.3482 0.0592592 11.1435 0.0888885C10.9387 0.0888885 10.7194 0.0888885 10.4854 0.0888885C10.2806 0.0888885 10.0759 0.103704 9.87117 0.133335C9.69568 0.133335 9.54944 0.133335 9.43245 0.133335C9.16922 0.133335 9.02298 0.11852 8.99373 0.0888885V0.177779C8.96449 0.14815 8.77437 0.133335 8.4234 0.133335V0.0444442C8.3649 0.0444442 8.29178 0.0444442 8.20404 0.0444442C8.14554 0.014815 8.08705 0 8.02855 0V0.0888885C7.9993 0.0592592 7.97006 0.0444442 7.94081 0.0444442C7.91156 0.0444442 7.88231 0.0296292 7.85306 0L6.80014 0.0444442V0.133335C6.77089 0.162964 6.69777 0.177779 6.58078 0.177779C6.52228 0.177779 6.46379 0.177779 6.40529 0.177779C6.3468 0.14815 6.2883 0.133335 6.2298 0.133335L5.17688 0.177779C5.03064 0.177779 4.9429 0.192594 4.91365 0.222223V0.0888885C4.79666 0.148149 4.70891 0.281482 4.65042 0.488889C4.62117 0.696297 4.5773 0.859261 4.5188 0.977779L4.34331 1.2C4.31407 1.25926 4.29944 1.31852 4.29944 1.37778C4.29944 1.40741 4.28482 1.45185 4.25557 1.51111L4.03621 1.91111C4.03621 1.97037 4.02159 2.01482 3.99234 2.04445C3.99234 2.07407 3.99234 2.1037 3.99234 2.13333L3.72911 2.53333C3.58287 2.85926 3.46588 3.15556 3.37813 3.42222C3.29039 3.68889 3.24652 3.85185 3.24652 3.91111L2.67618 5.02222H2.58844L2.5007 5.24444C2.5007 5.48148 2.35446 5.79259 2.06198 6.17778L2.01811 6.31111C1.98886 6.31111 1.95961 6.32593 1.93036 6.35556V6.53333L0.833565 8.93333H0.745822C0.745822 9.11111 0.731198 9.21481 0.70195 9.24444L0.570334 9.46667C0.511838 9.58518 0.467967 9.68889 0.438719 9.77778L0.394847 10C0.365599 10.0296 0.336351 10.0444 0.307103 10.0444V10.0889C0.219359 10.1778 0.131616 10.3407 0.0438719 10.5778L0 10.5333V10.6667C0.0584958 10.7259 0.116992 10.7556 0.175487 10.7556L0.131616 10.8889H0.219359C0.248607 10.9481 0.994429 11.1259 2.45682 11.4222C2.51532 11.4222 2.64694 11.437 2.85167 11.4667C3.08565 11.4667 3.24652 11.4963 3.33426 11.5556L3.64137 11.6444L3.59749 11.7333L4.12396 11.8667L4.08008 11.9111L4.43106 11.8667L4.78203 11.9556L4.86978 11.8667C4.89902 11.8667 4.95752 11.8815 5.04526 11.9111C5.13301 11.9111 5.25 11.9259 5.39624 11.9556L5.52785 12.0444L5.96657 11.9556L6.14206 11.8222C6.17131 11.7926 6.18593 11.763 6.18593 11.7333C6.18593 11.7037 6.20056 11.6741 6.2298 11.6444L6.36142 11.3333C6.36142 11.3333 6.39067 11.2593 6.44916 11.1111H6.49304C6.61003 10.9926 6.7124 10.7852 6.80014 10.4889H6.88788C6.94638 10.4296 6.961 10.3556 6.93175 10.2667C6.93175 10.1481 6.99025 10.0889 7.10724 10.0889L7.19499 9.82222C7.25348 9.7037 7.29735 9.58518 7.3266 9.46667C7.3851 9.34815 7.47284 9.24444 7.58983 9.15555L7.6337 9.11111V9.73333C7.6337 9.85185 7.61908 9.97037 7.58983 10.0889C7.58983 10.1778 7.58983 10.2815 7.58983 10.4H7.6337C7.6337 10.4296 7.61908 10.4593 7.58983 10.4889C7.58983 10.6667 7.58983 10.7852 7.58983 10.8444C7.61908 10.8741 7.6337 10.9185 7.6337 10.9778C7.6337 11.0667 7.61908 11.1556 7.58983 11.2444C7.58983 11.3037 7.58983 11.363 7.58983 11.4222V11.8222C7.61908 11.8222 7.6337 11.8519 7.6337 11.9111C7.6337 11.9704 7.61908 12.1481 7.58983 12.4444C7.58983 12.7111 7.57521 13.0963 7.54596 13.6H7.58983C7.58983 13.7481 7.57521 13.9704 7.54596 14.2667C7.54596 14.563 7.51671 14.7852 7.45822 14.9333C7.42897 15.7926 7.39972 16.4296 7.37047 16.8444C7.34123 17.2593 7.31198 17.5852 7.28273 17.8222C7.28273 18.0296 7.26811 18.2222 7.23886 18.4C7.23886 18.5481 7.23886 18.7704 7.23886 19.0667C7.23886 19.2148 7.25348 19.3037 7.28273 19.3333L7.3266 20.3111C7.26811 20.3704 7.18036 22.0593 7.06337 25.3778H7.10724C7.07799 25.5556 7.06337 25.7333 7.06337 25.9111C7.06337 26.0889 7.04875 26.2667 7.0195 26.4444V27.6444C7.0195 27.8815 7.0195 28.2963 7.0195 28.8889C7.04875 29.4519 7.07799 30.2074 7.10724 31.1556C7.07799 31.1852 7.06337 31.2296 7.06337 31.2889L7.10724 31.4667C7.10724 31.4963 7.13649 31.5407 7.19499 31.6V31.6444L7.28273 31.6V31.6444C7.34123 31.6444 7.37047 31.6296 7.37047 31.6C7.39972 31.5407 7.44359 31.5111 7.50209 31.5111C7.47284 31.5111 7.53134 31.5259 7.67758 31.5556C7.85306 31.5852 8.04318 31.6148 8.24791 31.6444C8.45265 31.6444 8.64276 31.6593 8.81824 31.6889C9.02298 31.7185 9.13997 31.7333 9.16922 31.7333H12.5912C13.0007 31.7333 13.2347 31.7481 13.2932 31.7778V31.7333C13.4102 31.7037 13.4833 31.6741 13.5125 31.6444C13.4833 31.5259 13.454 31.4667 13.4248 31.4667C13.4248 31.437 13.4248 31.3926 13.4248 31.3333H13.9951C13.9951 31.2444 13.9805 31.1407 13.9513 31.0222C13.922 30.8741 13.9074 30.7259 13.9074 30.5778C13.9074 30.4593 13.922 30.3852 13.9513 30.3556C14.0097 30.2963 14.039 30.237 14.039 30.1778C14.039 30.1481 14.0244 30.1185 13.9951 30.0889C13.9951 30.0593 13.9951 30.0296 13.9951 30L14.039 29.9111C14.0682 29.8815 14.0829 29.763 14.0829 29.5556V29.0667C14.0829 28.5926 14.0682 28.2815 14.039 28.1333C14.0097 27.9556 13.9951 27.7778 13.9951 27.6V26.9778C13.9951 26.8593 13.9951 26.5926 13.9951 26.1778C13.9951 25.763 14.0097 25.2148 14.039 24.5333H13.9951C13.9951 24.3852 13.9951 24.3407 13.9951 24.4C13.9951 24.4296 13.9951 24.3556 13.9951 24.1778C14.0244 23.9704 14.039 23.5556 14.039 22.9333C14.0682 22.3111 14.0975 21.2593 14.1267 19.7778H14.1706V19.7333C14.1706 19.6741 14.1852 19.5259 14.2145 19.2889C14.2437 19.0519 14.2584 18.7259 14.2584 18.3111L14.3022 13.7333C14.3315 13.5852 14.3461 13.437 14.3461 13.2889C14.3461 13.1407 14.3607 12.9926 14.39 12.8444H14.3022L14.39 12.8L14.4338 11.6C14.4923 11.3037 14.5216 11.1407 14.5216 11.1111H14.4777V9.24444C14.4485 9.21481 14.4338 9.03704 14.4338 8.71111V7.2C14.4338 6.78519 14.4485 6.47408 14.4777 6.26667C14.507 6.05926 14.5216 5.94074 14.5216 5.91111L14.4777 2.08889C14.4777 2.02963 14.4777 2 14.4777 2C14.507 2 14.5216 1.97037 14.5216 1.91111C14.4923 1.88148 14.4777 1.85185 14.4777 1.82222ZM13.2054 6.4C13.2054 6.48889 13.2201 6.54815 13.2493 6.57778L13.2054 6.93333L13.2493 11.9556V12.2667C13.2493 12.5926 13.2347 12.9333 13.2054 13.2889C13.1762 13.6444 13.1616 13.9852 13.1616 14.3111C13.1616 14.5481 13.1616 14.7407 13.1616 14.8889C13.1908 15.037 13.2054 15.2148 13.2054 15.4222C13.2054 15.6296 13.1908 15.7481 13.1616 15.7778V16.8C13.1616 16.8593 13.1469 16.9185 13.1177 16.9778C13.1177 17.037 13.1177 17.0963 13.1177 17.1556C13.1177 17.3333 13.1177 17.5111 13.1177 17.6889C13.1469 17.8667 13.1616 18.0296 13.1616 18.1778C13.1616 18.6222 13.1469 19.0963 13.1177 19.6C13.1177 20.0741 13.0884 20.5185 13.0299 20.9333L13.1177 20.9778C13.0884 21.0667 13.0738 21.2444 13.0738 21.5111L13.1177 22.3556V23.6C13.1177 23.6593 13.1323 23.7037 13.1616 23.7333C13.1323 23.763 13.1177 24 13.1177 24.4444C13.1177 24.7407 13.1177 25.0519 13.1177 25.3778C13.1469 25.7037 13.1616 26.0296 13.1616 26.3556C13.1616 27.363 13.1469 28.163 13.1177 28.7556C13.0884 29.3185 13.0299 29.7481 12.9422 30.0444C12.8837 30.3407 12.796 30.5333 12.679 30.6222C12.5912 30.6815 12.4596 30.7111 12.2841 30.7111H11.7138C11.4798 30.7111 11.2897 30.7259 11.1435 30.7556L9.08148 30.9778C9.02298 30.9778 8.97911 30.9778 8.94986 30.9778C8.92061 30.9481 8.87674 30.9333 8.81824 30.9333L8.7305 30.9778C8.40877 30.9778 8.23329 30.963 8.20404 30.9333L8.16017 25.2444C8.18941 24.7111 8.20404 24.2815 8.20404 23.9556C8.23329 23.6296 8.24791 23.1556 8.24791 22.5333C8.24791 21.9111 8.24791 21.0222 8.24791 19.8667C8.27716 18.6815 8.33565 16.9926 8.4234 14.8V14.2222C8.4234 13.9259 8.43802 13.7333 8.46727 13.6444C8.40877 13.6444 8.37953 13.5852 8.37953 13.4667H8.4234C8.48189 13.4074 8.51114 13.2889 8.51114 13.1111C8.51114 12.9333 8.51114 12.7556 8.51114 12.5778C8.51114 12.163 8.49652 11.9259 8.46727 11.8667C8.46727 11.8074 8.46727 11.7481 8.46727 11.6889L8.55501 11.6444H8.46727C8.49652 11.4667 8.51114 11.3185 8.51114 11.2C8.51114 11.0519 8.51114 10.9037 8.51114 10.7556V10.1333C8.48189 10.1037 8.46727 9.97037 8.46727 9.73333C8.46727 9.67407 8.46727 9.51111 8.46727 9.24444C8.49652 8.97778 8.52577 8.62222 8.55501 8.17778C8.52577 8.14815 8.51114 8.02963 8.51114 7.82222C8.51114 7.55556 8.58426 7.34815 8.7305 7.2C8.64276 6.93333 8.55501 6.8 8.46727 6.8L8.37953 6.84444V6.75556C8.23329 6.81482 8.14554 6.88889 8.11629 6.97778L7.50209 7.82222L7.15111 8.57778H7.06337L6.31755 10.2222H6.2298V10.3111L6.27368 10.2667C6.15668 10.3852 6.05432 10.5037 5.96657 10.6222C5.90808 10.7407 5.84958 10.8593 5.79109 10.9778C5.73259 11.0667 5.70334 11.1556 5.70334 11.2444L5.65947 11.3333C5.63022 11.363 5.58635 11.3778 5.52785 11.3778L0.965181 10.1778C0.965181 10.2074 0.950557 10.237 0.921309 10.2667C0.921309 10.2074 0.994429 10.0593 1.14067 9.82222C1.28691 9.58519 1.36003 9.43704 1.36003 9.37778H1.4039C1.4624 9.25926 1.53552 9.06667 1.62326 8.8C1.711 8.53333 1.78412 8.37037 1.84262 8.31111L1.93036 7.91111H2.01811L2.19359 7.42222C2.22284 7.36296 2.23746 7.33333 2.23746 7.33333C2.23746 7.3037 2.25209 7.25926 2.28134 7.2L2.67618 6.35556C2.70543 6.2963 2.72006 6.25185 2.72006 6.22222C2.7493 6.16296 2.77855 6.1037 2.8078 6.04444L3.1149 5.28889L3.20265 5.24444L3.33426 4.8L3.99234 3.46667C4.02159 3.40741 4.03621 3.37778 4.03621 3.37778C4.03621 3.34815 4.05084 3.3037 4.08008 3.24445L4.2117 2.84445C4.2702 2.84445 4.31407 2.82963 4.34331 2.8V2.66667C4.37256 2.63704 4.44568 2.51852 4.56267 2.31111C4.67967 2.07407 4.82591 1.80741 5.00139 1.51111H5.04526L5.00139 1.37778H5.26462C5.44011 1.37778 5.54248 1.36296 5.57173 1.33333V1.37778C6.21518 1.34815 6.75627 1.33333 7.19499 1.33333C7.6337 1.33333 7.98468 1.33333 8.24791 1.33333H9.34471L10.7047 1.15556H12.1964V1.06667H13.337C13.337 1.24444 13.337 1.43704 13.337 1.64445C13.3663 1.85185 13.3809 2.07407 13.3809 2.31111V2.75556C13.3517 2.75556 13.3224 2.77037 13.2932 2.8V3.6L13.2054 6.4Z" fill="#9EB5C8"/>
<path d="M37.081 16.2222L37.0371 13.9111C36.9786 13.4667 36.9347 13.0667 36.9055 12.7111C36.8762 12.3259 36.8616 12 36.8616 11.7333C36.8616 10.963 36.9055 10.1778 36.9932 9.37778H36.9055V8.4C36.8762 8.37037 36.8616 8.34074 36.8616 8.31111L36.6861 5.28889L36.4229 4.44444C36.4229 4.38518 36.2913 3.95556 36.0281 3.15556C35.6478 2.8 35.3554 2.53333 35.1506 2.35556C34.9459 2.14815 34.7996 2 34.7119 1.91111C34.6242 1.82222 34.5803 1.76296 34.5803 1.73333C34.5803 1.7037 34.5803 1.68889 34.5803 1.68889L33.9661 1.33333L32.8254 0.8L30.6757 0.444444C30.4417 0.444444 30.1931 0.444444 29.9299 0.444444C29.6666 0.414815 29.4034 0.4 29.1402 0.4C28.8184 0.4 28.4967 0.444445 28.175 0.533335C27.8825 0.592593 27.6193 0.622223 27.3853 0.622223C27.3561 0.622223 27.1074 0.651851 26.6395 0.71111C26.2008 0.740741 25.5573 0.814816 24.7091 0.933333L24.5336 0.977779C23.6854 1.18519 23.2175 1.28889 23.1297 1.28889L22.9981 1.33333C22.9981 1.39259 22.9542 1.43704 22.8665 1.46667C22.7788 1.46667 22.7056 1.46667 22.6471 1.46667L22.5594 1.55555C22.5009 1.61481 22.3985 1.65926 22.2523 1.68889C22.1061 1.68889 21.9598 1.73333 21.8136 1.82222L21.6381 1.91111C21.5796 1.97037 21.4772 2.02963 21.331 2.08889C21.1847 2.11852 20.98 2.22222 20.7168 2.4C20.4535 2.57778 20.1318 2.87407 19.7516 3.28889C19.4006 3.67407 19.0058 4.23704 18.5671 4.97778H18.5232C18.4647 5.03704 18.3331 5.80741 18.1283 7.28889H18.0406L17.8651 8.48889L17.8212 10.5778C17.8212 10.8741 17.8359 11.0667 17.8651 11.1556L17.909 11.2444C17.9382 11.4815 17.9528 11.6889 17.9528 11.8667C17.9528 12.0148 17.9528 12.1185 17.9528 12.1778H17.9967C18.026 12.2074 18.1576 12.6815 18.3916 13.6C18.7425 14.2222 18.9911 14.7111 19.1374 15.0667C19.3129 15.4222 19.4445 15.7037 19.5322 15.9111C19.6492 16.0889 19.7662 16.237 19.8832 16.3556C20.0002 16.4741 20.2049 16.5926 20.4974 16.7111V16.8444L21.331 17.4222C21.4772 17.5407 21.5942 17.6444 21.682 17.7333C21.7697 17.7926 21.8721 17.8667 21.9891 17.9556C22.1353 18.0444 22.3254 18.1333 22.5594 18.2222C22.7934 18.3111 23.159 18.4148 23.6562 18.5333V18.6222L24.6214 18.8444C24.7676 18.9037 24.9285 18.9333 25.104 18.9333C25.2794 18.9333 25.4549 18.9333 25.6304 18.9333H26.2885C26.4055 18.9333 26.5225 18.9333 26.6395 18.9333C26.7565 18.9333 26.8588 18.9481 26.9466 18.9778H27.1221V18.8889C28.3505 18.6222 29.0671 18.4889 29.2718 18.4889H29.3595C29.4473 18.4889 29.5204 18.4593 29.5789 18.4C29.8421 18.4 29.9737 18.5926 29.9737 18.9778C29.9737 19.3037 29.9737 19.5704 29.9737 19.7778C29.9737 19.9556 29.9591 20.1481 29.9299 20.3556C29.9006 20.563 29.8421 20.8148 29.7544 21.1111C29.6959 21.3778 29.6081 21.763 29.4911 22.2667H29.4473C29.2718 22.5333 29.1694 22.7407 29.1402 22.8889C29.1109 23.0074 29.0524 23.1111 28.9647 23.2C28.8769 23.2593 28.7015 23.3333 28.4382 23.4222C28.175 23.5111 27.7216 23.6593 27.0782 23.8667V23.8222C27.0197 23.8222 26.932 23.8222 26.815 23.8222C26.7272 23.7926 26.6541 23.7778 26.5956 23.7778L26.464 23.6889C25.4988 23.1259 24.9431 22.6518 24.7969 22.2667L24.753 22.1333C24.7237 22.1333 24.6945 22.1185 24.6652 22.0889L24.6214 22C24.6214 21.9407 24.6214 21.8963 24.6214 21.8667C24.6506 21.837 24.6652 21.7926 24.6652 21.7333C24.6067 21.7333 24.5629 21.7185 24.5336 21.6889L24.3143 21.6L24.2704 21.6889L24.2265 21.6444C24.051 21.6444 23.8755 21.6444 23.7001 21.6444C23.5538 21.6148 23.393 21.6 23.2175 21.6V21.6444H23.1297C22.9835 21.6444 22.7641 21.6593 22.4716 21.6889C22.1792 21.7185 21.7989 21.7333 21.331 21.7333L18.1283 21.7778V21.8667C18.0406 21.8667 17.9967 21.837 17.9967 21.7778L17.7774 21.8667C17.7774 22.4593 17.8066 22.9778 17.8651 23.4222C17.9236 23.8667 17.9528 24.3407 17.9528 24.8444H17.9967C18.026 24.9037 18.0406 25.0222 18.0406 25.2V25.5556H18.1283L18.2161 26.5778V26.6667C18.1868 26.8148 18.2161 26.9926 18.3038 27.2C18.4208 27.3778 18.5963 27.6741 18.8303 28.0889C19.0935 28.5926 19.3275 28.963 19.5322 29.2C19.737 29.4074 19.9125 29.5556 20.0587 29.6444C20.2049 29.7333 20.3073 29.7926 20.3658 29.8222C20.4535 29.8519 20.4974 29.9259 20.4974 30.0444H20.629C20.629 30.0741 20.6729 30.1185 20.7606 30.1778C20.8484 30.237 21.1409 30.3704 21.6381 30.5778C22.0476 30.7852 22.3254 30.8889 22.4716 30.8889V30.9333L24.9723 31.6889L25.0601 31.6444L26.464 31.7778V31.8667L27.9118 31.9111C27.941 31.9407 28.409 31.9556 29.3157 31.9556V32H29.6228C30.5002 31.8815 30.9682 31.7926 31.0267 31.7333L31.5093 31.5556L32.5622 31.2889L33.5712 30.6667C33.9222 30.4593 34.0977 30.3556 34.0977 30.3556C34.1269 30.3556 34.1562 30.3111 34.1854 30.2222H34.2732C34.3024 30.1926 34.3755 30.1037 34.4925 29.9556C34.6095 29.8074 34.7704 29.6 34.9751 29.3333L35.1067 29.1556H35.2384C35.2384 29.1259 35.2822 29.037 35.37 28.8889C35.487 28.7407 35.604 28.5778 35.721 28.4C35.8672 28.2222 35.9842 28.0593 36.0719 27.9111C36.1889 27.763 36.2474 27.6741 36.2474 27.6444L36.1597 27.6889C36.1889 27.5111 36.2328 27.3037 36.2913 27.0667C36.3498 26.8 36.4083 26.5926 36.4668 26.4444V26.3111L36.7739 24.7111C36.8909 24.3556 36.9347 23.9407 36.9055 23.4667C36.8762 22.9926 36.9201 22.5778 37.0371 22.2222L37.2126 19.3778C37.2126 19.2296 37.198 19.1111 37.1687 19.0222C37.1687 18.9037 37.1687 18.6519 37.1687 18.2667C37.1687 17.8815 37.1833 17.6444 37.2126 17.5556C37.2418 17.4667 37.2565 17.363 37.2565 17.2444C37.2565 17.0074 37.2418 16.8741 37.2126 16.8444V16.2222H37.081ZM36.0281 18.3111V24.9778L35.8087 25.8667C35.7794 26.0741 35.7502 26.2222 35.721 26.3111C35.721 26.3704 35.721 26.4444 35.721 26.5333H35.6771C35.6186 26.5926 35.5747 26.7704 35.5455 27.0667H35.4577V27.2889L35.0629 28.1778C35.0336 28.2074 35.019 28.237 35.019 28.2667C35.019 28.2963 35.0044 28.3259 34.9751 28.3556C34.9751 28.3852 34.9751 28.4296 34.9751 28.4889L34.8874 28.6222C34.8289 28.8296 34.7558 28.9778 34.668 29.0667C34.6095 29.1556 34.4779 29.3037 34.2732 29.5111L33.0886 30.1778C33.0301 30.2074 32.9716 30.2222 32.9132 30.2222C32.8839 30.2222 32.84 30.237 32.7815 30.2667L31.9041 30.6667H31.7286V30.7556L30.9828 30.8889L29.7105 31.0667V31.0222C29.6813 31.0519 29.6081 31.0667 29.4911 31.0667V31.0222C29.4619 31.0519 29.4327 31.0667 29.4034 31.0667L26.1569 31.2L25.8059 31.1556V31.0667L23.0859 30.4V30.3111C22.9104 30.3111 22.808 30.2963 22.7788 30.2667L22.691 30.1778C22.0768 29.8519 21.7112 29.6593 21.5942 29.6C21.4772 29.5111 21.4041 29.437 21.3749 29.3778L20.7606 29.0222C20.4389 28.4296 20.1903 27.9852 20.0148 27.6889C19.8393 27.3926 19.737 27.2296 19.7077 27.2L19.62 26.6667C19.5907 26.6667 19.5322 26.5778 19.4445 26.4C19.386 26.1926 19.3275 25.9704 19.269 25.7333C19.1813 25.4667 19.0935 25.1556 19.0058 24.8L18.6548 23.4667C18.6255 23.437 18.6109 23.3481 18.6109 23.2C18.6109 22.9037 18.6548 22.7259 18.7425 22.6667C18.8303 22.6074 18.8595 22.5778 18.8303 22.5778H19.0058V22.4889L21.5503 22.2222H22.9542V22.1333L23.5684 22.0889C23.5977 22.1185 23.7439 22.1333 24.0072 22.1333C24.0364 22.4 24.0803 22.6519 24.1388 22.8889C24.1973 23.0963 24.2558 23.2889 24.3143 23.4667L24.2704 23.6444C24.2704 23.6741 24.3289 23.7185 24.4459 23.7778C24.5921 23.837 24.6652 23.9556 24.6652 24.1333L24.7091 24.2222C24.7676 24.3111 24.8115 24.3704 24.8407 24.4C24.8992 24.4296 24.9577 24.4741 25.0162 24.5333L26.9466 25.2444C27.0051 25.2741 27.1221 25.3037 27.2976 25.3333C27.5023 25.3333 27.6924 25.3333 27.8679 25.3333C27.9264 25.3333 27.9849 25.3333 28.0434 25.3333C28.1019 25.3037 28.1457 25.2889 28.175 25.2889L29.0524 25.0222L29.2279 24.8444C29.2572 24.8148 29.3888 24.6519 29.6228 24.3556C29.8567 24.0593 30.1931 23.6296 30.6318 23.0667L30.7634 22.0889H30.8512L30.9389 19.4667C30.9389 19.2296 30.9243 19.0222 30.895 18.8444C30.8658 18.637 30.8512 18.4296 30.8512 18.2222H30.9389L30.6757 17.9111C30.6464 17.8815 30.6172 17.8222 30.5879 17.7333C30.5879 17.6148 30.5879 17.5407 30.5879 17.5111C30.4125 17.5111 30.2662 17.5556 30.1492 17.6444C30.0615 17.7333 29.9445 17.8074 29.7983 17.8667L28.3505 18.0444C28.2042 18.0444 28.0288 18.0593 27.824 18.0889C27.6485 18.0889 27.4584 18.0889 27.2537 18.0889C27.1659 18.0889 27.0636 18.0889 26.9466 18.0889C26.8296 18.0593 26.698 18.0296 26.5517 18H25.8498L23.6562 17.6889L21.7697 16.8889C21.7405 16.8593 21.7258 16.8296 21.7258 16.8L21.5503 16.8444C21.5211 16.8444 21.4772 16.8148 21.4187 16.7556L21.1555 16.4889C21.0677 16.3704 20.7168 16.0593 20.1026 15.5556L19.971 15.4222C19.854 15.2444 19.7516 15.0963 19.6638 14.9778C19.6054 14.8296 19.5469 14.7111 19.4884 14.6222L19.269 14.0444C19.1228 13.5407 19.0496 13.2741 19.0496 13.2444H19.0058L18.918 11.6444C18.918 11.4963 18.918 11.3481 18.918 11.2C18.9473 11.0222 18.9619 10.8593 18.9619 10.7111C18.9327 10.1481 18.918 9.71852 18.918 9.42222C18.918 9.09629 18.918 8.87407 18.918 8.75556C18.918 8.60741 18.918 8.48889 18.918 8.4C18.9473 8.28148 18.9765 8.16296 19.0058 8.04445C19.1228 7.27408 19.1959 6.68148 19.2251 6.26667C19.2836 5.85185 19.3129 5.62963 19.3129 5.6L19.4006 5.46667L19.4445 5.51111C19.503 5.51111 19.5615 5.39259 19.62 5.15556C19.6785 4.88889 19.8686 4.5037 20.1903 4C20.4535 3.73333 20.6583 3.52592 20.8045 3.37778C20.98 3.22963 21.1116 3.11111 21.1994 3.02222L21.4187 2.8C21.4187 2.8 21.448 2.78519 21.5065 2.75556H21.5942C21.6527 2.6963 21.7551 2.62222 21.9013 2.53333C22.0476 2.44444 22.3985 2.23704 22.9542 1.91111L23.2613 1.86667L25.2794 1.64445V1.55555L28.6576 1.37778C28.9501 1.31852 29.0817 1.28889 29.0524 1.28889C29.1694 1.28889 30.1054 1.33333 31.8602 1.42222L33.1764 1.86667L33.3519 2.04445C33.4104 2.13333 33.4689 2.19259 33.5274 2.22222C33.6151 2.25185 33.7175 2.31111 33.8345 2.4C33.9807 2.45926 34.1416 2.57778 34.3171 2.75556C34.4925 2.93333 34.6973 3.2 34.9313 3.55556C35.4285 4.32593 35.7356 4.96296 35.8526 5.46667C35.9988 5.94074 36.0719 6.38518 36.0719 6.8H36.1158C36.145 6.85926 36.1597 7.11111 36.1597 7.55555H36.2035V13.4222L36.0281 14.0889V18.3111ZM30.6757 9.91111C30.6757 9.79259 30.6903 9.71852 30.7196 9.68889L30.6757 9.37778C30.6464 9.34815 30.5441 9.22963 30.3686 9.02222C30.2223 8.78518 29.9884 8.45926 29.6666 8.04445V8C29.4619 7.91111 29.2864 7.83704 29.1402 7.77778C28.9939 7.71852 28.8477 7.67407 28.7015 7.64444L27.0343 7.55555V7.6C26.8003 7.6 26.6687 7.61481 26.6395 7.64444L26.4201 7.73334C26.4201 7.82222 26.2446 8.05926 25.8937 8.44444L25.8059 8.62222C25.7474 8.62222 25.7182 8.63704 25.7182 8.66666L25.4111 9.68889C25.4111 9.74815 25.3964 9.82222 25.3672 9.91111C25.3672 9.97037 25.3672 10.0296 25.3672 10.0889L25.4111 10.3556H25.4988L25.4111 10.4444C25.4111 10.5037 25.4257 10.5333 25.4549 10.5333L25.7182 11.5111H25.8059V11.6L26.3762 12.2222C26.464 12.3111 26.5664 12.3852 26.6833 12.4444H26.7711C27.1221 12.5926 27.3853 12.7111 27.5608 12.8C27.7655 12.8593 27.8971 12.9037 27.9556 12.9333L28.0434 12.8H29.0963L29.3157 12.7111L29.6666 12.4889C29.7544 12.4593 29.8275 12.3556 29.886 12.1778L30.1054 12.1333C30.3101 11.8963 30.5002 11.1556 30.6757 9.91111ZM29.0086 12.3111C28.8623 12.3111 28.7746 12.3259 28.7453 12.3556V12.4444H27.9118V12.3556L27.2098 12.1333C26.4201 11.3333 26.0253 10.6222 26.0253 10C26.0253 9.85185 26.0253 9.70371 26.0253 9.55556C26.0545 9.40741 26.0838 9.25926 26.113 9.11111L26.5079 8.44444C26.6249 8.41481 26.8588 8.35556 27.2098 8.26667C27.5608 8.14815 27.9118 8.05926 28.2627 8C28.9062 8 29.4034 8.25185 29.7544 8.75556C30.1346 9.22963 30.3247 9.65926 30.3247 10.0444C30.3247 10.0444 30.2955 10.1926 30.237 10.4889L29.3157 12.1333L29.0086 12.3111Z" fill="#9EB5C8"/>
<path d="M59.0913 4.31111L59.1352 4.13334L59.0474 4.08889L59.1352 4.04445L59.0913 4C59.062 3.67407 59.0328 3.43704 59.0035 3.28889C59.0035 3.14074 59.0035 3.02222 59.0035 2.93333C59.0035 2.81481 59.0035 2.75556 59.0035 2.75556C59.0328 2.75556 59.0474 2.72593 59.0474 2.66667L58.9597 2.62222L59.0474 2.53333C59.0767 2.05926 59.0913 1.68889 59.0913 1.42222C59.0913 1.12593 59.0913 0.933334 59.0913 0.844445L58.9597 0.755556C58.8427 0.637037 58.6379 0.577779 58.3455 0.577779L58.1261 0.622223V0.533335C57.9799 0.592593 57.819 0.622223 57.6435 0.622223C57.4973 0.622223 57.351 0.622223 57.2048 0.622223C56.7076 0.622223 56.4444 0.607408 56.4151 0.577779V0.666666C56.3566 0.666666 56.2981 0.666666 56.2396 0.666666C56.2104 0.637036 56.1519 0.622223 56.0641 0.622223C55.9764 0.622223 55.874 0.637036 55.757 0.666666C55.6693 0.666666 55.5669 0.666666 55.4499 0.666666C55.3914 0.666666 55.3329 0.666666 55.2744 0.666666C55.2452 0.637036 55.2013 0.622223 55.1428 0.622223C55.0843 0.622223 55.0405 0.637036 55.0112 0.666666C55.0112 0.666666 54.9966 0.666666 54.9673 0.666666C54.9381 0.637036 54.8357 0.622223 54.6602 0.622223L53.7828 0.666666C53.7535 0.637036 53.7243 0.622223 53.695 0.622223C53.6658 0.622223 53.6366 0.607408 53.6073 0.577779V0.666666C53.5488 0.637036 53.4172 0.622223 53.2125 0.622223L50.1414 0.577779C49.9367 0.577779 49.8197 0.592594 49.7905 0.622223H46.5439C46.4562 0.622223 46.3538 0.622223 46.2368 0.622223C46.1491 0.592594 46.0467 0.577779 45.9297 0.577779C45.7835 0.577779 45.6957 0.592594 45.6665 0.622223L43.3413 0.71111C43.2535 0.681481 43.0634 0.666666 42.771 0.666666H41.718C41.0453 0.725926 40.6359 0.755556 40.4896 0.755556C40.3726 0.725925 40.2849 0.74074 40.2264 0.8L40.1825 0.933333H40.2703V1.06667C40.2118 1.06667 40.1679 1.08148 40.1386 1.11111C40.1386 1.2 40.1533 1.25926 40.1825 1.28889H40.2264C40.1971 1.34815 40.1825 1.42222 40.1825 1.51111C40.1825 1.57037 40.1679 1.62963 40.1386 1.68889L40.0948 3.51111L40.1825 4.13334C40.1533 4.16296 40.1386 4.19259 40.1386 4.22222C40.1386 4.28148 40.1386 4.37037 40.1386 4.48889C40.1679 4.60741 40.1825 4.72593 40.1825 4.84445C40.1825 5.05185 40.1679 5.17037 40.1386 5.2L40.0948 5.33333C40.0948 5.39259 40.0801 5.46667 40.0509 5.55555C40.0509 5.64444 40.0509 5.71852 40.0509 5.77778H40.007C39.9485 6.07407 39.9193 6.25185 39.9193 6.31111C39.9193 6.42963 39.9193 6.53333 39.9193 6.62222C39.9485 6.71111 39.9632 6.78518 39.9632 6.84444H40.2264L41.3671 6.8C41.952 6.82963 42.4054 6.84444 42.7271 6.84444C43.0781 6.84444 43.3267 6.84444 43.4729 6.84444L44.6574 6.88889C45.1547 6.91852 45.6226 6.94815 46.0613 6.97778C46.5293 6.97778 47.0119 7.00741 47.5091 7.06667C47.5384 7.03704 47.6846 7.02222 47.9478 7.02222C48.3281 7.02222 48.7229 7.03704 49.1324 7.06667C49.5711 7.0963 49.9952 7.11111 50.4047 7.11111C50.5216 7.11111 50.624 7.11111 50.7118 7.11111C50.7995 7.08148 50.8872 7.06667 50.975 7.06667V7.11111C51.0042 7.14074 51.0774 7.15556 51.1944 7.15556C51.1651 7.21481 51.1359 7.28889 51.1066 7.37778C51.0774 7.46667 51.0481 7.54074 51.0189 7.6L50.975 7.82222C50.9165 7.82222 50.8726 7.83703 50.8434 7.86666V8L50.0098 9.77778L49.9659 9.73333L49.9221 9.86667L49.8343 9.95556C49.8343 10.0148 49.8051 10.1185 49.7466 10.2667C49.6881 10.4148 49.5418 10.7259 49.3079 11.2H49.264C49.264 11.2593 49.2494 11.3037 49.2201 11.3333H49.1762C49.1177 11.4518 49.0593 11.5704 49.0008 11.6889C48.9423 11.837 48.8691 12 48.7814 12.1778C48.7229 12.3556 48.6498 12.563 48.562 12.8L48.4743 12.9333C48.445 12.9926 48.4304 13.037 48.4304 13.0667C48.4304 13.0667 48.4158 13.0963 48.3866 13.1556L48.2988 13.2889L48.0794 13.8222C48.0502 13.8815 48.0356 13.9407 48.0356 14C48.0356 14.0296 48.021 14.0741 47.9917 14.1333H47.9478C47.7138 14.8148 47.5822 15.1704 47.553 15.2L47.4652 15.2889C47.436 15.3481 47.3921 15.4519 47.3336 15.6C47.3044 15.7481 47.2313 15.9556 47.1143 16.2222H47.0704C46.9827 16.4 46.9095 16.563 46.851 16.7111C46.8218 16.8296 46.7779 16.9333 46.7194 17.0222L46.5878 17.2889H46.5439C46.5439 17.2889 46.5001 17.363 46.4123 17.5111C46.3538 17.6296 46.2661 17.7778 46.1491 17.9556C46.0613 18.1333 45.9736 18.2963 45.8859 18.4444C45.8274 18.563 45.7981 18.6222 45.7981 18.6222V18.6667C45.7981 18.6963 45.7542 18.7556 45.6665 18.8444L45.4033 19.5556C45.374 19.6148 45.3594 19.6741 45.3594 19.7333C45.3594 19.763 45.3448 19.8074 45.3155 19.8667L45.2278 19.9556C45.023 20.4593 44.9207 20.7407 44.9207 20.8C44.9207 20.8296 44.906 20.8741 44.8768 20.9333H44.8329C44.8037 20.963 44.7891 21.037 44.7891 21.1556C44.2626 22.1926 43.9994 22.7407 43.9994 22.8L43.8677 22.8889V23.0667C43.78 23.0667 43.6776 23.1852 43.5606 23.4222C43.4729 23.6296 43.3998 23.763 43.3413 23.8222L42.771 25.0667C42.7125 25.0667 42.5077 25.4667 42.1567 26.2667H42.1129C42.1129 26.563 42.0398 26.8296 41.8935 27.0667C41.7473 27.2741 41.6157 27.4963 41.4987 27.7333L41.4548 27.6889V27.8222L40.9283 28.8444C40.8991 28.8741 40.8698 28.8889 40.8406 28.8889L40.7967 29.1556C40.6797 29.1556 40.6212 29.2444 40.6212 29.4222H40.5774C40.5481 29.4518 40.5335 29.4815 40.5335 29.5111C40.5335 29.5407 40.5189 29.5704 40.4896 29.6H40.4457C40.4165 29.6 40.3434 29.7926 40.2264 30.1778C40.1094 30.563 39.9339 30.9926 39.6999 31.4667V31.7333L39.9193 31.7778C39.9193 31.8667 40.007 31.9111 40.1825 31.9111L40.1386 31.9556L40.2264 31.9111L41.2793 31.7778L42.9026 31.7333C43.0488 31.7333 43.2097 31.7481 43.3852 31.7778C43.5606 31.7778 43.7215 31.7778 43.8677 31.7778L44.8768 31.6889C45.1108 31.6889 45.2424 31.7037 45.2716 31.7333V31.6444L45.3594 31.7333L45.7542 31.6444C45.842 31.6444 45.9005 31.6593 45.9297 31.6889L46.0613 31.7333C46.0613 31.8222 46.076 31.8815 46.1052 31.9111H46.1491C46.1491 31.8519 46.2076 31.7185 46.3246 31.5111C46.4416 31.2741 46.5878 30.9926 46.7633 30.6667L48.0356 28.0444C48.3573 27.4815 48.5474 27.1556 48.6059 27.0667C48.6644 26.9481 48.7229 26.8889 48.7814 26.8889V26.7111C49.0446 26.3259 49.1909 26.1333 49.2201 26.1333V26C49.3371 25.8815 49.4102 25.7481 49.4395 25.6L50.0976 24.4444H50.1853V24.3111L50.9311 22.8889L51.0627 22.8V22.6667L51.1066 22.7111V22.5778L51.7208 21.6V21.4667C51.7501 21.4074 51.7793 21.3481 51.8086 21.2889C51.8671 21.2296 51.9109 21.1852 51.9402 21.1556L52.0279 21.0667V20.8889L52.4228 20.1778L52.5544 20.1333L52.5983 19.9111L53.5634 18.1778H53.6512L53.695 18.0444C53.695 17.9852 53.695 17.9556 53.695 17.9556C53.7243 17.9259 53.7389 17.8815 53.7389 17.8222H53.7828C53.7828 17.7926 54.1045 17.1852 54.748 16V15.8667C54.8942 15.8667 54.9527 15.7778 54.9235 15.6C54.9235 15.4222 54.9966 15.3333 55.1428 15.3333V15.1556L55.5815 14.3556C55.5815 14.2963 55.5815 14.2667 55.5815 14.2667C55.6108 14.237 55.6254 14.1926 55.6254 14.1333L55.8448 13.7333C55.9033 13.6444 55.9471 13.5704 55.9764 13.5111C56.0056 13.4519 56.0349 13.3926 56.0641 13.3333C56.0934 13.2741 56.1226 13.2296 56.1519 13.2L56.5467 12.5333C56.576 12.5333 56.5906 12.5185 56.5906 12.4889C56.5906 12.4593 56.6052 12.4148 56.6345 12.3556L56.6783 12.2667L57.1171 11.4222L57.5119 10.6667L58.2577 9.24444C58.287 9.21481 58.3308 9.12593 58.3893 8.97778H58.4332C58.4917 8.85926 58.5356 8.75555 58.5648 8.66666L59.1352 7.2L59.0913 6.88889C59.0328 6.82963 59.0035 6.78519 59.0035 6.75556C59.0035 6.72593 59.0035 6.62222 59.0035 6.44444C59.0035 6.26667 59.0182 6.01482 59.0474 5.68889L59.1352 4.31111H59.0913ZM58.0384 7.06667C57.8921 7.48148 57.7605 7.77778 57.6435 7.95556C57.5558 8.13333 57.5119 8.25185 57.5119 8.31111H57.4242L57.3803 8.53334L57.3364 8.48889V8.62222C57.0439 9.18518 56.8538 9.46667 56.7661 9.46667V9.64445C56.1811 10.6815 55.8886 11.2296 55.8886 11.2889L55.7132 11.6L55.0551 12.8444L54.2654 14.3556C54.2361 14.3852 54.2069 14.4 54.1776 14.4L54.0021 14.7556L53.7389 15.3333C53.7097 15.3926 53.6366 15.5704 53.5196 15.8667L53.0808 16.5333L52.686 17.4222L51.8524 19.0222L51.7647 19.2C51.5599 19.4074 51.4137 19.6593 51.326 19.9556C51.2382 20.2222 51.1944 20.3852 51.1944 20.4444L51.0627 20.5333C51.0042 20.5926 50.9457 20.7407 50.8872 20.9778C50.8288 21.1852 50.7264 21.4519 50.5801 21.7778L50.1414 22.6667H50.0537L49.9221 23.0667L49.4833 23.8222C49.4541 23.8815 49.4395 23.9259 49.4395 23.9556C49.4395 23.9556 49.3517 24.1185 49.1762 24.4444H49.1324L48.2988 26.0444C48.1818 26.0444 48.0941 26.163 48.0356 26.4C47.9771 26.6074 47.9186 26.7407 47.8601 26.8L47.7723 27.0222H47.6846L47.3775 27.5111C47.3775 27.5704 47.3629 27.6148 47.3336 27.6444C47.3336 27.6444 47.3336 27.6741 47.3336 27.7333L47.1581 28.0444L46.6755 28.8889C46.6463 28.9481 46.6317 28.9926 46.6317 29.0222C46.6317 29.0222 46.6171 29.0519 46.5878 29.1111L46.5439 29.2444C46.4562 29.3926 46.3977 29.4963 46.3684 29.5556C46.3392 29.6148 46.3099 29.6741 46.2807 29.7333C46.2515 29.763 46.2076 29.837 46.1491 29.9556C46.0906 30.0444 45.9882 30.2222 45.842 30.4889V30.6222H45.7542V30.7556C45.725 30.7556 45.6957 30.7704 45.6665 30.8V30.8889L45.5349 30.9333L45.3594 30.8444C45.0669 30.7852 44.906 30.7556 44.8768 30.7556V30.7111L44.8329 30.7556L44.2187 30.8444C43.6338 30.9333 43.1658 31.0074 42.8148 31.0667C42.4931 31.0963 42.2884 31.1259 42.2006 31.1556L41.3671 31.2C41.1916 31.2 41.0892 31.1852 41.0599 31.1556V30.7111H41.1477C41.1477 30.6815 41.1477 30.6518 41.1477 30.6222C41.1769 30.5926 41.1916 30.563 41.1916 30.5333L41.3671 30.0889L41.4109 30.1333C41.4694 30.0148 41.5133 29.9111 41.5425 29.8222H41.5864C41.6449 29.6148 41.6742 29.5111 41.6742 29.5111C41.7034 29.4815 41.7473 29.4667 41.8058 29.4667V29.3333L42.2884 28.3111C42.4931 28.0148 42.5955 27.8222 42.5955 27.7333H42.6393C42.6393 27.6741 42.9903 26.8593 43.6923 25.2889C43.8093 25.1407 43.8824 25.0222 43.9116 24.9333C43.9701 24.8148 44.014 24.7407 44.0432 24.7111H44.0871L44.1749 24.4889L44.5258 23.7333L44.6136 23.5111C44.8183 23.037 44.9499 22.8 45.0084 22.8V22.6222H45.0962L45.4033 21.9111L45.5349 21.8222L45.5788 21.6889C45.608 21.6296 45.6811 21.4667 45.7981 21.2C45.9443 20.9333 46.1345 20.5481 46.3684 20.0444H46.4123L46.5001 19.8667C46.5001 19.837 46.5001 19.8222 46.5001 19.8222C46.5001 19.7926 46.5001 19.763 46.5001 19.7333C46.5293 19.6741 46.5732 19.5852 46.6317 19.4667C46.7194 19.3481 46.8364 19.1556 46.9827 18.8889L47.2459 18.2667L47.3336 18C47.5384 17.6444 47.6407 17.4667 47.6407 17.4667C47.67 17.437 47.6846 17.3926 47.6846 17.3333L47.7285 17.2H47.8162C47.8455 17.1704 47.8601 17.1407 47.8601 17.1111C47.8601 17.0222 47.8747 16.9481 47.904 16.8889L47.9478 16.8C48.1526 16.2963 48.2842 16.0148 48.3427 15.9556L48.5182 15.6889L48.913 14.8889L49.0008 14.6667H49.0885V14.5333C49.1177 14.5037 49.147 14.4889 49.1762 14.4889L49.2201 14.3111C49.2201 14.2815 49.2347 14.2222 49.264 14.1333C49.3225 14.0444 49.3664 13.9704 49.3956 13.9111L49.5272 13.7778C49.5272 13.7185 49.5272 13.6741 49.5272 13.6444C49.5565 13.6148 49.5711 13.5852 49.5711 13.5556L49.615 13.3778H49.7027L49.8343 12.9778L50.273 12.2222C50.273 12.163 50.2877 12.1333 50.3169 12.1333L50.4047 12C50.4047 11.8519 50.4632 11.7778 50.5801 11.7778L50.6679 11.5111C50.6971 11.4519 50.7118 11.4074 50.7118 11.3778C50.741 11.3185 50.7703 11.2593 50.7995 11.2L50.8872 10.9778H50.975L51.4576 9.95556C51.4576 9.92593 51.4576 9.8963 51.4576 9.86667C51.4868 9.83704 51.5015 9.80741 51.5015 9.77778L51.6331 9.6C51.6623 9.54074 51.6769 9.49629 51.6769 9.46667C51.6769 9.40741 51.6916 9.34815 51.7208 9.28889L52.1595 8.35555H52.2473L52.2911 8.13333C52.3496 8.07407 52.3643 8.04445 52.335 8.04445C52.335 8.04445 52.3643 8.01482 52.4228 7.95556L52.5544 7.6C52.5836 7.57037 52.5983 7.54074 52.5983 7.51111C52.5983 7.48148 52.6129 7.45185 52.6421 7.42222H52.7299C52.7299 7.12593 52.7152 6.96296 52.686 6.93333H52.7299C52.7299 6.87407 52.7299 6.82963 52.7299 6.8C52.7591 6.77037 52.7737 6.72593 52.7737 6.66667L51.8086 6.57778C51.3991 6.54815 50.8141 6.5037 50.0537 6.44444C49.2932 6.38519 48.5182 6.34074 47.7285 6.31111C46.9388 6.25185 46.2076 6.20741 45.5349 6.17778C44.8622 6.14815 44.4235 6.13333 44.2187 6.13333C43.8093 6.13333 43.4144 6.14815 43.0342 6.17778C42.6832 6.20741 42.3469 6.22222 42.0251 6.22222C41.7911 6.22222 41.6303 6.17778 41.5425 6.08889C41.484 6.08889 41.3963 6.1037 41.2793 6.13333C41.1916 6.13333 41.1038 6.13333 41.0161 6.13333C40.7821 6.13333 40.6505 6.07408 40.6212 5.95556C40.6212 5.83704 40.6066 5.73333 40.5774 5.64444L40.4896 5.37778C40.4896 5.34815 40.4896 5.31852 40.4896 5.28889C40.5189 5.22963 40.5335 5.15556 40.5335 5.06667C40.5335 4.97778 40.5189 4.87407 40.4896 4.75555C40.4896 4.60741 40.4896 4.45926 40.4896 4.31111C40.4896 3.57037 40.5481 3.08148 40.6651 2.84445C40.6651 2.75556 40.6505 2.6963 40.6212 2.66667H40.709L40.6651 2C40.6651 1.88148 40.6651 1.74815 40.6651 1.6C40.6944 1.42222 40.7821 1.33333 40.9283 1.33333C40.9283 1.39259 40.9576 1.42222 41.0161 1.42222L42.9026 1.33333C43.1366 1.36296 43.3998 1.39259 43.6923 1.42222C43.9847 1.42222 44.1602 1.42222 44.2187 1.42222H45.1839V1.37778C45.3301 1.37778 45.5056 1.39259 45.7104 1.42222C45.9443 1.42222 46.1637 1.42222 46.3684 1.42222C46.6317 1.42222 46.851 1.39259 47.0265 1.33333C47.085 1.36296 47.2313 1.37778 47.4652 1.37778C47.8455 1.34815 48.1233 1.33333 48.2988 1.33333C48.5035 1.3037 48.6644 1.28889 48.7814 1.28889C48.9276 1.28889 49.0154 1.3037 49.0446 1.33333C49.0739 1.33333 49.1177 1.33333 49.1762 1.33333L52.4228 1.06667C52.6275 1.06667 52.8176 1.06667 52.9931 1.06667C53.1978 1.03704 53.4026 1.02222 53.6073 1.02222H54.0899C54.3531 1.02222 54.514 1.00741 54.5725 0.977779C54.6017 1.00741 54.631 1.02222 54.6602 1.02222C55.7424 1.05185 56.576 1.08148 57.1609 1.11111C57.7459 1.11111 58.0969 1.11111 58.2138 1.11111V1.42222H58.0384V1.51111L57.9945 1.46667C57.9945 1.7037 58.0237 2.02963 58.0822 2.44445C58.1407 2.85926 58.17 3.2 58.17 3.46667L58.2138 5.55555C58.2138 5.7037 58.1992 5.85185 58.17 6C58.17 6.14815 58.17 6.2963 58.17 6.44444V6.93333L58.0384 7.06667ZM58.3893 5.77778H58.4771L58.4332 6.04444H58.3893V5.77778Z" fill="#9EB5C8"/>
<path d="M79.9561 4.31111L80 4.13334L79.9123 4.08889L80 4.04445L79.9561 4C79.9269 3.67407 79.8976 3.43704 79.8684 3.28889C79.8684 3.14074 79.8684 3.02222 79.8684 2.93333C79.8684 2.81481 79.8684 2.75556 79.8684 2.75556C79.8976 2.75556 79.9123 2.72593 79.9123 2.66667L79.8245 2.62222L79.9123 2.53333C79.9415 2.05926 79.9561 1.68889 79.9561 1.42222C79.9561 1.12593 79.9561 0.933334 79.9561 0.844445L79.8245 0.755556C79.7075 0.637037 79.5028 0.577779 79.2103 0.577779L78.991 0.622223V0.533335C78.8447 0.592593 78.6838 0.622223 78.5084 0.622223C78.3621 0.622223 78.2159 0.622223 78.0696 0.622223C77.5724 0.622223 77.3092 0.607408 77.2799 0.577779V0.666666C77.2215 0.666666 77.1629 0.666666 77.1045 0.666666C77.0752 0.637036 77.0167 0.622223 76.929 0.622223C76.8412 0.622223 76.7389 0.637036 76.6219 0.666666C76.5341 0.666666 76.4318 0.666666 76.3148 0.666666C76.2563 0.666666 76.1978 0.666666 76.1393 0.666666C76.11 0.637036 76.0662 0.622223 76.0077 0.622223C75.9492 0.622223 75.9053 0.637036 75.876 0.666666C75.876 0.666666 75.8614 0.666666 75.8322 0.666666C75.8029 0.637036 75.7006 0.622223 75.5251 0.622223L74.6476 0.666666C74.6184 0.637036 74.5891 0.622223 74.5599 0.622223C74.5306 0.622223 74.5014 0.607408 74.4721 0.577779V0.666666C74.4137 0.637036 74.282 0.622223 74.0773 0.622223L71.0063 0.577779C70.8015 0.577779 70.6845 0.592594 70.6553 0.622223H67.4088C67.321 0.622223 67.2187 0.622223 67.1017 0.622223C67.0139 0.592594 66.9116 0.577779 66.7946 0.577779C66.6483 0.577779 66.5606 0.592594 66.5313 0.622223L64.2061 0.71111C64.1184 0.681481 63.9283 0.666666 63.6358 0.666666H62.5829C61.9102 0.725926 61.5007 0.755556 61.3545 0.755556C61.2375 0.725925 61.1497 0.74074 61.0912 0.8L61.0474 0.933333H61.1351V1.06667C61.0766 1.06667 61.0327 1.08148 61.0035 1.11111C61.0035 1.2 61.0181 1.25926 61.0474 1.28889H61.0912C61.062 1.34815 61.0474 1.42222 61.0474 1.51111C61.0474 1.57037 61.0327 1.62963 61.0035 1.68889L60.9596 3.51111L61.0474 4.13334C61.0181 4.16296 61.0035 4.19259 61.0035 4.22222C61.0035 4.28148 61.0035 4.37037 61.0035 4.48889C61.0327 4.60741 61.0474 4.72593 61.0474 4.84445C61.0474 5.05185 61.0327 5.17037 61.0035 5.2L60.9596 5.33333C60.9596 5.39259 60.945 5.46667 60.9157 5.55555C60.9157 5.64444 60.9157 5.71852 60.9157 5.77778H60.8719C60.8134 6.07407 60.7841 6.25185 60.7841 6.31111C60.7841 6.42963 60.7841 6.53333 60.7841 6.62222C60.8134 6.71111 60.828 6.78518 60.828 6.84444H61.0912L62.2319 6.8C62.8169 6.82963 63.2702 6.84444 63.5919 6.84444C63.9429 6.84444 64.1915 6.84444 64.3377 6.84444L65.5223 6.88889C66.0195 6.91852 66.4875 6.94815 66.9262 6.97778C67.3941 6.97778 67.8767 7.00741 68.374 7.06667C68.4032 7.03704 68.5494 7.02222 68.8127 7.02222C69.1929 7.02222 69.5877 7.03704 69.9972 7.06667C70.4359 7.0963 70.86 7.11111 71.2695 7.11111C71.3865 7.11111 71.4889 7.11111 71.5766 7.11111C71.6644 7.08148 71.7521 7.06667 71.8398 7.06667V7.11111C71.8691 7.14074 71.9422 7.15556 72.0592 7.15556C72.0299 7.21481 72.0007 7.28889 71.9715 7.37778C71.9422 7.46667 71.913 7.54074 71.8837 7.6L71.8398 7.82222C71.7813 7.82222 71.7375 7.83703 71.7082 7.86666V8L70.8746 9.77778L70.8308 9.73333L70.7869 9.86667L70.6992 9.95556C70.6992 10.0148 70.6699 10.1185 70.6114 10.2667C70.5529 10.4148 70.4067 10.7259 70.1727 11.2H70.1288C70.1288 11.2593 70.1142 11.3037 70.085 11.3333H70.0411C69.9826 11.4518 69.9241 11.5704 69.8656 11.6889C69.8071 11.837 69.734 12 69.6462 12.1778C69.5877 12.3556 69.5146 12.563 69.4269 12.8L69.3391 12.9333C69.3099 12.9926 69.2953 13.037 69.2953 13.0667C69.2953 13.0667 69.2806 13.0963 69.2514 13.1556L69.1637 13.2889L68.9443 13.8222C68.915 13.8815 68.9004 13.9407 68.9004 14C68.9004 14.0296 68.8858 14.0741 68.8565 14.1333H68.8127C68.5787 14.8148 68.4471 15.1704 68.4178 15.2L68.3301 15.2889C68.3008 15.3481 68.257 15.4519 68.1985 15.6C68.1692 15.7481 68.0961 15.9556 67.9791 16.2222H67.9352C67.8475 16.4 67.7744 16.563 67.7159 16.7111C67.6866 16.8296 67.6428 16.9333 67.5843 17.0222L67.4526 17.2889H67.4088C67.4088 17.2889 67.3649 17.363 67.2772 17.5111C67.2187 17.6296 67.1309 17.7778 67.0139 17.9556C66.9262 18.1333 66.8384 18.2963 66.7507 18.4444C66.6922 18.563 66.6629 18.6222 66.6629 18.6222V18.6667C66.6629 18.6963 66.6191 18.7556 66.5313 18.8444L66.2681 19.5556C66.2389 19.6148 66.2242 19.6741 66.2242 19.7333C66.2242 19.763 66.2096 19.8074 66.1804 19.8667L66.0926 19.9556C65.8879 20.4593 65.7855 20.7407 65.7855 20.8C65.7855 20.8296 65.7709 20.8741 65.7416 20.9333H65.6978C65.6685 20.963 65.6539 21.037 65.6539 21.1556C65.1274 22.1926 64.8642 22.7407 64.8642 22.8L64.7326 22.8889V23.0667C64.6448 23.0667 64.5425 23.1852 64.4255 23.4222C64.3377 23.6296 64.2646 23.763 64.2061 23.8222L63.6358 25.0667C63.5773 25.0667 63.3726 25.4667 63.0216 26.2667H62.9777C62.9777 26.563 62.9046 26.8296 62.7584 27.0667C62.6121 27.2741 62.4805 27.4963 62.3635 27.7333L62.3196 27.6889V27.8222L61.7932 28.8444C61.7639 28.8741 61.7347 28.8889 61.7054 28.8889L61.6616 29.1556C61.5446 29.1556 61.4861 29.2444 61.4861 29.4222H61.4422C61.413 29.4518 61.3983 29.4815 61.3983 29.5111C61.3983 29.5407 61.3837 29.5704 61.3545 29.6H61.3106C61.2813 29.6 61.2082 29.7926 61.0912 30.1778C60.9742 30.563 60.7987 30.9926 60.5648 31.4667V31.7333L60.7841 31.7778C60.7841 31.8667 60.8719 31.9111 61.0474 31.9111L61.0035 31.9556L61.0912 31.9111L62.1442 31.7778L63.7674 31.7333C63.9136 31.7333 64.0745 31.7481 64.25 31.7778C64.4255 31.7778 64.5863 31.7778 64.7326 31.7778L65.7416 31.6889C65.9756 31.6889 66.1072 31.7037 66.1365 31.7333V31.6444L66.2242 31.7333L66.6191 31.6444C66.7068 31.6444 66.7653 31.6593 66.7946 31.6889L66.9262 31.7333C66.9262 31.8222 66.9408 31.8815 66.9701 31.9111H67.0139C67.0139 31.8519 67.0724 31.7185 67.1894 31.5111C67.3064 31.2741 67.4526 30.9926 67.6281 30.6667L68.9004 28.0444C69.2221 27.4815 69.4123 27.1556 69.4707 27.0667C69.5292 26.9481 69.5877 26.8889 69.6462 26.8889V26.7111C69.9095 26.3259 70.0557 26.1333 70.085 26.1333V26C70.202 25.8815 70.2751 25.7481 70.3043 25.6L70.9624 24.4444H71.0501V24.3111L71.796 22.8889L71.9276 22.8V22.6667L71.9715 22.7111V22.5778L72.5857 21.6V21.4667C72.6149 21.4074 72.6441 21.3481 72.6734 21.2889C72.7319 21.2296 72.7758 21.1852 72.805 21.1556L72.8928 21.0667V20.8889L73.2876 20.1778L73.4192 20.1333L73.4631 19.9111L74.4283 18.1778H74.516L74.5599 18.0444C74.5599 17.9852 74.5599 17.9556 74.5599 17.9556C74.5891 17.9259 74.6038 17.8815 74.6038 17.8222H74.6476C74.6476 17.7926 74.9694 17.1852 75.6128 16V15.8667C75.7591 15.8667 75.8176 15.7778 75.7883 15.6C75.7883 15.4222 75.8614 15.3333 76.0077 15.3333V15.1556L76.4464 14.3556C76.4464 14.2963 76.4464 14.2667 76.4464 14.2667C76.4756 14.237 76.4902 14.1926 76.4902 14.1333L76.7096 13.7333C76.7681 13.6444 76.812 13.5704 76.8412 13.5111C76.8705 13.4519 76.8997 13.3926 76.929 13.3333C76.9582 13.2741 76.9875 13.2296 77.0167 13.2L77.4116 12.5333C77.4408 12.5333 77.4554 12.5185 77.4554 12.4889C77.4554 12.4593 77.4701 12.4148 77.4993 12.3556L77.5432 12.2667L77.9819 11.4222L78.3767 10.6667L79.1226 9.24444C79.1518 9.21481 79.1957 9.12593 79.2542 8.97778H79.298C79.3565 8.85926 79.4004 8.75555 79.4297 8.66666L80 7.2L79.9561 6.88889C79.8976 6.82963 79.8684 6.78519 79.8684 6.75556C79.8684 6.72593 79.8684 6.62222 79.8684 6.44444C79.8684 6.26667 79.883 6.01482 79.9123 5.68889L80 4.31111H79.9561ZM78.9032 7.06667C78.757 7.48148 78.6253 7.77778 78.5084 7.95556C78.4206 8.13333 78.3767 8.25185 78.3767 8.31111H78.289L78.2451 8.53334L78.2012 8.48889V8.62222C77.9088 9.18518 77.7187 9.46667 77.6309 9.46667V9.64445C77.046 10.6815 76.7535 11.2296 76.7535 11.2889L76.578 11.6L75.9199 12.8444L75.1302 14.3556C75.101 14.3852 75.0717 14.4 75.0425 14.4L74.867 14.7556L74.6038 15.3333C74.5745 15.3926 74.5014 15.5704 74.3844 15.8667L73.9457 16.5333L73.5508 17.4222L72.7173 19.0222L72.6295 19.2C72.4248 19.4074 72.2785 19.6593 72.1908 19.9556C72.1031 20.2222 72.0592 20.3852 72.0592 20.4444L71.9276 20.5333C71.8691 20.5926 71.8106 20.7407 71.7521 20.9778C71.6936 21.1852 71.5912 21.4519 71.445 21.7778L71.0063 22.6667H70.9185L70.7869 23.0667L70.3482 23.8222C70.3189 23.8815 70.3043 23.9259 70.3043 23.9556C70.3043 23.9556 70.2166 24.1185 70.0411 24.4444H69.9972L69.1637 26.0444C69.0467 26.0444 68.9589 26.163 68.9004 26.4C68.8419 26.6074 68.7834 26.7407 68.7249 26.8L68.6372 27.0222H68.5494L68.2423 27.5111C68.2423 27.5704 68.2277 27.6148 68.1985 27.6444C68.1985 27.6444 68.1985 27.6741 68.1985 27.7333L68.023 28.0444L67.5404 28.8889C67.5111 28.9481 67.4965 28.9926 67.4965 29.0222C67.4965 29.0222 67.4819 29.0519 67.4526 29.1111L67.4088 29.2444C67.321 29.3926 67.2625 29.4963 67.2333 29.5556C67.204 29.6148 67.1748 29.6741 67.1455 29.7333C67.1163 29.763 67.0724 29.837 67.0139 29.9556C66.9554 30.0444 66.8531 30.2222 66.7068 30.4889V30.6222H66.6191V30.7556C66.5898 30.7556 66.5606 30.7704 66.5313 30.8V30.8889L66.3997 30.9333L66.2242 30.8444C65.9318 30.7852 65.7709 30.7556 65.7416 30.7556V30.7111L65.6978 30.7556L65.0836 30.8444C64.4986 30.9333 64.0306 31.0074 63.6797 31.0667C63.3579 31.0963 63.1532 31.1259 63.0655 31.1556L62.2319 31.2C62.0564 31.2 61.954 31.1852 61.9248 31.1556V30.7111H62.0125C62.0125 30.6815 62.0125 30.6518 62.0125 30.6222C62.0418 30.5926 62.0564 30.563 62.0564 30.5333L62.2319 30.0889L62.2758 30.1333C62.3343 30.0148 62.3781 29.9111 62.4074 29.8222H62.4513C62.5098 29.6148 62.539 29.5111 62.539 29.5111C62.5682 29.4815 62.6121 29.4667 62.6706 29.4667V29.3333L63.1532 28.3111C63.3579 28.0148 63.4603 27.8222 63.4603 27.7333H63.5042C63.5042 27.6741 63.8552 26.8593 64.5571 25.2889C64.6741 25.1407 64.7472 25.0222 64.7765 24.9333C64.835 24.8148 64.8788 24.7407 64.9081 24.7111H64.952L65.0397 24.4889L65.3907 23.7333L65.4784 23.5111C65.6831 23.037 65.8148 22.8 65.8733 22.8V22.6222H65.961L66.2681 21.9111L66.3997 21.8222L66.4436 21.6889C66.4728 21.6296 66.546 21.4667 66.6629 21.2C66.8092 20.9333 66.9993 20.5481 67.2333 20.0444H67.2772L67.3649 19.8667C67.3649 19.837 67.3649 19.8222 67.3649 19.8222C67.3649 19.7926 67.3649 19.763 67.3649 19.7333C67.3941 19.6741 67.438 19.5852 67.4965 19.4667C67.5843 19.3481 67.7012 19.1556 67.8475 18.8889L68.1107 18.2667L68.1985 18C68.4032 17.6444 68.5056 17.4667 68.5056 17.4667C68.5348 17.437 68.5494 17.3926 68.5494 17.3333L68.5933 17.2H68.6811C68.7103 17.1704 68.7249 17.1407 68.7249 17.1111C68.7249 17.0222 68.7396 16.9481 68.7688 16.8889L68.8127 16.8C69.0174 16.2963 69.149 16.0148 69.2075 15.9556L69.383 15.6889L69.7778 14.8889L69.8656 14.6667H69.9533V14.5333C69.9826 14.5037 70.0118 14.4889 70.0411 14.4889L70.085 14.3111C70.085 14.2815 70.0996 14.2222 70.1288 14.1333C70.1873 14.0444 70.2312 13.9704 70.2604 13.9111L70.3921 13.7778C70.3921 13.7185 70.3921 13.6741 70.3921 13.6444C70.4213 13.6148 70.4359 13.5852 70.4359 13.5556L70.4798 13.3778H70.5676L70.6992 12.9778L71.1379 12.2222C71.1379 12.163 71.1525 12.1333 71.1818 12.1333L71.2695 12C71.2695 11.8519 71.328 11.7778 71.445 11.7778L71.5327 11.5111C71.562 11.4519 71.5766 11.4074 71.5766 11.3778C71.6059 11.3185 71.6351 11.2593 71.6644 11.2L71.7521 10.9778H71.8398L72.3224 9.95556C72.3224 9.92593 72.3224 9.8963 72.3224 9.86667C72.3517 9.83704 72.3663 9.80741 72.3663 9.77778L72.4979 9.6C72.5272 9.54074 72.5418 9.49629 72.5418 9.46667C72.5418 9.40741 72.5564 9.34815 72.5857 9.28889L73.0244 8.35555H73.1121L73.156 8.13333C73.2145 8.07407 73.2291 8.04445 73.1999 8.04445C73.1999 8.04445 73.2291 8.01482 73.2876 7.95556L73.4192 7.6C73.4485 7.57037 73.4631 7.54074 73.4631 7.51111C73.4631 7.48148 73.4777 7.45185 73.507 7.42222H73.5947C73.5947 7.12593 73.5801 6.96296 73.5508 6.93333H73.5947C73.5947 6.87407 73.5947 6.82963 73.5947 6.8C73.624 6.77037 73.6386 6.72593 73.6386 6.66667L72.6734 6.57778C72.2639 6.54815 71.679 6.5037 70.9185 6.44444C70.1581 6.38519 69.383 6.34074 68.5933 6.31111C67.8036 6.25185 67.0724 6.20741 66.3997 6.17778C65.727 6.14815 65.2883 6.13333 65.0836 6.13333C64.6741 6.13333 64.2792 6.14815 63.899 6.17778C63.548 6.20741 63.2117 6.22222 62.89 6.22222C62.656 6.22222 62.4951 6.17778 62.4074 6.08889C62.3489 6.08889 62.2611 6.1037 62.1442 6.13333C62.0564 6.13333 61.9687 6.13333 61.8809 6.13333C61.6469 6.13333 61.5153 6.07408 61.4861 5.95556C61.4861 5.83704 61.4715 5.73333 61.4422 5.64444L61.3545 5.37778C61.3545 5.34815 61.3545 5.31852 61.3545 5.28889C61.3837 5.22963 61.3983 5.15556 61.3983 5.06667C61.3983 4.97778 61.3837 4.87407 61.3545 4.75555C61.3545 4.60741 61.3545 4.45926 61.3545 4.31111C61.3545 3.57037 61.413 3.08148 61.5299 2.84445C61.5299 2.75556 61.5153 2.6963 61.4861 2.66667H61.5738L61.5299 2C61.5299 1.88148 61.5299 1.74815 61.5299 1.6C61.5592 1.42222 61.6469 1.33333 61.7932 1.33333C61.7932 1.39259 61.8224 1.42222 61.8809 1.42222L63.7674 1.33333C64.0014 1.36296 64.2646 1.39259 64.5571 1.42222C64.8496 1.42222 65.0251 1.42222 65.0836 1.42222H66.0487V1.37778C66.195 1.37778 66.3705 1.39259 66.5752 1.42222C66.8092 1.42222 67.0285 1.42222 67.2333 1.42222C67.4965 1.42222 67.7159 1.39259 67.8914 1.33333C67.9499 1.36296 68.0961 1.37778 68.3301 1.37778C68.7103 1.34815 68.9882 1.33333 69.1637 1.33333C69.3684 1.3037 69.5292 1.28889 69.6462 1.28889C69.7925 1.28889 69.8802 1.3037 69.9095 1.33333C69.9387 1.33333 69.9826 1.33333 70.0411 1.33333L73.2876 1.06667C73.4923 1.06667 73.6825 1.06667 73.8579 1.06667C74.0627 1.03704 74.2674 1.02222 74.4721 1.02222H74.9547C75.218 1.02222 75.3788 1.00741 75.4373 0.977779C75.4666 1.00741 75.4958 1.02222 75.5251 1.02222C76.6072 1.05185 77.4408 1.08148 78.0258 1.11111C78.6107 1.11111 78.9617 1.11111 79.0787 1.11111V1.42222H78.9032V1.51111L78.8593 1.46667C78.8593 1.7037 78.8886 2.02963 78.9471 2.44445C79.0056 2.85926 79.0348 3.2 79.0348 3.46667L79.0787 5.55555C79.0787 5.7037 79.0641 5.85185 79.0348 6C79.0348 6.14815 79.0348 6.2963 79.0348 6.44444V6.93333L78.9032 7.06667ZM79.2542 5.77778H79.3419L79.298 6.04444H79.2542V5.77778Z" fill="#9EB5C8"/>
</svg>
