<svg width="80" height="32" viewBox="0 0 80 32" fill="none" xmlns="http://www.w3.org/2000/svg">
<path d="M13.9712 1.82222C13.9712 1.67407 13.9712 1.52593 13.9712 1.37778C13.9994 1.22963 14.0135 1.08148 14.0135 0.933333H13.9712C13.943 0.874075 13.9289 0.844445 13.9289 0.844445C13.9289 0.814815 13.9148 0.77037 13.8865 0.71111H13.8019C13.8301 0.681481 13.8442 0.607407 13.8442 0.488889C13.816 0.459259 13.8019 0.429629 13.8019 0.4C13.8019 0.34074 13.7877 0.296295 13.7595 0.266665L13.5902 0.222223C13.5337 0.162965 13.5055 0.133335 13.5055 0.133335C13.5055 0.103704 13.4632 0.0888885 13.3785 0.0888885C13.2938 0.0888885 13.2091 0.103704 13.1245 0.133335C13.068 0.162964 13.0257 0.177779 12.9974 0.177779V0.133335C12.8281 0.133335 12.6588 0.162965 12.4894 0.222223C12.3201 0.251852 12.1507 0.266665 11.9814 0.266665H12.0237V0.133335C11.9108 0.133335 11.8402 0.11852 11.812 0.0888885C11.7838 0.0592592 11.5862 0.0444442 11.2193 0.0444442C11.1064 0.0444442 10.9512 0.0592592 10.7536 0.0888885C10.556 0.0888885 10.3443 0.0888885 10.1185 0.0888885C9.92096 0.0888885 9.72339 0.103704 9.52582 0.133335C9.35647 0.133335 9.21535 0.133335 9.10245 0.133335C8.84843 0.133335 8.7073 0.11852 8.67908 0.0888885V0.177779C8.65085 0.14815 8.46739 0.133335 8.1287 0.133335V0.0444442C8.07225 0.0444442 8.00169 0.0444442 7.91701 0.0444442C7.86056 0.014815 7.80411 0 7.74767 0V0.0888885C7.71944 0.0592592 7.69122 0.0444442 7.66299 0.0444442C7.63477 0.0444442 7.60654 0.0296292 7.57832 0L6.56223 0.0444442V0.133335C6.53401 0.162964 6.46344 0.177779 6.35055 0.177779C6.2941 0.177779 6.23765 0.177779 6.1812 0.177779C6.12475 0.14815 6.0683 0.133335 6.01185 0.133335L4.99576 0.177779C4.85464 0.177779 4.76997 0.192594 4.74174 0.222223V0.0888885C4.62884 0.148149 4.54417 0.281482 4.48772 0.488889C4.45949 0.696297 4.41716 0.859261 4.36071 0.977779L4.19136 1.2C4.16314 1.25926 4.14902 1.31852 4.14902 1.37778C4.14902 1.40741 4.13491 1.45185 4.10669 1.51111L3.895 1.91111C3.895 1.97037 3.88089 2.01482 3.85266 2.04445C3.85266 2.07407 3.85266 2.1037 3.85266 2.13333L3.59864 2.53333C3.45752 2.85926 3.34462 3.15556 3.25995 3.42222C3.17527 3.68889 3.13294 3.85185 3.13294 3.91111L2.58256 5.02222H2.49788L2.41321 5.24444C2.41321 5.48148 2.27208 5.79259 1.98984 6.17778L1.9475 6.31111C1.91928 6.31111 1.89105 6.32593 1.86283 6.35556V6.53333L0.804402 8.93333H0.719728C0.719728 9.11111 0.705616 9.21481 0.677392 9.24444L0.550381 9.46667C0.493931 9.58518 0.451594 9.68889 0.42337 9.77778L0.381033 10C0.352808 10.0296 0.324583 10.0444 0.296359 10.0444V10.0889C0.211685 10.1778 0.127011 10.3407 0.042337 10.5778L0 10.5333V10.6667C0.0564493 10.7259 0.112899 10.7556 0.169348 10.7556L0.127011 10.8889H0.211685C0.239909 10.9481 0.959638 11.1259 2.37087 11.4222C2.42732 11.4222 2.55433 11.437 2.7519 11.4667C2.9777 11.4667 3.13294 11.4963 3.21761 11.5556L3.51397 11.6444L3.47163 11.7333L3.97968 11.8667L3.93734 11.9111L4.27603 11.8667L4.61473 11.9556L4.6994 11.8667C4.72763 11.8667 4.78408 11.8815 4.86875 11.9111C4.95343 11.9111 5.06632 11.9259 5.20745 11.9556L5.33446 12.0444L5.75783 11.9556L5.92718 11.8222C5.9554 11.7926 5.96951 11.763 5.96951 11.7333C5.96951 11.7037 5.98363 11.6741 6.01185 11.6444L6.13886 11.3333C6.13886 11.3333 6.16709 11.2593 6.22353 11.1111H6.26587C6.37877 10.9926 6.47756 10.7852 6.56223 10.4889H6.6469C6.70335 10.4296 6.71747 10.3556 6.68924 10.2667C6.68924 10.1481 6.74569 10.0889 6.85859 10.0889L6.94326 9.82222C6.99971 9.7037 7.04205 9.58518 7.07027 9.46667C7.12672 9.34815 7.2114 9.24444 7.3243 9.15555L7.36663 9.11111V9.73333C7.36663 9.85185 7.35252 9.97037 7.3243 10.0889C7.3243 10.1778 7.3243 10.2815 7.3243 10.4H7.36663C7.36663 10.4296 7.35252 10.4593 7.3243 10.4889C7.3243 10.6667 7.3243 10.7852 7.3243 10.8444C7.35252 10.8741 7.36663 10.9185 7.36663 10.9778C7.36663 11.0667 7.35252 11.1556 7.3243 11.2444C7.3243 11.3037 7.3243 11.363 7.3243 11.4222V11.8222C7.35252 11.8222 7.36663 11.8519 7.36663 11.9111C7.36663 11.9704 7.35252 12.1481 7.3243 12.4444C7.3243 12.7111 7.31018 13.0963 7.28196 13.6H7.3243C7.3243 13.7481 7.31018 13.9704 7.28196 14.2667C7.28196 14.563 7.25373 14.7852 7.19728 14.9333C7.16906 15.7926 7.14084 16.4296 7.11261 16.8444C7.08439 17.2593 7.05616 17.5852 7.02794 17.8222C7.02794 18.0296 7.01382 18.2222 6.9856 18.4C6.9856 18.5481 6.9856 18.7704 6.9856 19.0667C6.9856 19.2148 6.99971 19.3037 7.02794 19.3333L7.07027 20.3111C7.01382 20.3704 6.92915 22.0593 6.81625 25.3778H6.85859C6.83036 25.5556 6.81625 25.7333 6.81625 25.9111C6.81625 26.0889 6.80214 26.2667 6.77391 26.4444V27.6444C6.77391 27.8815 6.77391 28.2963 6.77391 28.8889C6.80214 29.4519 6.83036 30.2074 6.85859 31.1556C6.83036 31.1852 6.81625 31.2296 6.81625 31.2889L6.85859 31.4667C6.85859 31.4963 6.88681 31.5407 6.94326 31.6V31.6444L7.02794 31.6V31.6444C7.08439 31.6444 7.11261 31.6296 7.11261 31.6C7.14084 31.5407 7.18317 31.5111 7.23962 31.5111C7.2114 31.5111 7.26785 31.5259 7.40897 31.5556C7.57832 31.5852 7.76178 31.6148 7.95935 31.6444C8.15692 31.6444 8.34038 31.6593 8.50973 31.6889C8.7073 31.7185 8.8202 31.7333 8.84843 31.7333H12.1507C12.5459 31.7333 12.7717 31.7481 12.8281 31.7778V31.7333C12.941 31.7037 13.0116 31.6741 13.0398 31.6444C13.0116 31.5259 12.9833 31.4667 12.9551 31.4667C12.9551 31.437 12.9551 31.3926 12.9551 31.3333H13.5055C13.5055 31.2444 13.4914 31.1407 13.4632 31.0222C13.4349 30.8741 13.4208 30.7259 13.4208 30.5778C13.4208 30.4593 13.4349 30.3852 13.4632 30.3556C13.5196 30.2963 13.5478 30.237 13.5478 30.1778C13.5478 30.1481 13.5337 30.1185 13.5055 30.0889C13.5055 30.0593 13.5055 30.0296 13.5055 30L13.5478 29.9111C13.5761 29.8815 13.5902 29.763 13.5902 29.5556V29.0667C13.5902 28.5926 13.5761 28.2815 13.5478 28.1333C13.5196 27.9556 13.5055 27.7778 13.5055 27.6V26.9778C13.5055 26.8593 13.5055 26.5926 13.5055 26.1778C13.5055 25.763 13.5196 25.2148 13.5478 24.5333H13.5055C13.5055 24.3852 13.5055 24.3407 13.5055 24.4C13.5055 24.4296 13.5055 24.3556 13.5055 24.1778C13.5337 23.9704 13.5478 23.5556 13.5478 22.9333C13.5761 22.3111 13.6043 21.2593 13.6325 19.7778H13.6748V19.7333C13.6748 19.6741 13.689 19.5259 13.7172 19.2889C13.7454 19.0519 13.7595 18.7259 13.7595 18.3111L13.8019 13.7333C13.8301 13.5852 13.8442 13.437 13.8442 13.2889C13.8442 13.1407 13.8583 12.9926 13.8865 12.8444H13.8019L13.8865 12.8L13.9289 11.6C13.9853 11.3037 14.0135 11.1407 14.0135 11.1111H13.9712V9.24444C13.943 9.21481 13.9289 9.03704 13.9289 8.71111V7.2C13.9289 6.78519 13.943 6.47408 13.9712 6.26667C13.9994 6.05926 14.0135 5.94074 14.0135 5.91111L13.9712 2.08889C13.9712 2.02963 13.9712 2 13.9712 2C13.9994 2 14.0135 1.97037 14.0135 1.91111C13.9853 1.88148 13.9712 1.85185 13.9712 1.82222ZM12.7434 6.4C12.7434 6.48889 12.7575 6.54815 12.7858 6.57778L12.7434 6.93333L12.7858 11.9556V12.2667C12.7858 12.5926 12.7717 12.9333 12.7434 13.2889C12.7152 13.6444 12.7011 13.9852 12.7011 14.3111C12.7011 14.5481 12.7011 14.7407 12.7011 14.8889C12.7293 15.037 12.7434 15.2148 12.7434 15.4222C12.7434 15.6296 12.7293 15.7481 12.7011 15.7778V16.8C12.7011 16.8593 12.687 16.9185 12.6588 16.9778C12.6588 17.037 12.6588 17.0963 12.6588 17.1556C12.6588 17.3333 12.6588 17.5111 12.6588 17.6889C12.687 17.8667 12.7011 18.0296 12.7011 18.1778C12.7011 18.6222 12.687 19.0963 12.6588 19.6C12.6588 20.0741 12.6305 20.5185 12.5741 20.9333L12.6588 20.9778C12.6305 21.0667 12.6164 21.2444 12.6164 21.5111L12.6588 22.3556V23.6C12.6588 23.6593 12.6729 23.7037 12.7011 23.7333C12.6729 23.763 12.6588 24 12.6588 24.4444C12.6588 24.7407 12.6588 25.0519 12.6588 25.3778C12.687 25.7037 12.7011 26.0296 12.7011 26.3556C12.7011 27.363 12.687 28.163 12.6588 28.7556C12.6305 29.3185 12.5741 29.7481 12.4894 30.0444C12.433 30.3407 12.3483 30.5333 12.2354 30.6222C12.1507 30.6815 12.0237 30.7111 11.8544 30.7111H11.304C11.0782 30.7111 10.8947 30.7259 10.7536 30.7556L8.76375 30.9778C8.7073 30.9778 8.66497 30.9778 8.63674 30.9778C8.60852 30.9481 8.56618 30.9333 8.50973 30.9333L8.42506 30.9778C8.11459 30.9778 7.94524 30.963 7.91701 30.9333L7.87468 25.2444C7.9029 24.7111 7.91701 24.2815 7.91701 23.9556C7.94524 23.6296 7.95935 23.1556 7.95935 22.5333C7.95935 21.9111 7.95935 21.0222 7.95935 19.8667C7.98758 18.6815 8.04402 16.9926 8.1287 14.8V14.2222C8.1287 13.9259 8.14281 13.7333 8.17103 13.6444C8.11458 13.6444 8.08636 13.5852 8.08636 13.4667H8.1287C8.18515 13.4074 8.21337 13.2889 8.21337 13.1111C8.21337 12.9333 8.21337 12.7556 8.21337 12.5778C8.21337 12.163 8.19926 11.9259 8.17103 11.8667C8.17103 11.8074 8.17103 11.7481 8.17103 11.6889L8.25571 11.6444H8.17103C8.19926 11.4667 8.21337 11.3185 8.21337 11.2C8.21337 11.0519 8.21337 10.9037 8.21337 10.7556V10.1333C8.18515 10.1037 8.17103 9.97037 8.17103 9.73333C8.17103 9.67407 8.17103 9.51111 8.17103 9.24444C8.19926 8.97778 8.22748 8.62222 8.25571 8.17778C8.22748 8.14815 8.21337 8.02963 8.21337 7.82222C8.21337 7.55556 8.28393 7.34815 8.42506 7.2C8.34038 6.93333 8.25571 6.8 8.17103 6.8L8.08636 6.84444V6.75556C7.94524 6.81482 7.86056 6.88889 7.83234 6.97778L7.23962 7.82222L6.90093 8.57778H6.81625L6.09652 10.2222H6.01185V10.3111L6.05419 10.2667C5.94129 10.3852 5.8425 10.5037 5.75783 10.6222C5.70138 10.7407 5.64493 10.8593 5.58848 10.9778C5.53203 11.0667 5.50381 11.1556 5.50381 11.2444L5.46147 11.3333C5.43324 11.363 5.39091 11.3778 5.33446 11.3778L0.931413 10.1778C0.931413 10.2074 0.917301 10.237 0.889076 10.2667C0.889076 10.2074 0.959638 10.0593 1.10076 9.82222C1.24188 9.58519 1.31245 9.43704 1.31245 9.37778H1.35478C1.41123 9.25926 1.48179 9.06667 1.56647 8.8C1.65114 8.53333 1.7217 8.37037 1.77815 8.31111L1.86283 7.91111H1.9475L2.11685 7.42222C2.14507 7.36296 2.15919 7.33333 2.15919 7.33333C2.15919 7.3037 2.1733 7.25926 2.20152 7.2L2.58256 6.35556C2.61078 6.2963 2.62489 6.25185 2.62489 6.22222C2.65312 6.16296 2.68134 6.1037 2.70957 6.04444L3.00592 5.28889L3.0906 5.24444L3.21761 4.8L3.85266 3.46667C3.88089 3.40741 3.895 3.37778 3.895 3.37778C3.895 3.34815 3.90911 3.3037 3.93734 3.24445L4.06435 2.84445C4.1208 2.84445 4.16314 2.82963 4.19136 2.8V2.66667C4.21958 2.63704 4.29015 2.51852 4.40304 2.31111C4.51594 2.07407 4.65707 1.80741 4.82641 1.51111H4.86875L4.82641 1.37778H5.08044C5.24978 1.37778 5.34857 1.36296 5.37679 1.33333V1.37778C5.99774 1.34815 6.51989 1.33333 6.94326 1.33333C7.36663 1.33333 7.70533 1.33333 7.95935 1.33333H9.01777L10.3302 1.15556H11.7697V1.06667H12.8704C12.8704 1.24444 12.8704 1.43704 12.8704 1.64445C12.8987 1.85185 12.9128 2.07407 12.9128 2.31111V2.75556C12.8846 2.75556 12.8563 2.77037 12.8281 2.8V3.6L12.7434 6.4Z" fill="#9EB5C8"/>
<path d="M35.7837 16.2222L35.7413 13.9111C35.6849 13.4667 35.6425 13.0667 35.6143 12.7111C35.5861 12.3259 35.572 12 35.572 11.7333C35.572 10.963 35.6143 10.1778 35.699 9.37778H35.6143V8.4C35.5861 8.37037 35.572 8.34074 35.572 8.31111L35.4026 5.28889L35.1486 4.44444C35.1486 4.38518 35.0216 3.95556 34.7676 3.15556C34.4007 2.8 34.1184 2.53333 33.9208 2.35556C33.7233 2.14815 33.5821 2 33.4975 1.91111C33.4128 1.82222 33.3705 1.76296 33.3705 1.73333C33.3705 1.7037 33.3705 1.68889 33.3705 1.68889L32.7777 1.33333L31.677 0.8L29.6025 0.444444C29.3767 0.444444 29.1368 0.444444 28.8827 0.444444C28.6287 0.414815 28.3747 0.4 28.1207 0.4C27.8102 0.4 27.4997 0.444445 27.1893 0.533335C26.907 0.592593 26.653 0.622223 26.4272 0.622223C26.399 0.622223 26.1591 0.651851 25.7075 0.71111C25.2841 0.740741 24.6632 0.814816 23.8446 0.933333L23.6753 0.977779C22.8568 1.18519 22.4052 1.28889 22.3205 1.28889L22.1935 1.33333C22.1935 1.39259 22.1512 1.43704 22.0665 1.46667C21.9818 1.46667 21.9113 1.46667 21.8548 1.46667L21.7701 1.55555C21.7137 1.61481 21.6149 1.65926 21.4738 1.68889C21.3326 1.68889 21.1915 1.73333 21.0504 1.82222L20.8811 1.91111C20.8246 1.97037 20.7258 2.02963 20.5847 2.08889C20.4436 2.11852 20.246 2.22222 19.992 2.4C19.738 2.57778 19.4275 2.87407 19.0606 3.28889C18.7219 3.67407 18.3408 4.23704 17.9175 4.97778H17.8751C17.8187 5.03704 17.6917 5.80741 17.4941 7.28889H17.4094L17.2401 8.48889L17.1977 10.5778C17.1977 10.8741 17.2119 11.0667 17.2401 11.1556L17.2824 11.2444C17.3106 11.4815 17.3247 11.6889 17.3247 11.8667C17.3247 12.0148 17.3247 12.1185 17.3247 12.1778H17.3671C17.3953 12.2074 17.5223 12.6815 17.7481 13.6C18.0868 14.2222 18.3267 14.7111 18.4678 15.0667C18.6372 15.4222 18.7642 15.7037 18.8489 15.9111C18.9618 16.0889 19.0747 16.237 19.1876 16.3556C19.3005 16.4741 19.498 16.5926 19.7803 16.7111V16.8444L20.5847 17.4222C20.7258 17.5407 20.8387 17.6444 20.9234 17.7333C21.0081 17.7926 21.1069 17.8667 21.2198 17.9556C21.3609 18.0444 21.5443 18.1333 21.7701 18.2222C21.9959 18.3111 22.3487 18.4148 22.8286 18.5333V18.6222L23.76 18.8444C23.9011 18.9037 24.0563 18.9333 24.2257 18.9333C24.395 18.9333 24.5644 18.9333 24.7337 18.9333H25.3688C25.4817 18.9333 25.5946 18.9333 25.7075 18.9333C25.8204 18.9333 25.9192 18.9481 26.0038 18.9778H26.1732V18.8889C27.3586 18.6222 28.0501 18.4889 28.2477 18.4889H28.3324C28.417 18.4889 28.4876 18.4593 28.544 18.4C28.7981 18.4 28.9251 18.5926 28.9251 18.9778C28.9251 19.3037 28.9251 19.5704 28.9251 19.7778C28.9251 19.9556 28.911 20.1481 28.8827 20.3556C28.8545 20.563 28.7981 20.8148 28.7134 21.1111C28.6569 21.3778 28.5723 21.763 28.4594 22.2667H28.417C28.2477 22.5333 28.1489 22.7407 28.1207 22.8889C28.0925 23.0074 28.036 23.1111 27.9513 23.2C27.8667 23.2593 27.6973 23.3333 27.4433 23.4222C27.1893 23.5111 26.7518 23.6593 26.1308 23.8667V23.8222C26.0744 23.8222 25.9897 23.8222 25.8768 23.8222C25.7921 23.7926 25.7216 23.7778 25.6651 23.7778L25.5381 23.6889C24.6067 23.1259 24.0704 22.6518 23.9293 22.2667L23.887 22.1333C23.8588 22.1333 23.8305 22.1185 23.8023 22.0889L23.76 22C23.76 21.9407 23.76 21.8963 23.76 21.8667C23.7882 21.837 23.8023 21.7926 23.8023 21.7333C23.7459 21.7333 23.7035 21.7185 23.6753 21.6889L23.4636 21.6L23.4213 21.6889L23.3789 21.6444C23.2096 21.6444 23.0402 21.6444 22.8709 21.6444C22.7298 21.6148 22.5745 21.6 22.4052 21.6V21.6444H22.3205C22.1794 21.6444 21.9677 21.6593 21.6855 21.6889C21.4032 21.7185 21.0363 21.7333 20.5847 21.7333L17.4941 21.7778V21.8667C17.4094 21.8667 17.3671 21.837 17.3671 21.7778L17.1554 21.8667C17.1554 22.4593 17.1836 22.9778 17.2401 23.4222C17.2965 23.8667 17.3247 24.3407 17.3247 24.8444H17.3671C17.3953 24.9037 17.4094 25.0222 17.4094 25.2V25.5556H17.4941L17.5788 26.5778V26.6667C17.5505 26.8148 17.5788 26.9926 17.6634 27.2C17.7763 27.3778 17.9457 27.6741 18.1715 28.0889C18.4255 28.5926 18.6513 28.963 18.8489 29.2C19.0465 29.4074 19.2158 29.5556 19.3569 29.6444C19.498 29.7333 19.5968 29.7926 19.6533 29.8222C19.738 29.8519 19.7803 29.9259 19.7803 30.0444H19.9073C19.9073 30.0741 19.9496 30.1185 20.0343 30.1778C20.119 30.237 20.4012 30.3704 20.8811 30.5778C21.2762 30.7852 21.5443 30.8889 21.6855 30.8889V30.9333L24.0987 31.6889L24.1833 31.6444L25.5381 31.7778V31.8667L26.9352 31.9111C26.9635 31.9407 27.4151 31.9556 28.29 31.9556V32H28.5864C29.4331 31.8815 29.8847 31.7926 29.9412 31.7333L30.4069 31.5556L31.423 31.2889L32.3967 30.6667C32.7354 30.4593 32.9048 30.3556 32.9048 30.3556C32.933 30.3556 32.9612 30.3111 32.9894 30.2222H33.0741C33.1023 30.1926 33.1729 30.1037 33.2858 29.9556C33.3987 29.8074 33.5539 29.6 33.7515 29.3333L33.8785 29.1556H34.0055C34.0055 29.1259 34.0479 29.037 34.1325 28.8889C34.2454 28.7407 34.3583 28.5778 34.4712 28.4C34.6123 28.2222 34.7252 28.0593 34.8099 27.9111C34.9228 27.763 34.9793 27.6741 34.9793 27.6444L34.8946 27.6889C34.9228 27.5111 34.9652 27.3037 35.0216 27.0667C35.078 26.8 35.1345 26.5926 35.1909 26.4444V26.3111L35.4873 24.7111C35.6002 24.3556 35.6425 23.9407 35.6143 23.4667C35.5861 22.9926 35.6284 22.5778 35.7413 22.2222L35.9107 19.3778C35.9107 19.2296 35.8966 19.1111 35.8683 19.0222C35.8683 18.9037 35.8683 18.6519 35.8683 18.2667C35.8683 17.8815 35.8825 17.6444 35.9107 17.5556C35.9389 17.4667 35.953 17.363 35.953 17.2444C35.953 17.0074 35.9389 16.8741 35.9107 16.8444V16.2222H35.7837ZM34.7676 18.3111V24.9778L34.5559 25.8667C34.5277 26.0741 34.4994 26.2222 34.4712 26.3111C34.4712 26.3704 34.4712 26.4444 34.4712 26.5333H34.4289C34.3724 26.5926 34.3301 26.7704 34.3019 27.0667H34.2172V27.2889L33.8362 28.1778C33.8079 28.2074 33.7938 28.237 33.7938 28.2667C33.7938 28.2963 33.7797 28.3259 33.7515 28.3556C33.7515 28.3852 33.7515 28.4296 33.7515 28.4889L33.6668 28.6222C33.6104 28.8296 33.5398 28.9778 33.4551 29.0667C33.3987 29.1556 33.2717 29.3037 33.0741 29.5111L31.931 30.1778C31.8746 30.2074 31.8181 30.2222 31.7617 30.2222C31.7334 30.2222 31.6911 30.237 31.6346 30.2667L30.7879 30.6667H30.6186V30.7556L29.8988 30.8889L28.6711 31.0667V31.0222C28.6428 31.0519 28.5723 31.0667 28.4594 31.0667V31.0222C28.4311 31.0519 28.4029 31.0667 28.3747 31.0667L25.2418 31.2L24.9031 31.1556V31.0667L22.2782 30.4V30.3111C22.1088 30.3111 22.01 30.2963 21.9818 30.2667L21.8971 30.1778C21.3044 29.8519 20.9516 29.6593 20.8387 29.6C20.7258 29.5111 20.6553 29.437 20.627 29.3778L20.0343 29.0222C19.7238 28.4296 19.4839 27.9852 19.3146 27.6889C19.1452 27.3926 19.0465 27.2296 19.0182 27.2L18.9336 26.6667C18.9053 26.6667 18.8489 26.5778 18.7642 26.4C18.7078 26.1926 18.6513 25.9704 18.5949 25.7333C18.5102 25.4667 18.4255 25.1556 18.3408 24.8L18.0021 23.4667C17.9739 23.437 17.9598 23.3481 17.9598 23.2C17.9598 22.9037 18.0021 22.7259 18.0868 22.6667C18.1715 22.6074 18.1997 22.5778 18.1715 22.5778H18.3408V22.4889L20.7964 22.2222H22.1512V22.1333L22.7439 22.0889C22.7721 22.1185 22.9132 22.1333 23.1673 22.1333C23.1955 22.4 23.2378 22.6519 23.2943 22.8889C23.3507 23.0963 23.4072 23.2889 23.4636 23.4667L23.4213 23.6444C23.4213 23.6741 23.4777 23.7185 23.5906 23.7778C23.7317 23.837 23.8023 23.9556 23.8023 24.1333L23.8446 24.2222C23.9011 24.3111 23.9434 24.3704 23.9717 24.4C24.0281 24.4296 24.0846 24.4741 24.141 24.5333L26.0038 25.2444C26.0603 25.2741 26.1732 25.3037 26.3425 25.3333C26.5401 25.3333 26.7236 25.3333 26.8929 25.3333C26.9494 25.3333 27.0058 25.3333 27.0623 25.3333C27.1187 25.3037 27.161 25.2889 27.1893 25.2889L28.036 25.0222L28.2054 24.8444C28.2336 24.8148 28.3606 24.6519 28.5864 24.3556C28.8122 24.0593 29.1368 23.6296 29.5601 23.0667L29.6871 22.0889H29.7718L29.8565 19.4667C29.8565 19.2296 29.8424 19.0222 29.8142 18.8444C29.7859 18.637 29.7718 18.4296 29.7718 18.2222H29.8565L29.6025 17.9111C29.5742 17.8815 29.546 17.8222 29.5178 17.7333C29.5178 17.6148 29.5178 17.5407 29.5178 17.5111C29.3484 17.5111 29.2073 17.5556 29.0944 17.6444C29.0098 17.7333 28.8969 17.8074 28.7557 17.8667L27.3586 18.0444C27.2175 18.0444 27.0481 18.0593 26.8506 18.0889C26.6812 18.0889 26.4978 18.0889 26.3002 18.0889C26.2155 18.0889 26.1167 18.0889 26.0038 18.0889C25.8909 18.0593 25.7639 18.0296 25.6228 18H24.9454L22.8286 17.6889L21.0081 16.8889C20.9798 16.8593 20.9657 16.8296 20.9657 16.8L20.7964 16.8444C20.7682 16.8444 20.7258 16.8148 20.6694 16.7556L20.4153 16.4889C20.3307 16.3704 19.992 16.0593 19.3993 15.5556L19.2723 15.4222C19.1594 15.2444 19.0606 15.0963 18.9759 14.9778C18.9194 14.8296 18.863 14.7111 18.8065 14.6222L18.5949 14.0444C18.4537 13.5407 18.3832 13.2741 18.3832 13.2444H18.3408L18.2562 11.6444C18.2562 11.4963 18.2562 11.3481 18.2562 11.2C18.2844 11.0222 18.2985 10.8593 18.2985 10.7111C18.2703 10.1481 18.2562 9.71852 18.2562 9.42222C18.2562 9.09629 18.2562 8.87407 18.2562 8.75556C18.2562 8.60741 18.2562 8.48889 18.2562 8.4C18.2844 8.28148 18.3126 8.16296 18.3408 8.04445C18.4537 7.27408 18.5243 6.68148 18.5525 6.26667C18.609 5.85185 18.6372 5.62963 18.6372 5.6L18.7219 5.46667L18.7642 5.51111C18.8207 5.51111 18.8771 5.39259 18.9336 5.15556C18.99 4.88889 19.1735 4.5037 19.4839 4C19.738 3.73333 19.9355 3.52592 20.0767 3.37778C20.246 3.22963 20.373 3.11111 20.4577 3.02222L20.6694 2.8C20.6694 2.8 20.6976 2.78519 20.754 2.75556H20.8387C20.8952 2.6963 20.994 2.62222 21.1351 2.53333C21.2762 2.44444 21.6149 2.23704 22.1512 1.91111L22.4475 1.86667L24.395 1.64445V1.55555L27.655 1.37778C27.9372 1.31852 28.0642 1.28889 28.036 1.28889C28.1489 1.28889 29.0521 1.33333 30.7456 1.42222L32.0157 1.86667L32.185 2.04445C32.2415 2.13333 32.2979 2.19259 32.3544 2.22222C32.439 2.25185 32.5378 2.31111 32.6507 2.4C32.7919 2.45926 32.9471 2.57778 33.1164 2.75556C33.2858 2.93333 33.4834 3.2 33.7092 3.55556C34.189 4.32593 34.4853 4.96296 34.5982 5.46667C34.7394 5.94074 34.8099 6.38518 34.8099 6.8H34.8523C34.8805 6.85926 34.8946 7.11111 34.8946 7.55555H34.9369V13.4222L34.7676 14.0889V18.3111ZM29.6025 9.91111C29.6025 9.79259 29.6166 9.71852 29.6448 9.68889L29.6025 9.37778C29.5742 9.34815 29.4755 9.22963 29.3061 9.02222C29.165 8.78518 28.9392 8.45926 28.6287 8.04445V8C28.4311 7.91111 28.2618 7.83704 28.1207 7.77778C27.9796 7.71852 27.8384 7.67407 27.6973 7.64444L26.0885 7.55555V7.6C25.8627 7.6 25.7357 7.61481 25.7075 7.64444L25.4958 7.73334C25.4958 7.82222 25.3264 8.05926 24.9877 8.44444L24.9031 8.62222C24.8466 8.62222 24.8184 8.63704 24.8184 8.66666L24.522 9.68889C24.522 9.74815 24.5079 9.82222 24.4797 9.91111C24.4797 9.97037 24.4797 10.0296 24.4797 10.0889L24.522 10.3556H24.6067L24.522 10.4444C24.522 10.5037 24.5361 10.5333 24.5644 10.5333L24.8184 11.5111H24.9031V11.6L25.4534 12.2222C25.5381 12.3111 25.6369 12.3852 25.7498 12.4444H25.8345C26.1732 12.5926 26.4272 12.7111 26.5965 12.8C26.7941 12.8593 26.9211 12.9037 26.9776 12.9333L27.0623 12.8H28.0783L28.29 12.7111L28.6287 12.4889C28.7134 12.4593 28.784 12.3556 28.8404 12.1778L29.0521 12.1333C29.2497 11.8963 29.4331 11.1556 29.6025 9.91111ZM27.9937 12.3111C27.8525 12.3111 27.7679 12.3259 27.7396 12.3556V12.4444H26.9352V12.3556L26.2579 12.1333C25.4958 11.3333 25.1148 10.6222 25.1148 10C25.1148 9.85185 25.1148 9.70371 25.1148 9.55556C25.143 9.40741 25.1712 9.25926 25.1994 9.11111L25.5805 8.44444C25.6934 8.41481 25.9192 8.35556 26.2579 8.26667C26.5965 8.14815 26.9352 8.05926 27.2739 8C27.8949 8 28.3747 8.25185 28.7134 8.75556C29.0803 9.22963 29.2638 9.65926 29.2638 10.0444C29.2638 10.0444 29.2356 10.1926 29.1791 10.4889L28.29 12.1333L27.9937 12.3111Z" fill="#9EB5C8"/>
<path d="M57.4896 16.2222L57.4473 13.9111C57.3908 13.4667 57.3485 13.0667 57.3203 12.7111C57.2921 12.3259 57.2779 12 57.2779 11.7333C57.2779 10.963 57.3203 10.1778 57.405 9.37778H57.3203V8.4C57.2921 8.37037 57.2779 8.34074 57.2779 8.31111L57.1086 5.28889L56.8546 4.44444C56.8546 4.38518 56.7276 3.95556 56.4735 3.15556C56.1066 2.8 55.8244 2.53333 55.6268 2.35556C55.4292 2.14815 55.2881 2 55.2034 1.91111C55.1188 1.82222 55.0764 1.76296 55.0764 1.73333C55.0764 1.7037 55.0764 1.68889 55.0764 1.68889L54.4837 1.33333L53.3829 0.8L51.3084 0.444444C51.0826 0.444444 50.8427 0.444444 50.5887 0.444444C50.3347 0.414815 50.0807 0.4 49.8266 0.4C49.5162 0.4 49.2057 0.444445 48.8952 0.533335C48.613 0.592593 48.359 0.622223 48.1332 0.622223C48.1049 0.622223 47.865 0.651851 47.4134 0.71111C46.9901 0.740741 46.3691 0.814816 45.5506 0.933333L45.3813 0.977779C44.5627 1.18519 44.1111 1.28889 44.0265 1.28889L43.8995 1.33333C43.8995 1.39259 43.8571 1.43704 43.7725 1.46667C43.6878 1.46667 43.6172 1.46667 43.5608 1.46667L43.4761 1.55555C43.4196 1.61481 43.3209 1.65926 43.1797 1.68889C43.0386 1.68889 42.8975 1.73333 42.7564 1.82222L42.587 1.91111C42.5306 1.97037 42.4318 2.02963 42.2907 2.08889C42.1495 2.11852 41.952 2.22222 41.6979 2.4C41.4439 2.57778 41.1334 2.87407 40.7665 3.28889C40.4278 3.67407 40.0468 4.23704 39.6234 4.97778H39.5811C39.5246 5.03704 39.3976 5.80741 39.2001 7.28889H39.1154L38.946 8.48889L38.9037 10.5778C38.9037 10.8741 38.9178 11.0667 38.946 11.1556L38.9884 11.2444C39.0166 11.4815 39.0307 11.6889 39.0307 11.8667C39.0307 12.0148 39.0307 12.1185 39.0307 12.1778H39.0731C39.1013 12.2074 39.2283 12.6815 39.4541 13.6C39.7928 14.2222 40.0327 14.7111 40.1738 15.0667C40.3432 15.4222 40.4702 15.7037 40.5548 15.9111C40.6677 16.0889 40.7806 16.237 40.8935 16.3556C41.0064 16.4741 41.204 16.5926 41.4863 16.7111V16.8444L42.2907 17.4222C42.4318 17.5407 42.5447 17.6444 42.6294 17.7333C42.714 17.7926 42.8128 17.8667 42.9257 17.9556C43.0668 18.0444 43.2503 18.1333 43.4761 18.2222C43.7019 18.3111 44.0547 18.4148 44.5345 18.5333V18.6222L45.4659 18.8444C45.6071 18.9037 45.7623 18.9333 45.9316 18.9333C46.101 18.9333 46.2703 18.9333 46.4397 18.9333H47.0747C47.1876 18.9333 47.3005 18.9333 47.4134 18.9333C47.5263 18.9333 47.6251 18.9481 47.7098 18.9778H47.8791V18.8889C49.0646 18.6222 49.7561 18.4889 49.9537 18.4889H50.0383C50.123 18.4889 50.1936 18.4593 50.25 18.4C50.504 18.4 50.631 18.5926 50.631 18.9778C50.631 19.3037 50.631 19.5704 50.631 19.7778C50.631 19.9556 50.6169 20.1481 50.5887 20.3556C50.5605 20.563 50.504 20.8148 50.4194 21.1111C50.3629 21.3778 50.2782 21.763 50.1653 22.2667H50.123C49.9536 22.5333 49.8549 22.7407 49.8266 22.8889C49.7984 23.0074 49.742 23.1111 49.6573 23.2C49.5726 23.2593 49.4033 23.3333 49.1492 23.4222C48.8952 23.5111 48.4577 23.6593 47.8368 23.8667V23.8222C47.7804 23.8222 47.6957 23.8222 47.5828 23.8222C47.4981 23.7926 47.4275 23.7778 47.3711 23.7778L47.2441 23.6889C46.3127 23.1259 45.7764 22.6518 45.6353 22.2667L45.5929 22.1333C45.5647 22.1333 45.5365 22.1185 45.5083 22.0889L45.4659 22C45.4659 21.9407 45.4659 21.8963 45.4659 21.8667C45.4942 21.837 45.5083 21.7926 45.5083 21.7333C45.4518 21.7333 45.4095 21.7185 45.3813 21.6889L45.1696 21.6L45.1272 21.6889L45.0849 21.6444C44.9156 21.6444 44.7462 21.6444 44.5769 21.6444C44.4357 21.6148 44.2805 21.6 44.1111 21.6V21.6444H44.0265C43.8853 21.6444 43.6737 21.6593 43.3914 21.6889C43.1092 21.7185 42.7423 21.7333 42.2907 21.7333L39.2001 21.7778V21.8667C39.1154 21.8667 39.0731 21.837 39.0731 21.7778L38.8614 21.8667C38.8614 22.4593 38.8896 22.9778 38.946 23.4222C39.0025 23.8667 39.0307 24.3407 39.0307 24.8444H39.0731C39.1013 24.9037 39.1154 25.0222 39.1154 25.2V25.5556H39.2001L39.2847 26.5778V26.6667C39.2565 26.8148 39.2847 26.9926 39.3694 27.2C39.4823 27.3778 39.6517 27.6741 39.8775 28.0889C40.1315 28.5926 40.3573 28.963 40.5548 29.2C40.7524 29.4074 40.9218 29.5556 41.0629 29.6444C41.204 29.7333 41.3028 29.7926 41.3592 29.8222C41.4439 29.8519 41.4863 29.9259 41.4863 30.0444H41.6133C41.6133 30.0741 41.6556 30.1185 41.7403 30.1778C41.825 30.237 42.1072 30.3704 42.587 30.5778C42.9822 30.7852 43.2503 30.8889 43.3914 30.8889V30.9333L45.8046 31.6889L45.8893 31.6444L47.2441 31.7778V31.8667L48.6412 31.9111C48.6694 31.9407 49.121 31.9556 49.996 31.9556V32H50.2923C51.1391 31.8815 51.5907 31.7926 51.6471 31.7333L52.1128 31.5556L53.1289 31.2889L54.1027 30.6667C54.4414 30.4593 54.6107 30.3556 54.6107 30.3556C54.6389 30.3556 54.6672 30.3111 54.6954 30.2222H54.7801C54.8083 30.1926 54.8789 30.1037 54.9917 29.9556C55.1046 29.8074 55.2599 29.6 55.4575 29.3333L55.5845 29.1556H55.7115C55.7115 29.1259 55.7538 29.037 55.8385 28.8889C55.9514 28.7407 56.0643 28.5778 56.1772 28.4C56.3183 28.2222 56.4312 28.0593 56.5159 27.9111C56.6288 27.763 56.6852 27.6741 56.6852 27.6444L56.6006 27.6889C56.6288 27.5111 56.6711 27.3037 56.7276 27.0667C56.784 26.8 56.8405 26.5926 56.8969 26.4444V26.3111L57.1933 24.7111C57.3062 24.3556 57.3485 23.9407 57.3203 23.4667C57.2921 22.9926 57.3344 22.5778 57.4473 22.2222L57.6166 19.3778C57.6166 19.2296 57.6025 19.1111 57.5743 19.0222C57.5743 18.9037 57.5743 18.6519 57.5743 18.2667C57.5743 17.8815 57.5884 17.6444 57.6166 17.5556C57.6449 17.4667 57.659 17.363 57.659 17.2444C57.659 17.0074 57.6449 16.8741 57.6166 16.8444V16.2222H57.4896ZM56.4735 18.3111V24.9778L56.2619 25.8667C56.2336 26.0741 56.2054 26.2222 56.1772 26.3111C56.1772 26.3704 56.1772 26.4444 56.1772 26.5333H56.1348C56.0784 26.5926 56.0361 26.7704 56.0078 27.0667H55.9232V27.2889L55.5421 28.1778C55.5139 28.2074 55.4998 28.237 55.4998 28.2667C55.4998 28.2963 55.4857 28.3259 55.4575 28.3556C55.4575 28.3852 55.4575 28.4296 55.4575 28.4889L55.3728 28.6222C55.3163 28.8296 55.2458 28.9778 55.1611 29.0667C55.1046 29.1556 54.9776 29.3037 54.7801 29.5111L53.637 30.1778C53.5805 30.2074 53.5241 30.2222 53.4676 30.2222C53.4394 30.2222 53.3971 30.237 53.3406 30.2667L52.4939 30.6667H52.3245V30.7556L51.6048 30.8889L50.377 31.0667V31.0222C50.3488 31.0519 50.2782 31.0667 50.1653 31.0667V31.0222C50.1371 31.0519 50.1089 31.0667 50.0807 31.0667L46.9477 31.2L46.609 31.1556V31.0667L43.9841 30.4V30.3111C43.8148 30.3111 43.716 30.2963 43.6878 30.2667L43.6031 30.1778C43.0104 29.8519 42.6576 29.6593 42.5447 29.6C42.4318 29.5111 42.3612 29.437 42.333 29.3778L41.7403 29.0222C41.4298 28.4296 41.1899 27.9852 41.0205 27.6889C40.8512 27.3926 40.7524 27.2296 40.7242 27.2L40.6395 26.6667C40.6113 26.6667 40.5548 26.5778 40.4702 26.4C40.4137 26.1926 40.3573 25.9704 40.3008 25.7333C40.2161 25.4667 40.1315 25.1556 40.0468 24.8L39.7081 23.4667C39.6799 23.437 39.6658 23.3481 39.6658 23.2C39.6658 22.9037 39.7081 22.7259 39.7928 22.6667C39.8774 22.6074 39.9057 22.5778 39.8775 22.5778H40.0468V22.4889L42.5023 22.2222H43.8571V22.1333L44.4498 22.0889C44.4781 22.1185 44.6192 22.1333 44.8732 22.1333C44.9014 22.4 44.9438 22.6519 45.0002 22.8889C45.0567 23.0963 45.1131 23.2889 45.1696 23.4667L45.1272 23.6444C45.1272 23.6741 45.1837 23.7185 45.2966 23.7778C45.4377 23.837 45.5083 23.9556 45.5083 24.1333L45.5506 24.2222C45.6071 24.3111 45.6494 24.3704 45.6776 24.4C45.7341 24.4296 45.7905 24.4741 45.847 24.5333L47.7098 25.2444C47.7662 25.2741 47.8791 25.3037 48.0485 25.3333C48.2461 25.3333 48.4295 25.3333 48.5989 25.3333C48.6553 25.3333 48.7118 25.3333 48.7682 25.3333C48.8247 25.3037 48.867 25.2889 48.8952 25.2889L49.742 25.0222L49.9113 24.8444C49.9395 24.8148 50.0666 24.6519 50.2923 24.3556C50.5181 24.0593 50.8427 23.6296 51.2661 23.0667L51.3931 22.0889H51.4778L51.5625 19.4667C51.5625 19.2296 51.5483 19.0222 51.5201 18.8444C51.4919 18.637 51.4778 18.4296 51.4778 18.2222H51.5625L51.3084 17.9111C51.2802 17.8815 51.252 17.8222 51.2238 17.7333C51.2238 17.6148 51.2238 17.5407 51.2238 17.5111C51.0544 17.5111 50.9133 17.5556 50.8004 17.6444C50.7157 17.7333 50.6028 17.8074 50.4617 17.8667L49.0646 18.0444C48.9235 18.0444 48.7541 18.0593 48.5565 18.0889C48.3872 18.0889 48.2037 18.0889 48.0061 18.0889C47.9215 18.0889 47.8227 18.0889 47.7098 18.0889C47.5969 18.0593 47.4699 18.0296 47.3288 18H46.6514L44.5345 17.6889L42.714 16.8889C42.6858 16.8593 42.6717 16.8296 42.6717 16.8L42.5023 16.8444C42.4741 16.8444 42.4318 16.8148 42.3753 16.7556L42.1213 16.4889C42.0366 16.3704 41.6979 16.0593 41.1052 15.5556L40.9782 15.4222C40.8653 15.2444 40.7665 15.0963 40.6819 14.9778C40.6254 14.8296 40.569 14.7111 40.5125 14.6222L40.3008 14.0444C40.1597 13.5407 40.0891 13.2741 40.0891 13.2444H40.0468L39.9621 11.6444C39.9621 11.4963 39.9621 11.3481 39.9621 11.2C39.9904 11.0222 40.0045 10.8593 40.0045 10.7111C39.9762 10.1481 39.9621 9.71852 39.9621 9.42222C39.9621 9.09629 39.9621 8.87407 39.9621 8.75556C39.9621 8.60741 39.9621 8.48889 39.9621 8.4C39.9904 8.28148 40.0186 8.16296 40.0468 8.04445C40.1597 7.27408 40.2303 6.68148 40.2585 6.26667C40.3149 5.85185 40.3432 5.62963 40.3432 5.6L40.4278 5.46667L40.4702 5.51111C40.5266 5.51111 40.5831 5.39259 40.6395 5.15556C40.696 4.88889 40.8794 4.5037 41.1899 4C41.4439 3.73333 41.6415 3.52592 41.7826 3.37778C41.952 3.22963 42.079 3.11111 42.1636 3.02222L42.3753 2.8C42.3753 2.8 42.4036 2.78519 42.46 2.75556H42.5447C42.6011 2.6963 42.6999 2.62222 42.841 2.53333C42.9822 2.44444 43.3209 2.23704 43.8571 1.91111L44.1535 1.86667L46.101 1.64445V1.55555L49.3609 1.37778C49.6432 1.31852 49.7702 1.28889 49.742 1.28889C49.8549 1.28889 50.7581 1.33333 52.4515 1.42222L53.7216 1.86667L53.891 2.04445C53.9474 2.13333 54.0039 2.19259 54.0603 2.22222C54.145 2.25185 54.2438 2.31111 54.3567 2.4C54.4978 2.45926 54.6531 2.57778 54.8224 2.75556C54.9918 2.93333 55.1893 3.2 55.4151 3.55556C55.8949 4.32593 56.1913 4.96296 56.3042 5.46667C56.4453 5.94074 56.5159 6.38518 56.5159 6.8H56.5582C56.5864 6.85926 56.6006 7.11111 56.6006 7.55555H56.6429V13.4222L56.4735 14.0889V18.3111ZM51.3084 9.91111C51.3084 9.79259 51.3225 9.71852 51.3508 9.68889L51.3084 9.37778C51.2802 9.34815 51.1814 9.22963 51.0121 9.02222C50.8709 8.78518 50.6452 8.45926 50.3347 8.04445V8C50.1371 7.91111 49.9678 7.83704 49.8266 7.77778C49.6855 7.71852 49.5444 7.67407 49.4033 7.64444L47.7945 7.55555V7.6C47.5687 7.6 47.4417 7.61481 47.4134 7.64444L47.2017 7.73334C47.2017 7.82222 47.0324 8.05926 46.6937 8.44444L46.609 8.62222C46.5526 8.62222 46.5244 8.63704 46.5244 8.66666L46.228 9.68889C46.228 9.74815 46.2139 9.82222 46.1857 9.91111C46.1857 9.97037 46.1857 10.0296 46.1857 10.0889L46.228 10.3556H46.3127L46.228 10.4444C46.228 10.5037 46.2421 10.5333 46.2703 10.5333L46.5244 11.5111H46.609V11.6L47.1594 12.2222C47.2441 12.3111 47.3429 12.3852 47.4558 12.4444H47.5404C47.8791 12.5926 48.1332 12.7111 48.3025 12.8C48.5001 12.8593 48.6271 12.9037 48.6835 12.9333L48.7682 12.8H49.7843L49.996 12.7111L50.3347 12.4889C50.4194 12.4593 50.4899 12.3556 50.5464 12.1778L50.7581 12.1333C50.9556 11.8963 51.1391 11.1556 51.3084 9.91111ZM49.6996 12.3111C49.5585 12.3111 49.4738 12.3259 49.4456 12.3556V12.4444H48.6412V12.3556L47.9638 12.1333C47.2017 11.3333 46.8207 10.6222 46.8207 10C46.8207 9.85185 46.8207 9.70371 46.8207 9.55556C46.8489 9.40741 46.8772 9.25926 46.9054 9.11111L47.2864 8.44444C47.3993 8.41481 47.6251 8.35556 47.9638 8.26667C48.3025 8.14815 48.6412 8.05926 48.9799 8C49.6008 8 50.0807 8.25185 50.4194 8.75556C50.7863 9.22963 50.9697 9.65926 50.9697 10.0444C50.9697 10.0444 50.9415 10.1926 50.8851 10.4889L49.996 12.1333L49.6996 12.3111Z" fill="#9EB5C8"/>
<path d="M79.619 11.6889L79.5766 10.3556C79.5766 10.1778 79.5625 10 79.5343 9.82222C79.5061 9.61481 79.4778 9.46667 79.4496 9.37778V9.02222C79.4214 8.9037 79.3508 8.68148 79.2379 8.35555C79.1533 8.02963 79.0545 7.7037 78.9416 7.37778C78.8287 7.02222 78.7158 6.72592 78.6029 6.48889C78.5182 6.22222 78.4759 6.08889 78.4759 6.08889V5.91111L78.1372 5.37778C78.1089 5.31852 78.0807 5.27407 78.0525 5.24444C78.0525 5.18518 78.0384 5.12593 78.0102 5.06667L77.9255 4.97778C77.7279 4.74074 77.5727 4.5037 77.4598 4.26667C77.3469 4 77.2622 3.79259 77.2058 3.64444H77.1211V3.51111L76.105 2.57778C76.0768 2.54815 76.0486 2.51852 76.0203 2.48889C76.0203 2.45926 76.0062 2.42963 75.978 2.4L75.724 2.31111C75.6675 2.22222 75.3994 2.08889 74.9196 1.91111C74.6091 1.79259 74.3833 1.7037 74.2422 1.64445C74.1293 1.58518 74.0446 1.54074 73.9881 1.51111C73.9317 1.45185 73.8752 1.40741 73.8188 1.37778C73.7906 1.34815 73.7059 1.3037 73.5648 1.24444L71.9136 0.755556L71.0669 0.71111C70.7282 0.71111 70.4318 0.755555 70.1778 0.844445L68.823 0.888889V0.977779L68.1456 1.02222L66.9179 1.33333V1.42222L66.7062 1.51111L66.4522 1.6C66.3957 1.65926 66.1558 1.79259 65.7324 2H65.6478C65.6195 2 65.6054 2.02963 65.6054 2.08889C65.3514 2.14815 65.2103 2.22222 65.1821 2.31111C65.1821 2.4 65.1397 2.44445 65.055 2.44445V2.57778C64.9986 2.63704 64.928 2.6963 64.8434 2.75556C64.7869 2.81482 64.7305 2.87407 64.674 2.93333L64.293 3.33333V3.42222C64.2365 3.48148 64.1801 3.54074 64.1236 3.6C64.0672 3.62963 64.0248 3.65926 63.9966 3.68889V3.82223C63.9684 3.82223 63.9261 3.85185 63.8696 3.91111V4L63.4462 4.44444C63.0229 5.03704 62.8112 5.33333 62.8112 5.33333L62.7265 5.51111C62.6418 5.51111 62.6136 5.55556 62.6418 5.64444C62.6701 5.7037 62.5572 5.86667 62.3031 6.13333V6.22222C62.2185 6.48889 62.0773 6.82963 61.8798 7.24444C61.6822 7.62963 61.5975 7.83703 61.6258 7.86666L61.3717 8.71111L61.2871 9.37778L61.2024 9.77778C61.2024 9.80741 61.1742 9.97037 61.1177 10.2667C61.0895 10.5333 61.0471 10.9185 60.9907 11.4222L60.906 12.1333L60.8214 12.6222L60.7367 13.0222C60.7085 13.1704 60.6943 13.3185 60.6943 13.4667C60.6943 13.6148 60.6943 13.763 60.6943 13.9111V14.7111L60.3556 16.6667L60.4403 18.4444C60.4685 18.5926 60.4827 18.7259 60.4827 18.8444C60.4827 18.963 60.4827 19.0815 60.4827 19.2L60.4403 19.3333C60.4685 19.3333 60.4827 19.363 60.4827 19.4222H60.4403C60.4403 19.4815 60.4262 19.5259 60.398 19.5556C60.398 19.5852 60.398 19.6148 60.398 19.6444C60.398 19.9407 60.4544 20.1481 60.5673 20.2667L60.6097 21.8667H60.6943L60.7367 22.3556L60.8214 22.9333H60.906V23.0667L60.9907 23.6444L61.5411 25.2V25.3778H61.6258L61.6681 25.5111C61.6681 25.5704 61.6681 25.6148 61.6681 25.6444C61.6963 25.6444 61.7104 25.6741 61.7104 25.7333H61.7528C61.781 25.763 61.908 26.0444 62.1338 26.5778L62.1761 26.6667C62.1761 26.8444 62.2326 26.9333 62.3455 26.9333C62.4584 26.9037 62.5148 27.037 62.5148 27.3333H62.5572C62.6136 27.3926 62.6277 27.437 62.5995 27.4667C62.5995 27.4667 62.656 27.5259 62.7689 27.6444V27.7333C62.8253 27.7926 62.8959 27.837 62.9805 27.8667V28C63.037 28.0593 63.0793 28.1037 63.1075 28.1333C63.164 28.1333 63.291 28.2667 63.4886 28.5333L63.9119 28.9778V29.1111C63.9402 29.1407 63.9684 29.1704 63.9966 29.2C64.0248 29.2 64.0531 29.2148 64.0813 29.2444V29.3333C64.3071 29.5111 64.5188 29.7333 64.7164 30C64.9421 30.237 65.1821 30.4296 65.4361 30.5778V30.7111C65.5208 30.7111 65.6054 30.7556 65.6901 30.8444L67.5529 31.5111L67.934 31.6C67.934 31.6296 68.0327 31.6593 68.2303 31.6889C68.4561 31.7185 68.696 31.7481 68.9501 31.7778C69.2041 31.8074 69.444 31.837 69.6698 31.8667C69.9238 31.8667 70.079 31.8667 70.1355 31.8667L70.7705 31.9556H70.9399L72.5487 31.6C72.5769 31.5704 72.6051 31.5556 72.6334 31.5556C72.6616 31.5556 72.6898 31.5407 72.718 31.5111L73.6071 31.0667C73.8611 30.9185 74.0587 30.8296 74.1998 30.8C74.341 30.7407 74.4256 30.6815 74.4539 30.6222L75.6393 30.0889C75.6675 30.0889 75.6957 30.0889 75.724 30.0889C75.7522 30.0593 75.7804 30.0444 75.8086 30.0444L75.8933 30C76.0344 29.7926 76.1473 29.6296 76.232 29.5111C76.3449 29.363 76.4437 29.2296 76.5284 29.1111C76.6413 28.9926 76.7542 28.8741 76.8671 28.7556C76.98 28.637 77.1352 28.4741 77.3328 28.2667L77.4174 27.9556H77.5021C77.5021 27.9259 77.488 27.8963 77.4598 27.8667L78.1372 26.4444L78.2642 26.1333C78.3206 26.0741 78.3489 26.0296 78.3489 26C78.3489 25.9704 78.3771 25.9259 78.4335 25.8667L79.0686 23.6444L79.1533 23.2L79.3649 22.0444L79.4496 21.4222C79.4496 21.2444 79.4637 21.0519 79.492 20.8444C79.5202 20.6074 79.5625 20.4 79.619 20.2222V19.8667C79.6754 19.6593 79.7178 19.437 79.746 19.2C79.8024 18.963 79.8589 18.7259 79.9153 18.4889C79.9153 18.3704 79.9012 18.2667 79.873 18.1778C79.873 18.0593 79.873 17.9259 79.873 17.7778C79.9577 17.4815 80 17.1704 80 16.8444C80 16.6074 79.9859 16.4444 79.9577 16.3556C79.9294 16.237 79.9153 16.1185 79.9153 16C79.9436 16 79.9577 15.9852 79.9577 15.9556C79.9577 15.8667 79.9718 15.7926 80 15.7333V14.8444C80 14.6963 79.9859 14.563 79.9577 14.4444C79.9577 14.3259 79.9577 14.1926 79.9577 14.0444H79.9153L79.619 11.6889ZM78.9839 15.7333C78.9557 16.1185 78.8992 16.563 78.8146 17.0667C78.7581 17.5407 78.6876 18.0296 78.6029 18.5333C78.5182 19.037 78.4476 19.5407 78.3912 20.0444C78.3347 20.5185 78.3065 20.9481 78.3065 21.3333H78.2642C78.236 21.6296 78.1936 21.8222 78.1372 21.9111H78.0948L77.6291 24.0444L77.5021 24.1333L76.9094 25.6889C76.853 25.6889 76.8106 25.763 76.7824 25.9111C76.7542 26.0296 76.7401 26.0741 76.7401 26.0444H76.6554C76.6554 26.163 76.6272 26.237 76.5707 26.2667C76.5143 26.2667 76.486 26.3259 76.486 26.4444L76.4014 26.6667C76.3731 26.6963 76.3449 26.7111 76.3167 26.7111L75.6816 27.9556C75.5687 27.9556 75.5264 28.0148 75.5546 28.1333C75.5828 28.2222 75.5405 28.2667 75.4276 28.2667C75.4558 28.2963 75.4699 28.3259 75.4699 28.3556C75.4417 28.3852 75.4135 28.4148 75.3853 28.4444C75.357 28.4444 75.3288 28.4593 75.3006 28.4889V28.5778L74.6232 29.5111H74.5385C74.3127 29.7481 74.1293 29.9111 73.9881 30C73.847 30.0889 73.7341 30.1333 73.6495 30.1333V30.1778L73.2684 30.4C73.212 30.4 73.1414 30.4148 73.0567 30.4444C72.9721 30.4741 72.9297 30.5185 72.9297 30.5778L71.6173 30.9778C71.4762 31.0074 71.3209 31.0222 71.1516 31.0222C70.9822 31.0222 70.827 31.037 70.6859 31.0667V31.1111C70.6294 31.1111 70.573 31.1259 70.5165 31.1556C70.4601 31.1556 70.4036 31.1556 70.3472 31.1556C70.1496 31.1556 69.952 31.1556 69.7545 31.1556C69.5569 31.1259 69.4299 31.0963 69.3734 31.0667L67.7223 30.6222L67.6376 30.4889C67.186 30.3111 66.8614 30.1778 66.6638 30.0889C66.4945 29.9704 66.3816 29.8963 66.3252 29.8667C66.2969 29.8074 66.2828 29.7778 66.2828 29.7778C66.311 29.7778 66.2969 29.7778 66.2405 29.7778V29.7333C66.2123 29.7037 66.1699 29.6741 66.1135 29.6444C66.057 29.6148 65.9865 29.5852 65.9018 29.5556C65.8453 29.4963 65.7748 29.437 65.6901 29.3778H65.6054L65.5631 29.2444H65.4784C65.3373 29.1852 65.1538 29.0222 64.928 28.7556H64.801C64.7728 28.7259 64.7446 28.6963 64.7164 28.6667C64.7164 28.637 64.7022 28.6074 64.674 28.5778H64.5893L63.7426 27.6889L63.7003 27.5556C63.6438 27.5259 63.6156 27.4963 63.6156 27.4667C63.6156 27.4074 63.5874 27.3778 63.5309 27.3778L63.1499 26.7111L63.0229 26.6667L62.8959 26.2667V26.3111C62.8676 26.3111 62.7547 26.1481 62.5572 25.8222C62.3596 25.4963 62.2608 25.2148 62.2608 24.9778L62.1761 24.8889L62.0915 24.6222L61.9221 24.1778L61.4987 22.6667L61.4141 21.7778C61.4141 21.3926 61.4 21.1852 61.3717 21.1556L61.3294 20.8889L61.2447 19.8667H61.16C61.0754 18.9778 61.033 18.4444 61.033 18.2667V18.1333C61.2306 16.5333 61.3576 15.6593 61.4141 15.5111C61.3858 15.4519 61.3717 15.3185 61.3717 15.1111V14.5778L61.5411 11.7333C61.5411 11.5556 61.527 11.437 61.4987 11.3778L61.8798 9.15555L61.9645 8.75556L62.0491 8.48889C62.0491 8.34074 62.0773 8.23704 62.1338 8.17778L62.2185 7.91111L62.5148 7.28889C62.5148 7.25926 62.5148 7.22963 62.5148 7.2C62.5431 7.17037 62.5572 7.14074 62.5572 7.11111L62.5995 6.97778C62.9664 6.35556 63.2346 5.88148 63.4039 5.55555C63.6015 5.22963 63.7426 4.9926 63.8273 4.84445C63.9119 4.66667 63.9543 4.56296 63.9543 4.53333C63.9825 4.5037 64.0107 4.47407 64.039 4.44444V4.35556C64.0672 4.32593 64.0954 4.31111 64.1236 4.31111L64.293 3.95555C64.5188 3.77778 64.6317 3.64445 64.6317 3.55556H64.7587L64.8434 3.42222C65.0692 3.36296 65.2103 3.28889 65.2667 3.2L65.3091 3.15556H65.2244C65.1397 3.15556 65.0974 3.12593 65.0974 3.06667C65.1256 3.00741 65.6478 2.69629 66.6638 2.13333L66.8332 2.08889C66.8614 2.08889 66.8896 2.1037 66.9179 2.13333L69.0347 1.68889C69.0912 1.62963 69.2323 1.6 69.4581 1.6C69.5428 1.6 69.6274 1.61482 69.7121 1.64445C69.7968 1.64445 69.8673 1.64445 69.9238 1.64445L70.9822 1.68889C71.0387 1.68889 71.1233 1.67407 71.2362 1.64445C71.3491 1.61482 71.462 1.6 71.5749 1.6L73.9458 2.17778C73.9458 2.26667 73.974 2.31111 74.0305 2.31111C74.0869 2.31111 74.1434 2.32593 74.1998 2.35556V2.4L75.7663 3.46667L75.851 3.68889C75.9074 3.71852 75.9357 3.74815 75.9357 3.77778C75.9639 3.77778 76.0062 3.79259 76.0627 3.82223L76.105 4C76.1332 4.02963 76.1473 4.08889 76.1473 4.17778H76.232C76.4578 4.59259 76.5989 4.84444 76.6554 4.93333C76.7118 5.02222 76.7683 5.0963 76.8247 5.15556V5.24444C76.8812 5.3037 76.9235 5.33333 76.9517 5.33333V5.46667C77.0082 5.46667 77.0646 5.4963 77.1211 5.55555V5.64444C77.1493 5.67407 77.1775 5.68889 77.2058 5.68889L77.9255 7.51111L78.0102 7.91111C78.0102 8.11852 78.0384 8.2963 78.0948 8.44444C78.1795 8.56296 78.2642 8.6963 78.3489 8.84445C78.4335 8.99259 78.5041 9.15555 78.5605 9.33333C78.6452 9.51111 78.6876 9.74815 78.6876 10.0444C78.6876 10.163 78.6734 10.2815 78.6452 10.4C78.6452 10.5185 78.6452 10.6222 78.6452 10.7111C78.6452 10.8889 78.6876 10.9778 78.7722 10.9778L78.8146 11.2444C78.7863 11.2741 78.7722 11.3185 78.7722 11.3778L78.9416 12.4889C78.9416 12.6667 78.9557 12.7556 78.9839 12.7556V13.4222C79.0121 13.4815 79.0262 13.6593 79.0262 13.9556C79.0545 14.2222 79.0686 14.4593 79.0686 14.6667V14.8444H79.0262L78.9839 15.7333ZM73.8188 14.8889C73.8188 14.2963 73.7906 13.7333 73.7341 13.2C73.7059 12.6667 73.6777 12.1037 73.6495 11.5111H73.6071C73.6353 11.4815 73.6495 11.437 73.6495 11.3778L73.5648 10.3111H73.4801L73.4378 10.0444C73.4378 9.86667 73.4237 9.68889 73.3954 9.51111C73.3954 9.3037 73.3954 9.11111 73.3954 8.93333H73.3108C73.3108 8.78518 73.2825 8.71111 73.2261 8.71111H73.1414C73.1132 8.71111 73.0426 8.63704 72.9297 8.48889C72.8451 8.34074 72.7322 8.17778 72.591 8C72.4781 7.82222 72.3793 7.65926 72.2947 7.51111C72.21 7.36296 72.1677 7.28889 72.1677 7.28889H72.083C72.0548 7.25926 72.0124 7.22963 71.956 7.2C71.8995 7.14074 71.8007 7.05185 71.6596 6.93333L71.4056 6.84444V6.75556C71.3209 6.75556 71.2645 6.77037 71.2362 6.8V6.71111C71.1516 6.74074 70.9822 6.75556 70.7282 6.75556L70.0508 6.84444C68.9218 7.34815 68.3432 7.6 68.315 7.6L68.188 7.64444C68.188 7.7037 68.1739 7.73334 68.1456 7.73334C67.8916 7.94074 67.6658 8.14815 67.4683 8.35555C67.2707 8.56296 67.1719 8.94815 67.1719 9.51111C67.0308 9.65926 66.9602 9.86666 66.9602 10.1333L66.8755 12.1778L66.7062 13.3333V15.7333C66.7062 15.7926 66.7203 15.837 66.7485 15.8667V17.1556C66.8332 17.3037 66.8755 17.5704 66.8755 17.9556C66.8755 18.163 66.8473 18.3556 66.7909 18.5333C66.7626 18.7111 66.7485 19.037 66.7485 19.5111C66.7485 19.6 66.7485 19.6741 66.7485 19.7333C66.7767 19.7926 66.7909 19.8519 66.7909 19.9111H66.9179V21.6H67.0025L67.0449 21.7778C67.1013 22.4593 67.2283 23.1407 67.4259 23.8222C67.6517 24.4741 68.0045 24.963 68.4843 25.2889L68.569 25.3778C68.7101 25.4667 68.8795 25.5407 69.0771 25.6C69.2746 25.6296 69.4722 25.6741 69.6698 25.7333L69.9238 25.7778C69.952 25.7481 69.9802 25.7333 70.0085 25.7333V25.7778C70.0649 25.7778 70.1214 25.7926 70.1778 25.8222C70.2625 25.8222 70.3331 25.8222 70.3895 25.8222C70.6718 25.8222 70.8834 25.7778 71.0246 25.6889L71.2362 25.6444C71.3491 25.5852 71.5044 25.5111 71.702 25.4222C71.9277 25.3333 72.0406 25.2444 72.0406 25.1556L72.7604 24.5333V24.4444L73.0567 24.0889C73.1414 24 73.1837 23.9111 73.1837 23.8222H73.2261C73.2543 23.7926 73.2684 23.7185 73.2684 23.6L73.5224 22.8889C73.5224 22.6222 73.5366 22.4741 73.5648 22.4444L73.6495 21.8667L73.8188 20C73.8188 19.8222 73.8047 19.6593 73.7765 19.5111C73.7765 19.3333 73.7765 19.1704 73.7765 19.0222C73.8047 18.9926 73.8188 18.8444 73.8188 18.5778V17.7778C73.8188 17.4518 73.8329 17.2593 73.8611 17.2L73.9035 16.3556C73.9035 16.2074 73.8894 16.0741 73.8611 15.9556C73.8611 15.8074 73.847 15.6593 73.8188 15.5111V14.8889ZM73.1414 18.3556V19.1111H73.0991C73.0991 19.3481 73.0991 19.6296 73.0991 19.9556C73.1273 20.2519 73.1414 20.5185 73.1414 20.7556V21.4667C73.1414 21.8222 73.1273 22.0444 73.0991 22.1333L72.7604 23.2C72.7322 23.2296 72.718 23.3333 72.718 23.5111C72.4922 23.9259 72.3229 24.1333 72.21 24.1333V24.1778C72.1818 24.2074 72.1394 24.237 72.083 24.2667C72.0548 24.2667 72.0406 24.2963 72.0406 24.3556H71.9136C71.9136 24.4148 71.8995 24.4444 71.8713 24.4444H71.7866L71.7443 24.5778L69.8391 24.8889L69.6698 24.8C69.3875 24.7407 69.1053 24.6222 68.823 24.4444C68.569 24.2667 68.442 24.0741 68.442 23.8667H68.3997C68.3432 23.7185 68.2868 23.5852 68.2303 23.4667C68.1739 23.3481 68.1174 23.2148 68.061 23.0667L68.0186 22.7556L67.934 22.1333C67.934 22.0741 67.9199 22.0444 67.8916 22.0444C67.8916 22.0148 67.8916 21.9704 67.8916 21.9111H67.8493C67.8493 21.763 67.8352 21.6148 67.807 21.4667C67.807 21.3185 67.807 21.1704 67.807 21.0222H67.7646C67.7364 20.8741 67.7223 20.7407 67.7223 20.6222C67.7223 20.4741 67.7223 20.3259 67.7223 20.1778L67.6799 18.6222H67.5953L67.5529 17.3778C67.4118 16.8444 67.3412 16.3111 67.3412 15.7778C67.3412 15.3333 67.3836 14.9333 67.4683 14.5778L67.3836 14.4444H67.4259C67.4541 14.4148 67.4683 14.1926 67.4683 13.7778V13.7333L67.4259 13.7778L67.4683 13.7333L67.5106 12.3111C67.5106 12.2519 67.6376 11.5704 67.8916 10.2667H67.9763C67.9763 10.0889 67.9622 9.98518 67.934 9.95556H68.0186V9.68889L68.1033 9.42222C68.1598 9.36296 68.2021 9.28889 68.2303 9.2C68.2585 9.11111 68.3009 9.05185 68.3573 9.02222V8.93333C68.6114 8.66667 68.8654 8.44445 69.1194 8.26667C69.3734 8.08889 69.698 8 70.0931 8C70.6012 8 70.9963 8.07407 71.2786 8.22222C71.5891 8.34074 71.829 8.48889 71.9983 8.66666C72.1677 8.81481 72.2806 8.96296 72.337 9.11111C72.4217 9.22963 72.4922 9.28889 72.5487 9.28889L72.591 9.42222C72.6193 9.51111 72.6334 9.61481 72.6334 9.73333C72.6334 9.82222 72.6475 9.91111 72.6757 10H72.718C72.718 10.237 72.7322 10.4741 72.7604 10.7111C72.7886 10.9185 72.8027 11.1407 72.8027 11.3778L72.8874 12.6667C73.0003 12.9926 73.0567 13.3778 73.0567 13.8222C73.085 14.2667 73.0991 14.6667 73.0991 15.0222H73.1414C73.1132 15.0519 73.0991 15.0815 73.0991 15.1111L73.1414 16.1778H73.2261C73.1979 16.2074 73.1837 16.237 73.1837 16.2667L73.1414 16.4H73.2261L73.1837 16.8V18.3556H73.1414Z" fill="#9EB5C8"/>
</svg>
