<svg width="80" height="32" viewBox="0 0 80 32" fill="none" xmlns="http://www.w3.org/2000/svg">
<path d="M14.2195 1.82222C14.2195 1.67407 14.2195 1.52593 14.2195 1.37778C14.2483 1.22963 14.2626 1.08148 14.2626 0.933331H14.2195C14.1908 0.874073 14.1764 0.844444 14.1764 0.844444C14.1764 0.814815 14.1621 0.77037 14.1334 0.71111H14.0472C14.0759 0.681481 14.0903 0.607407 14.0903 0.488888C14.0615 0.459259 14.0472 0.429629 14.0472 0.4C14.0472 0.34074 14.0328 0.296295 14.0041 0.266666L13.8317 0.222222C13.7743 0.162964 13.7455 0.133334 13.7455 0.133334C13.7455 0.103703 13.7025 0.0888877 13.6163 0.0888877C13.5301 0.0888877 13.4439 0.103703 13.3577 0.133334C13.3003 0.162964 13.2572 0.177778 13.2285 0.177778V0.133334C13.0561 0.133334 12.8838 0.162964 12.7114 0.222222C12.539 0.251851 12.3667 0.266666 12.1943 0.266666H12.2374V0.133334C12.1225 0.133334 12.0507 0.118519 12.022 0.0888877C11.9932 0.0592585 11.7922 0.0444439 11.4187 0.0444439C11.3038 0.0444439 11.1458 0.0592585 10.9447 0.0888877C10.7436 0.0888877 10.5282 0.0888877 10.2984 0.0888877C10.0973 0.0888877 9.89622 0.103703 9.69513 0.133334C9.52278 0.133334 9.37914 0.133334 9.26424 0.133334C9.0057 0.133334 8.86207 0.118519 8.83334 0.0888877V0.177778C8.80462 0.148149 8.6179 0.133334 8.27318 0.133334V0.0444439C8.21573 0.0444439 8.14391 0.0444439 8.05773 0.0444439C8.00028 0.0148146 7.94283 0 7.88538 0V0.0888877C7.85665 0.0592585 7.82792 0.0444439 7.7992 0.0444439C7.77047 0.0444439 7.74174 0.0296292 7.71302 0L6.67887 0.0444439V0.133334C6.65014 0.162964 6.57833 0.177778 6.46342 0.177778C6.40597 0.177778 6.34852 0.177778 6.29107 0.177778C6.23361 0.148149 6.17616 0.133334 6.11871 0.133334L5.08456 0.177778C4.94093 0.177778 4.85475 0.192593 4.82602 0.222222V0.0888877C4.71112 0.148148 4.62494 0.281481 4.56749 0.488888C4.53876 0.696296 4.49567 0.85926 4.43822 0.977779L4.26586 1.2C4.23713 1.25926 4.22277 1.31852 4.22277 1.37778C4.22277 1.40741 4.20841 1.45185 4.17968 1.51111L3.96423 1.91111C3.96423 1.97037 3.94987 2.01482 3.92114 2.04444C3.92114 2.07407 3.92114 2.1037 3.92114 2.13333L3.66261 2.53333C3.51897 2.85926 3.40407 3.15556 3.31789 3.42222C3.23171 3.68889 3.18862 3.85185 3.18862 3.91111L2.62846 5.02222H2.54228L2.4561 5.24444C2.4561 5.48148 2.31247 5.79259 2.02521 6.17778L1.98212 6.31111C1.95339 6.31111 1.92466 6.32593 1.89594 6.35556V6.53333L0.8187 8.93333H0.732521C0.732521 9.11111 0.718158 9.21481 0.689432 9.24444L0.560163 9.46667C0.502711 9.58519 0.459621 9.68889 0.430895 9.77778L0.387805 10C0.359079 10.0296 0.330353 10.0444 0.301626 10.0444V10.0889C0.215447 10.1778 0.129268 10.3407 0.0430895 10.5778L0 10.5333L0 10.6667C0.0574527 10.7259 0.114905 10.7556 0.172358 10.7556L0.129268 10.8889H0.215447C0.244174 10.9481 0.976695 11.1259 2.41301 11.4222C2.47046 11.4222 2.59973 11.437 2.80082 11.4667C3.03063 11.4667 3.18862 11.4963 3.2748 11.5556L3.57643 11.6444L3.53334 11.7333L4.05041 11.8667L4.00732 11.9111L4.35204 11.8667L4.69675 11.9556L4.78293 11.8667C4.81166 11.8667 4.86911 11.8815 4.95529 11.9111C5.04147 11.9111 5.15638 11.9259 5.30001 11.9556L5.42928 12.0444L5.86017 11.9556L6.03253 11.8222C6.06125 11.7926 6.07562 11.763 6.07562 11.7333C6.07562 11.7037 6.08998 11.6741 6.11871 11.6444L6.24798 11.3333C6.24798 11.3333 6.2767 11.2593 6.33416 11.1111H6.37724C6.49215 10.9926 6.59269 10.7852 6.67887 10.4889H6.76505C6.8225 10.4296 6.83687 10.3556 6.80814 10.2667C6.80814 10.1481 6.86559 10.0889 6.9805 10.0889L7.06668 9.82222C7.12413 9.7037 7.16722 9.58519 7.19594 9.46667C7.2534 9.34815 7.33958 9.24444 7.45448 9.15556L7.49757 9.11111V9.73333C7.49757 9.85185 7.48321 9.97037 7.45448 10.0889C7.45448 10.1778 7.45448 10.2815 7.45448 10.4H7.49757C7.49757 10.4296 7.48321 10.4593 7.45448 10.4889C7.45448 10.6667 7.45448 10.7852 7.45448 10.8444C7.48321 10.8741 7.49757 10.9185 7.49757 10.9778C7.49757 11.0667 7.48321 11.1556 7.45448 11.2444C7.45448 11.3037 7.45448 11.363 7.45448 11.4222V11.8222C7.48321 11.8222 7.49757 11.8519 7.49757 11.9111C7.49757 11.9704 7.48321 12.1481 7.45448 12.4444C7.45448 12.7111 7.44012 13.0963 7.41139 13.6H7.45448C7.45448 13.7481 7.44012 13.9704 7.41139 14.2667C7.41139 14.563 7.38267 14.7852 7.32521 14.9333C7.29649 15.7926 7.26776 16.4296 7.23903 16.8444C7.21031 17.2593 7.18158 17.5852 7.15285 17.8222C7.15285 18.0296 7.13849 18.2222 7.10977 18.4C7.10977 18.5481 7.10977 18.7704 7.10977 19.0667C7.10977 19.2148 7.12413 19.3037 7.15285 19.3333L7.19594 20.3111C7.13849 20.3704 7.05231 22.0593 6.93741 25.3778H6.9805C6.95177 25.5556 6.93741 25.7333 6.93741 25.9111C6.93741 26.0889 6.92304 26.2667 6.89432 26.4444V27.6444C6.89432 27.8815 6.89432 28.2963 6.89432 28.8889C6.92304 29.4519 6.95177 30.2074 6.9805 31.1556C6.95177 31.1852 6.93741 31.2296 6.93741 31.2889L6.9805 31.4667C6.9805 31.4963 7.00922 31.5407 7.06668 31.6V31.6444L7.15285 31.6V31.6444C7.21031 31.6444 7.23903 31.6296 7.23903 31.6C7.26776 31.5407 7.31085 31.5111 7.3683 31.5111C7.33958 31.5111 7.39703 31.5259 7.54066 31.5556C7.71302 31.5852 7.89974 31.6148 8.10082 31.6444C8.30191 31.6444 8.48863 31.6593 8.66099 31.6889C8.86207 31.7185 8.97698 31.7333 9.0057 31.7333L12.3667 31.7333C12.7689 31.7333 12.9987 31.7481 13.0561 31.7778V31.7333C13.171 31.7037 13.2428 31.6741 13.2716 31.6444C13.2428 31.5259 13.2141 31.4667 13.1854 31.4667C13.1854 31.437 13.1854 31.3926 13.1854 31.3333H13.7455C13.7455 31.2444 13.7312 31.1407 13.7025 31.0222C13.6737 30.8741 13.6594 30.7259 13.6594 30.5778C13.6594 30.4593 13.6737 30.3852 13.7025 30.3556C13.7599 30.2963 13.7886 30.237 13.7886 30.1778C13.7886 30.1481 13.7743 30.1185 13.7455 30.0889C13.7455 30.0593 13.7455 30.0296 13.7455 30L13.7886 29.9111C13.8174 29.8815 13.8317 29.763 13.8317 29.5556V29.0667C13.8317 28.5926 13.8174 28.2815 13.7886 28.1333C13.7599 27.9556 13.7455 27.7778 13.7455 27.6V26.9778C13.7455 26.8593 13.7455 26.5926 13.7455 26.1778C13.7455 25.763 13.7599 25.2148 13.7886 24.5333H13.7455C13.7455 24.3852 13.7455 24.3407 13.7455 24.4C13.7455 24.4296 13.7455 24.3556 13.7455 24.1778C13.7743 23.9704 13.7886 23.5556 13.7886 22.9333C13.8174 22.3111 13.8461 21.2593 13.8748 19.7778H13.9179V19.7333C13.9179 19.6741 13.9323 19.5259 13.961 19.2889C13.9897 19.0519 14.0041 18.7259 14.0041 18.3111L14.0472 13.7333C14.0759 13.5852 14.0903 13.437 14.0903 13.2889C14.0903 13.1407 14.1046 12.9926 14.1334 12.8444H14.0472L14.1334 12.8L14.1764 11.6C14.2339 11.3037 14.2626 11.1407 14.2626 11.1111H14.2195V9.24444C14.1908 9.21481 14.1764 9.03704 14.1764 8.71111V7.2C14.1764 6.78518 14.1908 6.47407 14.2195 6.26667C14.2483 6.05926 14.2626 5.94074 14.2626 5.91111L14.2195 2.08889C14.2195 2.02963 14.2195 2 14.2195 2C14.2483 2 14.2626 1.97037 14.2626 1.91111C14.2339 1.88148 14.2195 1.85185 14.2195 1.82222ZM12.9699 6.4C12.9699 6.48889 12.9843 6.54815 13.013 6.57778L12.9699 6.93333L13.013 11.9556V12.2667C13.013 12.5926 12.9987 12.9333 12.9699 13.2889C12.9412 13.6444 12.9268 13.9852 12.9268 14.3111C12.9268 14.5481 12.9268 14.7407 12.9268 14.8889C12.9556 15.037 12.9699 15.2148 12.9699 15.4222C12.9699 15.6296 12.9556 15.7481 12.9268 15.7778L12.9268 16.8C12.9268 16.8593 12.9125 16.9185 12.8838 16.9778C12.8838 17.037 12.8838 17.0963 12.8838 17.1556C12.8838 17.3333 12.8838 17.5111 12.8838 17.6889C12.9125 17.8667 12.9268 18.0296 12.9268 18.1778C12.9268 18.6222 12.9125 19.0963 12.8838 19.6C12.8838 20.0741 12.855 20.5185 12.7976 20.9333L12.8838 20.9778C12.855 21.0667 12.8407 21.2444 12.8407 21.5111L12.8838 22.3556V23.6C12.8838 23.6593 12.8981 23.7037 12.9268 23.7333C12.8981 23.763 12.8838 24 12.8838 24.4444C12.8838 24.7407 12.8838 25.0518 12.8838 25.3778C12.9125 25.7037 12.9268 26.0296 12.9268 26.3556C12.9268 27.363 12.9125 28.163 12.8838 28.7556C12.855 29.3185 12.7976 29.7481 12.7114 30.0444C12.6539 30.3407 12.5678 30.5333 12.4529 30.6222C12.3667 30.6815 12.2374 30.7111 12.0651 30.7111H11.5049C11.2751 30.7111 11.0884 30.7259 10.9447 30.7556L8.91952 30.9778C8.86207 30.9778 8.81898 30.9778 8.79025 30.9778C8.76153 30.9481 8.71844 30.9333 8.66099 30.9333L8.57481 30.9778C8.25882 30.9778 8.08646 30.963 8.05773 30.9333L8.01464 25.2444C8.04337 24.7111 8.05773 24.2815 8.05773 23.9556C8.08646 23.6296 8.10082 23.1556 8.10082 22.5333C8.10082 21.9111 8.10082 21.0222 8.10082 19.8667C8.12955 18.6815 8.187 16.9926 8.27318 14.8V14.2222C8.27318 13.9259 8.28755 13.7333 8.31627 13.6444C8.25882 13.6444 8.23009 13.5852 8.23009 13.4667H8.27318C8.33064 13.4074 8.35936 13.2889 8.35936 13.1111C8.35936 12.9333 8.35936 12.7556 8.35936 12.5778C8.35936 12.163 8.345 11.9259 8.31627 11.8667C8.31627 11.8074 8.31627 11.7481 8.31627 11.6889L8.40245 11.6444H8.31627C8.345 11.4667 8.35936 11.3185 8.35936 11.2C8.35936 11.0519 8.35936 10.9037 8.35936 10.7556V10.1333C8.33063 10.1037 8.31627 9.97037 8.31627 9.73333C8.31627 9.67407 8.31627 9.51111 8.31627 9.24444C8.345 8.97778 8.37372 8.62222 8.40245 8.17778C8.37372 8.14815 8.35936 8.02963 8.35936 7.82222C8.35936 7.55555 8.43118 7.34815 8.57481 7.2C8.48863 6.93333 8.40245 6.8 8.31627 6.8L8.23009 6.84444V6.75556C8.08646 6.81481 8.00028 6.88889 7.97156 6.97778L7.3683 7.82222L7.02359 8.57778H6.93741L6.20489 10.2222H6.11871V10.3111L6.1618 10.2667C6.04689 10.3852 5.94635 10.5037 5.86017 10.6222C5.80272 10.7407 5.74527 10.8593 5.68781 10.9778C5.63036 11.0667 5.60163 11.1556 5.60163 11.2444L5.55854 11.3333C5.52982 11.363 5.48673 11.3778 5.42928 11.3778L0.947969 10.1778C0.947969 10.2074 0.933606 10.237 0.904879 10.2667C0.904879 10.2074 0.976695 10.0593 1.12033 9.82222C1.26396 9.58518 1.33577 9.43704 1.33577 9.37778H1.37886C1.43632 9.25926 1.50813 9.06667 1.59431 8.8C1.68049 8.53333 1.75231 8.37037 1.80976 8.31111L1.89594 7.91111H1.98212L2.15447 7.42222C2.1832 7.36296 2.19756 7.33333 2.19756 7.33333C2.19756 7.3037 2.21193 7.25926 2.24065 7.2L2.62846 6.35556C2.65719 6.2963 2.67155 6.25185 2.67155 6.22222C2.70027 6.16296 2.729 6.1037 2.75773 6.04444L3.05935 5.28889L3.14553 5.24444L3.2748 4.8L3.92114 3.46667C3.94987 3.40741 3.96423 3.37778 3.96423 3.37778C3.96423 3.34815 3.9786 3.3037 4.00732 3.24444L4.13659 2.84444C4.19404 2.84444 4.23713 2.82963 4.26586 2.8L4.26586 2.66667C4.29459 2.63704 4.3664 2.51852 4.48131 2.31111C4.59621 2.07407 4.73984 1.80741 4.9122 1.51111H4.95529L4.9122 1.37778H5.17074C5.3431 1.37778 5.44364 1.36296 5.47236 1.33333V1.37778C6.10434 1.34815 6.63578 1.33333 7.06668 1.33333C7.49757 1.33333 7.84229 1.33333 8.10082 1.33333L9.17806 1.33333L10.5138 1.15556L11.9789 1.15556V1.06667H13.0992C13.0992 1.24444 13.0992 1.43704 13.0992 1.64444C13.1279 1.85185 13.1423 2.07407 13.1423 2.31111V2.75555C13.1136 2.75555 13.0848 2.77037 13.0561 2.8V3.6L12.9699 6.4Z" fill="#CDDAE6"/>
<path d="M36.4197 16.2222L36.3766 13.9111C36.3192 13.4667 36.2761 13.0667 36.2473 12.7111C36.2186 12.3259 36.2043 12 36.2043 11.7333C36.2043 10.963 36.2473 10.1778 36.3335 9.37778H36.2473V8.4C36.2186 8.37037 36.2043 8.34074 36.2043 8.31111L36.0319 5.28889L35.7734 4.44445C35.7734 4.38518 35.6441 3.95555 35.3856 3.15555C35.0121 2.8 34.7249 2.53333 34.5238 2.35555C34.3227 2.14815 34.1791 2 34.0929 1.91111C34.0067 1.82222 33.9636 1.76296 33.9636 1.73333C33.9636 1.7037 33.9636 1.68889 33.9636 1.68889L33.3604 1.33333L32.24 0.8L30.1286 0.444444C29.8988 0.444444 29.6547 0.444444 29.3961 0.444444C29.1376 0.414815 28.879 0.4 28.6205 0.4C28.3045 0.4 27.9885 0.444445 27.6725 0.533334C27.3853 0.592593 27.1267 0.622222 26.8969 0.622222C26.8682 0.622222 26.624 0.651851 26.1644 0.71111C25.7335 0.740741 25.1015 0.814814 24.2685 0.933331L24.0961 0.977779C23.263 1.18519 22.8034 1.28889 22.7172 1.28889L22.588 1.33333C22.588 1.39259 22.5449 1.43704 22.4587 1.46667C22.3725 1.46667 22.3007 1.46667 22.2433 1.46667L22.1571 1.55555C22.0996 1.61481 21.9991 1.65926 21.8555 1.68889C21.7118 1.68889 21.5682 1.73333 21.4246 1.82222L21.2522 1.91111C21.1948 1.97037 21.0942 2.02963 20.9506 2.08889C20.8069 2.11852 20.6059 2.22222 20.3473 2.4C20.0888 2.57778 19.7728 2.87407 19.3994 3.28889C19.0546 3.67407 18.6668 4.23704 18.2359 4.97778H18.1929C18.1354 5.03704 18.0061 5.80741 17.805 7.28889H17.7189L17.5465 8.48889L17.5034 10.5778C17.5034 10.8741 17.5178 11.0667 17.5465 11.1556L17.5896 11.2444C17.6183 11.4815 17.6327 11.6889 17.6327 11.8667C17.6327 12.0148 17.6327 12.1185 17.6327 12.1778H17.6758C17.7045 12.2074 17.8338 12.6815 18.0636 13.6C18.4083 14.2222 18.6525 14.7111 18.7961 15.0667C18.9685 15.4222 19.0977 15.7037 19.1839 15.9111C19.2988 16.0889 19.4137 16.237 19.5286 16.3556C19.6435 16.4741 19.8446 16.5926 20.1319 16.7111V16.8444L20.9506 17.4222C21.0942 17.5407 21.2091 17.6444 21.2953 17.7333C21.3815 17.7926 21.482 17.8667 21.5969 17.9556C21.7406 18.0444 21.9273 18.1333 22.1571 18.2222C22.3869 18.3111 22.746 18.4148 23.2343 18.5333V18.6222L24.1823 18.8444C24.3259 18.9037 24.4839 18.9333 24.6563 18.9333C24.8286 18.9333 25.001 18.9333 25.1733 18.9333H25.8197C25.9346 18.9333 26.0495 18.9333 26.1644 18.9333C26.2793 18.9333 26.3799 18.9481 26.466 18.9778H26.6384V18.8889C27.8449 18.6222 28.5487 18.4889 28.7498 18.4889H28.836C28.9221 18.4889 28.9939 18.4593 29.0514 18.4C29.3099 18.4 29.4392 18.5926 29.4392 18.9778C29.4392 19.3037 29.4392 19.5704 29.4392 19.7778C29.4392 19.9556 29.4248 20.1481 29.3961 20.3556C29.3674 20.563 29.3099 20.8148 29.2238 21.1111C29.1663 21.3778 29.0801 21.763 28.9652 22.2667H28.9221C28.7498 22.5333 28.6492 22.7407 28.6205 22.8889C28.5918 23.0074 28.5343 23.1111 28.4481 23.2C28.362 23.2593 28.1896 23.3333 27.9311 23.4222C27.6725 23.5111 27.2273 23.6593 26.5953 23.8667V23.8222C26.5378 23.8222 26.4517 23.8222 26.3368 23.8222C26.2506 23.7926 26.1788 23.7778 26.1213 23.7778L25.992 23.6889C25.0441 23.1259 24.4983 22.6519 24.3546 22.2667L24.3116 22.1333C24.2828 22.1333 24.2541 22.1185 24.2254 22.0889L24.1823 22C24.1823 21.9407 24.1823 21.8963 24.1823 21.8667C24.211 21.837 24.2254 21.7926 24.2254 21.7333C24.1679 21.7333 24.1248 21.7185 24.0961 21.6889L23.8807 21.6L23.8376 21.6889L23.7945 21.6444C23.6221 21.6444 23.4498 21.6444 23.2774 21.6444C23.1338 21.6148 22.9758 21.6 22.8034 21.6V21.6444H22.7172C22.5736 21.6444 22.3582 21.6593 22.0709 21.6889C21.7836 21.7185 21.4102 21.7333 20.9506 21.7333L17.805 21.7778V21.8667C17.7189 21.8667 17.6758 21.837 17.6758 21.7778L17.4603 21.8667C17.4603 22.4593 17.4891 22.9778 17.5465 23.4222C17.604 23.8667 17.6327 24.3407 17.6327 24.8444H17.6758C17.7045 24.9037 17.7189 25.0222 17.7189 25.2V25.5556H17.805L17.8912 26.5778V26.6667C17.8625 26.8148 17.8912 26.9926 17.9774 27.2C18.0923 27.3778 18.2647 27.6741 18.4945 28.0889C18.753 28.5926 18.9828 28.963 19.1839 29.2C19.385 29.4074 19.5574 29.5556 19.701 29.6444C19.8446 29.7333 19.9452 29.7926 20.0026 29.8222C20.0888 29.8519 20.1319 29.9259 20.1319 30.0444H20.2611C20.2611 30.0741 20.3042 30.1185 20.3904 30.1778C20.4766 30.237 20.7639 30.3704 21.2522 30.5778C21.6544 30.7852 21.9273 30.8889 22.0709 30.8889V30.9333L24.527 31.6889L24.6132 31.6444L25.992 31.7778V31.8667L27.414 31.9111C27.4427 31.9407 27.9023 31.9556 28.7929 31.9556V32H29.0945C29.9563 31.8815 30.4159 31.7926 30.4734 31.7333L30.9473 31.5556L31.9815 31.2889L32.9725 30.6667C33.3173 30.4593 33.4896 30.3556 33.4896 30.3556C33.5183 30.3556 33.5471 30.3111 33.5758 30.2222H33.662C33.6907 30.1926 33.7625 30.1037 33.8774 29.9556C33.9923 29.8074 34.1503 29.6 34.3514 29.3333L34.4807 29.1556H34.6099C34.6099 29.1259 34.653 29.037 34.7392 28.8889C34.8541 28.7407 34.969 28.5778 35.0839 28.4C35.2276 28.2222 35.3425 28.0593 35.4286 27.9111C35.5436 27.763 35.601 27.6741 35.601 27.6444L35.5148 27.6889C35.5436 27.5111 35.5866 27.3037 35.6441 27.0667C35.7015 26.8 35.759 26.5926 35.8165 26.4444V26.3111L36.1181 24.7111C36.233 24.3556 36.2761 23.9407 36.2473 23.4667C36.2186 22.9926 36.2617 22.5778 36.3766 22.2222L36.549 19.3778C36.549 19.2296 36.5346 19.1111 36.5059 19.0222C36.5059 18.9037 36.5059 18.6519 36.5059 18.2667C36.5059 17.8815 36.5202 17.6444 36.549 17.5556C36.5777 17.4667 36.5921 17.363 36.5921 17.2444C36.5921 17.0074 36.5777 16.8741 36.549 16.8444V16.2222H36.4197ZM35.3856 18.3111L35.3856 24.9778L35.1701 25.8667C35.1414 26.0741 35.1127 26.2222 35.0839 26.3111C35.0839 26.3704 35.0839 26.4444 35.0839 26.5333H35.0408C34.9834 26.5926 34.9403 26.7704 34.9116 27.0667H34.8254V27.2889L34.4376 28.1778C34.4089 28.2074 34.3945 28.237 34.3945 28.2667C34.3945 28.2963 34.3801 28.3259 34.3514 28.3556C34.3514 28.3852 34.3514 28.4296 34.3514 28.4889L34.2652 28.6222C34.2078 28.8296 34.136 28.9778 34.0498 29.0667C33.9923 29.1556 33.8631 29.3037 33.662 29.5111L32.4986 30.1778C32.4411 30.2074 32.3837 30.2222 32.3262 30.2222C32.2975 30.2222 32.2544 30.237 32.1969 30.2667L31.3351 30.6667H31.1628V30.7556L30.4303 30.8889L29.1807 31.0667V31.0222C29.1519 31.0518 29.0801 31.0667 28.9652 31.0667V31.0222C28.9365 31.0518 28.9078 31.0667 28.879 31.0667L25.6904 31.2L25.3457 31.1556V31.0667L22.6742 30.4V30.3111C22.5018 30.3111 22.4013 30.2963 22.3725 30.2667L22.2864 30.1778C21.6831 29.8519 21.324 29.6593 21.2091 29.6C21.0942 29.5111 21.0224 29.437 20.9937 29.3778L20.3904 29.0222C20.0744 28.4296 19.8303 27.9852 19.6579 27.6889C19.4855 27.3926 19.385 27.2296 19.3563 27.2L19.2701 26.6667C19.2414 26.6667 19.1839 26.5778 19.0977 26.4C19.0403 26.1926 18.9828 25.9704 18.9254 25.7333C18.8392 25.4667 18.753 25.1556 18.6668 24.8L18.3221 23.4667C18.2934 23.437 18.279 23.3481 18.279 23.2C18.279 22.9037 18.3221 22.7259 18.4083 22.6667C18.4945 22.6074 18.5232 22.5778 18.4945 22.5778H18.6668V22.4889L21.166 22.2222H22.5449V22.1333L23.1481 22.0889C23.1769 22.1185 23.3205 22.1333 23.579 22.1333C23.6078 22.4 23.6509 22.6519 23.7083 22.8889C23.7658 23.0963 23.8232 23.2889 23.8807 23.4667L23.8376 23.6444C23.8376 23.6741 23.895 23.7185 24.0099 23.7778C24.1536 23.837 24.2254 23.9556 24.2254 24.1333L24.2685 24.2222C24.3259 24.3111 24.369 24.3704 24.3977 24.4C24.4552 24.4296 24.5126 24.4741 24.5701 24.5333L26.466 25.2444C26.5235 25.2741 26.6384 25.3037 26.8107 25.3333C27.0118 25.3333 27.1986 25.3333 27.3709 25.3333C27.4284 25.3333 27.4858 25.3333 27.5433 25.3333C27.6007 25.3037 27.6438 25.2889 27.6725 25.2889L28.5343 25.0222L28.7067 24.8444C28.7354 24.8148 28.8647 24.6518 29.0945 24.3556C29.3243 24.0593 29.6547 23.6296 30.0856 23.0667L30.2148 22.0889H30.301L30.3872 19.4667C30.3872 19.2296 30.3728 19.0222 30.3441 18.8444C30.3154 18.637 30.301 18.4296 30.301 18.2222H30.3872L30.1286 17.9111C30.0999 17.8815 30.0712 17.8222 30.0425 17.7333C30.0425 17.6148 30.0425 17.5407 30.0425 17.5111C29.8701 17.5111 29.7265 17.5556 29.6116 17.6444C29.5254 17.7333 29.4105 17.8074 29.2668 17.8667L27.8449 18.0444C27.7013 18.0444 27.5289 18.0593 27.3278 18.0889C27.1555 18.0889 26.9687 18.0889 26.7677 18.0889C26.6815 18.0889 26.5809 18.0889 26.466 18.0889C26.3511 18.0593 26.2219 18.0296 26.0782 18H25.3888L23.2343 17.6889L21.3815 16.8889C21.3527 16.8593 21.3384 16.8296 21.3384 16.8L21.166 16.8444C21.1373 16.8444 21.0942 16.8148 21.0368 16.7556L20.7782 16.4889C20.692 16.3704 20.3473 16.0593 19.7441 15.5556L19.6148 15.4222C19.4999 15.2444 19.3994 15.0963 19.3132 14.9778C19.2557 14.8296 19.1983 14.7111 19.1408 14.6222L18.9254 14.0444C18.7817 13.5407 18.7099 13.2741 18.7099 13.2444H18.6668L18.5807 11.6444C18.5807 11.4963 18.5807 11.3481 18.5807 11.2C18.6094 11.0222 18.6237 10.8593 18.6237 10.7111C18.595 10.1481 18.5807 9.71852 18.5807 9.42222C18.5807 9.0963 18.5807 8.87407 18.5807 8.75556C18.5807 8.60741 18.5807 8.48889 18.5807 8.4C18.6094 8.28148 18.6381 8.16296 18.6668 8.04444C18.7817 7.27407 18.8536 6.68148 18.8823 6.26667C18.9397 5.85185 18.9685 5.62963 18.9685 5.6L19.0546 5.46667L19.0977 5.51111C19.1552 5.51111 19.2126 5.39259 19.2701 5.15555C19.3275 4.88889 19.5143 4.5037 19.8303 4C20.0888 3.73333 20.2899 3.52592 20.4335 3.37778C20.6059 3.22963 20.7351 3.11111 20.8213 3.02222L21.0368 2.8C21.0368 2.8 21.0655 2.78519 21.1229 2.75555H21.2091C21.2666 2.6963 21.3671 2.62222 21.5107 2.53333C21.6544 2.44444 21.9991 2.23704 22.5449 1.91111L22.8465 1.86667L24.8286 1.64444V1.55555L28.1465 1.37778C28.4338 1.31852 28.5631 1.28889 28.5343 1.28889C28.6492 1.28889 29.5685 1.33333 31.2921 1.42222L32.5847 1.86667L32.7571 2.04444C32.8146 2.13333 32.872 2.19259 32.9295 2.22222C33.0156 2.25185 33.1162 2.31111 33.2311 2.4C33.3747 2.45926 33.5327 2.57778 33.7051 2.75555C33.8774 2.93333 34.0785 3.2 34.3083 3.55555C34.7967 4.32592 35.0983 4.96296 35.2132 5.46667C35.3568 5.94074 35.4286 6.38518 35.4286 6.8H35.4717C35.5005 6.85926 35.5148 7.11111 35.5148 7.55556H35.5579V13.4222L35.3856 14.0889V18.3111ZM30.1286 9.91111C30.1286 9.79259 30.143 9.71852 30.1717 9.68889L30.1286 9.37778C30.0999 9.34815 29.9994 9.22963 29.827 9.02222C29.6834 8.78518 29.4536 8.45926 29.1376 8.04444V8C28.9365 7.91111 28.7641 7.83704 28.6205 7.77778C28.4769 7.71852 28.3332 7.67407 28.1896 7.64444L26.5522 7.55556V7.6C26.3224 7.6 26.1931 7.61481 26.1644 7.64444L25.949 7.73333C25.949 7.82222 25.7766 8.05926 25.4319 8.44444L25.3457 8.62222C25.2883 8.62222 25.2595 8.63704 25.2595 8.66667L24.9579 9.68889C24.9579 9.74815 24.9435 9.82222 24.9148 9.91111C24.9148 9.97037 24.9148 10.0296 24.9148 10.0889L24.9579 10.3556H25.0441L24.9579 10.4444C24.9579 10.5037 24.9723 10.5333 25.001 10.5333L25.2595 11.5111H25.3457V11.6L25.9059 12.2222C25.992 12.3111 26.0926 12.3852 26.2075 12.4444H26.2937C26.6384 12.5926 26.8969 12.7111 27.0693 12.8C27.2704 12.8593 27.3996 12.9037 27.4571 12.9333L27.5433 12.8L28.5774 12.8L28.7929 12.7111L29.1376 12.4889C29.2238 12.4593 29.2956 12.3556 29.353 12.1778L29.5685 12.1333C29.7696 11.8963 29.9563 11.1556 30.1286 9.91111ZM28.4912 12.3111C28.3476 12.3111 28.2614 12.3259 28.2327 12.3556V12.4444L27.414 12.4444V12.3556L26.7246 12.1333C25.949 11.3333 25.5612 10.6222 25.5612 10C25.5612 9.85185 25.5612 9.7037 25.5612 9.55556C25.5899 9.40741 25.6186 9.25926 25.6473 9.11111L26.0351 8.44444C26.15 8.41481 26.3799 8.35556 26.7246 8.26667C27.0693 8.14815 27.414 8.05926 27.7587 8C28.3907 8 28.879 8.25185 29.2238 8.75556C29.5972 9.22963 29.7839 9.65926 29.7839 10.0444C29.7839 10.0444 29.7552 10.1926 29.6977 10.4889L28.7929 12.1333L28.4912 12.3111Z" fill="#CDDAE6"/>
<path d="M58.5115 16.2222L58.4684 13.9111C58.4109 13.4667 58.3679 13.0667 58.3391 12.7111C58.3104 12.3259 58.296 12 58.296 11.7333C58.296 10.963 58.3391 10.1778 58.4253 9.37778H58.3391V8.4C58.3104 8.37037 58.296 8.34074 58.296 8.31111L58.1237 5.28889L57.8651 4.44445C57.8651 4.38518 57.7359 3.95555 57.4773 3.15555C57.1039 2.8 56.8166 2.53333 56.6155 2.35555C56.4145 2.14815 56.2708 2 56.1847 1.91111C56.0985 1.82222 56.0554 1.76296 56.0554 1.73333C56.0554 1.7037 56.0554 1.68889 56.0554 1.68889L55.4521 1.33333L54.3318 0.8L52.2204 0.444444C51.9906 0.444444 51.7464 0.444444 51.4879 0.444444C51.2294 0.414815 50.9708 0.4 50.7123 0.4C50.3963 0.4 50.0803 0.444445 49.7643 0.533334C49.4771 0.592593 49.2185 0.622222 48.9887 0.622222C48.96 0.622222 48.7158 0.651851 48.2562 0.71111C47.8253 0.740741 47.1933 0.814814 46.3602 0.933331L46.1879 0.977779C45.3548 1.18519 44.8952 1.28889 44.809 1.28889L44.6798 1.33333C44.6798 1.39259 44.6367 1.43704 44.5505 1.46667C44.4643 1.46667 44.3925 1.46667 44.335 1.46667L44.2489 1.55555C44.1914 1.61481 44.0909 1.65926 43.9472 1.68889C43.8036 1.68889 43.66 1.73333 43.5163 1.82222L43.344 1.91111C43.2865 1.97037 43.186 2.02963 43.0424 2.08889C42.8987 2.11852 42.6976 2.22222 42.4391 2.4C42.1806 2.57778 41.8646 2.87407 41.4911 3.28889C41.1464 3.67407 40.7586 4.23704 40.3277 4.97778H40.2846C40.2272 5.03704 40.0979 5.80741 39.8968 7.28889H39.8106L39.6383 8.48889L39.5952 10.5778C39.5952 10.8741 39.6096 11.0667 39.6383 11.1556L39.6814 11.2444C39.7101 11.4815 39.7245 11.6889 39.7245 11.8667C39.7245 12.0148 39.7245 12.1185 39.7245 12.1778H39.7676C39.7963 12.2074 39.9256 12.6815 40.1554 13.6C40.5001 14.2222 40.7443 14.7111 40.8879 15.0667C41.0602 15.4222 41.1895 15.7037 41.2757 15.9111C41.3906 16.0889 41.5055 16.237 41.6204 16.3556C41.7353 16.4741 41.9364 16.5926 42.2237 16.7111V16.8444L43.0424 17.4222C43.186 17.5407 43.3009 17.6444 43.3871 17.7333C43.4733 17.7926 43.5738 17.8667 43.6887 17.9556C43.8323 18.0444 44.0191 18.1333 44.2489 18.2222C44.4787 18.3111 44.8378 18.4148 45.3261 18.5333V18.6222L46.2741 18.8444C46.4177 18.9037 46.5757 18.9333 46.7481 18.9333C46.9204 18.9333 47.0928 18.9333 47.2651 18.9333H47.9115C48.0264 18.9333 48.1413 18.9333 48.2562 18.9333C48.3711 18.9333 48.4716 18.9481 48.5578 18.9778H48.7302V18.8889C49.9367 18.6222 50.6405 18.4889 50.8416 18.4889H50.9277C51.0139 18.4889 51.0857 18.4593 51.1432 18.4C51.4017 18.4 51.531 18.5926 51.531 18.9778C51.531 19.3037 51.531 19.5704 51.531 19.7778C51.531 19.9556 51.5166 20.1481 51.4879 20.3556C51.4592 20.563 51.4017 20.8148 51.3155 21.1111C51.2581 21.3778 51.1719 21.763 51.057 22.2667H51.0139C50.8416 22.5333 50.741 22.7407 50.7123 22.8889C50.6836 23.0074 50.6261 23.1111 50.5399 23.2C50.4538 23.2593 50.2814 23.3333 50.0229 23.4222C49.7643 23.5111 49.3191 23.6593 48.6871 23.8667V23.8222C48.6296 23.8222 48.5434 23.8222 48.4285 23.8222C48.3424 23.7926 48.2705 23.7778 48.2131 23.7778L48.0838 23.6889C47.1359 23.1259 46.5901 22.6519 46.4464 22.2667L46.4033 22.1333C46.3746 22.1333 46.3459 22.1185 46.3172 22.0889L46.2741 22C46.2741 21.9407 46.2741 21.8963 46.2741 21.8667C46.3028 21.837 46.3172 21.7926 46.3172 21.7333C46.2597 21.7333 46.2166 21.7185 46.1879 21.6889L45.9724 21.6L45.9294 21.6889L45.8863 21.6444C45.7139 21.6444 45.5415 21.6444 45.3692 21.6444C45.2256 21.6148 45.0676 21.6 44.8952 21.6V21.6444H44.809C44.6654 21.6444 44.4499 21.6593 44.1627 21.6889C43.8754 21.7185 43.502 21.7333 43.0424 21.7333L39.8968 21.7778V21.8667C39.8106 21.8667 39.7676 21.837 39.7676 21.7778L39.5521 21.8667C39.5521 22.4593 39.5808 22.9778 39.6383 23.4222C39.6957 23.8667 39.7245 24.3407 39.7245 24.8444H39.7676C39.7963 24.9037 39.8106 25.0222 39.8106 25.2V25.5556H39.8968L39.983 26.5778V26.6667C39.9543 26.8148 39.983 26.9926 40.0692 27.2C40.1841 27.3778 40.3564 27.6741 40.5863 28.0889C40.8448 28.5926 41.0746 28.963 41.2757 29.2C41.4768 29.4074 41.6491 29.5556 41.7928 29.6444C41.9364 29.7333 42.0369 29.7926 42.0944 29.8222C42.1806 29.8519 42.2237 29.9259 42.2237 30.0444H42.3529C42.3529 30.0741 42.396 30.1185 42.4822 30.1778C42.5684 30.237 42.8556 30.3704 43.344 30.5778C43.7462 30.7852 44.0191 30.8889 44.1627 30.8889V30.9333L46.6188 31.6889L46.705 31.6444L48.0838 31.7778V31.8667L49.5058 31.9111C49.5345 31.9407 49.9941 31.9556 50.8846 31.9556V32H51.1863C52.0481 31.8815 52.5077 31.7926 52.5651 31.7333L53.0391 31.5556L54.0733 31.2889L55.0643 30.6667C55.409 30.4593 55.5814 30.3556 55.5814 30.3556C55.6101 30.3556 55.6389 30.3111 55.6676 30.2222H55.7538C55.7825 30.1926 55.8543 30.1037 55.9692 29.9556C56.0841 29.8074 56.2421 29.6 56.4432 29.3333L56.5725 29.1556H56.7017C56.7017 29.1259 56.7448 29.037 56.831 28.8889C56.9459 28.7407 57.0608 28.5778 57.1757 28.4C57.3193 28.2222 57.4342 28.0593 57.5204 27.9111C57.6353 27.763 57.6928 27.6741 57.6928 27.6444L57.6066 27.6889C57.6353 27.5111 57.6784 27.3037 57.7359 27.0667C57.7933 26.8 57.8508 26.5926 57.9082 26.4444V26.3111L58.2099 24.7111C58.3248 24.3556 58.3679 23.9407 58.3391 23.4667C58.3104 22.9926 58.3535 22.5778 58.4684 22.2222L58.6408 19.3778C58.6408 19.2296 58.6264 19.1111 58.5977 19.0222C58.5977 18.9037 58.5977 18.6519 58.5977 18.2667C58.5977 17.8815 58.612 17.6444 58.6408 17.5556C58.6695 17.4667 58.6838 17.363 58.6838 17.2444C58.6838 17.0074 58.6695 16.8741 58.6408 16.8444V16.2222H58.5115ZM57.4773 18.3111L57.4773 24.9778L57.2619 25.8667C57.2332 26.0741 57.2044 26.2222 57.1757 26.3111C57.1757 26.3704 57.1757 26.4444 57.1757 26.5333H57.1326C57.0752 26.5926 57.0321 26.7704 57.0034 27.0667H56.9172V27.2889L56.5294 28.1778C56.5006 28.2074 56.4863 28.237 56.4863 28.2667C56.4863 28.2963 56.4719 28.3259 56.4432 28.3556C56.4432 28.3852 56.4432 28.4296 56.4432 28.4889L56.357 28.6222C56.2996 28.8296 56.2277 28.9778 56.1416 29.0667C56.0841 29.1556 55.9548 29.3037 55.7538 29.5111L54.5903 30.1778C54.5329 30.2074 54.4754 30.2222 54.418 30.2222C54.3893 30.2222 54.3462 30.237 54.2887 30.2667L53.4269 30.6667H53.2546V30.7556L52.522 30.8889L51.2724 31.0667V31.0222C51.2437 31.0518 51.1719 31.0667 51.057 31.0667V31.0222C51.0283 31.0518 50.9995 31.0667 50.9708 31.0667L47.7822 31.2L47.4375 31.1556V31.0667L44.7659 30.4V30.3111C44.5936 30.3111 44.493 30.2963 44.4643 30.2667L44.3781 30.1778C43.7749 29.8519 43.4158 29.6593 43.3009 29.6C43.186 29.5111 43.1142 29.437 43.0854 29.3778L42.4822 29.0222C42.1662 28.4296 41.922 27.9852 41.7497 27.6889C41.5773 27.3926 41.4768 27.2296 41.448 27.2L41.3619 26.6667C41.3331 26.6667 41.2757 26.5778 41.1895 26.4C41.1321 26.1926 41.0746 25.9704 41.0172 25.7333C40.931 25.4667 40.8448 25.1556 40.7586 24.8L40.4139 23.4667C40.3852 23.437 40.3708 23.3481 40.3708 23.2C40.3708 22.9037 40.4139 22.7259 40.5001 22.6667C40.5863 22.6074 40.615 22.5778 40.5863 22.5778H40.7586V22.4889L43.2578 22.2222H44.6367V22.1333L45.2399 22.0889C45.2687 22.1185 45.4123 22.1333 45.6708 22.1333C45.6995 22.4 45.7426 22.6519 45.8001 22.8889C45.8575 23.0963 45.915 23.2889 45.9724 23.4667L45.9294 23.6444C45.9294 23.6741 45.9868 23.7185 46.1017 23.7778C46.2453 23.837 46.3172 23.9556 46.3172 24.1333L46.3602 24.2222C46.4177 24.3111 46.4608 24.3704 46.4895 24.4C46.547 24.4296 46.6044 24.4741 46.6619 24.5333L48.5578 25.2444C48.6153 25.2741 48.7302 25.3037 48.9025 25.3333C49.1036 25.3333 49.2903 25.3333 49.4627 25.3333C49.5201 25.3333 49.5776 25.3333 49.635 25.3333C49.6925 25.3037 49.7356 25.2889 49.7643 25.2889L50.6261 25.0222L50.7985 24.8444C50.8272 24.8148 50.9565 24.6518 51.1863 24.3556C51.4161 24.0593 51.7464 23.6296 52.1773 23.0667L52.3066 22.0889H52.3928L52.479 19.4667C52.479 19.2296 52.4646 19.0222 52.4359 18.8444C52.4071 18.637 52.3928 18.4296 52.3928 18.2222H52.479L52.2204 17.9111C52.1917 17.8815 52.163 17.8222 52.1342 17.7333C52.1342 17.6148 52.1342 17.5407 52.1342 17.5111C51.9619 17.5111 51.8183 17.5556 51.7033 17.6444C51.6172 17.7333 51.5023 17.8074 51.3586 17.8667L49.9367 18.0444C49.793 18.0444 49.6207 18.0593 49.4196 18.0889C49.2472 18.0889 49.0605 18.0889 48.8594 18.0889C48.7733 18.0889 48.6727 18.0889 48.5578 18.0889C48.4429 18.0593 48.3136 18.0296 48.17 18H47.4806L45.3261 17.6889L43.4733 16.8889C43.4445 16.8593 43.4302 16.8296 43.4302 16.8L43.2578 16.8444C43.2291 16.8444 43.186 16.8148 43.1285 16.7556L42.87 16.4889C42.7838 16.3704 42.4391 16.0593 41.8358 15.5556L41.7066 15.4222C41.5917 15.2444 41.4911 15.0963 41.405 14.9778C41.3475 14.8296 41.2901 14.7111 41.2326 14.6222L41.0172 14.0444C40.8735 13.5407 40.8017 13.2741 40.8017 13.2444H40.7586L40.6724 11.6444C40.6724 11.4963 40.6724 11.3481 40.6724 11.2C40.7012 11.0222 40.7155 10.8593 40.7155 10.7111C40.6868 10.1481 40.6724 9.71852 40.6724 9.42222C40.6724 9.0963 40.6724 8.87407 40.6724 8.75556C40.6724 8.60741 40.6724 8.48889 40.6724 8.4C40.7012 8.28148 40.7299 8.16296 40.7586 8.04444C40.8735 7.27407 40.9453 6.68148 40.9741 6.26667C41.0315 5.85185 41.0602 5.62963 41.0602 5.6L41.1464 5.46667L41.1895 5.51111C41.247 5.51111 41.3044 5.39259 41.3619 5.15555C41.4193 4.88889 41.606 4.5037 41.922 4C42.1806 3.73333 42.3817 3.52592 42.5253 3.37778C42.6976 3.22963 42.8269 3.11111 42.9131 3.02222L43.1285 2.8C43.1285 2.8 43.1573 2.78519 43.2147 2.75555H43.3009C43.3583 2.6963 43.4589 2.62222 43.6025 2.53333C43.7462 2.44444 44.0909 2.23704 44.6367 1.91111L44.9383 1.86667L46.9204 1.64444V1.55555L50.2383 1.37778C50.5256 1.31852 50.6548 1.28889 50.6261 1.28889C50.741 1.28889 51.6603 1.33333 53.3838 1.42222L54.6765 1.86667L54.8489 2.04444C54.9063 2.13333 54.9638 2.19259 55.0212 2.22222C55.1074 2.25185 55.208 2.31111 55.3229 2.4C55.4665 2.45926 55.6245 2.57778 55.7968 2.75555C55.9692 2.93333 56.1703 3.2 56.4001 3.55555C56.8884 4.32592 57.1901 4.96296 57.305 5.46667C57.4486 5.94074 57.5204 6.38518 57.5204 6.8H57.5635C57.5922 6.85926 57.6066 7.11111 57.6066 7.55556H57.6497V13.4222L57.4773 14.0889V18.3111ZM52.2204 9.91111C52.2204 9.79259 52.2348 9.71852 52.2635 9.68889L52.2204 9.37778C52.1917 9.34815 52.0911 9.22963 51.9188 9.02222C51.7752 8.78518 51.5453 8.45926 51.2294 8.04444V8C51.0283 7.91111 50.8559 7.83704 50.7123 7.77778C50.5687 7.71852 50.425 7.67407 50.2814 7.64444L48.644 7.55556V7.6C48.4142 7.6 48.2849 7.61481 48.2562 7.64444L48.0407 7.73333C48.0407 7.82222 47.8684 8.05926 47.5237 8.44444L47.4375 8.62222C47.38 8.62222 47.3513 8.63704 47.3513 8.66667L47.0497 9.68889C47.0497 9.74815 47.0353 9.82222 47.0066 9.91111C47.0066 9.97037 47.0066 10.0296 47.0066 10.0889L47.0497 10.3556H47.1359L47.0497 10.4444C47.0497 10.5037 47.064 10.5333 47.0928 10.5333L47.3513 11.5111H47.4375V11.6L47.9977 12.2222C48.0838 12.3111 48.1844 12.3852 48.2993 12.4444H48.3855C48.7302 12.5926 48.9887 12.7111 49.1611 12.8C49.3622 12.8593 49.4914 12.9037 49.5489 12.9333L49.635 12.8L50.6692 12.8L50.8846 12.7111L51.2294 12.4889C51.3155 12.4593 51.3874 12.3556 51.4448 12.1778L51.6603 12.1333C51.8613 11.8963 52.0481 11.1556 52.2204 9.91111ZM50.583 12.3111C50.4394 12.3111 50.3532 12.3259 50.3245 12.3556V12.4444L49.5058 12.4444V12.3556L48.8164 12.1333C48.0407 11.3333 47.6529 10.6222 47.6529 10C47.6529 9.85185 47.6529 9.7037 47.6529 9.55556C47.6817 9.40741 47.7104 9.25926 47.7391 9.11111L48.1269 8.44444C48.2418 8.41481 48.4716 8.35556 48.8164 8.26667C49.1611 8.14815 49.5058 8.05926 49.8505 8C50.4825 8 50.9708 8.25185 51.3155 8.75556C51.689 9.22963 51.8757 9.65926 51.8757 10.0444C51.8757 10.0444 51.847 10.1926 51.7895 10.4889L50.8846 12.1333L50.583 12.3111Z" fill="#CDDAE6"/>
<path d="M79.9138 10.0889L79.8277 10.0444L79.9138 9.64444H79.8277L79.7846 6.84444C79.7846 6.42963 79.7271 6.08889 79.6122 5.82222L79.5691 5.64444L79.2244 4.66667L78.7073 3.64444L78.4057 3.46667V3.33333C78.377 3.3037 78.3482 3.28889 78.3195 3.28889C78.2908 3.25926 78.2621 3.22963 78.2333 3.2V3.11111C78.2046 3.11111 78.1041 3.05185 77.9317 2.93333C77.7881 2.78518 77.6732 2.59259 77.587 2.35555H77.4577C77.4577 2.26667 77.3428 2.17778 77.113 2.08889L76.4236 1.77778C76.4236 1.71852 76.4092 1.68889 76.3805 1.68889C76.3805 1.65926 76.2799 1.61481 76.0789 1.55555L75.0447 1.11111V1.02222L74.7862 0.933331C74.5564 0.933331 74.3122 0.918517 74.0537 0.888888C73.7951 0.829629 73.5509 0.8 73.3211 0.8L72.287 0.755556C72.1434 0.755556 71.9566 0.770371 71.7268 0.8C71.497 0.8 71.181 0.8 70.7789 0.8L69.2276 0.844444L68.6244 0.933331C68.3946 1.02222 68.0929 1.11111 67.7195 1.2C67.3748 1.25926 67.0875 1.28889 66.8577 1.28889V1.33333L66.513 1.51111C66.4843 1.51111 66.3837 1.57037 66.2114 1.68889C66.039 1.80741 65.8092 1.86667 65.5219 1.86667V1.91111C65.4358 1.94074 65.3496 1.97037 65.2634 2C65.2059 2.02963 65.1485 2.05926 65.091 2.08889L65.0049 2.17778C64.9187 2.17778 64.8038 2.23704 64.6601 2.35555C64.5165 2.47407 64.4447 2.54815 64.4447 2.57778H64.3154C64.1431 2.81481 63.9276 3.02222 63.6691 3.2C63.4393 3.37778 63.2813 3.51111 63.1951 3.6L62.5488 4.71111C62.4913 4.77037 62.4482 4.8 62.4195 4.8C62.3908 4.77037 62.3477 4.8 62.2902 4.88889C62.2615 4.94815 62.204 5.08148 62.1179 5.28889C62.0604 5.46667 61.9599 5.77778 61.8162 6.22222H61.7301C61.7301 6.54815 61.7013 6.87407 61.6439 7.2C61.5864 7.52592 61.5577 7.91111 61.5577 8.35556C61.5577 8.59259 61.5721 8.78518 61.6008 8.93333C61.6582 9.05185 61.687 9.15555 61.687 9.24444V10.4L61.7301 10.3556C61.7875 10.3556 61.8162 10.3704 61.8162 10.4C61.845 10.4 61.8881 10.4 61.9455 10.4V10.3111C62.0891 10.3407 62.2184 10.3556 62.3333 10.3556C62.4769 10.3556 62.6206 10.3556 62.7642 10.3556C63.0802 10.3852 63.4536 10.3852 63.8845 10.3556C64.3154 10.3259 64.8038 10.3111 65.3496 10.3111L67.5041 10.3556C67.6477 10.3556 67.7482 10.2667 67.8057 10.0889H67.8488C67.9637 9.82222 68.0211 9.68889 68.0211 9.68889C68.0499 9.65926 68.0929 9.62963 68.1504 9.6L68.2366 9.33333C68.2653 9.3037 68.3084 9.27407 68.3658 9.24444C68.4233 9.18519 68.4808 9.12593 68.5382 9.06667V8.97778C68.6531 8.85926 68.7537 8.72593 68.8398 8.57778C68.926 8.42963 69.0553 8.2963 69.2276 8.17778C69.4287 8.02963 69.716 7.91111 70.0894 7.82222C70.4629 7.73333 70.9943 7.68889 71.6837 7.68889L71.8561 7.73333V7.82222L72.6748 8.08889C72.7322 8.17778 72.7753 8.23704 72.8041 8.26667C72.8328 8.26667 72.9046 8.32593 73.0195 8.44444H73.0626L73.3642 9.11111C73.3642 9.40741 73.3642 9.67407 73.3642 9.91111C73.393 10.1185 73.4073 10.2963 73.4073 10.4444C73.4073 10.5333 73.393 10.6074 73.3642 10.6667C73.3642 10.6963 73.3642 10.7407 73.3642 10.8L73.3211 11.2C73.2637 11.2593 73.235 11.3333 73.235 11.4222C73.2637 11.5111 73.235 11.6148 73.1488 11.7333C73.0913 11.8519 72.9621 11.9852 72.761 12.1333C72.5599 12.2815 72.2008 12.4444 71.6837 12.6222H71.4683L69.874 12.8V12.8889L69.6154 12.8H68.6244C68.5957 12.8 68.5669 12.8 68.5382 12.8C68.5095 12.7704 68.4664 12.7556 68.4089 12.7556C68.3515 12.7556 68.2797 12.7704 68.1935 12.8C68.1073 12.8 68.0068 12.8 67.8919 12.8H67.7626C67.7051 12.8 67.6477 12.8296 67.5902 12.8889L67.5041 12.9333C67.5041 12.9926 67.5041 13.037 67.5041 13.0667C67.5328 13.0963 67.5471 13.1259 67.5471 13.1556C67.5471 13.2148 67.5328 13.2741 67.5041 13.3333C67.5041 13.3926 67.5041 13.4519 67.5041 13.5111L67.5471 13.6889C67.5184 13.8963 67.4897 14.2222 67.461 14.6667C67.461 15.0815 67.461 15.4519 67.461 15.7778C67.461 15.8667 67.461 15.9704 67.461 16.0889C67.4897 16.2074 67.5041 16.3556 67.5041 16.5333C67.5041 16.7111 67.4897 16.9185 67.461 17.1556C67.461 17.3926 67.461 17.6444 67.461 17.9111V18.2222C67.461 18.3111 67.4466 18.4 67.4179 18.4889C67.3892 18.5481 67.3748 18.6074 67.3748 18.6667C67.3748 18.7259 67.4035 18.7852 67.461 18.8444V18.8889C67.5184 18.8889 67.5615 18.8741 67.5902 18.8444C67.6477 18.963 67.6908 19.0667 67.7195 19.1556L67.8057 19.2V19.0667C67.8631 19.0667 67.9206 19.0815 67.978 19.1111C68.0642 19.1111 68.1504 19.1111 68.2366 19.1111C68.294 19.1111 68.3371 19.1111 68.3658 19.1111C68.3946 19.0815 68.4377 19.0667 68.4951 19.0667H70.6496L71.4683 19.1556C71.5257 19.1852 71.5688 19.2148 71.5976 19.2444C71.655 19.2444 71.7125 19.2593 71.7699 19.2889V19.3333C71.9423 19.3333 72.0428 19.3778 72.0715 19.4667C72.1003 19.5556 72.1434 19.6296 72.2008 19.6889H72.3301C72.3301 19.7185 72.3444 19.7481 72.3732 19.7778L72.8041 20.0444V20.1333C72.8615 20.1926 73.077 20.7852 73.4504 21.9111V22.7556L73.3642 23.2C73.1344 23.6148 73.0051 23.837 72.9764 23.8667L72.8472 23.9111C72.8472 23.9704 72.8184 24.0296 72.761 24.0889H72.6748L72.3732 24.1778L72.1577 24.2667V24.3556C71.3821 24.5926 70.9799 24.7111 70.9512 24.7111C70.8076 24.7111 70.6496 24.6963 70.4772 24.6667C70.3336 24.637 70.2331 24.5926 70.1756 24.5333L70.0032 24.4889C69.8596 24.4889 69.7591 24.4593 69.7016 24.4L69.5724 24.3556L69.4862 24.2222C69.5149 24.2222 69.4431 24.2074 69.2707 24.1778C69.0984 24.1185 69.0122 24.0296 69.0122 23.9111H68.8829C68.8542 23.8815 68.8398 23.8519 68.8398 23.8222H68.7537L68.4951 23.5556V23.4667C68.4664 23.437 68.3658 23.2741 68.1935 22.9778C68.0499 22.6815 67.978 22.5185 67.978 22.4889V22.4444C67.978 22.4148 67.9637 22.3852 67.935 22.3556L67.4179 21.8222C67.2455 21.8222 67.0732 21.8222 66.9008 21.8222C66.7284 21.7926 66.5561 21.7778 66.3837 21.7778C66.2688 21.7778 66.0965 21.8074 65.8667 21.8667C65.6656 21.8963 65.3783 21.9407 65.0049 22H64.6171L62.7211 22.1778L61.9886 22.2667L61.9455 22.1333V25.5111L61.9024 25.4667L62.5057 28.2667L62.5919 28.5778C62.8217 29.2593 62.994 29.6741 63.1089 29.8222C63.2526 29.9704 63.3675 30.0444 63.4536 30.0444L63.4967 30V30.0889H63.5829L63.6691 30.2667C63.6978 30.2963 63.7696 30.3556 63.8845 30.4444C63.9994 30.5037 64.0569 30.563 64.0569 30.6222H64.1862L64.7894 31.0222C64.8469 31.0518 64.9043 31.0667 64.9618 31.0667C65.0192 31.0667 65.1485 31.0963 65.3496 31.1556L68.1935 31.6889V31.7778L68.5813 31.8222L69.874 31.9111C69.9027 31.9111 69.9314 31.9111 69.9602 31.9111C69.9889 31.8815 70.0176 31.8667 70.0463 31.8667V31.9111C70.6783 31.9111 71.3247 31.8667 71.9854 31.7778C72.6748 31.6593 73.3499 31.5111 74.0106 31.3333L75.4325 31.1111V31.0222C75.4613 30.9926 75.49 30.9778 75.5187 30.9778C75.6049 30.9778 75.6767 30.963 75.7341 30.9333L75.8203 30.8444L75.7772 30.8889C75.806 30.8889 75.9065 30.8444 76.0789 30.7556C76.2512 30.6667 76.4379 30.5778 76.639 30.4889C76.8401 30.3704 77.0125 30.2667 77.1561 30.1778C77.2997 30.0889 77.3716 30.0296 77.3716 30L77.7163 29.6444L78.061 29.1111C78.0897 29.0815 78.1328 29.0667 78.1903 29.0667L78.2333 28.9333C78.5206 28.4296 78.7073 28.0741 78.7935 27.8667C78.8797 27.6593 78.9228 27.5259 78.9228 27.4667H78.9659C78.9659 27.4074 78.9659 27.363 78.9659 27.3333C78.9946 27.2741 79.0089 27.2148 79.0089 27.1556H79.052C79.0808 27.1259 79.1095 27.037 79.1382 26.8889C79.1957 26.7111 79.2818 26.4741 79.3968 26.1778H79.4829C79.4829 26.1481 79.4542 26.0444 79.3968 25.8667C79.368 25.6889 79.3537 25.5852 79.3537 25.5556H79.3968C79.4255 25.5259 79.4398 25.3481 79.4398 25.0222H79.4829C79.4829 24.9333 79.4686 24.8741 79.4398 24.8444L79.6553 23.0667L79.7415 21.2889C79.7702 21.2593 79.7846 21.2296 79.7846 21.2H79.7415L79.7846 21.1556C79.8133 21.1259 79.8277 20.9926 79.8277 20.7556C79.8277 20.6074 79.8133 20.4741 79.7846 20.3556C79.7846 20.2074 79.7846 20.1037 79.7846 20.0444L79.8277 18.9333V17.0667H79.9138C79.8851 17.037 79.8707 17.0074 79.8707 16.9778H79.8277C79.8277 16.8889 79.842 16.8444 79.8707 16.8444L79.9138 16C79.9426 15.9704 79.9569 15.8222 79.9569 15.5556L79.9138 14.4444C79.9138 14.3852 79.9282 14.3407 79.9569 14.3111L79.9138 12.8889H79.8277C79.8564 12.8296 79.8707 12.7704 79.8707 12.7111C79.8707 12.6519 79.8851 12.5926 79.9138 12.5333H79.8277V12.4444C79.8277 12.2074 79.8564 12.0148 79.9138 11.8667C79.9713 11.7185 80 11.5704 80 11.4222C80 11.1852 79.9426 10.963 79.8277 10.7556V10.0889H79.9138ZM79.052 11.5556C79.0233 11.7037 78.9946 11.837 78.9659 11.9556C78.9659 12.0741 78.9659 12.163 78.9659 12.2222C78.9659 12.2815 78.9659 12.5481 78.9659 13.0222C78.9659 13.4667 78.9802 14.1037 79.0089 14.9333H78.9659L79.0089 15.1111C79.0089 15.3778 79.0089 15.6444 79.0089 15.9111C79.0377 16.1778 79.052 16.4444 79.052 16.7111H79.0089V17.2C79.0089 17.2593 78.9946 17.3185 78.9659 17.3778C78.9659 17.4074 78.9659 17.4519 78.9659 17.5111H79.0089C78.9802 17.7185 78.9659 17.8815 78.9659 18C78.9659 18.0889 78.9659 18.1481 78.9659 18.1778L79.0089 18.2667C78.9802 18.8296 78.9515 19.2741 78.9228 19.6C78.9228 19.8963 78.9228 20.0741 78.9228 20.1333V20.4H78.8366L78.3626 23.9111C78.3913 23.9407 78.4057 24.0296 78.4057 24.1778L78.3626 24.6222L78.2764 25.1111C78.2764 25.2 78.2621 25.2889 78.2333 25.3778C78.2333 25.4667 78.2333 25.5407 78.2333 25.6H78.1903C78.1615 25.6593 78.1472 25.7185 78.1472 25.7778C78.1472 25.837 78.1328 25.8963 78.1041 25.9556L78.0179 26.1778C77.9892 26.3259 77.9317 26.5778 77.8455 26.9333C77.7881 27.2889 77.6875 27.7185 77.5439 28.2222H77.4577V28.3111C77.2279 28.6074 77.0412 28.8444 76.8976 29.0222C76.7827 29.1704 76.6965 29.2593 76.639 29.2889V29.4222C76.5528 29.4222 76.4954 29.4518 76.4667 29.5111C76.4379 29.5704 76.4092 29.6148 76.3805 29.6444H76.2943C76.2656 29.6741 76.1076 29.7778 75.8203 29.9556C75.5618 30.1333 75.3033 30.2222 75.0447 30.2222L74.3984 30.4889C74.3696 30.4889 74.3409 30.5037 74.3122 30.5333C74.2835 30.5333 74.2404 30.5333 74.1829 30.5333V30.5778C74.0393 30.6074 73.8813 30.637 73.7089 30.6667C73.5366 30.6667 73.235 30.7407 72.8041 30.8889L72.5024 30.9333C72.445 30.9333 72.3732 30.9333 72.287 30.9333C72.2295 30.9333 72.129 30.9481 71.9854 30.9778V31.0222C71.5257 31.0815 71.1667 31.1259 70.9081 31.1556C70.6496 31.1852 70.4629 31.2 70.348 31.2L70.2618 31.1556H69.6154C69.5293 31.1259 69.3282 31.1111 69.0122 31.1111L67.6333 30.9333C67.6333 30.9037 67.619 30.8741 67.5902 30.8444L66.987 30.7556V30.6667C66.9008 30.6667 66.4986 30.5333 65.7805 30.2667V30.2222L64.574 29.6444L64.2723 29.4667C64.2723 29.3778 64.1718 29.2444 63.9707 29.0667C63.7696 28.8593 63.5973 28.6815 63.4536 28.5333L63.0227 27.7333C63.0227 27.6148 63.0084 27.5407 62.9797 27.5111H62.9366C62.9366 27.4519 62.9222 27.3926 62.8935 27.3333C62.8935 27.2444 62.8935 27.1704 62.8935 27.1111H62.8504C62.678 26.4 62.5775 25.9852 62.5488 25.8667C62.5488 25.7185 62.5344 25.5704 62.5057 25.4222V24.8444H62.4195L62.5057 24.5778H62.4195L62.5057 24.4444V23.6C62.5057 23.5407 62.52 23.4815 62.5488 23.4222C62.5775 23.363 62.5919 23.2889 62.5919 23.2H62.678V23.0667C62.7929 23.037 62.8791 23.0222 62.9366 23.0222C62.994 23.0222 63.0658 23.0222 63.152 23.0222C63.2382 23.0222 63.3675 23.0222 63.5398 23.0222C63.7409 22.9926 64.0425 22.963 64.4447 22.9333L64.7894 22.8889C64.8469 22.8889 65.048 22.8889 65.3927 22.8889C65.7661 22.8889 66.2832 22.8741 66.9439 22.8444L67.2886 22.9333C67.3748 23.0222 67.4179 23.1704 67.4179 23.3778C67.4179 23.5852 67.4466 23.7481 67.5041 23.8667L67.5902 24.1778L67.7195 24.2222L67.8919 24.8C68.0642 25.0074 68.1935 25.1704 68.2797 25.2889C68.3946 25.3778 68.4664 25.437 68.4951 25.4667H68.5813C68.61 25.4963 68.6244 25.5259 68.6244 25.5556H68.7537C68.7824 25.5852 68.7967 25.6148 68.7967 25.6444L69.7447 26.1333L70.0894 26.1778C70.3192 26.1778 70.5347 26.1778 70.7358 26.1778C70.9369 26.1481 71.1523 26.1333 71.3821 26.1333V26.0889C71.4108 26.0593 71.5114 26.0444 71.6837 26.0444V25.9556C71.6837 25.9852 71.6981 26 71.7268 26C71.813 26 72.0428 25.8519 72.4163 25.5556C72.7897 25.2593 73.1344 24.9481 73.4504 24.6222V24.5333C73.4791 24.5037 73.4935 24.4741 73.4935 24.4444C73.5222 24.4148 73.5509 24.3852 73.5797 24.3556L74.0537 23.5556C74.0537 23.4963 74.0537 23.437 74.0537 23.3778C74.0824 23.3185 74.0967 23.2593 74.0967 23.2L73.752 19.6444C73.752 19.5259 73.7089 19.437 73.6228 19.3778V19.2889C73.4217 19.1704 73.3211 19.0815 73.3211 19.0222L73.1919 18.9778C73.1919 18.9481 73.1488 18.8889 73.0626 18.8C73.0051 18.7111 72.919 18.6667 72.8041 18.6667L71.2959 18.3556L69.8309 18.1778L69.0122 18.2222C68.6675 18.2222 68.4808 18.2074 68.452 18.1778L68.4089 18.1333L68.1073 14.5778C68.136 14.4296 68.1504 14.2815 68.1504 14.1333C68.1504 13.9556 68.1648 13.7926 68.1935 13.6444L68.2366 13.6C68.6387 13.6 68.8542 13.6148 68.8829 13.6444L69.7878 13.6C69.8453 13.6 69.8883 13.6148 69.9171 13.6444C69.9458 13.6444 69.9889 13.6444 70.0463 13.6444C70.0751 13.6148 70.19 13.6 70.3911 13.6V13.6444L70.4772 13.6C70.8794 13.5407 71.181 13.4963 71.3821 13.4667C71.5832 13.437 71.6981 13.4222 71.7268 13.4222L71.8992 13.4222C71.9566 13.4222 72.0141 13.4222 72.0715 13.4222C72.1577 13.3926 72.2295 13.3778 72.287 13.3778V13.3333C72.4881 13.2444 72.6604 13.1852 72.8041 13.1556C72.9477 13.0963 73.0482 13.0519 73.1057 13.0222V12.9333C73.2206 12.9037 73.3499 12.8148 73.4935 12.6667C73.6659 12.5185 73.7808 12.3704 73.8382 12.2222L74.0967 11.2889C74.1255 11.2593 74.1398 11.1407 74.1398 10.9333L74.0106 9.51111C74.0106 9.45185 74.0106 9.40741 74.0106 9.37778C74.0393 9.31852 74.0537 9.25926 74.0537 9.2H74.0106C73.9244 8.96296 73.8382 8.72593 73.752 8.48889C73.6946 8.22222 73.6659 8.07407 73.6659 8.04444H73.6228C73.5653 7.83704 73.4791 7.68889 73.3642 7.6C73.278 7.51111 73.1919 7.42222 73.1057 7.33333H73.0195C72.9908 7.3037 72.9764 7.27407 72.9764 7.24444H72.9333C72.9046 7.21481 72.5886 7.08148 71.9854 6.84444V6.75556L71.1236 6.71111C71.0374 6.68148 70.9225 6.65185 70.7789 6.62222C70.6352 6.59259 70.4916 6.57778 70.348 6.57778C70.2905 6.57778 70.2474 6.59259 70.2187 6.62222C70.19 6.62222 70.1612 6.62222 70.1325 6.62222V6.66667C69.9889 6.72593 69.8596 6.77037 69.7447 6.8C69.6298 6.82963 69.5436 6.85926 69.4862 6.88889C69.4287 6.88889 69.1845 6.96296 68.7537 7.11111C68.3515 7.25926 67.978 7.62963 67.6333 8.22222L67.4179 9.02222C67.3604 9.02222 67.2742 8.97778 67.1593 8.88889V8.97778H67.0732V9.11111H66.9439V9.2H66.3406C65.8236 9.31852 65.1916 9.42222 64.4447 9.51111C63.6978 9.57037 63.0802 9.6 62.5919 9.6H62.5057C62.4482 9.6 62.4051 9.61481 62.3764 9.64444C62.3477 9.64444 62.319 9.64444 62.2902 9.64444C62.2328 9.64444 62.1897 9.58519 62.161 9.46667C62.1322 9.31852 62.1035 9.17037 62.0748 9.02222C62.0461 8.87407 62.0173 8.72593 61.9886 8.57778C61.9886 8.42963 61.9886 8.32593 61.9886 8.26667L61.9455 8.17778L62.0748 6.66667C62.3908 5.86667 62.6062 5.40741 62.7211 5.28889V5.2C62.7786 5.14074 62.836 5.05185 62.8935 4.93333C62.9797 4.81482 63.0802 4.68148 63.1951 4.53333L63.2813 4.48889C63.2813 4.42963 63.3675 4.2963 63.5398 4.08889C63.7409 3.88148 63.8702 3.74815 63.9276 3.68889L64.2293 3.55555C64.258 3.4963 64.2723 3.46667 64.2723 3.46667C64.3011 3.43704 64.3298 3.39259 64.3585 3.33333H64.4878C64.4591 3.36296 64.4878 3.33333 64.574 3.24444C64.6601 3.12593 64.7751 2.99259 64.9187 2.84444C65.091 2.6963 65.2778 2.56296 65.4789 2.44445C65.7087 2.2963 65.9385 2.22222 66.1683 2.22222L66.2976 2.13333L67.5471 1.82222C67.6046 1.82222 67.6477 1.83704 67.6764 1.86667C67.7339 1.86667 67.7913 1.86667 67.8488 1.86667V1.82222C67.935 1.79259 68.1217 1.77778 68.4089 1.77778L70.348 1.51111C70.4629 1.48148 70.5634 1.46667 70.6496 1.46667C70.7645 1.46667 70.865 1.46667 70.9512 1.46667L71.4683 1.46667H71.5976L73.7951 1.6L75.4325 2.08889L76.7252 2.48889L77.587 3.02222C77.6732 3.14074 77.7594 3.25926 77.8455 3.37778C77.9317 3.46667 78.0179 3.55556 78.1041 3.64444V3.82222C78.219 3.85185 78.2908 3.91111 78.3195 4L78.535 5.2C78.5637 5.28889 78.6068 5.46667 78.6642 5.73333C78.7217 5.97037 78.8079 6.2963 78.9228 6.71111L78.8797 6.75556C78.8797 6.78518 78.8653 6.8 78.8366 6.8C78.8366 6.8 78.8366 6.81481 78.8366 6.84444C78.8366 6.87407 78.8653 6.91852 78.9228 6.97778L79.1382 9.6H79.0951L79.052 11.5556Z" fill="#CDDAE6"/>
</svg>
