<svg width="80" height="32" viewBox="0 0 80 32" fill="none" xmlns="http://www.w3.org/2000/svg">
<path d="M14.2006 1.82222C14.2006 1.67407 14.2006 1.52593 14.2006 1.37778C14.2293 1.22963 14.2437 1.08148 14.2437 0.933333H14.2006C14.172 0.874075 14.1576 0.844445 14.1576 0.844445C14.1576 0.814815 14.1433 0.77037 14.1146 0.71111H14.0285C14.0572 0.681481 14.0715 0.607407 14.0715 0.488889C14.0429 0.459259 14.0285 0.429629 14.0285 0.4C14.0285 0.34074 14.0142 0.296295 13.9855 0.266665L13.8134 0.222223C13.756 0.162965 13.7273 0.133335 13.7273 0.133335C13.7273 0.103704 13.6843 0.0888885 13.5982 0.0888885C13.5121 0.0888885 13.4261 0.103704 13.34 0.133335C13.2826 0.162964 13.2396 0.177779 13.2109 0.177779V0.133335C13.0388 0.133335 12.8666 0.162965 12.6945 0.222223C12.5224 0.251852 12.3503 0.266665 12.1781 0.266665H12.2212V0.133335C12.1064 0.133335 12.0347 0.11852 12.006 0.0888885C11.9773 0.0592592 11.7765 0.0444442 11.4036 0.0444442C11.2888 0.0444442 11.131 0.0592592 10.9302 0.0888885C10.7294 0.0888885 10.5142 0.0888885 10.2847 0.0888885C10.0839 0.0888885 9.88308 0.103704 9.68226 0.133335C9.51013 0.133335 9.36669 0.133335 9.25194 0.133335C8.99374 0.133335 8.8503 0.11852 8.82161 0.0888885V0.177779C8.79293 0.14815 8.60645 0.133335 8.26219 0.133335V0.0444442C8.20482 0.0444442 8.1331 0.0444442 8.04703 0.0444442C7.98966 0.014815 7.93228 0 7.8749 0V0.0888885C7.84622 0.0592592 7.81753 0.0444442 7.78884 0.0444442C7.76015 0.0444442 7.73146 0.0296292 7.70278 0L6.67 0.0444442V0.133335C6.64131 0.162964 6.56959 0.177779 6.45484 0.177779C6.39746 0.177779 6.34009 0.177779 6.28271 0.177779C6.22533 0.14815 6.16796 0.133335 6.11058 0.133335L5.07781 0.177779C4.93437 0.177779 4.8483 0.192594 4.81961 0.222223V0.0888885C4.70486 0.148149 4.6188 0.281482 4.56142 0.488889C4.53273 0.696297 4.4897 0.859261 4.43232 0.977779L4.26019 1.2C4.23151 1.25926 4.21716 1.31852 4.21716 1.37778C4.21716 1.40741 4.20282 1.45185 4.17413 1.51111L3.95897 1.91111C3.95897 1.97037 3.94462 2.01482 3.91594 2.04445C3.91594 2.07407 3.91594 2.1037 3.91594 2.13333L3.65774 2.53333C3.5143 2.85926 3.39955 3.15556 3.31348 3.42222C3.22742 3.68889 3.18439 3.85185 3.18439 3.91111L2.62497 5.02222H2.5389L2.45284 5.24444C2.45284 5.48148 2.3094 5.79259 2.02252 6.17778L1.97948 6.31111C1.9508 6.31111 1.92211 6.32593 1.89342 6.35556V6.53333L0.817613 8.93333H0.731548C0.731548 9.11111 0.717204 9.21481 0.688516 9.24444L0.559419 9.46667C0.502043 9.58518 0.459011 9.68889 0.430323 9.77778L0.38729 10C0.358602 10.0296 0.329914 10.0444 0.301226 10.0444V10.0889C0.215161 10.1778 0.129097 10.3407 0.0430323 10.5778L0 10.5333V10.6667C0.0573764 10.7259 0.114753 10.7556 0.172129 10.7556L0.129097 10.8889H0.215161C0.243849 10.9481 0.975398 11.1259 2.40981 11.4222C2.46718 11.4222 2.59628 11.437 2.7971 11.4667C3.0266 11.4667 3.18439 11.4963 3.27045 11.5556L3.57168 11.6444L3.52865 11.7333L4.04503 11.8667L4.002 11.9111L4.34626 11.8667L4.69052 11.9556L4.77658 11.8667C4.80527 11.8667 4.86265 11.8815 4.94871 11.9111C5.03477 11.9111 5.14953 11.9259 5.29297 11.9556L5.42207 12.0444L5.85239 11.9556L6.02452 11.8222C6.05321 11.7926 6.06755 11.763 6.06755 11.7333C6.06755 11.7037 6.08189 11.6741 6.11058 11.6444L6.23968 11.3333C6.23968 11.3333 6.26837 11.2593 6.32574 11.1111H6.36877C6.48353 10.9926 6.58394 10.7852 6.67 10.4889H6.75606C6.81344 10.4296 6.82779 10.3556 6.7991 10.2667C6.7991 10.1481 6.85647 10.0889 6.97123 10.0889L7.05729 9.82222C7.11467 9.7037 7.1577 9.58518 7.18639 9.46667C7.24376 9.34815 7.32983 9.24444 7.44458 9.15555L7.48761 9.11111V9.73333C7.48761 9.85185 7.47327 9.97037 7.44458 10.0889C7.44458 10.1778 7.44458 10.2815 7.44458 10.4H7.48761C7.48761 10.4296 7.47327 10.4593 7.44458 10.4889C7.44458 10.6667 7.44458 10.7852 7.44458 10.8444C7.47327 10.8741 7.48761 10.9185 7.48761 10.9778C7.48761 11.0667 7.47327 11.1556 7.44458 11.2444C7.44458 11.3037 7.44458 11.363 7.44458 11.4222V11.8222C7.47327 11.8222 7.48761 11.8519 7.48761 11.9111C7.48761 11.9704 7.47327 12.1481 7.44458 12.4444C7.44458 12.7111 7.43024 13.0963 7.40155 13.6H7.44458C7.44458 13.7481 7.43024 13.9704 7.40155 14.2667C7.40155 14.563 7.37286 14.7852 7.31548 14.9333C7.2868 15.7926 7.25811 16.4296 7.22942 16.8444C7.20073 17.2593 7.17204 17.5852 7.14336 17.8222C7.14336 18.0296 7.12901 18.2222 7.10032 18.4C7.10032 18.5481 7.10032 18.7704 7.10032 19.0667C7.10032 19.2148 7.11467 19.3037 7.14336 19.3333L7.18639 20.3111C7.12901 20.3704 7.04295 22.0593 6.92819 25.3778H6.97123C6.94254 25.5556 6.92819 25.7333 6.92819 25.9111C6.92819 26.0889 6.91385 26.2667 6.88516 26.4444V27.6444C6.88516 27.8815 6.88516 28.2963 6.88516 28.8889C6.91385 29.4519 6.94254 30.2074 6.97123 31.1556C6.94254 31.1852 6.92819 31.2296 6.92819 31.2889L6.97123 31.4667C6.97123 31.4963 6.99991 31.5407 7.05729 31.6V31.6444L7.14336 31.6V31.6444C7.20073 31.6444 7.22942 31.6296 7.22942 31.6C7.25811 31.5407 7.30114 31.5111 7.35852 31.5111C7.32983 31.5111 7.38721 31.5259 7.53065 31.5556C7.70278 31.5852 7.88925 31.6148 8.09007 31.6444C8.29088 31.6444 8.47736 31.6593 8.64948 31.6889C8.8503 31.7185 8.96505 31.7333 8.99374 31.7333H12.3503C12.7519 31.7333 12.9814 31.7481 13.0388 31.7778V31.7333C13.1535 31.7037 13.2252 31.6741 13.2539 31.6444C13.2252 31.5259 13.1966 31.4667 13.1679 31.4667C13.1679 31.437 13.1679 31.3926 13.1679 31.3333H13.7273C13.7273 31.2444 13.7129 31.1407 13.6843 31.0222C13.6556 30.8741 13.6412 30.7259 13.6412 30.5778C13.6412 30.4593 13.6556 30.3852 13.6843 30.3556C13.7416 30.2963 13.7703 30.237 13.7703 30.1778C13.7703 30.1481 13.756 30.1185 13.7273 30.0889C13.7273 30.0593 13.7273 30.0296 13.7273 30L13.7703 29.9111C13.799 29.8815 13.8134 29.763 13.8134 29.5556V29.0667C13.8134 28.5926 13.799 28.2815 13.7703 28.1333C13.7416 27.9556 13.7273 27.7778 13.7273 27.6V26.9778C13.7273 26.8593 13.7273 26.5926 13.7273 26.1778C13.7273 25.763 13.7416 25.2148 13.7703 24.5333H13.7273C13.7273 24.3852 13.7273 24.3407 13.7273 24.4C13.7273 24.4296 13.7273 24.3556 13.7273 24.1778C13.756 23.9704 13.7703 23.5556 13.7703 22.9333C13.799 22.3111 13.8277 21.2593 13.8564 19.7778H13.8994V19.7333C13.8994 19.6741 13.9138 19.5259 13.9425 19.2889C13.9711 19.0519 13.9855 18.7259 13.9855 18.3111L14.0285 13.7333C14.0572 13.5852 14.0715 13.437 14.0715 13.2889C14.0715 13.1407 14.0859 12.9926 14.1146 12.8444H14.0285L14.1146 12.8L14.1576 11.6C14.215 11.3037 14.2437 11.1407 14.2437 11.1111H14.2006V9.24444C14.172 9.21481 14.1576 9.03704 14.1576 8.71111V7.2C14.1576 6.78519 14.172 6.47408 14.2006 6.26667C14.2293 6.05926 14.2437 5.94074 14.2437 5.91111L14.2006 2.08889C14.2006 2.02963 14.2006 2 14.2006 2C14.2293 2 14.2437 1.97037 14.2437 1.91111C14.215 1.88148 14.2006 1.85185 14.2006 1.82222ZM12.9527 6.4C12.9527 6.48889 12.9671 6.54815 12.9957 6.57778L12.9527 6.93333L12.9957 11.9556V12.2667C12.9957 12.5926 12.9814 12.9333 12.9527 13.2889C12.924 13.6444 12.9097 13.9852 12.9097 14.3111C12.9097 14.5481 12.9097 14.7407 12.9097 14.8889C12.9384 15.037 12.9527 15.2148 12.9527 15.4222C12.9527 15.6296 12.9384 15.7481 12.9097 15.7778V16.8C12.9097 16.8593 12.8953 16.9185 12.8666 16.9778C12.8666 17.037 12.8666 17.0963 12.8666 17.1556C12.8666 17.3333 12.8666 17.5111 12.8666 17.6889C12.8953 17.8667 12.9097 18.0296 12.9097 18.1778C12.9097 18.6222 12.8953 19.0963 12.8666 19.6C12.8666 20.0741 12.838 20.5185 12.7806 20.9333L12.8666 20.9778C12.838 21.0667 12.8236 21.2444 12.8236 21.5111L12.8666 22.3556V23.6C12.8666 23.6593 12.881 23.7037 12.9097 23.7333C12.881 23.763 12.8666 24 12.8666 24.4444C12.8666 24.7407 12.8666 25.0519 12.8666 25.3778C12.8953 25.7037 12.9097 26.0296 12.9097 26.3556C12.9097 27.363 12.8953 28.163 12.8666 28.7556C12.838 29.3185 12.7806 29.7481 12.6945 30.0444C12.6371 30.3407 12.5511 30.5333 12.4363 30.6222C12.3503 30.6815 12.2212 30.7111 12.049 30.7111H11.4896C11.2601 30.7111 11.0736 30.7259 10.9302 30.7556L8.90768 30.9778C8.8503 30.9778 8.80727 30.9778 8.77858 30.9778C8.74989 30.9481 8.70686 30.9333 8.64948 30.9333L8.56342 30.9778C8.24785 30.9778 8.07572 30.963 8.04703 30.9333L8.004 25.2444C8.03269 24.7111 8.04703 24.2815 8.04703 23.9556C8.07572 23.6296 8.09007 23.1556 8.09007 22.5333C8.09007 21.9111 8.09007 21.0222 8.09007 19.8667C8.11875 18.6815 8.17613 16.9926 8.26219 14.8V14.2222C8.26219 13.9259 8.27654 13.7333 8.30523 13.6444C8.24785 13.6444 8.21916 13.5852 8.21916 13.4667H8.26219C8.31957 13.4074 8.34826 13.2889 8.34826 13.1111C8.34826 12.9333 8.34826 12.7556 8.34826 12.5778C8.34826 12.163 8.33391 11.9259 8.30523 11.8667C8.30523 11.8074 8.30523 11.7481 8.30523 11.6889L8.39129 11.6444H8.30523C8.33391 11.4667 8.34826 11.3185 8.34826 11.2C8.34826 11.0519 8.34826 10.9037 8.34826 10.7556V10.1333C8.31957 10.1037 8.30523 9.97037 8.30523 9.73333C8.30523 9.67407 8.30523 9.51111 8.30523 9.24444C8.33391 8.97778 8.3626 8.62222 8.39129 8.17778C8.3626 8.14815 8.34826 8.02963 8.34826 7.82222C8.34826 7.55556 8.41998 7.34815 8.56342 7.2C8.47736 6.93333 8.39129 6.8 8.30523 6.8L8.21916 6.84444V6.75556C8.07572 6.81482 7.98966 6.88889 7.96097 6.97778L7.35852 7.82222L7.01426 8.57778H6.92819L6.19665 10.2222H6.11058V10.3111L6.15361 10.2667C6.03886 10.3852 5.93845 10.5037 5.85239 10.6222C5.79501 10.7407 5.73764 10.8593 5.68026 10.9778C5.62288 11.0667 5.59419 11.1556 5.59419 11.2444L5.55116 11.3333C5.52247 11.363 5.47944 11.3778 5.42207 11.3778L0.94671 10.1778C0.94671 10.2074 0.932366 10.237 0.903678 10.2667C0.903678 10.2074 0.975398 10.0593 1.11884 9.82222C1.26228 9.58519 1.334 9.43704 1.334 9.37778H1.37703C1.43441 9.25926 1.50613 9.06667 1.59219 8.8C1.67826 8.53333 1.74998 8.37037 1.80736 8.31111L1.89342 7.91111H1.97948L2.15161 7.42222C2.1803 7.36296 2.19465 7.33333 2.19465 7.33333C2.19465 7.3037 2.20899 7.25926 2.23768 7.2L2.62497 6.35556C2.65366 6.2963 2.668 6.25185 2.668 6.22222C2.69669 6.16296 2.72538 6.1037 2.75406 6.04444L3.05529 5.28889L3.14136 5.24444L3.27045 4.8L3.91594 3.46667C3.94462 3.40741 3.95897 3.37778 3.95897 3.37778C3.95897 3.34815 3.97331 3.3037 4.002 3.24445L4.1311 2.84445C4.18847 2.84445 4.23151 2.82963 4.26019 2.8V2.66667C4.28888 2.63704 4.3606 2.51852 4.47536 2.31111C4.59011 2.07407 4.73355 1.80741 4.90568 1.51111H4.94871L4.90568 1.37778H5.16387C5.336 1.37778 5.43641 1.36296 5.4651 1.33333V1.37778C6.09624 1.34815 6.62697 1.33333 7.05729 1.33333C7.48761 1.33333 7.83187 1.33333 8.09007 1.33333H9.16587L10.4999 1.15556H11.963V1.06667H13.0818C13.0818 1.24444 13.0818 1.43704 13.0818 1.64445C13.1105 1.85185 13.1248 2.07407 13.1248 2.31111V2.75556C13.0962 2.75556 13.0675 2.77037 13.0388 2.8V3.6L12.9527 6.4Z" fill="#9EB5C8"/>
<path d="M36.3713 16.2222L36.3283 13.9111C36.2709 13.4667 36.2279 13.0667 36.1992 12.7111C36.1705 12.3259 36.1562 12 36.1562 11.7333C36.1562 10.963 36.1992 10.1778 36.2853 9.37778H36.1992V8.4C36.1705 8.37037 36.1562 8.34074 36.1562 8.31111L35.984 5.28889L35.7259 4.44444C35.7259 4.38518 35.5968 3.95556 35.3386 3.15556C34.9656 2.8 34.6787 2.53333 34.4779 2.35556C34.2771 2.14815 34.1337 2 34.0476 1.91111C33.9615 1.82222 33.9185 1.76296 33.9185 1.73333C33.9185 1.7037 33.9185 1.68889 33.9185 1.68889L33.316 1.33333L32.1972 0.8L30.0886 0.444444C29.8591 0.444444 29.6153 0.444444 29.3571 0.444444C29.0989 0.414815 28.8407 0.4 28.5825 0.4C28.2669 0.4 27.9514 0.444445 27.6358 0.533335C27.3489 0.592593 27.0907 0.622223 26.8612 0.622223C26.8325 0.622223 26.5887 0.651851 26.1297 0.71111C25.6993 0.740741 25.0682 0.814816 24.2362 0.933333L24.0641 0.977779C23.2322 1.18519 22.7731 1.28889 22.6871 1.28889L22.558 1.33333C22.558 1.39259 22.5149 1.43704 22.4289 1.46667C22.3428 1.46667 22.2711 1.46667 22.2137 1.46667L22.1277 1.55555C22.0703 1.61481 21.9699 1.65926 21.8264 1.68889C21.683 1.68889 21.5396 1.73333 21.3961 1.82222L21.224 1.91111C21.1666 1.97037 21.0662 2.02963 20.9228 2.08889C20.7793 2.11852 20.5785 2.22222 20.3203 2.4C20.0621 2.57778 19.7465 2.87407 19.3736 3.28889C19.0293 3.67407 18.642 4.23704 18.2117 4.97778H18.1687C18.1113 5.03704 17.9822 5.80741 17.7814 7.28889H17.6953L17.5232 8.48889L17.4802 10.5778C17.4802 10.8741 17.4945 11.0667 17.5232 11.1556L17.5662 11.2444C17.5949 11.4815 17.6093 11.6889 17.6093 11.8667C17.6093 12.0148 17.6093 12.1185 17.6093 12.1778H17.6523C17.681 12.2074 17.8101 12.6815 18.0396 13.6C18.3839 14.2222 18.6277 14.7111 18.7711 15.0667C18.9433 15.4222 19.0724 15.7037 19.1584 15.9111C19.2732 16.0889 19.3879 16.237 19.5027 16.3556C19.6174 16.4741 19.8183 16.5926 20.1051 16.7111V16.8444L20.9228 17.4222C21.0662 17.5407 21.181 17.6444 21.267 17.7333C21.3531 17.7926 21.4535 17.8667 21.5682 17.9556C21.7117 18.0444 21.8982 18.1333 22.1277 18.2222C22.3572 18.3111 22.7158 18.4148 23.2035 18.5333V18.6222L24.1502 18.8444C24.2936 18.9037 24.4514 18.9333 24.6235 18.9333C24.7957 18.9333 24.9678 18.9333 25.1399 18.9333H25.7854C25.9002 18.9333 26.0149 18.9333 26.1297 18.9333C26.2444 18.9333 26.3448 18.9481 26.4309 18.9778H26.603V18.8889C27.8079 18.6222 28.5108 18.4889 28.7116 18.4889H28.7977C28.8837 18.4889 28.9554 18.4593 29.0128 18.4C29.271 18.4 29.4001 18.5926 29.4001 18.9778C29.4001 19.3037 29.4001 19.5704 29.4001 19.7778C29.4001 19.9556 29.3858 20.1481 29.3571 20.3556C29.3284 20.563 29.271 20.8148 29.1849 21.1111C29.1276 21.3778 29.0415 21.763 28.9268 22.2667H28.8837C28.7116 22.5333 28.6112 22.7407 28.5825 22.8889C28.5538 23.0074 28.4964 23.1111 28.4104 23.2C28.3243 23.2593 28.1522 23.3333 27.894 23.4222C27.6358 23.5111 27.1911 23.6593 26.56 23.8667V23.8222C26.5026 23.8222 26.4165 23.8222 26.3018 23.8222C26.2157 23.7926 26.144 23.7778 26.0866 23.7778L25.9575 23.6889C25.0108 23.1259 24.4657 22.6518 24.3223 22.2667L24.2793 22.1333C24.2506 22.1333 24.2219 22.1185 24.1932 22.0889L24.1502 22C24.1502 21.9407 24.1502 21.8963 24.1502 21.8667C24.1789 21.837 24.1932 21.7926 24.1932 21.7333C24.1358 21.7333 24.0928 21.7185 24.0641 21.6889L23.8489 21.6L23.8059 21.6889L23.7629 21.6444C23.5908 21.6444 23.4186 21.6444 23.2465 21.6444C23.1031 21.6148 22.9453 21.6 22.7731 21.6V21.6444H22.6871C22.5436 21.6444 22.3285 21.6593 22.0416 21.6889C21.7547 21.7185 21.3818 21.7333 20.9228 21.7333L17.7814 21.7778V21.8667C17.6953 21.8667 17.6523 21.837 17.6523 21.7778L17.4371 21.8667C17.4371 22.4593 17.4658 22.9778 17.5232 23.4222C17.5806 23.8667 17.6093 24.3407 17.6093 24.8444H17.6523C17.681 24.9037 17.6953 25.0222 17.6953 25.2V25.5556H17.7814L17.8675 26.5778V26.6667C17.8388 26.8148 17.8675 26.9926 17.9535 27.2C18.0683 27.3778 18.2404 27.6741 18.4699 28.0889C18.7281 28.5926 18.9576 28.963 19.1584 29.2C19.3593 29.4074 19.5314 29.5556 19.6748 29.6444C19.8183 29.7333 19.9187 29.7926 19.976 29.8222C20.0621 29.8519 20.1051 29.9259 20.1051 30.0444H20.2342C20.2342 30.0741 20.2773 30.1185 20.3633 30.1778C20.4494 30.237 20.7363 30.3704 21.224 30.5778C21.6256 30.7852 21.8982 30.8889 22.0416 30.8889V30.9333L24.4944 31.6889L24.5805 31.6444L25.9575 31.7778V31.8667L27.3776 31.9111C27.4063 31.9407 27.8653 31.9556 28.7546 31.9556V32H29.0559C29.9165 31.8815 30.3755 31.7926 30.4329 31.7333L30.9062 31.5556L31.939 31.2889L32.9288 30.6667C33.273 30.4593 33.4451 30.3556 33.4451 30.3556C33.4738 30.3556 33.5025 30.3111 33.5312 30.2222H33.6173C33.646 30.1926 33.7177 30.1037 33.8324 29.9556C33.9472 29.8074 34.105 29.6 34.3058 29.3333L34.4349 29.1556H34.564C34.564 29.1259 34.607 29.037 34.6931 28.8889C34.8078 28.7407 34.9226 28.5778 35.0373 28.4C35.1808 28.2222 35.2955 28.0593 35.3816 27.9111C35.4963 27.763 35.5537 27.6741 35.5537 27.6444L35.4677 27.6889C35.4963 27.5111 35.5394 27.3037 35.5968 27.0667C35.6541 26.8 35.7115 26.5926 35.7689 26.4444V26.3111L36.0701 24.7111C36.1849 24.3556 36.2279 23.9407 36.1992 23.4667C36.1705 22.9926 36.2136 22.5778 36.3283 22.2222L36.5004 19.3778C36.5004 19.2296 36.4861 19.1111 36.4574 19.0222C36.4574 18.9037 36.4574 18.6519 36.4574 18.2667C36.4574 17.8815 36.4717 17.6444 36.5004 17.5556C36.5291 17.4667 36.5435 17.363 36.5435 17.2444C36.5435 17.0074 36.5291 16.8741 36.5004 16.8444V16.2222H36.3713ZM35.3386 18.3111V24.9778L35.1234 25.8667C35.0947 26.0741 35.066 26.2222 35.0373 26.3111C35.0373 26.3704 35.0373 26.4444 35.0373 26.5333H34.9943C34.9369 26.5926 34.8939 26.7704 34.8652 27.0667H34.7791V27.2889L34.3918 28.1778C34.3632 28.2074 34.3488 28.237 34.3488 28.2667C34.3488 28.2963 34.3345 28.3259 34.3058 28.3556C34.3058 28.3852 34.3058 28.4296 34.3058 28.4889L34.2197 28.6222C34.1623 28.8296 34.0906 28.9778 34.0046 29.0667C33.9472 29.1556 33.8181 29.3037 33.6173 29.5111L32.4554 30.1778C32.398 30.2074 32.3406 30.2222 32.2833 30.2222C32.2546 30.2222 32.2116 30.237 32.1542 30.2667L31.2935 30.6667H31.1214V30.7556L30.3899 30.8889L29.1419 31.0667V31.0222C29.1132 31.0519 29.0415 31.0667 28.9268 31.0667V31.0222C28.8981 31.0519 28.8694 31.0667 28.8407 31.0667L25.6563 31.2L25.312 31.1556V31.0667L22.644 30.4V30.3111C22.4719 30.3111 22.3715 30.2963 22.3428 30.2667L22.2568 30.1778C21.6543 29.8519 21.2957 29.6593 21.1809 29.6C21.0662 29.5111 20.9945 29.437 20.9658 29.3778L20.3633 29.0222C20.0478 28.4296 19.8039 27.9852 19.6318 27.6889C19.4597 27.3926 19.3592 27.2296 19.3306 27.2L19.2445 26.6667C19.2158 26.6667 19.1584 26.5778 19.0724 26.4C19.015 26.1926 18.9576 25.9704 18.9002 25.7333C18.8142 25.4667 18.7281 25.1556 18.642 24.8L18.2978 23.4667C18.2691 23.437 18.2548 23.3481 18.2548 23.2C18.2548 22.9037 18.2978 22.7259 18.3839 22.6667C18.4699 22.6074 18.4986 22.5778 18.4699 22.5778H18.642V22.4889L21.1379 22.2222H22.5149V22.1333L23.1174 22.0889C23.1461 22.1185 23.2895 22.1333 23.5477 22.1333C23.5764 22.4 23.6194 22.6519 23.6768 22.8889C23.7342 23.0963 23.7916 23.2889 23.8489 23.4667L23.8059 23.6444C23.8059 23.6741 23.8633 23.7185 23.978 23.7778C24.1215 23.837 24.1932 23.9556 24.1932 24.1333L24.2362 24.2222C24.2936 24.3111 24.3366 24.3704 24.3653 24.4C24.4227 24.4296 24.4801 24.4741 24.5375 24.5333L26.4309 25.2444C26.4883 25.2741 26.603 25.3037 26.7751 25.3333C26.976 25.3333 27.1624 25.3333 27.3346 25.3333C27.3919 25.3333 27.4493 25.3333 27.5067 25.3333C27.5641 25.3037 27.6071 25.2889 27.6358 25.2889L28.4964 25.0222L28.6686 24.8444C28.6973 24.8148 28.8263 24.6519 29.0559 24.3556C29.2854 24.0593 29.6153 23.6296 30.0456 23.0667L30.1747 22.0889H30.2608L30.3468 19.4667C30.3468 19.2296 30.3325 19.0222 30.3038 18.8444C30.2751 18.637 30.2608 18.4296 30.2608 18.2222H30.3468L30.0886 17.9111C30.0599 17.8815 30.0313 17.8222 30.0026 17.7333C30.0026 17.6148 30.0026 17.5407 30.0026 17.5111C29.8304 17.5111 29.687 17.5556 29.5722 17.6444C29.4862 17.7333 29.3714 17.8074 29.228 17.8667L27.8079 18.0444C27.6645 18.0444 27.4923 18.0593 27.2915 18.0889C27.1194 18.0889 26.9329 18.0889 26.7321 18.0889C26.646 18.0889 26.5456 18.0889 26.4309 18.0889C26.3161 18.0593 26.187 18.0296 26.0436 18H25.3551L23.2035 17.6889L21.3531 16.8889C21.3244 16.8593 21.31 16.8296 21.31 16.8L21.1379 16.8444C21.1092 16.8444 21.0662 16.8148 21.0088 16.7556L20.7506 16.4889C20.6646 16.3704 20.3203 16.0593 19.7179 15.5556L19.5888 15.4222C19.474 15.2444 19.3736 15.0963 19.2875 14.9778C19.2302 14.8296 19.1728 14.7111 19.1154 14.6222L18.9002 14.0444C18.7568 13.5407 18.6851 13.2741 18.6851 13.2444H18.642L18.556 11.6444C18.556 11.4963 18.556 11.3481 18.556 11.2C18.5847 11.0222 18.599 10.8593 18.599 10.7111C18.5703 10.1481 18.556 9.71852 18.556 9.42222C18.556 9.09629 18.556 8.87407 18.556 8.75556C18.556 8.60741 18.556 8.48889 18.556 8.4C18.5847 8.28148 18.6134 8.16296 18.642 8.04445C18.7568 7.27408 18.8285 6.68148 18.8572 6.26667C18.9146 5.85185 18.9433 5.62963 18.9433 5.6L19.0293 5.46667L19.0724 5.51111C19.1297 5.51111 19.1871 5.39259 19.2445 5.15556C19.3019 4.88889 19.4883 4.5037 19.8039 4C20.0621 3.73333 20.2629 3.52592 20.4064 3.37778C20.5785 3.22963 20.7076 3.11111 20.7937 3.02222L21.0088 2.8C21.0088 2.8 21.0375 2.78519 21.0949 2.75556H21.1809C21.2383 2.6963 21.3387 2.62222 21.4822 2.53333C21.6256 2.44444 21.9699 2.23704 22.5149 1.91111L22.8162 1.86667L24.7957 1.64445V1.55555L28.1091 1.37778C28.396 1.31852 28.5251 1.28889 28.4964 1.28889C28.6112 1.28889 29.5292 1.33333 31.2505 1.42222L32.5415 1.86667L32.7136 2.04445C32.771 2.13333 32.8283 2.19259 32.8857 2.22222C32.9718 2.25185 33.0722 2.31111 33.1869 2.4C33.3304 2.45926 33.4882 2.57778 33.6603 2.75556C33.8324 2.93333 34.0332 3.2 34.2628 3.55556C34.7505 4.32593 35.0517 4.96296 35.1664 5.46667C35.3099 5.94074 35.3816 6.38518 35.3816 6.8H35.4246C35.4533 6.85926 35.4677 7.11111 35.4677 7.55555H35.5107V13.4222L35.3386 14.0889V18.3111ZM30.0886 9.91111C30.0886 9.79259 30.103 9.71852 30.1317 9.68889L30.0886 9.37778C30.0599 9.34815 29.9595 9.22963 29.7874 9.02222C29.644 8.78518 29.4145 8.45926 29.0989 8.04445V8C28.8981 7.91111 28.7259 7.83704 28.5825 7.77778C28.4391 7.71852 28.2956 7.67407 28.1522 7.64444L26.5169 7.55555V7.6C26.2874 7.6 26.1583 7.61481 26.1297 7.64444L25.9145 7.73334C25.9145 7.82222 25.7424 8.05926 25.3981 8.44444L25.312 8.62222C25.2547 8.62222 25.226 8.63704 25.226 8.66666L24.9248 9.68889C24.9248 9.74815 24.9104 9.82222 24.8817 9.91111C24.8817 9.97037 24.8817 10.0296 24.8817 10.0889L24.9248 10.3556H25.0108L24.9248 10.4444C24.9248 10.5037 24.9391 10.5333 24.9678 10.5333L25.226 11.5111H25.312V11.6L25.8715 12.2222C25.9575 12.3111 26.0579 12.3852 26.1727 12.4444H26.2588C26.603 12.5926 26.8612 12.7111 27.0333 12.8C27.2342 12.8593 27.3633 12.9037 27.4206 12.9333L27.5067 12.8H28.5395L28.7546 12.7111L29.0989 12.4889C29.1849 12.4593 29.2567 12.3556 29.314 12.1778L29.5292 12.1333C29.73 11.8963 29.9165 11.1556 30.0886 9.91111ZM28.4534 12.3111C28.31 12.3111 28.2239 12.3259 28.1952 12.3556V12.4444H27.3776V12.3556L26.6891 12.1333C25.9145 11.3333 25.5272 10.6222 25.5272 10C25.5272 9.85185 25.5272 9.70371 25.5272 9.55556C25.5559 9.40741 25.5846 9.25926 25.6133 9.11111L26.0006 8.44444C26.1153 8.41481 26.3448 8.35556 26.6891 8.26667C27.0333 8.14815 27.3776 8.05926 27.7219 8C28.353 8 28.8407 8.25185 29.1849 8.75556C29.5579 9.22963 29.7444 9.65926 29.7444 10.0444C29.7444 10.0444 29.7157 10.1926 29.6583 10.4889L28.7546 12.1333L28.4534 12.3111Z" fill="#9EB5C8"/>
<path d="M58.4338 16.2222L58.3907 13.9111C58.3334 13.4667 58.2903 13.0667 58.2616 12.7111C58.233 12.3259 58.2186 12 58.2186 11.7333C58.2186 10.963 58.2616 10.1778 58.3477 9.37778H58.2616V8.4C58.233 8.37037 58.2186 8.34074 58.2186 8.31111L58.0465 5.28889L57.7883 4.44444C57.7883 4.38518 57.6592 3.95556 57.401 3.15556C57.0281 2.8 56.7412 2.53333 56.5404 2.35556C56.3395 2.14815 56.1961 2 56.11 1.91111C56.024 1.82222 55.9809 1.76296 55.9809 1.73333C55.9809 1.7037 55.9809 1.68889 55.9809 1.68889L55.3785 1.33333L54.2596 0.8L52.1511 0.444444C51.9216 0.444444 51.6777 0.444444 51.4195 0.444444C51.1613 0.414815 50.9031 0.4 50.6449 0.4C50.3294 0.4 50.0138 0.444445 49.6982 0.533335C49.4113 0.592593 49.1531 0.622223 48.9236 0.622223C48.895 0.622223 48.6511 0.651851 48.1921 0.71111C47.7618 0.740741 47.1306 0.814816 46.2987 0.933333L46.1265 0.977779C45.2946 1.18519 44.8356 1.28889 44.7495 1.28889L44.6204 1.33333C44.6204 1.39259 44.5774 1.43704 44.4913 1.46667C44.4053 1.46667 44.3335 1.46667 44.2762 1.46667L44.1901 1.55555C44.1327 1.61481 44.0323 1.65926 43.8889 1.68889C43.7454 1.68889 43.602 1.73333 43.4585 1.82222L43.2864 1.91111C43.229 1.97037 43.1286 2.02963 42.9852 2.08889C42.8418 2.11852 42.6409 2.22222 42.3827 2.4C42.1245 2.57778 41.809 2.87407 41.436 3.28889C41.0918 3.67407 40.7045 4.23704 40.2742 4.97778H40.2311C40.1737 5.03704 40.0447 5.80741 39.8438 7.28889H39.7578L39.5856 8.48889L39.5426 10.5778C39.5426 10.8741 39.557 11.0667 39.5856 11.1556L39.6287 11.2444C39.6574 11.4815 39.6717 11.6889 39.6717 11.8667C39.6717 12.0148 39.6717 12.1185 39.6717 12.1778H39.7147C39.7434 12.2074 39.8725 12.6815 40.102 13.6C40.4463 14.2222 40.6901 14.7111 40.8336 15.0667C41.0057 15.4222 41.1348 15.7037 41.2209 15.9111C41.3356 16.0889 41.4504 16.237 41.5651 16.3556C41.6799 16.4741 41.8807 16.5926 42.1676 16.7111V16.8444L42.9852 17.4222C43.1286 17.5407 43.2434 17.6444 43.3295 17.7333C43.4155 17.7926 43.5159 17.8667 43.6307 17.9556C43.7741 18.0444 43.9606 18.1333 44.1901 18.2222C44.4196 18.3111 44.7782 18.4148 45.2659 18.5333V18.6222L46.2126 18.8444C46.3561 18.9037 46.5138 18.9333 46.686 18.9333C46.8581 18.9333 47.0302 18.9333 47.2024 18.9333H47.8478C47.9626 18.9333 48.0773 18.9333 48.1921 18.9333C48.3068 18.9333 48.4073 18.9481 48.4933 18.9778H48.6655V18.8889C49.8704 18.6222 50.5732 18.4889 50.774 18.4889H50.8601C50.9462 18.4889 51.0179 18.4593 51.0753 18.4C51.3335 18.4 51.4625 18.5926 51.4625 18.9778C51.4625 19.3037 51.4625 19.5704 51.4625 19.7778C51.4625 19.9556 51.4482 20.1481 51.4195 20.3556C51.3908 20.563 51.3335 20.8148 51.2474 21.1111C51.19 21.3778 51.1039 21.763 50.9892 22.2667H50.9462C50.774 22.5333 50.6736 22.7407 50.6449 22.8889C50.6162 23.0074 50.5589 23.1111 50.4728 23.2C50.3867 23.2593 50.2146 23.3333 49.9564 23.4222C49.6982 23.5111 49.2536 23.6593 48.6224 23.8667V23.8222C48.565 23.8222 48.479 23.8222 48.3642 23.8222C48.2782 23.7926 48.2064 23.7778 48.1491 23.7778L48.02 23.6889C47.0733 23.1259 46.5282 22.6518 46.3847 22.2667L46.3417 22.1333C46.313 22.1333 46.2843 22.1185 46.2556 22.0889L46.2126 22C46.2126 21.9407 46.2126 21.8963 46.2126 21.8667C46.2413 21.837 46.2556 21.7926 46.2556 21.7333C46.1983 21.7333 46.1552 21.7185 46.1265 21.6889L45.9114 21.6L45.8684 21.6889L45.8253 21.6444C45.6532 21.6444 45.4811 21.6444 45.3089 21.6444C45.1655 21.6148 45.0077 21.6 44.8356 21.6V21.6444H44.7495C44.6061 21.6444 44.3909 21.6593 44.104 21.6889C43.8172 21.7185 43.4442 21.7333 42.9852 21.7333L39.8438 21.7778V21.8667C39.7578 21.8667 39.7147 21.837 39.7147 21.7778L39.4996 21.8667C39.4996 22.4593 39.5283 22.9778 39.5856 23.4222C39.643 23.8667 39.6717 24.3407 39.6717 24.8444H39.7147C39.7434 24.9037 39.7578 25.0222 39.7578 25.2V25.5556H39.8438L39.9299 26.5778V26.6667C39.9012 26.8148 39.9299 26.9926 40.016 27.2C40.1307 27.3778 40.3028 27.6741 40.5324 28.0889C40.7905 28.5926 41.0201 28.963 41.2209 29.2C41.4217 29.4074 41.5938 29.5556 41.7373 29.6444C41.8807 29.7333 41.9811 29.7926 42.0385 29.8222C42.1245 29.8519 42.1676 29.9259 42.1676 30.0444H42.2967C42.2967 30.0741 42.3397 30.1185 42.4258 30.1778C42.5118 30.237 42.7987 30.3704 43.2864 30.5778C43.6881 30.7852 43.9606 30.8889 44.104 30.8889V30.9333L46.5569 31.6889L46.6429 31.6444L48.02 31.7778V31.8667L49.44 31.9111C49.4687 31.9407 49.9277 31.9556 50.8171 31.9556V32H51.1183C51.9789 31.8815 52.4379 31.7926 52.4953 31.7333L52.9687 31.5556L54.0015 31.2889L54.9912 30.6667C55.3355 30.4593 55.5076 30.3556 55.5076 30.3556C55.5363 30.3556 55.565 30.3111 55.5936 30.2222H55.6797C55.7084 30.1926 55.7801 30.1037 55.8949 29.9556C56.0096 29.8074 56.1674 29.6 56.3682 29.3333L56.4973 29.1556H56.6264C56.6264 29.1259 56.6695 29.037 56.7555 28.8889C56.8703 28.7407 56.985 28.5778 57.0998 28.4C57.2432 28.2222 57.358 28.0593 57.444 27.9111C57.5588 27.763 57.6162 27.6741 57.6162 27.6444L57.5301 27.6889C57.5588 27.5111 57.6018 27.3037 57.6592 27.0667C57.7166 26.8 57.7739 26.5926 57.8313 26.4444V26.3111L58.1325 24.7111C58.2473 24.3556 58.2903 23.9407 58.2616 23.4667C58.233 22.9926 58.276 22.5778 58.3907 22.2222L58.5629 19.3778C58.5629 19.2296 58.5485 19.1111 58.5198 19.0222C58.5198 18.9037 58.5198 18.6519 58.5198 18.2667C58.5198 17.8815 58.5342 17.6444 58.5629 17.5556C58.5916 17.4667 58.6059 17.363 58.6059 17.2444C58.6059 17.0074 58.5916 16.8741 58.5629 16.8444V16.2222H58.4338ZM57.401 18.3111V24.9778L57.1858 25.8667C57.1571 26.0741 57.1285 26.2222 57.0998 26.3111C57.0998 26.3704 57.0998 26.4444 57.0998 26.5333H57.0567C56.9994 26.5926 56.9563 26.7704 56.9276 27.0667H56.8416V27.2889L56.4543 28.1778C56.4256 28.2074 56.4113 28.237 56.4113 28.2667C56.4113 28.2963 56.3969 28.3259 56.3682 28.3556C56.3682 28.3852 56.3682 28.4296 56.3682 28.4889L56.2822 28.6222C56.2248 28.8296 56.1531 28.9778 56.067 29.0667C56.0096 29.1556 55.8805 29.3037 55.6797 29.5111L54.5178 30.1778C54.4605 30.2074 54.4031 30.2222 54.3457 30.2222C54.317 30.2222 54.274 30.237 54.2166 30.2667L53.356 30.6667H53.1838V30.7556L52.4523 30.8889L51.2044 31.0667V31.0222C51.1757 31.0519 51.1039 31.0667 50.9892 31.0667V31.0222C50.9605 31.0519 50.9318 31.0667 50.9031 31.0667L47.7187 31.2L47.3745 31.1556V31.0667L44.7065 30.4V30.3111C44.5344 30.3111 44.4339 30.2963 44.4053 30.2667L44.3192 30.1778C43.7167 29.8519 43.3581 29.6593 43.2434 29.6C43.1286 29.5111 43.0569 29.437 43.0282 29.3778L42.4258 29.0222C42.1102 28.4296 41.8664 27.9852 41.6942 27.6889C41.5221 27.3926 41.4217 27.2296 41.393 27.2L41.3069 26.6667C41.2782 26.6667 41.2209 26.5778 41.1348 26.4C41.0774 26.1926 41.0201 25.9704 40.9627 25.7333C40.8766 25.4667 40.7905 25.1556 40.7045 24.8L40.3602 23.4667C40.3315 23.437 40.3172 23.3481 40.3172 23.2C40.3172 22.9037 40.3602 22.7259 40.4463 22.6667C40.5324 22.6074 40.561 22.5778 40.5324 22.5778H40.7045V22.4889L43.2004 22.2222H44.5774V22.1333L45.1798 22.0889C45.2085 22.1185 45.352 22.1333 45.6102 22.1333C45.6388 22.4 45.6819 22.6519 45.7393 22.8889C45.7966 23.0963 45.854 23.2889 45.9114 23.4667L45.8684 23.6444C45.8684 23.6741 45.9257 23.7185 46.0405 23.7778C46.1839 23.837 46.2556 23.9556 46.2556 24.1333L46.2987 24.2222C46.3561 24.3111 46.3991 24.3704 46.4278 24.4C46.4851 24.4296 46.5425 24.4741 46.5999 24.5333L48.4933 25.2444C48.5507 25.2741 48.6655 25.3037 48.8376 25.3333C49.0384 25.3333 49.2249 25.3333 49.397 25.3333C49.4544 25.3333 49.5118 25.3333 49.5691 25.3333C49.6265 25.3037 49.6695 25.2889 49.6982 25.2889L50.5589 25.0222L50.731 24.8444C50.7597 24.8148 50.8888 24.6519 51.1183 24.3556C51.3478 24.0593 51.6777 23.6296 52.108 23.0667L52.2371 22.0889H52.3232L52.4093 19.4667C52.4093 19.2296 52.3949 19.0222 52.3662 18.8444C52.3375 18.637 52.3232 18.4296 52.3232 18.2222H52.4093L52.1511 17.9111C52.1224 17.8815 52.0937 17.8222 52.065 17.7333C52.065 17.6148 52.065 17.5407 52.065 17.5111C51.8929 17.5111 51.7494 17.5556 51.6347 17.6444C51.5486 17.7333 51.4339 17.8074 51.2904 17.8667L49.8704 18.0444C49.7269 18.0444 49.5548 18.0593 49.354 18.0889C49.1818 18.0889 48.9954 18.0889 48.7945 18.0889C48.7085 18.0889 48.6081 18.0889 48.4933 18.0889C48.3786 18.0593 48.2495 18.0296 48.106 18H47.4175L45.2659 17.6889L43.4155 16.8889C43.3868 16.8593 43.3725 16.8296 43.3725 16.8L43.2004 16.8444C43.1717 16.8444 43.1286 16.8148 43.0713 16.7556L42.8131 16.4889C42.727 16.3704 42.3827 16.0593 41.7803 15.5556L41.6512 15.4222C41.5364 15.2444 41.436 15.0963 41.35 14.9778C41.2926 14.8296 41.2352 14.7111 41.1778 14.6222L40.9627 14.0444C40.8192 13.5407 40.7475 13.2741 40.7475 13.2444H40.7045L40.6184 11.6444C40.6184 11.4963 40.6184 11.3481 40.6184 11.2C40.6471 11.0222 40.6614 10.8593 40.6614 10.7111C40.6328 10.1481 40.6184 9.71852 40.6184 9.42222C40.6184 9.09629 40.6184 8.87407 40.6184 8.75556C40.6184 8.60741 40.6184 8.48889 40.6184 8.4C40.6471 8.28148 40.6758 8.16296 40.7045 8.04445C40.8192 7.27408 40.891 6.68148 40.9196 6.26667C40.977 5.85185 41.0057 5.62963 41.0057 5.6L41.0918 5.46667L41.1348 5.51111C41.1922 5.51111 41.2496 5.39259 41.3069 5.15556C41.3643 4.88889 41.5508 4.5037 41.8664 4C42.1245 3.73333 42.3254 3.52592 42.4688 3.37778C42.6409 3.22963 42.77 3.11111 42.8561 3.02222L43.0713 2.8C43.0713 2.8 43.0999 2.78519 43.1573 2.75556H43.2434C43.3008 2.6963 43.4012 2.62222 43.5446 2.53333C43.6881 2.44444 44.0323 2.23704 44.5774 1.91111L44.8786 1.86667L46.8581 1.64445V1.55555L50.1716 1.37778C50.4585 1.31852 50.5876 1.28889 50.5589 1.28889C50.6736 1.28889 51.5916 1.33333 53.3129 1.42222L54.6039 1.86667L54.776 2.04445C54.8334 2.13333 54.8908 2.19259 54.9482 2.22222C55.0342 2.25185 55.1346 2.31111 55.2494 2.4C55.3928 2.45926 55.5506 2.57778 55.7227 2.75556C55.8949 2.93333 56.0957 3.2 56.3252 3.55556C56.8129 4.32593 57.1141 4.96296 57.2289 5.46667C57.3723 5.94074 57.444 6.38518 57.444 6.8H57.4871C57.5158 6.85926 57.5301 7.11111 57.5301 7.55555H57.5731V13.4222L57.401 14.0889V18.3111ZM52.1511 9.91111C52.1511 9.79259 52.1654 9.71852 52.1941 9.68889L52.1511 9.37778C52.1224 9.34815 52.022 9.22963 51.8498 9.02222C51.7064 8.78518 51.4769 8.45926 51.1613 8.04445V8C50.9605 7.91111 50.7884 7.83704 50.6449 7.77778C50.5015 7.71852 50.3581 7.67407 50.2146 7.64444L48.5794 7.55555V7.6C48.3499 7.6 48.2208 7.61481 48.1921 7.64444L47.9769 7.73334C47.9769 7.82222 47.8048 8.05926 47.4605 8.44444L47.3745 8.62222C47.3171 8.62222 47.2884 8.63704 47.2884 8.66666L46.9872 9.68889C46.9872 9.74815 46.9728 9.82222 46.9442 9.91111C46.9442 9.97037 46.9442 10.0296 46.9442 10.0889L46.9872 10.3556H47.0733L46.9872 10.4444C46.9872 10.5037 47.0015 10.5333 47.0302 10.5333L47.2884 11.5111H47.3745V11.6L47.9339 12.2222C48.02 12.3111 48.1204 12.3852 48.2351 12.4444H48.3212C48.6654 12.5926 48.9236 12.7111 49.0958 12.8C49.2966 12.8593 49.4257 12.9037 49.4831 12.9333L49.5691 12.8H50.6019L50.8171 12.7111L51.1613 12.4889C51.2474 12.4593 51.3191 12.3556 51.3765 12.1778L51.5916 12.1333C51.7925 11.8963 51.9789 11.1556 52.1511 9.91111ZM50.5158 12.3111C50.3724 12.3111 50.2863 12.3259 50.2576 12.3556V12.4444H49.44V12.3556L48.7515 12.1333C47.9769 11.3333 47.5896 10.6222 47.5896 10C47.5896 9.85185 47.5896 9.70371 47.5896 9.55556C47.6183 9.40741 47.647 9.25926 47.6757 9.11111L48.063 8.44444C48.1777 8.41481 48.4073 8.35556 48.7515 8.26667C49.0958 8.14815 49.44 8.05926 49.7843 8C50.4154 8 50.9031 8.25185 51.2474 8.75556C51.6203 9.22963 51.8068 9.65926 51.8068 10.0444C51.8068 10.0444 51.7781 10.1926 51.7207 10.4889L50.8171 12.1333L50.5158 12.3111Z" fill="#9EB5C8"/>
<path d="M77.1397 3.02222C77.1397 2.93333 77.1254 2.8 77.0967 2.62222C77.0967 2.44444 77.0823 2.26667 77.0536 2.08889C77.0536 1.88148 77.0393 1.68889 77.0106 1.51111C77.0106 1.33333 77.0106 1.21481 77.0106 1.15556C77.0106 1.03704 77.0106 0.933334 77.0106 0.844445C77.0393 0.755555 77.0536 0.651852 77.0536 0.533335C76.9102 0.503704 76.8385 0.474074 76.8385 0.444444C76.8672 0.414815 76.8098 0.4 76.6663 0.4L76.5803 0.488889C76.5803 0.51852 76.5516 0.533335 76.4942 0.533335C76.4368 0.533335 76.3651 0.51852 76.2791 0.488889C76.193 0.459259 76.1213 0.444444 76.0639 0.444444C75.9778 0.444444 75.9204 0.459259 75.8918 0.488889L75.2032 0.533335C74.9737 0.533335 74.7586 0.54815 74.5578 0.577779C74.3569 0.577779 74.1848 0.577779 74.0414 0.577779C73.9553 0.577779 73.8692 0.577779 73.7832 0.577779C73.7258 0.54815 73.6684 0.533335 73.611 0.533335V0.622223C73.5824 0.592594 73.5537 0.592594 73.525 0.622223C73.4963 0.622223 73.4533 0.607408 73.3959 0.577779V0.533335C73.3672 0.562964 72.7361 0.577779 71.5025 0.577779C71.2156 0.577779 71.0578 0.562964 71.0291 0.533335V0.577779C71.0004 0.607408 70.9574 0.622223 70.9 0.622223C70.8139 0.622223 70.7566 0.592593 70.7279 0.533335C70.6992 0.474075 70.6562 0.444444 70.5988 0.444444L70.5127 0.488889C70.5414 0.459259 70.484 0.503705 70.3406 0.622223C70.1972 0.740742 70.1254 0.814815 70.1254 0.844445L70.1685 1.02222L69.9963 1.15556V1.28889L69.7381 1.64445C69.7095 1.67407 69.6808 1.7037 69.6521 1.73333C69.6234 1.73333 69.4656 1.95556 69.1787 2.4C69.15 2.42963 69.1214 2.45926 69.0927 2.48889C69.0927 2.51852 69.0783 2.54815 69.0496 2.57778V2.66667C68.9923 2.72593 68.9062 2.85926 68.7914 3.06667C68.6767 3.24444 68.5906 3.33333 68.5332 3.33333V3.46667C68.5332 3.4963 68.4759 3.58518 68.3611 3.73333C68.2751 3.85185 68.1746 3.98519 68.0599 4.13334C67.9451 4.25185 67.8447 4.37037 67.7587 4.48889C67.6726 4.60741 67.6296 4.66667 67.6296 4.66667L67.5435 4.88889C67.5148 4.91852 67.4287 5.02222 67.2853 5.2C67.1706 5.37778 66.9984 5.65926 66.7689 6.04444L66.6398 6.35556C66.439 6.8 66.2525 7.08148 66.0804 7.2V7.28889C66.0517 7.31852 66.023 7.33333 65.9943 7.33333V7.46667C66.023 7.46667 65.937 7.61481 65.7361 7.91111C65.5353 8.20741 65.3202 8.53333 65.0907 8.88889C64.8612 9.24445 64.646 9.57037 64.4452 9.86667C64.2444 10.163 64.1583 10.3111 64.187 10.3111V10.4L64.0579 10.4889L63.4554 11.5556C63.4554 11.5852 63.4267 11.6296 63.3694 11.6889C62.9677 12.2519 62.7095 12.6074 62.5948 12.7556C62.5087 12.8741 62.4657 12.9481 62.4657 12.9778C62.4657 12.9778 62.48 12.9926 62.5087 13.0222H62.4657H62.5087C62.5087 13.0519 62.4657 13.1407 62.3796 13.2889C62.3223 13.437 62.2505 13.5852 62.1645 13.7333C62.0784 13.8815 61.9923 14.0296 61.9063 14.1778C61.8202 14.2963 61.7485 14.3556 61.6911 14.3556V14.4889C61.605 14.4889 61.5333 14.6963 61.476 15.1111L61.3899 15.6L60.7874 16.6222L60.8305 16.7556H60.9165V17.4667L61.2608 20.3556V20.9333C61.2895 20.963 61.3038 20.9926 61.3038 21.0222L61.3469 21.5556L61.3038 21.6889C61.3038 21.7481 61.3038 21.7778 61.3038 21.7778C61.3325 21.7778 61.3469 21.8074 61.3469 21.8667L61.3038 21.9111C61.2751 21.9407 61.2608 22.0296 61.2608 22.1778C61.2608 22.8889 61.4473 23.2444 61.8202 23.2444C61.8776 23.2444 61.9493 23.2444 62.0354 23.2444C62.1214 23.2148 62.2075 23.2 62.2936 23.2L66.1234 23.1556C66.1521 23.1259 66.2382 23.1111 66.3816 23.1111C66.5251 23.1111 66.6111 23.1259 66.6398 23.1556C66.6972 23.1556 66.9124 23.1556 67.2853 23.1556C67.6869 23.1556 68.2464 23.1407 68.9636 23.1111V23.0667L69.566 23.1556H69.8242C70.0537 23.1556 70.1972 23.3037 70.2545 23.6C70.3119 23.8667 70.3406 24.163 70.3406 24.4889V25.3778H70.2976C70.2976 25.4074 70.2976 25.4667 70.2976 25.5556C70.3263 25.6444 70.3406 25.763 70.3406 25.9111C70.3406 26.0889 70.3263 26.2963 70.2976 26.5333C70.2976 26.7407 70.2976 27.0074 70.2976 27.3333H70.2545L70.2976 27.3778C70.2689 27.4074 70.2545 27.437 70.2545 27.4667V28.5778L70.1685 28.6667C70.1685 28.7556 70.1828 28.8148 70.2115 28.8444H70.2545L70.1685 28.9778V31.2L70.2545 31.6889C70.2832 31.7185 70.2976 31.7926 70.2976 31.9111C70.3549 31.9111 70.4123 31.9111 70.4697 31.9111C70.5271 31.8815 70.5844 31.8667 70.6418 31.8667H71.4164C71.4451 31.837 71.5598 31.8222 71.7607 31.8222C71.9615 31.8222 72.3488 31.8074 72.9225 31.7778H73.3529C73.5537 31.7778 73.6684 31.763 73.6971 31.7333H76.1069V31.8222L76.236 31.7333C76.2647 31.763 76.2791 31.8074 76.2791 31.8667C76.4799 31.837 76.5659 31.8074 76.5372 31.7778C76.5086 31.7481 76.5229 31.6741 76.5803 31.5556H76.6663C76.6663 31.437 76.6807 31.363 76.7094 31.3333L76.7524 30.4889C76.7811 30.3407 76.7954 30.0296 76.7954 29.5556C76.8241 29.0518 76.8672 28.3852 76.9245 27.5556C76.9532 27.4667 76.9676 27.3926 76.9676 27.3333C76.9676 27.2741 76.9819 27.2148 77.0106 27.1556L77.1827 25.2444V24.4889C77.2114 24.2519 77.2688 24.0889 77.3549 24C77.4409 23.8815 77.527 23.8074 77.6131 23.7778C77.7278 23.7481 77.8569 23.7481 78.0003 23.7778C78.1438 23.7778 78.2872 23.763 78.4307 23.7333L79.2052 23.7778C79.2339 23.7481 79.32 23.6889 79.4634 23.6C79.6069 23.4815 79.7216 23.3926 79.8077 23.3333C79.8077 23.1852 79.7934 23.0815 79.7647 23.0222C79.736 22.963 79.7073 22.8741 79.6786 22.7556C79.736 22.7556 79.779 22.7704 79.8077 22.8V22.7111H79.7216V20.8C79.7503 20.7407 79.7647 20.5926 79.7647 20.3556C79.7647 20.2074 79.7503 20.0148 79.7216 19.7778C79.7216 19.5111 79.7216 19.3037 79.7216 19.1556C79.7216 19.0963 79.7216 18.9333 79.7216 18.6667C79.7216 18.3704 79.736 17.9407 79.7647 17.3778C79.7647 17.2593 79.7503 17.1704 79.7216 17.1111C79.7216 17.0519 79.7216 16.9778 79.7216 16.8889C79.7216 16.7407 79.736 16.6518 79.7647 16.6222C79.3917 16.4741 78.947 16.4 78.4307 16.4C77.943 16.3704 77.6131 16.3556 77.4409 16.3556V15.3778C77.4409 15.1704 77.4409 14.9926 77.4409 14.8444C77.4409 14.6667 77.4266 14.5185 77.3979 14.4C77.3979 14.3407 77.3979 14.2815 77.3979 14.2222C77.4266 14.1333 77.4409 14.0148 77.4409 13.8667C77.4409 13.7185 77.4266 13.5704 77.3979 13.4222C77.3979 13.2444 77.3979 13.037 77.3979 12.8L77.3549 12.1333V10.1778C77.3549 10.1185 77.3405 10.0593 77.3118 10C77.3118 9.94074 77.3118 9.88148 77.3118 9.82222L77.3549 9.73333C77.3835 9.7037 77.3979 9.6 77.3979 9.42222C77.3979 9.3037 77.3835 9.2 77.3549 9.11111C77.3549 8.99259 77.3549 8.9037 77.3549 8.84445L77.3979 8.8C77.3979 8.41482 77.3835 8.1037 77.3549 7.86666C77.3262 7.62963 77.3118 7.34815 77.3118 7.02222L77.2688 6.8H77.1827V6.44444L77.1397 3.02222ZM79.3343 18.8889C79.277 19.1259 79.2483 19.3333 79.2483 19.5111V21.9111C79.2483 22.1481 79.2196 22.3852 79.1622 22.6222L79.1192 23.1111C79.0618 23.1111 79.0044 23.1111 78.9471 23.1111C78.9184 23.0815 78.8753 23.0667 78.8179 23.0667L76.8385 23.0222C76.8098 22.9926 76.7954 22.963 76.7954 22.9333C76.8241 22.8741 76.8241 22.8296 76.7954 22.8L76.5803 22.7556C76.5803 22.8444 76.5516 22.9333 76.4942 23.0222C76.4655 23.1111 76.3795 23.2296 76.236 23.3778V23.9556C76.236 24.0148 76.2217 24.0741 76.193 24.1333C76.193 24.163 76.193 24.237 76.193 24.3556C76.193 24.4148 76.193 24.5185 76.193 24.6667C76.2217 24.7852 76.2504 24.963 76.2791 25.2V25.8222H76.3651L76.2791 25.8667V26.8L76.193 27.6444C76.193 27.7037 76.193 27.7481 76.193 27.7778C76.2217 27.8074 76.236 27.8519 76.236 27.9111H76.1069L76.0639 30.1333C76.0639 30.2519 76.0782 30.3259 76.1069 30.3556H76.0639C76.0352 30.4741 76.0209 30.5926 76.0209 30.7111C76.0209 30.8 76.0065 30.9037 75.9778 31.0222L75.9348 31.0667C75.7914 31.0963 75.5475 31.1111 75.2032 31.1111H73.611V31.2C73.5537 31.2 73.525 31.1852 73.525 31.1556L72.6643 31.1111H72.4492C72.191 31.1111 71.9328 31.1259 71.6746 31.1556C71.4451 31.1852 71.2156 31.2 70.9861 31.2C70.8426 31.2 70.7566 31.2 70.7279 31.2C70.7279 31.1704 70.7279 30.9926 70.7279 30.6667V30.5778C70.7566 30.5778 70.7709 30.5481 70.7709 30.4889C70.7422 30.4593 70.7279 30.4296 70.7279 30.4L70.9 28.5333C70.9287 28.4444 70.9574 28.4 70.9861 28.4H71.0721V28.2667V26.4444C71.0721 26.2667 71.0865 26.0593 71.1152 25.8222C71.1439 25.5852 71.1582 25.3481 71.1582 25.1111C71.0721 24.0148 70.9574 23.3333 70.814 23.0667L70.5127 22.6222L66.3386 22.5778C66.2812 22.5778 66.2382 22.5778 66.2095 22.5778C66.2095 22.5481 66.1808 22.5333 66.1234 22.5333C66.0947 22.5333 66.023 22.5333 65.9083 22.5333C65.7935 22.5037 65.607 22.4889 65.3489 22.4889C65.2054 22.4889 65.0333 22.5037 64.8325 22.5333C64.6603 22.5333 64.4595 22.5333 64.23 22.5333H63.8858L62.7239 22.4889C62.5804 22.4889 62.437 22.5037 62.2936 22.5333C62.1788 22.5333 62.0497 22.5333 61.9063 22.5333C61.9063 22.3259 61.8202 20.9481 61.6481 18.4H61.605L61.6481 18.3111V17.6C61.6481 17.4815 61.6624 17.4074 61.6911 17.3778V16.8444C61.8059 16.7259 61.9063 16.6518 61.9923 16.6222L62.1214 16.2222C62.2075 16.163 62.2936 16.0741 62.3796 15.9556C62.437 15.837 62.4944 15.6741 62.5518 15.4667C62.6091 15.2593 62.6378 14.9926 62.6378 14.6667C62.6952 14.6667 62.7526 14.6222 62.81 14.5333C62.8673 14.4444 62.9677 14.2963 63.1112 14.0889C63.2546 13.8519 63.4411 13.5407 63.6706 13.1556C63.9288 12.7407 64.273 12.2222 64.7034 11.6C64.7607 11.363 64.8325 11.2444 64.9185 11.2444V11.1111L65.0046 10.8889C65.2915 10.4444 65.5066 10.0741 65.6501 9.77778C65.8222 9.45185 65.9513 9.24444 66.0374 9.15555L66.4677 8.4C66.4964 8.34074 66.5394 8.28148 66.5968 8.22222C66.6255 8.19259 66.6398 8.16296 66.6398 8.13333H66.7259C66.7546 8.04444 66.7833 7.97037 66.812 7.91111C66.8406 7.85185 66.8693 7.79259 66.898 7.73334L66.9841 7.64444C67.0415 7.37778 67.1992 7.05185 67.4574 6.66667C67.7443 6.25185 67.9738 5.94074 68.146 5.73333V5.64444C68.232 5.55556 68.275 5.48148 68.275 5.42222H68.3611V5.33333C68.4759 5.15556 68.6193 4.93333 68.7914 4.66667C68.9349 4.42963 69.107 4.16296 69.3078 3.86667C69.5373 3.54074 69.8099 3.15556 70.1254 2.71111C70.3836 2.32593 70.5127 2.11852 70.5127 2.08889C70.5414 2.05926 70.5844 2.02963 70.6418 2V1.91111L70.7709 1.82222L70.9 1.42222H71.4164H71.5455C71.6029 1.42222 71.6459 1.42222 71.6746 1.42222C71.732 1.39259 71.775 1.37778 71.8037 1.37778V1.42222L74.6869 1.33333C74.8303 1.33333 74.9594 1.33333 75.0741 1.33333C75.2176 1.3037 75.361 1.28889 75.5045 1.28889C75.5619 1.28889 75.6336 1.3037 75.7196 1.33333C75.8057 1.33333 75.9204 1.34815 76.0639 1.37778L76.1069 4.22222C76.1356 4.25185 76.15 4.35556 76.15 4.53333C76.15 4.68148 76.1356 4.81481 76.1069 4.93333C76.1069 5.05185 76.1069 5.14074 76.1069 5.2L76.193 5.91111V7.77778L76.2791 8.08889V10.3111H76.3651L76.4081 11.4222C76.4081 12.1926 76.4225 12.963 76.4512 13.7333C76.4799 14.4741 76.4942 15.2444 76.4942 16.0444C76.4942 16.1037 76.4799 16.2074 76.4512 16.3556C76.4512 16.4741 76.4512 16.6074 76.4512 16.7556C76.4512 17.0222 76.4942 17.1852 76.5803 17.2444C76.695 17.3037 76.8241 17.3333 76.9676 17.3333V17.2444C77.111 17.2148 77.3262 17.2 77.6131 17.2C77.9286 17.1704 78.1725 17.1556 78.3446 17.1556C78.488 17.1556 78.5741 17.1704 78.6028 17.2C78.6315 17.2 78.7032 17.2 78.8179 17.2C78.9327 17.2 79.0044 17.1852 79.0331 17.1556L79.2483 17.1111V18.6667H79.3343V18.8889ZM72.7934 16.7111V15.7778H72.7074L72.7504 12.1333C72.7504 11.5407 72.8078 11.0519 72.9225 10.6667L72.9656 10.3111C72.9943 9.48148 73.0229 9.05185 73.0516 9.02222C73.0516 8.81481 73.0373 8.69629 73.0086 8.66666L72.9225 8.44444C72.8652 8.44444 72.8221 8.45926 72.7934 8.48889C72.7647 8.48889 72.7217 8.48889 72.6643 8.48889C72.6643 8.34074 72.65 8.19259 72.6213 8.04445C72.6213 7.86667 72.6213 7.7037 72.6213 7.55555C72.6213 7.49629 72.65 7.31852 72.7074 7.02222C72.5352 7.05185 72.4635 7.0963 72.4922 7.15556C72.5209 7.18519 72.4922 7.22963 72.4062 7.28889H72.3201L71.5025 8.08889C71.4451 8.11852 71.4021 8.14815 71.3734 8.17778C71.3734 8.17778 71.3447 8.19259 71.2873 8.22222V8.35555C71.2012 8.35555 71.1152 8.47407 71.0291 8.71111C70.9717 8.94815 70.7422 9.24445 70.3406 9.6V9.68889C70.3119 9.71852 70.2832 9.74815 70.2545 9.77778C70.2258 9.77778 70.1828 9.80741 70.1254 9.86667V10C70.0681 10.0593 70.025 10.0889 69.9963 10.0889V10.2222C69.7381 10.637 69.5804 10.8741 69.523 10.9333C69.4943 10.9926 69.4513 11.0815 69.3939 11.2H69.3078C69.2791 11.2296 69.2218 11.3037 69.1357 11.4222C69.0783 11.5111 68.9779 11.6593 68.8345 11.8667H68.7484L68.7914 11.9556C68.7914 12.0148 68.7627 12.0741 68.7054 12.1333C68.648 12.1926 68.605 12.2667 68.5763 12.3556L67.5435 14C67.4861 14.0593 67.4287 14.0889 67.3714 14.0889V14.2222L67.2423 14.3111V14.4C66.9841 15.1704 66.8263 15.5852 66.7689 15.6444H66.6829C66.6542 15.7037 66.6111 15.837 66.5538 16.0444C66.4964 16.2222 66.4103 16.4593 66.2956 16.7556L66.0374 17.0222C66.0374 17.1407 66.0804 17.2148 66.1665 17.2444V17.1111H66.2956L66.3386 17.3778C66.3673 17.3778 66.396 17.3778 66.4247 17.3778C66.4533 17.3481 66.4964 17.3333 66.5538 17.3333L66.6829 17.4222V17.3778C67.1706 17.3778 67.5148 17.3778 67.7156 17.3778C67.9164 17.3481 68.1316 17.3333 68.3611 17.3333V17.2889C68.9349 17.2593 69.3795 17.2444 69.6951 17.2444C70.0107 17.2148 70.1972 17.2 70.2545 17.2C70.4267 17.2 70.5414 17.2148 70.5988 17.2444C70.9144 17.2444 71.273 17.2296 71.6746 17.2C72.1049 17.1704 72.3918 17.0815 72.5352 16.9333L72.5783 16.8444C72.5783 16.7852 72.5639 16.7556 72.5352 16.7556L72.5783 16.6222C72.607 16.6222 72.65 16.6518 72.7074 16.7111L72.8795 16.7556L72.7934 16.7111ZM71.7607 15.8667C71.7893 15.8963 71.8037 15.9407 71.8037 16H71.7607L71.6746 16.6222L71.3303 16.6667C71.273 16.6667 71.1439 16.6815 70.943 16.7111C70.7709 16.7111 70.5701 16.7111 70.3406 16.7111C70.3119 16.6815 70.1828 16.6667 69.9533 16.6667L69.609 16.7556H68.8775H68.146H67.3283C67.3283 16.7259 67.3283 16.7111 67.3283 16.7111C67.357 16.6815 67.3714 16.6518 67.3714 16.6222C67.3714 16.5926 67.3857 16.5778 67.4144 16.5778L67.6296 16.2667C67.6869 16.2667 67.73 16.2074 67.7587 16.0889C67.816 15.9704 67.9595 15.7926 68.189 15.5556L68.5332 14.5333C68.5906 14.3259 68.6623 14.1481 68.7484 14C68.8345 13.8222 68.9062 13.7185 68.9636 13.6889V13.6C68.9636 13.5704 68.9923 13.5556 69.0496 13.5556V13.4222C69.107 13.3926 69.1357 13.3778 69.1357 13.3778C69.1644 13.3481 69.2074 13.3185 69.2648 13.2889L69.0496 13.1556C69.0783 13.1259 69.107 13.1111 69.1357 13.1111C69.1644 13.0815 69.1931 13.0519 69.2218 13.0222V12.9333C69.2791 12.8741 69.3222 12.8444 69.3509 12.8444C69.3795 12.8148 69.4082 12.7852 69.4369 12.7556V12.6667C69.5804 12.4296 69.6951 12.2519 69.7812 12.1333C69.8672 12.0148 69.9246 11.9407 69.9533 11.9111H70.0394L70.1254 11.6444C70.1828 11.6444 70.2258 11.6296 70.2545 11.6L70.3406 11.3333L70.814 10.8444V10.7111C70.9 10.7111 70.943 10.6519 70.943 10.5333H70.9861C71.0148 10.5037 71.0578 10.4296 71.1152 10.3111H71.2012C71.2586 10.1037 71.359 9.92593 71.5025 9.77778H71.5455C71.5455 10.1926 71.5312 10.5926 71.5025 10.9778C71.5025 11.363 71.5025 11.763 71.5025 12.1778C71.5885 12.563 71.6602 12.9481 71.7176 13.3333C71.775 13.6889 71.8037 14.0741 71.8037 14.4889H71.7607C71.7893 14.5185 71.8037 14.563 71.8037 14.6222V15.5111L71.7607 15.8667ZM77.3549 7.06667L77.3118 7.2L77.2688 7.06667H77.3549Z" fill="#9EB5C8"/>
</svg>
