<svg width="80" height="32" viewBox="0 0 80 32" fill="none" xmlns="http://www.w3.org/2000/svg">
<path d="M14.083 1.82222C14.083 1.67407 14.083 1.52593 14.083 1.37778C14.1114 1.22963 14.1257 1.08148 14.1257 0.933333H14.083C14.0545 0.874075 14.0403 0.844445 14.0403 0.844445C14.0403 0.814815 14.0261 0.77037 13.9976 0.71111H13.9123C13.9407 0.681481 13.955 0.607407 13.955 0.488889C13.9265 0.459259 13.9123 0.429629 13.9123 0.4C13.9123 0.34074 13.8981 0.296295 13.8696 0.266665L13.6989 0.222223C13.642 0.162965 13.6136 0.133335 13.6136 0.133335C13.6136 0.103704 13.5709 0.0888885 13.4855 0.0888885C13.4002 0.0888885 13.3148 0.103704 13.2295 0.133335C13.1726 0.162964 13.1299 0.177779 13.1015 0.177779V0.133335C12.9307 0.133335 12.76 0.162965 12.5893 0.222223C12.4186 0.251852 12.2479 0.266665 12.0772 0.266665H12.1199V0.133335C12.0061 0.133335 11.935 0.11852 11.9065 0.0888885C11.8781 0.0592592 11.6789 0.0444442 11.3091 0.0444442C11.1953 0.0444442 11.0388 0.0592592 10.8396 0.0888885C10.6405 0.0888885 10.4271 0.0888885 10.1995 0.0888885C10.0003 0.0888885 9.80119 0.103704 9.60204 0.133335C9.43134 0.133335 9.28909 0.133335 9.17528 0.133335C8.91923 0.133335 8.77698 0.11852 8.74853 0.0888885V0.177779C8.72008 0.14815 8.53515 0.133335 8.19374 0.133335V0.0444442C8.13684 0.0444442 8.06571 0.0444442 7.98036 0.0444442C7.92346 0.014815 7.86656 0 7.80966 0V0.0888885C7.78121 0.0592592 7.75276 0.0444442 7.72431 0.0444442C7.69586 0.0444442 7.66741 0.0296292 7.63896 0L6.61474 0.0444442V0.133335C6.58629 0.162964 6.51516 0.177779 6.40136 0.177779C6.34446 0.177779 6.28756 0.177779 6.23066 0.177779C6.17376 0.14815 6.11686 0.133335 6.05995 0.133335L5.03574 0.177779C4.89349 0.177779 4.80813 0.192594 4.77968 0.222223V0.0888885C4.66588 0.148149 4.58053 0.281482 4.52363 0.488889C4.49518 0.696297 4.4525 0.859261 4.3956 0.977779L4.2249 1.2C4.19645 1.25926 4.18222 1.31852 4.18222 1.37778C4.18222 1.40741 4.168 1.45185 4.13955 1.51111L3.92617 1.91111C3.92617 1.97037 3.91194 2.01482 3.88349 2.04445C3.88349 2.07407 3.88349 2.1037 3.88349 2.13333L3.62744 2.53333C3.48519 2.85926 3.37138 3.15556 3.28603 3.42222C3.20068 3.68889 3.158 3.85185 3.158 3.91111L2.60322 5.02222H2.51787L2.43252 5.24444C2.43252 5.48148 2.29026 5.79259 2.00576 6.17778L1.96308 6.31111C1.93463 6.31111 1.90618 6.32593 1.87773 6.35556V6.53333L0.810839 8.93333H0.725488C0.725488 9.11111 0.711262 9.21481 0.682812 9.24444L0.554785 9.46667C0.497884 9.58518 0.455208 9.68889 0.426757 9.77778L0.384082 10C0.355631 10.0296 0.327181 10.0444 0.29873 10.0444V10.0889C0.213379 10.1778 0.128027 10.3407 0.0426757 10.5778L0 10.5333V10.6667C0.056901 10.7259 0.113802 10.7556 0.170703 10.7556L0.128027 10.8889H0.213379C0.241829 10.9481 0.967317 11.1259 2.38984 11.4222C2.44674 11.4222 2.57477 11.437 2.77392 11.4667C3.00153 11.4667 3.158 11.4963 3.24336 11.5556L3.54209 11.6444L3.49941 11.7333L4.01152 11.8667L3.96884 11.9111L4.31025 11.8667L4.65166 11.9556L4.73701 11.8667C4.76546 11.8667 4.82236 11.8815 4.90771 11.9111C4.99306 11.9111 5.10686 11.9259 5.24912 11.9556L5.37714 12.0444L5.8039 11.9556L5.9746 11.8222C6.00305 11.7926 6.01728 11.763 6.01728 11.7333C6.01728 11.7037 6.0315 11.6741 6.05995 11.6444L6.18798 11.3333C6.18798 11.3333 6.21643 11.2593 6.27333 11.1111H6.31601C6.42981 10.9926 6.52939 10.7852 6.61474 10.4889H6.70009C6.75699 10.4296 6.77122 10.3556 6.74277 10.2667C6.74277 10.1481 6.79967 10.0889 6.91347 10.0889L6.99882 9.82222C7.05572 9.7037 7.0984 9.58518 7.12685 9.46667C7.18375 9.34815 7.2691 9.24444 7.3829 9.15555L7.42558 9.11111V9.73333C7.42558 9.85185 7.41135 9.97037 7.3829 10.0889C7.3829 10.1778 7.3829 10.2815 7.3829 10.4H7.42558C7.42558 10.4296 7.41135 10.4593 7.3829 10.4889C7.3829 10.6667 7.3829 10.7852 7.3829 10.8444C7.41135 10.8741 7.42558 10.9185 7.42558 10.9778C7.42558 11.0667 7.41135 11.1556 7.3829 11.2444C7.3829 11.3037 7.3829 11.363 7.3829 11.4222V11.8222C7.41135 11.8222 7.42558 11.8519 7.42558 11.9111C7.42558 11.9704 7.41135 12.1481 7.3829 12.4444C7.3829 12.7111 7.36868 13.0963 7.34023 13.6H7.3829C7.3829 13.7481 7.36868 13.9704 7.34023 14.2667C7.34023 14.563 7.31178 14.7852 7.25488 14.9333C7.22643 15.7926 7.19797 16.4296 7.16952 16.8444C7.14107 17.2593 7.11262 17.5852 7.08417 17.8222C7.08417 18.0296 7.06995 18.2222 7.0415 18.4C7.0415 18.5481 7.0415 18.7704 7.0415 19.0667C7.0415 19.2148 7.05572 19.3037 7.08417 19.3333L7.12685 20.3111C7.06995 20.3704 6.9846 22.0593 6.87079 25.3778H6.91347C6.88502 25.5556 6.87079 25.7333 6.87079 25.9111C6.87079 26.0889 6.85657 26.2667 6.82812 26.4444V27.6444C6.82812 27.8815 6.82812 28.2963 6.82812 28.8889C6.85657 29.4519 6.88502 30.2074 6.91347 31.1556C6.88502 31.1852 6.87079 31.2296 6.87079 31.2889L6.91347 31.4667C6.91347 31.4963 6.94192 31.5407 6.99882 31.6V31.6444L7.08417 31.6V31.6444C7.14107 31.6444 7.16952 31.6296 7.16952 31.6C7.19797 31.5407 7.24065 31.5111 7.29755 31.5111C7.2691 31.5111 7.326 31.5259 7.46825 31.5556C7.63896 31.5852 7.82389 31.6148 8.02304 31.6444C8.22219 31.6444 8.40712 31.6593 8.57782 31.6889C8.77698 31.7185 8.89078 31.7333 8.91923 31.7333H12.2479C12.6462 31.7333 12.8738 31.7481 12.9307 31.7778V31.7333C13.0446 31.7037 13.1157 31.6741 13.1441 31.6444C13.1157 31.5259 13.0872 31.4667 13.0588 31.4667C13.0588 31.437 13.0588 31.3926 13.0588 31.3333H13.6136C13.6136 31.2444 13.5993 31.1407 13.5709 31.0222C13.5424 30.8741 13.5282 30.7259 13.5282 30.5778C13.5282 30.4593 13.5424 30.3852 13.5709 30.3556C13.6278 30.2963 13.6562 30.237 13.6562 30.1778C13.6562 30.1481 13.642 30.1185 13.6136 30.0889C13.6136 30.0593 13.6136 30.0296 13.6136 30L13.6562 29.9111C13.6847 29.8815 13.6989 29.763 13.6989 29.5556V29.0667C13.6989 28.5926 13.6847 28.2815 13.6562 28.1333C13.6278 27.9556 13.6136 27.7778 13.6136 27.6V26.9778C13.6136 26.8593 13.6136 26.5926 13.6136 26.1778C13.6136 25.763 13.6278 25.2148 13.6562 24.5333H13.6136C13.6136 24.3852 13.6136 24.3407 13.6136 24.4C13.6136 24.4296 13.6136 24.3556 13.6136 24.1778C13.642 23.9704 13.6562 23.5556 13.6562 22.9333C13.6847 22.3111 13.7131 21.2593 13.7416 19.7778H13.7843V19.7333C13.7843 19.6741 13.7985 19.5259 13.8269 19.2889C13.8554 19.0519 13.8696 18.7259 13.8696 18.3111L13.9123 13.7333C13.9407 13.5852 13.955 13.437 13.955 13.2889C13.955 13.1407 13.9692 12.9926 13.9976 12.8444H13.9123L13.9976 12.8L14.0403 11.6C14.0972 11.3037 14.1257 11.1407 14.1257 11.1111H14.083V9.24444C14.0545 9.21481 14.0403 9.03704 14.0403 8.71111V7.2C14.0403 6.78519 14.0545 6.47408 14.083 6.26667C14.1114 6.05926 14.1257 5.94074 14.1257 5.91111L14.083 2.08889C14.083 2.02963 14.083 2 14.083 2C14.1114 2 14.1257 1.97037 14.1257 1.91111C14.0972 1.88148 14.083 1.85185 14.083 1.82222ZM12.8454 6.4C12.8454 6.48889 12.8596 6.54815 12.8881 6.57778L12.8454 6.93333L12.8881 11.9556V12.2667C12.8881 12.5926 12.8738 12.9333 12.8454 13.2889C12.8169 13.6444 12.8027 13.9852 12.8027 14.3111C12.8027 14.5481 12.8027 14.7407 12.8027 14.8889C12.8312 15.037 12.8454 15.2148 12.8454 15.4222C12.8454 15.6296 12.8312 15.7481 12.8027 15.7778V16.8C12.8027 16.8593 12.7885 16.9185 12.76 16.9778C12.76 17.037 12.76 17.0963 12.76 17.1556C12.76 17.3333 12.76 17.5111 12.76 17.6889C12.7885 17.8667 12.8027 18.0296 12.8027 18.1778C12.8027 18.6222 12.7885 19.0963 12.76 19.6C12.76 20.0741 12.7316 20.5185 12.6747 20.9333L12.76 20.9778C12.7316 21.0667 12.7174 21.2444 12.7174 21.5111L12.76 22.3556V23.6C12.76 23.6593 12.7743 23.7037 12.8027 23.7333C12.7743 23.763 12.76 24 12.76 24.4444C12.76 24.7407 12.76 25.0519 12.76 25.3778C12.7885 25.7037 12.8027 26.0296 12.8027 26.3556C12.8027 27.363 12.7885 28.163 12.76 28.7556C12.7316 29.3185 12.6747 29.7481 12.5893 30.0444C12.5324 30.3407 12.4471 30.5333 12.3333 30.6222C12.2479 30.6815 12.1199 30.7111 11.9492 30.7111H11.3944C11.1668 30.7111 10.9819 30.7259 10.8396 30.7556L8.83388 30.9778C8.77698 30.9778 8.7343 30.9778 8.70585 30.9778C8.6774 30.9481 8.63472 30.9333 8.57782 30.9333L8.49247 30.9778C8.17952 30.9778 8.00881 30.963 7.98036 30.9333L7.93769 25.2444C7.96614 24.7111 7.98036 24.2815 7.98036 23.9556C8.00881 23.6296 8.02304 23.1556 8.02304 22.5333C8.02304 21.9111 8.02304 21.0222 8.02304 19.8667C8.05149 18.6815 8.10839 16.9926 8.19374 14.8V14.2222C8.19374 13.9259 8.20797 13.7333 8.23642 13.6444C8.17952 13.6444 8.15107 13.5852 8.15107 13.4667H8.19374C8.25064 13.4074 8.27909 13.2889 8.27909 13.1111C8.27909 12.9333 8.27909 12.7556 8.27909 12.5778C8.27909 12.163 8.26487 11.9259 8.23642 11.8667C8.23642 11.8074 8.23642 11.7481 8.23642 11.6889L8.32177 11.6444H8.23642C8.26487 11.4667 8.27909 11.3185 8.27909 11.2C8.27909 11.0519 8.27909 10.9037 8.27909 10.7556V10.1333C8.25064 10.1037 8.23642 9.97037 8.23642 9.73333C8.23642 9.67407 8.23642 9.51111 8.23642 9.24444C8.26487 8.97778 8.29332 8.62222 8.32177 8.17778C8.29332 8.14815 8.27909 8.02963 8.27909 7.82222C8.27909 7.55556 8.35022 7.34815 8.49247 7.2C8.40712 6.93333 8.32177 6.8 8.23642 6.8L8.15107 6.84444V6.75556C8.00881 6.81482 7.92346 6.88889 7.89501 6.97778L7.29755 7.82222L6.95615 8.57778H6.87079L6.14531 10.2222H6.05995V10.3111L6.10263 10.2667C5.98883 10.3852 5.88925 10.5037 5.8039 10.6222C5.747 10.7407 5.6901 10.8593 5.6332 10.9778C5.5763 11.0667 5.54785 11.1556 5.54785 11.2444L5.50517 11.3333C5.47672 11.363 5.43404 11.3778 5.37714 11.3778L0.938866 10.1778C0.938866 10.2074 0.924641 10.237 0.896191 10.2667C0.896191 10.2074 0.967317 10.0593 1.10957 9.82222C1.25182 9.58519 1.32295 9.43704 1.32295 9.37778H1.36562C1.42252 9.25926 1.49365 9.06667 1.579 8.8C1.66435 8.53333 1.73548 8.37037 1.79238 8.31111L1.87773 7.91111H1.96308L2.13379 7.42222C2.16224 7.36296 2.17646 7.33333 2.17646 7.33333C2.17646 7.3037 2.19069 7.25926 2.21914 7.2L2.60322 6.35556C2.63167 6.2963 2.6459 6.25185 2.6459 6.22222C2.67435 6.16296 2.7028 6.1037 2.73125 6.04444L3.02998 5.28889L3.11533 5.24444L3.24336 4.8L3.88349 3.46667C3.91194 3.40741 3.92617 3.37778 3.92617 3.37778C3.92617 3.34815 3.94039 3.3037 3.96884 3.24445L4.09687 2.84445C4.15377 2.84445 4.19645 2.82963 4.2249 2.8V2.66667C4.25335 2.63704 4.32447 2.51852 4.43828 2.31111C4.55208 2.07407 4.69433 1.80741 4.86503 1.51111H4.90771L4.86503 1.37778H5.12109C5.29179 1.37778 5.39137 1.36296 5.41982 1.33333V1.37778C6.04573 1.34815 6.57206 1.33333 6.99882 1.33333C7.42558 1.33333 7.76698 1.33333 8.02304 1.33333H9.08993L10.4129 1.15556H11.8639V1.06667H12.9734C12.9734 1.24444 12.9734 1.43704 12.9734 1.64445C13.0019 1.85185 13.0161 2.07407 13.0161 2.31111V2.75556C12.9876 2.75556 12.9592 2.77037 12.9307 2.8V3.6L12.8454 6.4Z" fill="#9EB5C8"/>
<path d="M36.07 16.2222L36.0273 13.9111C35.9704 13.4667 35.9277 13.0667 35.8993 12.7111C35.8708 12.3259 35.8566 12 35.8566 11.7333C35.8566 10.963 35.8993 10.1778 35.9846 9.37778H35.8993V8.4C35.8708 8.37037 35.8566 8.34074 35.8566 8.31111L35.6859 5.28889L35.4299 4.44444C35.4299 4.38518 35.3018 3.95556 35.0458 3.15556C34.6759 2.8 34.3914 2.53333 34.1923 2.35556C33.9931 2.14815 33.8509 2 33.7655 1.91111C33.6802 1.82222 33.6375 1.76296 33.6375 1.73333C33.6375 1.7037 33.6375 1.68889 33.6375 1.68889L33.04 1.33333L31.9305 0.8L29.8393 0.444444C29.6117 0.444444 29.3699 0.444444 29.1139 0.444444C28.8578 0.414815 28.6017 0.4 28.3457 0.4C28.0327 0.4 27.7198 0.444445 27.4068 0.533335C27.1223 0.592593 26.8663 0.622223 26.6387 0.622223C26.6102 0.622223 26.3684 0.651851 25.9132 0.71111C25.4864 0.740741 24.8605 0.814816 24.0354 0.933333L23.8647 0.977779C23.0397 1.18519 22.5845 1.28889 22.4991 1.28889L22.3711 1.33333C22.3711 1.39259 22.3284 1.43704 22.2431 1.46667C22.1577 1.46667 22.0866 1.46667 22.0297 1.46667L21.9443 1.55555C21.8874 1.61481 21.7879 1.65926 21.6456 1.68889C21.5033 1.68889 21.3611 1.73333 21.2188 1.82222L21.0481 1.91111C20.9912 1.97037 20.8917 2.02963 20.7494 2.08889C20.6072 2.11852 20.408 2.22222 20.1519 2.4C19.8959 2.57778 19.5829 2.87407 19.2131 3.28889C18.8717 3.67407 18.4876 4.23704 18.0608 4.97778H18.0182C17.9613 5.03704 17.8332 5.80741 17.6341 7.28889H17.5487L17.378 8.48889L17.3354 10.5778C17.3354 10.8741 17.3496 11.0667 17.378 11.1556L17.4207 11.2444C17.4492 11.4815 17.4634 11.6889 17.4634 11.8667C17.4634 12.0148 17.4634 12.1185 17.4634 12.1778H17.5061C17.5345 12.2074 17.6625 12.6815 17.8901 13.6C18.2315 14.2222 18.4734 14.7111 18.6156 15.0667C18.7863 15.4222 18.9144 15.7037 18.9997 15.9111C19.1135 16.0889 19.2273 16.237 19.3411 16.3556C19.4549 16.4741 19.6541 16.5926 19.9386 16.7111V16.8444L20.7494 17.4222C20.8917 17.5407 21.0055 17.6444 21.0908 17.7333C21.1762 17.7926 21.2757 17.8667 21.3895 17.9556C21.5318 18.0444 21.7167 18.1333 21.9443 18.2222C22.1719 18.3111 22.5276 18.4148 23.0112 18.5333V18.6222L23.9501 18.8444C24.0923 18.9037 24.2488 18.9333 24.4195 18.9333C24.5902 18.9333 24.7609 18.9333 24.9316 18.9333H25.5718C25.6856 18.9333 25.7994 18.9333 25.9132 18.9333C26.027 18.9333 26.1266 18.9481 26.2119 18.9778H26.3826V18.8889C27.5775 18.6222 28.2746 18.4889 28.4737 18.4889H28.5591C28.6444 18.4889 28.7155 18.4593 28.7724 18.4C29.0285 18.4 29.1565 18.5926 29.1565 18.9778C29.1565 19.3037 29.1565 19.5704 29.1565 19.7778C29.1565 19.9556 29.1423 20.1481 29.1139 20.3556C29.0854 20.563 29.0285 20.8148 28.9432 21.1111C28.8862 21.3778 28.8009 21.763 28.6871 22.2667H28.6444C28.4737 22.5333 28.3741 22.7407 28.3457 22.8889C28.3172 23.0074 28.2603 23.1111 28.175 23.2C28.0896 23.2593 27.9189 23.3333 27.6629 23.4222C27.4068 23.5111 26.9658 23.6593 26.3399 23.8667V23.8222C26.283 23.8222 26.1977 23.8222 26.0839 23.8222C25.9985 23.7926 25.9274 23.7778 25.8705 23.7778L25.7425 23.6889C24.8036 23.1259 24.263 22.6518 24.1208 22.2667L24.0781 22.1333C24.0497 22.1333 24.0212 22.1185 23.9928 22.0889L23.9501 22C23.9501 21.9407 23.9501 21.8963 23.9501 21.8667C23.9785 21.837 23.9928 21.7926 23.9928 21.7333C23.9359 21.7333 23.8932 21.7185 23.8647 21.6889L23.6514 21.6L23.6087 21.6889L23.566 21.6444C23.3953 21.6444 23.2246 21.6444 23.0539 21.6444C22.9116 21.6148 22.7552 21.6 22.5845 21.6V21.6444H22.4991C22.3569 21.6444 22.1435 21.6593 21.859 21.6889C21.5745 21.7185 21.2046 21.7333 20.7494 21.7333L17.6341 21.7778V21.8667C17.5487 21.8667 17.5061 21.837 17.5061 21.7778L17.2927 21.8667C17.2927 22.4593 17.3211 22.9778 17.378 23.4222C17.4349 23.8667 17.4634 24.3407 17.4634 24.8444H17.5061C17.5345 24.9037 17.5487 25.0222 17.5487 25.2V25.5556H17.6341L17.7194 26.5778V26.6667C17.691 26.8148 17.7194 26.9926 17.8048 27.2C17.9186 27.3778 18.0893 27.6741 18.3169 28.0889C18.5729 28.5926 18.8006 28.963 18.9997 29.2C19.1989 29.4074 19.3696 29.5556 19.5118 29.6444C19.6541 29.7333 19.7536 29.7926 19.8105 29.8222C19.8959 29.8519 19.9386 29.9259 19.9386 30.0444H20.0666C20.0666 30.0741 20.1093 30.1185 20.1946 30.1778C20.28 30.237 20.5645 30.3704 21.0481 30.5778C21.4464 30.7852 21.7167 30.8889 21.859 30.8889V30.9333L24.2915 31.6889L24.3768 31.6444L25.7425 31.7778V31.8667L27.1508 31.9111C27.1792 31.9407 27.6344 31.9556 28.5164 31.9556V32H28.8151C29.6686 31.8815 30.1238 31.7926 30.1807 31.7333L30.6502 31.5556L31.6744 31.2889L32.6559 30.6667C32.9973 30.4593 33.168 30.3556 33.168 30.3556C33.1965 30.3556 33.2249 30.3111 33.2534 30.2222H33.3388C33.3672 30.1926 33.4383 30.1037 33.5521 29.9556C33.6659 29.8074 33.8224 29.6 34.0216 29.3333L34.1496 29.1556H34.2776C34.2776 29.1259 34.3203 29.037 34.4056 28.8889C34.5194 28.7407 34.6332 28.5778 34.7471 28.4C34.8893 28.2222 35.0031 28.0593 35.0885 27.9111C35.2023 27.763 35.2592 27.6741 35.2592 27.6444L35.1738 27.6889C35.2023 27.5111 35.2449 27.3037 35.3018 27.0667C35.3587 26.8 35.4156 26.5926 35.4725 26.4444V26.3111L35.7713 24.7111C35.8851 24.3556 35.9277 23.9407 35.8993 23.4667C35.8708 22.9926 35.9135 22.5778 36.0273 22.2222L36.198 19.3778C36.198 19.2296 36.1838 19.1111 36.1553 19.0222C36.1553 18.9037 36.1553 18.6519 36.1553 18.2667C36.1553 17.8815 36.1696 17.6444 36.198 17.5556C36.2265 17.4667 36.2407 17.363 36.2407 17.2444C36.2407 17.0074 36.2265 16.8741 36.198 16.8444V16.2222H36.07ZM35.0458 18.3111V24.9778L34.8324 25.8667C34.804 26.0741 34.7755 26.2222 34.7471 26.3111C34.7471 26.3704 34.7471 26.4444 34.7471 26.5333H34.7044C34.6475 26.5926 34.6048 26.7704 34.5763 27.0667H34.491V27.2889L34.1069 28.1778C34.0785 28.2074 34.0642 28.237 34.0642 28.2667C34.0642 28.2963 34.05 28.3259 34.0216 28.3556C34.0216 28.3852 34.0216 28.4296 34.0216 28.4889L33.9362 28.6222C33.8793 28.8296 33.8082 28.9778 33.7228 29.0667C33.6659 29.1556 33.5379 29.3037 33.3388 29.5111L32.1865 30.1778C32.1296 30.2074 32.0727 30.2222 32.0158 30.2222C31.9874 30.2222 31.9447 30.237 31.8878 30.2667L31.0343 30.6667H30.8636V30.7556L30.1381 30.8889L28.9005 31.0667V31.0222C28.872 31.0519 28.8009 31.0667 28.6871 31.0667V31.0222C28.6586 31.0519 28.6302 31.0667 28.6017 31.0667L25.4437 31.2L25.1023 31.1556V31.0667L22.4564 30.4V30.3111C22.2857 30.3111 22.1862 30.2963 22.1577 30.2667L22.0724 30.1778C21.4749 29.8519 21.1193 29.6593 21.0055 29.6C20.8917 29.5111 20.8205 29.437 20.7921 29.3778L20.1946 29.0222C19.8817 28.4296 19.6398 27.9852 19.4691 27.6889C19.2984 27.3926 19.1989 27.2296 19.1704 27.2L19.0851 26.6667C19.0566 26.6667 18.9997 26.5778 18.9144 26.4C18.8575 26.1926 18.8006 25.9704 18.7437 25.7333C18.6583 25.4667 18.5729 25.1556 18.4876 24.8L18.1462 23.4667C18.1177 23.437 18.1035 23.3481 18.1035 23.2C18.1035 22.9037 18.1462 22.7259 18.2315 22.6667C18.3169 22.6074 18.3453 22.5778 18.3169 22.5778H18.4876V22.4889L20.9628 22.2222H22.3284V22.1333L22.9259 22.0889C22.9543 22.1185 23.0966 22.1333 23.3526 22.1333C23.3811 22.4 23.4238 22.6519 23.4807 22.8889C23.5376 23.0963 23.5945 23.2889 23.6514 23.4667L23.6087 23.6444C23.6087 23.6741 23.6656 23.7185 23.7794 23.7778C23.9216 23.837 23.9928 23.9556 23.9928 24.1333L24.0354 24.2222C24.0923 24.3111 24.135 24.3704 24.1635 24.4C24.2204 24.4296 24.2773 24.4741 24.3342 24.5333L26.2119 25.2444C26.2688 25.2741 26.3826 25.3037 26.5533 25.3333C26.7525 25.3333 26.9374 25.3333 27.1081 25.3333C27.165 25.3333 27.2219 25.3333 27.2788 25.3333C27.3357 25.3037 27.3784 25.2889 27.4068 25.2889L28.2603 25.0222L28.431 24.8444C28.4595 24.8148 28.5875 24.6519 28.8151 24.3556C29.0427 24.0593 29.3699 23.6296 29.7967 23.0667L29.9247 22.0889H30.01L30.0954 19.4667C30.0954 19.2296 30.0812 19.0222 30.0527 18.8444C30.0243 18.637 30.01 18.4296 30.01 18.2222H30.0954L29.8393 17.9111C29.8109 17.8815 29.7824 17.8222 29.754 17.7333C29.754 17.6148 29.754 17.5407 29.754 17.5111C29.5833 17.5111 29.441 17.5556 29.3272 17.6444C29.2419 17.7333 29.1281 17.8074 28.9858 17.8667L27.5775 18.0444C27.4353 18.0444 27.2646 18.0593 27.0654 18.0889C26.8947 18.0889 26.7098 18.0889 26.5106 18.0889C26.4253 18.0889 26.3257 18.0889 26.2119 18.0889C26.0981 18.0593 25.9701 18.0296 25.8278 18H25.145L23.0112 17.6889L21.1762 16.8889C21.1477 16.8593 21.1335 16.8296 21.1335 16.8L20.9628 16.8444C20.9343 16.8444 20.8917 16.8148 20.8348 16.7556L20.5787 16.4889C20.4934 16.3704 20.152 16.0593 19.5545 15.5556L19.4265 15.4222C19.3127 15.2444 19.2131 15.0963 19.1277 14.9778C19.0708 14.8296 19.0139 14.7111 18.957 14.6222L18.7437 14.0444C18.6014 13.5407 18.5303 13.2741 18.5303 13.2444H18.4876L18.4022 11.6444C18.4022 11.4963 18.4022 11.3481 18.4022 11.2C18.4307 11.0222 18.4449 10.8593 18.4449 10.7111C18.4165 10.1481 18.4022 9.71852 18.4022 9.42222C18.4022 9.09629 18.4022 8.87407 18.4022 8.75556C18.4022 8.60741 18.4022 8.48889 18.4022 8.4C18.4307 8.28148 18.4591 8.16296 18.4876 8.04445C18.6014 7.27408 18.6725 6.68148 18.701 6.26667C18.7579 5.85185 18.7863 5.62963 18.7863 5.6L18.8717 5.46667L18.9144 5.51111C18.9713 5.51111 19.0282 5.39259 19.0851 5.15556C19.142 4.88889 19.3269 4.5037 19.6398 4C19.8959 3.73333 20.095 3.52592 20.2373 3.37778C20.408 3.22963 20.536 3.11111 20.6214 3.02222L20.8348 2.8C20.8348 2.8 20.8632 2.78519 20.9201 2.75556H21.0055C21.0624 2.6963 21.1619 2.62222 21.3042 2.53333C21.4464 2.44444 21.7879 2.23704 22.3284 1.91111L22.6271 1.86667L24.5902 1.64445V1.55555L27.8763 1.37778C28.1608 1.31852 28.2888 1.28889 28.2603 1.28889C28.3741 1.28889 29.2846 1.33333 30.9916 1.42222L32.2719 1.86667L32.4426 2.04445C32.4995 2.13333 32.5564 2.19259 32.6133 2.22222C32.6986 2.25185 32.7982 2.31111 32.912 2.4C33.0542 2.45926 33.2107 2.57778 33.3814 2.75556C33.5521 2.93333 33.7513 3.2 33.9789 3.55556C34.4625 4.32593 34.7613 4.96296 34.8751 5.46667C35.0173 5.94074 35.0885 6.38518 35.0885 6.8H35.1311C35.1596 6.85926 35.1738 7.11111 35.1738 7.55555H35.2165V13.4222L35.0458 14.0889V18.3111ZM29.8393 9.91111C29.8393 9.79259 29.8536 9.71852 29.882 9.68889L29.8393 9.37778C29.8109 9.34815 29.7113 9.22963 29.5406 9.02222C29.3984 8.78518 29.1708 8.45926 28.8578 8.04445V8C28.6586 7.91111 28.4879 7.83704 28.3457 7.77778C28.2034 7.71852 28.0612 7.67407 27.9189 7.64444L26.2973 7.55555V7.6C26.0697 7.6 25.9416 7.61481 25.9132 7.64444L25.6998 7.73334C25.6998 7.82222 25.5291 8.05926 25.1877 8.44444L25.1023 8.62222C25.0454 8.62222 25.017 8.63704 25.017 8.66666L24.7183 9.68889C24.7183 9.74815 24.704 9.82222 24.6756 9.91111C24.6756 9.97037 24.6756 10.0296 24.6756 10.0889L24.7183 10.3556H24.8036L24.7183 10.4444C24.7183 10.5037 24.7325 10.5333 24.7609 10.5333L25.017 11.5111H25.1023V11.6L25.6571 12.2222C25.7425 12.3111 25.842 12.3852 25.9558 12.4444H26.0412C26.3826 12.5926 26.6387 12.7111 26.8094 12.8C27.0085 12.8593 27.1365 12.9037 27.1934 12.9333L27.2788 12.8H28.303L28.5164 12.7111L28.8578 12.4889C28.9432 12.4593 29.0143 12.3556 29.0712 12.1778L29.2846 12.1333C29.4837 11.8963 29.6686 11.1556 29.8393 9.91111ZM28.2177 12.3111C28.0754 12.3111 27.9901 12.3259 27.9616 12.3556V12.4444H27.1508V12.3556L26.468 12.1333C25.6998 11.3333 25.3157 10.6222 25.3157 10C25.3157 9.85185 25.3157 9.70371 25.3157 9.55556C25.3442 9.40741 25.3726 9.25926 25.4011 9.11111L25.7851 8.44444C25.8989 8.41481 26.1266 8.35556 26.468 8.26667C26.8094 8.14815 27.1508 8.05926 27.4922 8C28.1181 8 28.6017 8.25185 28.9432 8.75556C29.313 9.22963 29.4979 9.65926 29.4979 10.0444C29.4979 10.0444 29.4695 10.1926 29.4126 10.4889L28.5164 12.1333L28.2177 12.3111Z" fill="#9EB5C8"/>
<path d="M57.9496 16.2222L57.907 13.9111C57.8501 13.4667 57.8074 13.0667 57.7789 12.7111C57.7505 12.3259 57.7363 12 57.7363 11.7333C57.7363 10.963 57.7789 10.1778 57.8643 9.37778H57.7789V8.4C57.7505 8.37037 57.7363 8.34074 57.7363 8.31111L57.5656 5.28889L57.3095 4.44444C57.3095 4.38518 57.1815 3.95556 56.9254 3.15556C56.5556 2.8 56.2711 2.53333 56.0719 2.35556C55.8728 2.14815 55.7305 2 55.6452 1.91111C55.5598 1.82222 55.5171 1.76296 55.5171 1.73333C55.5171 1.7037 55.5171 1.68889 55.5171 1.68889L54.9197 1.33333L53.8101 0.8L51.719 0.444444C51.4914 0.444444 51.2496 0.444444 50.9935 0.444444C50.7374 0.414815 50.4814 0.4 50.2253 0.4C49.9124 0.4 49.5994 0.444445 49.2865 0.533335C49.002 0.592593 48.7459 0.622223 48.5183 0.622223C48.4899 0.622223 48.248 0.651851 47.7928 0.71111C47.3661 0.740741 46.7402 0.814816 45.9151 0.933333L45.7444 0.977779C44.9193 1.18519 44.4641 1.28889 44.3788 1.28889L44.2507 1.33333C44.2507 1.39259 44.2081 1.43704 44.1227 1.46667C44.0374 1.46667 43.9662 1.46667 43.9093 1.46667L43.824 1.55555C43.7671 1.61481 43.6675 1.65926 43.5252 1.68889C43.383 1.68889 43.2407 1.73333 43.0985 1.82222L42.9278 1.91111C42.8709 1.97037 42.7713 2.02963 42.6291 2.08889C42.4868 2.11852 42.2877 2.22222 42.0316 2.4C41.7755 2.57778 41.4626 2.87407 41.0927 3.28889C40.7513 3.67407 40.3672 4.23704 39.9405 4.97778H39.8978C39.8409 5.03704 39.7129 5.80741 39.5137 7.28889H39.4284L39.2577 8.48889L39.215 10.5778C39.215 10.8741 39.2292 11.0667 39.2577 11.1556L39.3004 11.2444C39.3288 11.4815 39.343 11.6889 39.343 11.8667C39.343 12.0148 39.343 12.1185 39.343 12.1778H39.3857C39.4142 12.2074 39.5422 12.6815 39.7698 13.6C40.1112 14.2222 40.353 14.7111 40.4953 15.0667C40.666 15.4222 40.794 15.7037 40.8794 15.9111C40.9932 16.0889 41.107 16.237 41.2208 16.3556C41.3346 16.4741 41.5337 16.5926 41.8182 16.7111V16.8444L42.6291 17.4222C42.7713 17.5407 42.8851 17.6444 42.9705 17.7333C43.0558 17.7926 43.1554 17.8667 43.2692 17.9556C43.4114 18.0444 43.5964 18.1333 43.824 18.2222C44.0516 18.3111 44.4072 18.4148 44.8909 18.5333V18.6222L45.8297 18.8444C45.972 18.9037 46.1285 18.9333 46.2992 18.9333C46.4699 18.9333 46.6406 18.9333 46.8113 18.9333H47.4514C47.5652 18.9333 47.679 18.9333 47.7928 18.9333C47.9066 18.9333 48.0062 18.9481 48.0915 18.9778H48.2623V18.8889C49.4572 18.6222 50.1542 18.4889 50.3534 18.4889H50.4387C50.5241 18.4889 50.5952 18.4593 50.6521 18.4C50.9081 18.4 51.0362 18.5926 51.0362 18.9778C51.0362 19.3037 51.0362 19.5704 51.0362 19.7778C51.0362 19.9556 51.022 20.1481 50.9935 20.3556C50.9651 20.563 50.9082 20.8148 50.8228 21.1111C50.7659 21.3778 50.6805 21.763 50.5667 22.2667H50.5241C50.3534 22.5333 50.2538 22.7407 50.2253 22.8889C50.1969 23.0074 50.14 23.1111 50.0546 23.2C49.9693 23.2593 49.7986 23.3333 49.5425 23.4222C49.2865 23.5111 48.8455 23.6593 48.2196 23.8667V23.8222C48.1627 23.8222 48.0773 23.8222 47.9635 23.8222C47.8782 23.7926 47.807 23.7778 47.7501 23.7778L47.6221 23.6889C46.6833 23.1259 46.1427 22.6518 46.0004 22.2667L45.9578 22.1333C45.9293 22.1333 45.9009 22.1185 45.8724 22.0889L45.8297 22C45.8297 21.9407 45.8297 21.8963 45.8297 21.8667C45.8582 21.837 45.8724 21.7926 45.8724 21.7333C45.8155 21.7333 45.7728 21.7185 45.7444 21.6889L45.531 21.6L45.4883 21.6889L45.4457 21.6444C45.275 21.6444 45.1043 21.6444 44.9335 21.6444C44.7913 21.6148 44.6348 21.6 44.4641 21.6V21.6444H44.3788C44.2365 21.6444 44.0231 21.6593 43.7386 21.6889C43.4541 21.7185 43.0843 21.7333 42.6291 21.7333L39.5137 21.7778V21.8667C39.4284 21.8667 39.3857 21.837 39.3857 21.7778L39.1723 21.8667C39.1723 22.4593 39.2008 22.9778 39.2577 23.4222C39.3146 23.8667 39.343 24.3407 39.343 24.8444H39.3857C39.4142 24.9037 39.4284 25.0222 39.4284 25.2V25.5556H39.5137L39.5991 26.5778V26.6667C39.5706 26.8148 39.5991 26.9926 39.6844 27.2C39.7982 27.3778 39.9689 27.6741 40.1965 28.0889C40.4526 28.5926 40.6802 28.963 40.8794 29.2C41.0785 29.4074 41.2492 29.5556 41.3915 29.6444C41.5337 29.7333 41.6333 29.7926 41.6902 29.8222C41.7755 29.8519 41.8182 29.9259 41.8182 30.0444H41.9462C41.9462 30.0741 41.9889 30.1185 42.0743 30.1778C42.1596 30.237 42.4441 30.3704 42.9278 30.5778C43.3261 30.7852 43.5964 30.8889 43.7386 30.8889V30.9333L46.1711 31.6889L46.2565 31.6444L47.6221 31.7778V31.8667L49.0304 31.9111C49.0589 31.9407 49.5141 31.9556 50.396 31.9556V32H50.6948C51.5483 31.8815 52.0035 31.7926 52.0604 31.7333L52.5298 31.5556L53.554 31.2889L54.5356 30.6667C54.877 30.4593 55.0477 30.3556 55.0477 30.3556C55.0761 30.3556 55.1046 30.3111 55.1331 30.2222H55.2184C55.2469 30.1926 55.318 30.1037 55.4318 29.9556C55.5456 29.8074 55.7021 29.6 55.9012 29.3333L56.0292 29.1556H56.1573C56.1573 29.1259 56.1999 29.037 56.2853 28.8889C56.3991 28.7407 56.5129 28.5778 56.6267 28.4C56.769 28.2222 56.8828 28.0593 56.9681 27.9111C57.0819 27.763 57.1388 27.6741 57.1388 27.6444L57.0535 27.6889C57.0819 27.5111 57.1246 27.3037 57.1815 27.0667C57.2384 26.8 57.2953 26.5926 57.3522 26.4444V26.3111L57.6509 24.7111C57.7647 24.3556 57.8074 23.9407 57.7789 23.4667C57.7505 22.9926 57.7932 22.5778 57.907 22.2222L58.0777 19.3778C58.0777 19.2296 58.0634 19.1111 58.035 19.0222C58.035 18.9037 58.035 18.6519 58.035 18.2667C58.035 17.8815 58.0492 17.6444 58.0777 17.5556C58.1061 17.4667 58.1203 17.363 58.1203 17.2444C58.1203 17.0074 58.1061 16.8741 58.0777 16.8444V16.2222H57.9496ZM56.9254 18.3111V24.9778L56.7121 25.8667C56.6836 26.0741 56.6552 26.2222 56.6267 26.3111C56.6267 26.3704 56.6267 26.4444 56.6267 26.5333H56.584C56.5271 26.5926 56.4844 26.7704 56.456 27.0667H56.3706V27.2889L55.9866 28.1778C55.9581 28.2074 55.9439 28.237 55.9439 28.2667C55.9439 28.2963 55.9297 28.3259 55.9012 28.3556C55.9012 28.3852 55.9012 28.4296 55.9012 28.4889L55.8159 28.6222C55.759 28.8296 55.6878 28.9778 55.6025 29.0667C55.5456 29.1556 55.4176 29.3037 55.2184 29.5111L54.0662 30.1778C54.0093 30.2074 53.9524 30.2222 53.8955 30.2222C53.867 30.2222 53.8243 30.237 53.7674 30.2667L52.9139 30.6667H52.7432V30.7556L52.0177 30.8889L50.7801 31.0667V31.0222C50.7517 31.0519 50.6805 31.0667 50.5667 31.0667V31.0222C50.5383 31.0519 50.5098 31.0667 50.4814 31.0667L47.3234 31.2L46.982 31.1556V31.0667L44.3361 30.4V30.3111C44.1654 30.3111 44.0658 30.2963 44.0374 30.2667L43.952 30.1778C43.3545 29.8519 42.9989 29.6593 42.8851 29.6C42.7713 29.5111 42.7002 29.437 42.6717 29.3778L42.0743 29.0222C41.7613 28.4296 41.5195 27.9852 41.3488 27.6889C41.1781 27.3926 41.0785 27.2296 41.0501 27.2L40.9647 26.6667C40.9363 26.6667 40.8794 26.5778 40.794 26.4C40.7371 26.1926 40.6802 25.9704 40.6233 25.7333C40.5379 25.4667 40.4526 25.1556 40.3672 24.8L40.0258 23.4667C39.9974 23.437 39.9832 23.3481 39.9832 23.2C39.9832 22.9037 40.0258 22.7259 40.1112 22.6667C40.1965 22.6074 40.225 22.5778 40.1965 22.5778H40.3672V22.4889L42.8424 22.2222H44.2081V22.1333L44.8055 22.0889C44.834 22.1185 44.9762 22.1333 45.2323 22.1333C45.2607 22.4 45.3034 22.6519 45.3603 22.8889C45.4172 23.0963 45.4741 23.2889 45.531 23.4667L45.4883 23.6444C45.4883 23.6741 45.5452 23.7185 45.659 23.7778C45.8013 23.837 45.8724 23.9556 45.8724 24.1333L45.9151 24.2222C45.972 24.3111 46.0147 24.3704 46.0431 24.4C46.1 24.4296 46.1569 24.4741 46.2138 24.5333L48.0915 25.2444C48.1485 25.2741 48.2623 25.3037 48.433 25.3333C48.6321 25.3333 48.817 25.3333 48.9877 25.3333C49.0446 25.3333 49.1015 25.3333 49.1584 25.3333C49.2153 25.3037 49.258 25.2889 49.2865 25.2889L50.14 25.0222L50.3107 24.8444C50.3391 24.8148 50.4672 24.6519 50.6948 24.3556C50.9224 24.0593 51.2496 23.6296 51.6763 23.0667L51.8043 22.0889H51.8897L51.975 19.4667C51.975 19.2296 51.9608 19.0222 51.9324 18.8444C51.9039 18.637 51.8897 18.4296 51.8897 18.2222H51.975L51.719 17.9111C51.6905 17.8815 51.6621 17.8222 51.6336 17.7333C51.6336 17.6148 51.6336 17.5407 51.6336 17.5111C51.4629 17.5111 51.3207 17.5556 51.2069 17.6444C51.1215 17.7333 51.0077 17.8074 50.8655 17.8667L49.4572 18.0444C49.3149 18.0444 49.1442 18.0593 48.9451 18.0889C48.7744 18.0889 48.5894 18.0889 48.3903 18.0889C48.3049 18.0889 48.2054 18.0889 48.0915 18.0889C47.9777 18.0593 47.8497 18.0296 47.7075 18H47.0247L44.8909 17.6889L43.0558 16.8889C43.0274 16.8593 43.0131 16.8296 43.0131 16.8L42.8424 16.8444C42.814 16.8444 42.7713 16.8148 42.7144 16.7556L42.4584 16.4889C42.373 16.3704 42.0316 16.0593 41.4341 15.5556L41.3061 15.4222C41.1923 15.2444 41.0927 15.0963 41.0074 14.9778C40.9505 14.8296 40.8936 14.7111 40.8367 14.6222L40.6233 14.0444C40.481 13.5407 40.4099 13.2741 40.4099 13.2444H40.3672L40.2819 11.6444C40.2819 11.4963 40.2819 11.3481 40.2819 11.2C40.3103 11.0222 40.3246 10.8593 40.3246 10.7111C40.2961 10.1481 40.2819 9.71852 40.2819 9.42222C40.2819 9.09629 40.2819 8.87407 40.2819 8.75556C40.2819 8.60741 40.2819 8.48889 40.2819 8.4C40.3103 8.28148 40.3388 8.16296 40.3672 8.04445C40.481 7.27408 40.5522 6.68148 40.5806 6.26667C40.6375 5.85185 40.666 5.62963 40.666 5.6L40.7513 5.46667L40.794 5.51111C40.8509 5.51111 40.9078 5.39259 40.9647 5.15556C41.0216 4.88889 41.2065 4.5037 41.5195 4C41.7755 3.73333 41.9747 3.52592 42.117 3.37778C42.2877 3.22963 42.4157 3.11111 42.501 3.02222L42.7144 2.8C42.7144 2.8 42.7429 2.78519 42.7998 2.75556H42.8851C42.942 2.6963 43.0416 2.62222 43.1838 2.53333C43.3261 2.44444 43.6675 2.23704 44.2081 1.91111L44.5068 1.86667L46.4699 1.64445V1.55555L49.7559 1.37778C50.0404 1.31852 50.1684 1.28889 50.14 1.28889C50.2538 1.28889 51.1642 1.33333 52.8712 1.42222L54.1515 1.86667L54.3222 2.04445C54.3791 2.13333 54.436 2.19259 54.4929 2.22222C54.5783 2.25185 54.6778 2.31111 54.7916 2.4C54.9339 2.45926 55.0904 2.57778 55.2611 2.75556C55.4318 2.93333 55.6309 3.2 55.8585 3.55556C56.3422 4.32593 56.6409 4.96296 56.7547 5.46667C56.897 5.94074 56.9681 6.38518 56.9681 6.8H57.0108C57.0392 6.85926 57.0535 7.11111 57.0535 7.55555H57.0961V13.4222L56.9254 14.0889V18.3111ZM51.719 9.91111C51.719 9.79259 51.7332 9.71852 51.7617 9.68889L51.719 9.37778C51.6905 9.34815 51.591 9.22963 51.4203 9.02222C51.278 8.78518 51.0504 8.45926 50.7374 8.04445V8C50.5383 7.91111 50.3676 7.83704 50.2253 7.77778C50.0831 7.71852 49.9408 7.67407 49.7986 7.64444L48.1769 7.55555V7.6C47.9493 7.6 47.8213 7.61481 47.7928 7.64444L47.5794 7.73334C47.5794 7.82222 47.4087 8.05926 47.0673 8.44444L46.982 8.62222C46.9251 8.62222 46.8966 8.63704 46.8966 8.66666L46.5979 9.68889C46.5979 9.74815 46.5837 9.82222 46.5552 9.91111C46.5552 9.97037 46.5552 10.0296 46.5552 10.0889L46.5979 10.3556H46.6833L46.5979 10.4444C46.5979 10.5037 46.6121 10.5333 46.6406 10.5333L46.8966 11.5111H46.982V11.6L47.5368 12.2222C47.6221 12.3111 47.7217 12.3852 47.8355 12.4444H47.9208C48.2623 12.5926 48.5183 12.7111 48.689 12.8C48.8882 12.8593 49.0162 12.9037 49.0731 12.9333L49.1584 12.8H50.1827L50.396 12.7111L50.7374 12.4889C50.8228 12.4593 50.8939 12.3556 50.9508 12.1778L51.1642 12.1333C51.3634 11.8963 51.5483 11.1556 51.719 9.91111ZM50.0973 12.3111C49.9551 12.3111 49.8697 12.3259 49.8413 12.3556V12.4444H49.0304V12.3556L48.3476 12.1333C47.5794 11.3333 47.1954 10.6222 47.1954 10C47.1954 9.85185 47.1954 9.70371 47.1954 9.55556C47.2238 9.40741 47.2523 9.25926 47.2807 9.11111L47.6648 8.44444C47.7786 8.41481 48.0062 8.35556 48.3476 8.26667C48.689 8.14815 49.0304 8.05926 49.3718 8C49.9977 8 50.4814 8.25185 50.8228 8.75556C51.1927 9.22963 51.3776 9.65926 51.3776 10.0444C51.3776 10.0444 51.3491 10.1926 51.2922 10.4889L50.396 12.1333L50.0973 12.3111Z" fill="#9EB5C8"/>
<path d="M79.8293 16.2222L79.7866 13.9111C79.7297 13.4667 79.687 13.0667 79.6586 12.7111C79.6301 12.3259 79.6159 12 79.6159 11.7333C79.6159 10.963 79.6586 10.1778 79.7439 9.37778H79.6586V8.4C79.6301 8.37037 79.6159 8.34074 79.6159 8.31111L79.4452 5.28889L79.1892 4.44444C79.1892 4.38518 79.0611 3.95556 78.8051 3.15556C78.4352 2.8 78.1507 2.53333 77.9516 2.35556C77.7524 2.14815 77.6102 2 77.5248 1.91111C77.4395 1.82222 77.3968 1.76296 77.3968 1.73333C77.3968 1.7037 77.3968 1.68889 77.3968 1.68889L76.7993 1.33333L75.6898 0.8L73.5986 0.444444C73.371 0.444444 73.1292 0.444444 72.8731 0.444444C72.6171 0.414815 72.361 0.4 72.105 0.4C71.792 0.4 71.4791 0.444445 71.1661 0.533335C70.8816 0.592593 70.6256 0.622223 70.398 0.622223C70.3695 0.622223 70.1277 0.651851 69.6725 0.71111C69.2457 0.740741 68.6198 0.814816 67.7947 0.933333L67.624 0.977779C66.799 1.18519 66.3438 1.28889 66.2584 1.28889L66.1304 1.33333C66.1304 1.39259 66.0877 1.43704 66.0024 1.46667C65.917 1.46667 65.8459 1.46667 65.789 1.46667L65.7036 1.55555C65.6467 1.61481 65.5471 1.65926 65.4049 1.68889C65.2626 1.68889 65.1204 1.73333 64.9781 1.82222L64.8074 1.91111C64.7505 1.97037 64.651 2.02963 64.5087 2.08889C64.3665 2.11852 64.1673 2.22222 63.9113 2.4C63.6552 2.57778 63.3422 2.87407 62.9724 3.28889C62.631 3.67407 62.2469 4.23704 61.8201 4.97778H61.7775C61.7206 5.03704 61.5925 5.80741 61.3934 7.28889H61.308L61.1373 8.48889L61.0946 10.5778C61.0946 10.8741 61.1089 11.0667 61.1373 11.1556L61.18 11.2444C61.2085 11.4815 61.2227 11.6889 61.2227 11.8667C61.2227 12.0148 61.2227 12.1185 61.2227 12.1778H61.2654C61.2938 12.2074 61.4218 12.6815 61.6494 13.6C61.9908 14.2222 62.2327 14.7111 62.3749 15.0667C62.5456 15.4222 62.6736 15.7037 62.759 15.9111C62.8728 16.0889 62.9866 16.237 63.1004 16.3556C63.2142 16.4741 63.4134 16.5926 63.6979 16.7111V16.8444L64.5087 17.4222C64.651 17.5407 64.7648 17.6444 64.8501 17.7333C64.9355 17.7926 65.035 17.8667 65.1488 17.9556C65.2911 18.0444 65.476 18.1333 65.7036 18.2222C65.9312 18.3111 66.2869 18.4148 66.7705 18.5333V18.6222L67.7094 18.8444C67.8516 18.9037 68.0081 18.9333 68.1788 18.9333C68.3495 18.9333 68.5202 18.9333 68.6909 18.9333H69.3311C69.4449 18.9333 69.5587 18.9333 69.6725 18.9333C69.7863 18.9333 69.8859 18.9481 69.9712 18.9778H70.1419V18.8889C71.3368 18.6222 72.0339 18.4889 72.233 18.4889H72.3184C72.4037 18.4889 72.4748 18.4593 72.5317 18.4C72.7878 18.4 72.9158 18.5926 72.9158 18.9778C72.9158 19.3037 72.9158 19.5704 72.9158 19.7778C72.9158 19.9556 72.9016 20.1481 72.8731 20.3556C72.8447 20.563 72.7878 20.8148 72.7024 21.1111C72.6455 21.3778 72.5602 21.763 72.4464 22.2667H72.4037C72.233 22.5333 72.1334 22.7407 72.105 22.8889C72.0765 23.0074 72.0196 23.1111 71.9343 23.2C71.8489 23.2593 71.6782 23.3333 71.4222 23.4222C71.1661 23.5111 70.7251 23.6593 70.0992 23.8667V23.8222C70.0423 23.8222 69.957 23.8222 69.8432 23.8222C69.7578 23.7926 69.6867 23.7778 69.6298 23.7778L69.5018 23.6889C68.5629 23.1259 68.0223 22.6518 67.8801 22.2667L67.8374 22.1333C67.809 22.1333 67.7805 22.1185 67.7521 22.0889L67.7094 22C67.7094 21.9407 67.7094 21.8963 67.7094 21.8667C67.7378 21.837 67.7521 21.7926 67.7521 21.7333C67.6952 21.7333 67.6525 21.7185 67.624 21.6889L67.4107 21.6L67.368 21.6889L67.3253 21.6444C67.1546 21.6444 66.9839 21.6444 66.8132 21.6444C66.6709 21.6148 66.5145 21.6 66.3438 21.6V21.6444H66.2584C66.1162 21.6444 65.9028 21.6593 65.6183 21.6889C65.3338 21.7185 64.9639 21.7333 64.5087 21.7333L61.3934 21.7778V21.8667C61.308 21.8667 61.2654 21.837 61.2654 21.7778L61.052 21.8667C61.052 22.4593 61.0804 22.9778 61.1373 23.4222C61.1942 23.8667 61.2227 24.3407 61.2227 24.8444H61.2654C61.2938 24.9037 61.308 25.0222 61.308 25.2V25.5556H61.3934L61.4787 26.5778V26.6667C61.4503 26.8148 61.4787 26.9926 61.5641 27.2C61.6779 27.3778 61.8486 27.6741 62.0762 28.0889C62.3322 28.5926 62.5598 28.963 62.759 29.2C62.9582 29.4074 63.1289 29.5556 63.2711 29.6444C63.4134 29.7333 63.5129 29.7926 63.5698 29.8222C63.6552 29.8519 63.6979 29.9259 63.6979 30.0444H63.8259C63.8259 30.0741 63.8686 30.1185 63.9539 30.1778C64.0393 30.237 64.3238 30.3704 64.8074 30.5778C65.2057 30.7852 65.476 30.8889 65.6183 30.8889V30.9333L68.0508 31.6889L68.1361 31.6444L69.5018 31.7778V31.8667L70.9101 31.9111C70.9385 31.9407 71.3937 31.9556 72.2757 31.9556V32H72.5744C73.4279 31.8815 73.8831 31.7926 73.94 31.7333L74.4095 31.5556L75.4337 31.2889L76.4152 30.6667C76.7566 30.4593 76.9274 30.3556 76.9274 30.3556C76.9558 30.3556 76.9843 30.3111 77.0127 30.2222H77.0981C77.1265 30.1926 77.1976 30.1037 77.3114 29.9556C77.4252 29.8074 77.5817 29.6 77.7809 29.3333L77.9089 29.1556H78.0369C78.0369 29.1259 78.0796 29.037 78.1649 28.8889C78.2787 28.7407 78.3925 28.5778 78.5064 28.4C78.6486 28.2222 78.7624 28.0593 78.8478 27.9111C78.9616 27.763 79.0185 27.6741 79.0185 27.6444L78.9331 27.6889C78.9616 27.5111 79.0042 27.3037 79.0611 27.0667C79.118 26.8 79.1749 26.5926 79.2318 26.4444V26.3111L79.5306 24.7111C79.6444 24.3556 79.687 23.9407 79.6586 23.4667C79.6301 22.9926 79.6728 22.5778 79.7866 22.2222L79.9573 19.3778C79.9573 19.2296 79.9431 19.1111 79.9146 19.0222C79.9146 18.9037 79.9146 18.6519 79.9146 18.2667C79.9146 17.8815 79.9289 17.6444 79.9573 17.5556C79.9858 17.4667 80 17.363 80 17.2444C80 17.0074 79.9858 16.8741 79.9573 16.8444V16.2222H79.8293ZM78.8051 18.3111V24.9778L78.5917 25.8667C78.5633 26.0741 78.5348 26.2222 78.5064 26.3111C78.5064 26.3704 78.5064 26.4444 78.5064 26.5333H78.4637C78.4068 26.5926 78.3641 26.7704 78.3356 27.0667H78.2503V27.2889L77.8662 28.1778C77.8378 28.2074 77.8235 28.237 77.8235 28.2667C77.8235 28.2963 77.8093 28.3259 77.7809 28.3556C77.7809 28.3852 77.7809 28.4296 77.7809 28.4889L77.6955 28.6222C77.6386 28.8296 77.5675 28.9778 77.4821 29.0667C77.4252 29.1556 77.2972 29.3037 77.0981 29.5111L75.9458 30.1778C75.8889 30.2074 75.832 30.2222 75.7751 30.2222C75.7467 30.2222 75.704 30.237 75.6471 30.2667L74.7936 30.6667H74.6229V30.7556L73.8974 30.8889L72.6598 31.0667V31.0222C72.6313 31.0519 72.5602 31.0667 72.4464 31.0667V31.0222C72.4179 31.0519 72.3895 31.0667 72.361 31.0667L69.203 31.2L68.8616 31.1556V31.0667L66.2157 30.4V30.3111C66.045 30.3111 65.9455 30.2963 65.917 30.2667L65.8316 30.1778C65.2342 29.8519 64.8786 29.6593 64.7648 29.6C64.651 29.5111 64.5798 29.437 64.5514 29.3778L63.9539 29.0222C63.641 28.4296 63.3991 27.9852 63.2284 27.6889C63.0577 27.3926 62.9582 27.2296 62.9297 27.2L62.8444 26.6667C62.8159 26.6667 62.759 26.5778 62.6736 26.4C62.6167 26.1926 62.5598 25.9704 62.5029 25.7333C62.4176 25.4667 62.3322 25.1556 62.2469 24.8L61.9055 23.4667C61.877 23.437 61.8628 23.3481 61.8628 23.2C61.8628 22.9037 61.9055 22.7259 61.9908 22.6667C62.0762 22.6074 62.1046 22.5778 62.0762 22.5778H62.2469V22.4889L64.7221 22.2222H66.0877V22.1333L66.6852 22.0889C66.7136 22.1185 66.8559 22.1333 67.1119 22.1333C67.1404 22.4 67.1831 22.6519 67.24 22.8889C67.2969 23.0963 67.3538 23.2889 67.4107 23.4667L67.368 23.6444C67.368 23.6741 67.4249 23.7185 67.5387 23.7778C67.6809 23.837 67.7521 23.9556 67.7521 24.1333L67.7947 24.2222C67.8516 24.3111 67.8943 24.3704 67.9228 24.4C67.9797 24.4296 68.0366 24.4741 68.0935 24.5333L69.9712 25.2444C70.0281 25.2741 70.1419 25.3037 70.3126 25.3333C70.5118 25.3333 70.6967 25.3333 70.8674 25.3333C70.9243 25.3333 70.9812 25.3333 71.0381 25.3333C71.095 25.3037 71.1377 25.2889 71.1661 25.2889L72.0196 25.0222L72.1903 24.8444C72.2188 24.8148 72.3468 24.6519 72.5744 24.3556C72.802 24.0593 73.1292 23.6296 73.556 23.0667L73.684 22.0889H73.7693L73.8547 19.4667C73.8547 19.2296 73.8405 19.0222 73.812 18.8444C73.7836 18.637 73.7693 18.4296 73.7693 18.2222H73.8547L73.5986 17.9111C73.5702 17.8815 73.5417 17.8222 73.5133 17.7333C73.5133 17.6148 73.5133 17.5407 73.5133 17.5111C73.3426 17.5111 73.2003 17.5556 73.0865 17.6444C73.0012 17.7333 72.8874 17.8074 72.7451 17.8667L71.3368 18.0444C71.1946 18.0444 71.0239 18.0593 70.8247 18.0889C70.654 18.0889 70.4691 18.0889 70.2699 18.0889C70.1846 18.0889 70.085 18.0889 69.9712 18.0889C69.8574 18.0593 69.7294 18.0296 69.5871 18H68.9043L66.7705 17.6889L64.9355 16.8889C64.907 16.8593 64.8928 16.8296 64.8928 16.8L64.7221 16.8444C64.6936 16.8444 64.651 16.8148 64.5941 16.7556L64.338 16.4889C64.2527 16.3704 63.9112 16.0593 63.3138 15.5556L63.1858 15.4222C63.072 15.2444 62.9724 15.0963 62.887 14.9778C62.8301 14.8296 62.7732 14.7111 62.7163 14.6222L62.5029 14.0444C62.3607 13.5407 62.2896 13.2741 62.2896 13.2444H62.2469L62.1615 11.6444C62.1615 11.4963 62.1615 11.3481 62.1615 11.2C62.19 11.0222 62.2042 10.8593 62.2042 10.7111C62.1758 10.1481 62.1615 9.71852 62.1615 9.42222C62.1615 9.09629 62.1615 8.87407 62.1615 8.75556C62.1615 8.60741 62.1615 8.48889 62.1615 8.4C62.19 8.28148 62.2184 8.16296 62.2469 8.04445C62.3607 7.27408 62.4318 6.68148 62.4603 6.26667C62.5172 5.85185 62.5456 5.62963 62.5456 5.6L62.631 5.46667L62.6736 5.51111C62.7306 5.51111 62.7875 5.39259 62.8444 5.15556C62.9013 4.88889 63.0862 4.5037 63.3991 4C63.6552 3.73333 63.8543 3.52592 63.9966 3.37778C64.1673 3.22963 64.2953 3.11111 64.3807 3.02222L64.5941 2.8C64.5941 2.8 64.6225 2.78519 64.6794 2.75556H64.7648C64.8217 2.6963 64.9212 2.62222 65.0635 2.53333C65.2057 2.44444 65.5472 2.23704 66.0877 1.91111L66.3864 1.86667L68.3495 1.64445V1.55555L71.6356 1.37778C71.9201 1.31852 72.0481 1.28889 72.0196 1.28889C72.1334 1.28889 73.0439 1.33333 74.7509 1.42222L76.0312 1.86667L76.2019 2.04445C76.2588 2.13333 76.3157 2.19259 76.3726 2.22222C76.4579 2.25185 76.5575 2.31111 76.6713 2.4C76.8136 2.45926 76.97 2.57778 77.1407 2.75556C77.3114 2.93333 77.5106 3.2 77.7382 3.55556C78.2218 4.32593 78.5206 4.96296 78.6344 5.46667C78.7766 5.94074 78.8478 6.38518 78.8478 6.8H78.8904C78.9189 6.85926 78.9331 7.11111 78.9331 7.55555H78.9758V13.4222L78.8051 14.0889V18.3111ZM73.5986 9.91111C73.5986 9.79259 73.6129 9.71852 73.6413 9.68889L73.5986 9.37778C73.5702 9.34815 73.4706 9.22963 73.2999 9.02222C73.1577 8.78518 72.9301 8.45926 72.6171 8.04445V8C72.4179 7.91111 72.2472 7.83704 72.105 7.77778C71.9627 7.71852 71.8205 7.67407 71.6782 7.64444L70.0566 7.55555V7.6C69.8289 7.6 69.7009 7.61481 69.6725 7.64444L69.4591 7.73334C69.4591 7.82222 69.2884 8.05926 68.947 8.44444L68.8616 8.62222C68.8047 8.62222 68.7763 8.63704 68.7763 8.66666L68.4776 9.68889C68.4776 9.74815 68.4633 9.82222 68.4349 9.91111C68.4349 9.97037 68.4349 10.0296 68.4349 10.0889L68.4776 10.3556H68.5629L68.4776 10.4444C68.4776 10.5037 68.4918 10.5333 68.5202 10.5333L68.7763 11.5111H68.8616V11.6L69.4164 12.2222C69.5018 12.3111 69.6013 12.3852 69.7151 12.4444H69.8005C70.1419 12.5926 70.398 12.7111 70.5687 12.8C70.7678 12.8593 70.8958 12.9037 70.9527 12.9333L71.0381 12.8H72.0623L72.2757 12.7111L72.6171 12.4889C72.7024 12.4593 72.7736 12.3556 72.8305 12.1778L73.0439 12.1333C73.243 11.8963 73.4279 11.1556 73.5986 9.91111ZM71.977 12.3111C71.8347 12.3111 71.7494 12.3259 71.7209 12.3556V12.4444H70.9101V12.3556L70.2273 12.1333C69.4591 11.3333 69.075 10.6222 69.075 10C69.075 9.85185 69.075 9.70371 69.075 9.55556C69.1035 9.40741 69.1319 9.25926 69.1604 9.11111L69.5444 8.44444C69.6582 8.41481 69.8858 8.35556 70.2273 8.26667C70.5687 8.14815 70.9101 8.05926 71.2515 8C71.8774 8 72.361 8.25185 72.7024 8.75556C73.0723 9.22963 73.2572 9.65926 73.2572 10.0444C73.2572 10.0444 73.2288 10.1926 73.1719 10.4889L72.2757 12.1333L71.977 12.3111Z" fill="#9EB5C8"/>
</svg>
