<svg width="56" height="56" viewBox="0 0 56 56" fill="none" xmlns="http://www.w3.org/2000/svg">
<path fill-rule="evenodd" clip-rule="evenodd" d="M29.5903 2.63962C23.4127 2.25247 17.3062 4.13353 12.4172 7.92965C7.52816 11.7258 4.19289 17.1759 3.03749 23.2569C1.88209 29.3378 2.98603 35.6314 6.14206 40.9561C6.25315 41.1435 6.28245 41.3683 6.22309 41.578L3.65264 50.6566C3.58396 50.8914 3.57968 51.1404 3.64031 51.3774C3.70095 51.6144 3.82422 51.8308 3.99722 52.0038C4.17021 52.1768 4.38656 52.3 4.62358 52.3607C4.86061 52.4213 5.10958 52.417 5.34439 52.3484L5.35098 52.3465L14.423 49.7779L14.6396 50.5427L15.0449 49.8589C20.3696 53.0149 26.6632 54.1189 32.7441 52.9635C38.8251 51.8081 44.2752 48.4728 48.0713 43.5838C51.8675 38.6948 53.7485 32.5883 53.3614 26.4107C52.9742 20.233 50.3455 14.4091 45.9687 10.0323C41.5918 5.65551 35.768 3.02678 29.5903 2.63962ZM14.5307 51.3997C20.1249 54.6202 26.692 55.7317 33.0409 54.5254C39.5023 53.2977 45.2934 49.7537 49.3271 44.5588C53.3607 39.3639 55.3595 32.8754 54.9481 26.3112C54.5367 19.7471 51.7435 13.5588 47.0928 8.90814C42.4422 4.25748 36.2539 1.46427 29.6898 1.0529C23.1256 0.641523 16.637 2.64027 11.4421 6.67391C6.24723 10.7075 2.70328 16.4987 1.47559 22.9601C0.269279 29.309 1.3808 35.8761 4.60124 41.4703L2.12669 50.2103C2.12634 50.2115 2.12599 50.2127 2.12564 50.2139C1.97791 50.7214 1.96907 51.2593 2.10007 51.7714C2.23138 52.2847 2.49836 52.7533 2.87303 53.128C3.2477 53.5026 3.71626 53.7696 4.22959 53.9009C4.74192 54.032 5.28003 54.0231 5.78772 53.8752C5.78871 53.8749 5.7897 53.8746 5.79068 53.8743L14.5307 51.3997Z" fill="#ABCE37" stroke="#ABCE37" stroke-width="2" stroke-linecap="round" stroke-linejoin="round"/>
<path d="M27.8513 30.8467C29.6623 30.8467 31.1304 29.3786 31.1304 27.5676C31.1304 25.7567 29.6623 24.2886 27.8513 24.2886C26.0403 24.2886 24.5723 25.7567 24.5723 27.5676C24.5723 29.3786 26.0403 30.8467 27.8513 30.8467Z" fill="#ABCE37"/>
<path d="M14.7361 30.8467C16.547 30.8467 18.0151 29.3786 18.0151 27.5676C18.0151 25.7567 16.547 24.2886 14.7361 24.2886C12.9251 24.2886 11.457 25.7567 11.457 27.5676C11.457 29.3786 12.9251 30.8467 14.7361 30.8467Z" fill="#ABCE37"/>
<path d="M40.9675 30.8467C42.7785 30.8467 44.2466 29.3786 44.2466 27.5676C44.2466 25.7567 42.7785 24.2886 40.9675 24.2886C39.1566 24.2886 37.6885 25.7567 37.6885 27.5676C37.6885 29.3786 39.1566 30.8467 40.9675 30.8467Z" fill="#ABCE37"/>
</svg>
