<svg width="24" height="24" viewBox="0 0 24 24" fill="none" xmlns="http://www.w3.org/2000/svg">
<path d="M12.0007 0.333252C5.54898 0.333252 0.333984 5.54825 0.333984 11.9999C0.333984 18.4516 5.54898 23.6666 12.0007 23.6666C18.4523 23.6666 23.6673 18.4516 23.6673 11.9999C23.6673 5.54825 18.4523 0.333252 12.0007 0.333252ZM12.0007 21.3333C6.85565 21.3333 2.66732 17.1449 2.66732 11.9999C2.66732 6.85492 6.85565 2.66659 12.0007 2.66659C17.1457 2.66659 21.334 6.85492 21.334 11.9999C21.334 17.1449 17.1457 21.3333 12.0007 21.3333ZM16.189 6.16659L12.0007 10.3549L7.81232 6.16659L6.16732 7.81159L10.3557 11.9999L6.16732 16.1883L7.81232 17.8333L12.0007 13.6449L16.189 17.8333L17.834 16.1883L13.6457 11.9999L17.834 7.81159L16.189 6.16659Z" fill="#5B6771"/>
</svg>
