<svg width="56" height="56" viewBox="0 0 56 56" fill="none" xmlns="http://www.w3.org/2000/svg">
<path d="M28.72 56C16.2014 56 5.31972 47.3044 2.27344 34.86L6.68372 33.7244C9.21471 44.0844 18.2778 51.3333 28.72 51.3333C41.2537 51.3333 51.4534 40.8644 51.4534 28C51.4534 15.1356 41.2537 4.66667 28.72 4.66667C20.0358 4.66667 12.2307 9.62889 8.35084 17.6089L4.28913 15.54C8.92675 5.95778 18.2929 0 28.72 0C43.7544 0 56.0001 12.5533 56.0001 28C56.0001 43.4467 43.7544 56 28.72 56Z" fill="#ABCE37"/>
<path d="M14.0643 17.5L4.63755 27.0511C4.22835 27.4711 3.51604 27.2689 3.36448 26.6933L0.0302444 13.5489C-0.121312 12.9733 0.393979 12.4444 0.954737 12.6L13.7309 16.1933C14.2917 16.3489 14.4735 17.08 14.0643 17.5Z" fill="#ABCE37"/>
<path d="M27.5941 17H30.4059V18.5695C31.2544 18.6759 32.1128 18.8799 32.981 19.1814C33.8492 19.4651 34.7174 19.8642 35.5856 20.3785L33.0698 22.7195C32.6751 22.5244 32.2509 22.347 31.797 22.1874C31.3432 22.0278 30.8795 21.9037 30.4059 21.815V26.231C31.5899 26.5679 32.5962 26.9581 33.4249 27.4014C34.2734 27.8271 34.9147 28.3857 35.3488 29.0774C35.7829 29.769 36 30.6647 36 31.7642C36 32.7219 35.7533 33.6086 35.26 34.4244C34.7865 35.2225 34.1254 35.8875 33.277 36.4196C32.4285 36.9516 31.4715 37.2975 30.4059 37.4571V39H27.5941V37.4039C26.5088 37.2088 25.463 36.8718 24.4567 36.393C23.47 35.8964 22.6512 35.3289 22 34.6904L24.6342 32.4027C25.0289 32.7751 25.4827 33.1032 25.9958 33.3869C26.5285 33.653 27.0613 33.8658 27.5941 34.0254V28.8114C26.351 28.4567 25.3051 28.0488 24.4567 27.5877C23.6082 27.1088 22.9866 26.5147 22.592 25.8053C22.1973 25.0959 22.0691 24.1915 22.2072 23.0919C22.3848 21.7441 22.9669 20.6977 23.9535 19.9528C24.9401 19.1902 26.1536 18.7291 27.5941 18.5695V17ZM25.759 23.5175C25.7393 24.0496 25.8872 24.4575 26.203 24.7412C26.5384 25.0073 27.0021 25.2378 27.5941 25.4329V21.815C27.081 21.9391 26.6469 22.1431 26.2918 22.4268C25.9563 22.6929 25.7787 23.0564 25.759 23.5175ZM32.4482 31.7642C32.4482 31.2676 32.2509 30.8331 31.8562 30.4607C31.4813 30.0705 30.9979 29.7779 30.4059 29.5828V34.052C31.0176 33.8746 31.5109 33.582 31.8858 33.1741C32.2607 32.7485 32.4482 32.2785 32.4482 31.7642Z" fill="#ABCE37"/>
</svg>
