<svg width="12" height="18" viewBox="0 0 12 18" fill="none" xmlns="http://www.w3.org/2000/svg">
<path d="M4.51562 7.98438C4.93229 8.375 5.42708 8.57031 6 8.57031C6.57292 8.57031 7.05469 8.375 7.44531 7.98438C7.86198 7.56771 8.07031 7.07292 8.07031 6.5C8.07031 5.92708 7.86198 5.44531 7.44531 5.05469C7.05469 4.63802 6.57292 4.42969 6 4.42969C5.42708 4.42969 4.93229 4.63802 4.51562 5.05469C4.125 5.44531 3.92969 5.92708 3.92969 6.5C3.92969 7.07292 4.125 7.56771 4.51562 7.98438ZM1.85938 2.39844C3.00521 1.2526 4.38542 0.679688 6 0.679688C7.61458 0.679688 8.98177 1.2526 10.1016 2.39844C11.2474 3.51823 11.8203 4.88542 11.8203 6.5C11.8203 7.30729 11.612 8.23177 11.1953 9.27344C10.8047 10.3151 10.3229 11.2917 9.75 12.2031C9.17708 13.1146 8.60417 13.974 8.03125 14.7812C7.48438 15.5625 7.01562 16.1875 6.625 16.6562L6 17.3203C5.84375 17.138 5.63542 16.9036 5.375 16.6172C5.11458 16.3047 4.64583 15.7057 3.96875 14.8203C3.29167 13.9089 2.69271 13.0365 2.17188 12.2031C1.67708 11.3438 1.22135 10.3802 0.804688 9.3125C0.388021 8.24479 0.179688 7.30729 0.179688 6.5C0.179688 4.88542 0.739583 3.51823 1.85938 2.39844Z" fill="currentColor"/>
</svg>
