<svg width="53" height="58" viewBox="0 0 53 58" fill="none" xmlns="http://www.w3.org/2000/svg">
<path fill-rule="evenodd" clip-rule="evenodd" d="M24.8711 1.36379C25.2855 1.12545 25.7552 1 26.2333 1C26.7114 1 27.181 1.12545 27.5954 1.36379C27.5967 1.36453 27.598 1.36528 27.5993 1.36603L50.0449 13.9916C50.4743 14.2355 50.8319 14.5883 51.0815 15.0144C51.3311 15.4405 51.4639 15.925 51.4665 16.4188L51.4665 16.4228L51.4665 41.5772H50.7244L51.4665 41.5812C51.4639 42.075 51.3311 42.5594 51.0815 42.9856C50.8319 43.4117 50.4743 43.7645 50.0449 44.0084L50.0423 44.0099L27.5993 56.634C27.5981 56.6347 27.5968 56.6354 27.5956 56.6361C27.1812 56.8745 26.7114 57 26.2333 57C25.7551 57 25.2853 56.8745 24.8709 56.6361C24.8697 56.6354 24.8685 56.6347 24.8672 56.634L2.42428 44.0099L2.42164 44.0084C1.99221 43.7645 1.63467 43.4117 1.38507 42.9856C1.13548 42.5594 1.00266 42.075 1.00001 41.5812L1 41.5772V16.4188C1.00265 15.925 1.13548 15.4406 1.38507 15.0144C1.63467 14.5883 1.99221 14.2355 2.42164 13.9916L2.42428 13.9901L24.8711 1.36379ZM49.9822 41.5751V16.4249C49.9807 16.1927 49.9181 15.965 49.8007 15.7646C49.6832 15.5639 49.5149 15.3978 49.3128 15.2828C49.3125 15.2827 49.3122 15.2825 49.3119 15.2823L26.8571 2.65152C26.6674 2.542 26.4523 2.48431 26.2333 2.48431C26.0142 2.48431 25.7991 2.54196 25.6094 2.65148L25.6022 2.65564L3.15461 15.2823C3.15425 15.2825 3.15389 15.2827 3.15353 15.283C2.95153 15.3979 2.78334 15.564 2.66586 15.7646C2.54847 15.965 2.48587 16.1928 2.48431 16.425V41.575C2.48587 41.8072 2.54847 42.035 2.66586 42.2354C2.78326 42.4358 2.9513 42.6019 3.15312 42.7168C3.15362 42.7171 3.15412 42.7174 3.15461 42.7177L25.6094 55.3485C25.7991 55.458 26.0142 55.5157 26.2333 55.5157C26.4523 55.5157 26.6675 55.458 26.8571 55.3485L26.8643 55.3444L49.3119 42.7177C49.3123 42.7174 49.3128 42.7172 49.3132 42.7169C49.5151 42.602 49.6832 42.4359 49.8007 42.2354C49.9181 42.035 49.9807 41.8073 49.9822 41.5751Z" fill="#ABCE37" stroke="#ABCE37" stroke-width="2" stroke-linecap="round" stroke-linejoin="round"/>
<path fill-rule="evenodd" clip-rule="evenodd" d="M13.3395 7.97664C13.5375 7.61773 13.9889 7.48725 14.3478 7.6852L39.094 21.3339C39.3307 21.4645 39.4777 21.7134 39.4777 21.9838V35.2498C39.4777 35.6597 39.1455 35.9919 38.7356 35.9919C38.3257 35.9919 37.9934 35.6597 37.9934 35.2498V22.422L13.6309 8.98493C13.272 8.78697 13.1415 8.33555 13.3395 7.97664Z" fill="#ABCE37" stroke="#ABCE37" stroke-width="2" stroke-linecap="round" stroke-linejoin="round"/>
<path fill-rule="evenodd" clip-rule="evenodd" d="M1.37431 15.0157C1.57388 14.6577 2.02589 14.5292 2.3839 14.7288L26.4592 28.1487L50.077 14.7318C50.4333 14.5293 50.8864 14.6541 51.0888 15.0105C51.2913 15.3669 51.1665 15.8199 50.8101 16.0224L26.8292 29.6455C26.6038 29.7736 26.3278 29.7747 26.1013 29.6485L1.66122 16.0253C1.3032 15.8257 1.17475 15.3737 1.37431 15.0157Z" fill="#ABCE37" stroke="#ABCE37" stroke-width="2" stroke-linecap="round" stroke-linejoin="round"/>
<path fill-rule="evenodd" clip-rule="evenodd" d="M26.4692 28.2578C26.8791 28.2613 27.2086 28.5964 27.2051 29.0062L26.9755 56.2526C26.972 56.6625 26.637 56.9919 26.2271 56.9885C25.8172 56.985 25.4878 56.6499 25.4912 56.2401L25.7208 28.9937C25.7243 28.5838 26.0594 28.2544 26.4692 28.2578Z" fill="#ABCE37" stroke="#ABCE37" stroke-width="2" stroke-linecap="round" stroke-linejoin="round"/>
</svg>
