<svg width="88" height="88" viewBox="0 0 88 88" fill="none" xmlns="http://www.w3.org/2000/svg">
<path d="M44.0002 7.3335C23.7602 7.3335 7.3335 23.7602 7.3335 44.0002C7.3335 64.2402 23.7602 80.6668 44.0002 80.6668C64.2402 80.6668 80.6668 64.2402 80.6668 44.0002C80.6668 23.7602 64.2402 7.3335 44.0002 7.3335ZM44.0002 73.3335C27.8302 73.3335 14.6668 60.1702 14.6668 44.0002C14.6668 27.8302 27.8302 14.6668 44.0002 14.6668C60.1702 14.6668 73.3335 27.8302 73.3335 44.0002C73.3335 60.1702 60.1702 73.3335 44.0002 73.3335ZM34.8335 60.5002L60.5002 44.0002L34.8335 27.5002V60.5002Z" fill="white"/>
</svg>
