<svg width="46" height="50" viewBox="0 0 46 50" fill="none" xmlns="http://www.w3.org/2000/svg">
<path fill-rule="evenodd" clip-rule="evenodd" d="M3.63902 2.474C3.31228 2.474 2.99891 2.60988 2.76787 2.85176C2.53682 3.09363 2.40702 3.42168 2.40702 3.76375V18.635C2.40702 39.3895 19.2165 46.2722 22.6152 47.4498C22.623 47.4525 22.6308 47.4554 22.6385 47.4584C22.8711 47.5485 23.1269 47.5485 23.3596 47.4584C23.3673 47.4554 23.375 47.4525 23.3828 47.4498C26.7816 46.2722 43.591 39.3895 43.591 18.635V3.76375C43.591 3.42168 43.4612 3.09363 43.2302 2.85176C42.9991 2.60988 42.6858 2.474 42.359 2.474H3.63902ZM1.77226 1.80948C2.26736 1.29118 2.93885 1 3.63902 1H42.359C43.0592 1 43.7307 1.29118 44.2258 1.80948C44.7209 2.32779 44.999 3.03076 44.999 3.76375V18.635C44.999 40.4196 27.3358 47.6305 23.836 48.8454C23.2954 49.0515 22.7026 49.0515 22.162 48.8454C18.6622 47.6305 0.999023 40.4196 0.999023 18.635V3.76375C0.999023 3.03075 1.27717 2.32779 1.77226 1.80948Z" fill="#ABCE37" stroke="#ABCE37" stroke-width="2" stroke-linecap="round" stroke-linejoin="round"/>
<path fill-rule="evenodd" clip-rule="evenodd" d="M34.1539 15.4143C34.4223 15.7088 34.4118 16.1753 34.1305 16.4563L19.9251 30.6435C19.6529 30.9153 19.2247 30.9152 18.9527 30.6431L11.8621 23.5495C11.5811 23.2683 11.5709 22.8017 11.8396 22.5075C12.1082 22.2132 12.5538 22.2026 12.8349 22.4838L19.4395 29.0913L33.1586 15.3898C33.4399 15.1088 33.8855 15.1198 34.1539 15.4143Z" fill="#ABCE37" stroke="#ABCE37" stroke-width="2" stroke-linecap="round" stroke-linejoin="round"/>
</svg>
