<svg width="62" height="45" viewBox="0 0 62 45" fill="none" xmlns="http://www.w3.org/2000/svg">
<path fill-rule="evenodd" clip-rule="evenodd" d="M52.5214 3.36092C52.2079 3.25675 51.8673 3.28521 51.5739 3.4401L51.5689 3.44275L51.5689 3.44273L45.983 6.33576L53.3072 20.8452L58.8418 17.9904M59.1668 18.6651L59.491 19.3382C59.8162 19.1701 60.1058 18.9363 60.3426 18.6506C60.5794 18.3649 60.7586 18.033 60.8698 17.6745C60.9809 17.316 61.0217 16.938 60.9898 16.5629C60.9579 16.1886 60.8542 15.8245 60.6848 15.4922C60.6844 15.4916 60.6841 15.491 60.6838 15.4903L54.5383 3.30248C54.5382 3.3022 54.538 3.30193 54.5379 3.30165C54.2094 2.64642 53.6442 2.15219 52.9655 1.92668C52.2875 1.7014 51.551 1.76255 50.9163 2.09675L44.6705 5.33153C44.4959 5.42191 44.3638 5.58116 44.3038 5.77346C44.2438 5.96576 44.2609 6.17498 44.3513 6.35408L52.3489 22.1975C52.5324 22.5609 52.9629 22.7055 53.3173 22.5227L59.4905 19.3384L59.1668 18.6651Z" fill="#ABCE37"/>
<path d="M51.5739 3.4401C51.8673 3.28521 52.2079 3.25675 52.5214 3.36092L58.8418 17.9904L53.3072 20.8452L45.983 6.33576L51.5689 3.44273L51.5689 3.44275L51.5739 3.4401ZM59.1668 18.6651L59.491 19.3382C59.8162 19.1701 60.1058 18.9363 60.3426 18.6506C60.5794 18.3649 60.7586 18.033 60.8698 17.6745C60.9809 17.316 61.0217 16.938 60.9898 16.5629C60.9579 16.1886 60.8542 15.8245 60.6848 15.4922C60.6844 15.4916 60.6841 15.491 60.6838 15.4903L54.5383 3.30248C54.5382 3.3022 54.538 3.30193 54.5379 3.30165C54.2094 2.64642 53.6442 2.15219 52.9655 1.92668C52.2875 1.7014 51.551 1.76255 50.9163 2.09675L44.6705 5.33153C44.4959 5.42191 44.3638 5.58116 44.3038 5.77346C44.2438 5.96576 44.2609 6.17498 44.3513 6.35408L52.3489 22.1975C52.5324 22.5609 52.9629 22.7055 53.3173 22.5227L59.4905 19.3384L59.1668 18.6651Z" stroke="#ABCE37" stroke-width="2" stroke-linecap="round" stroke-linejoin="round"/>
<path fill-rule="evenodd" clip-rule="evenodd" d="M10.4338 3.15728C10.1364 3.00824 9.79459 2.98486 9.48077 3.09219C9.16588 3.19989 8.90402 3.43068 8.75097 3.7354L2.59991 15.9343C2.52146 16.0873 2.47349 16.255 2.45888 16.4276C2.44427 16.6002 2.46331 16.774 2.51487 16.9388C2.56642 17.1036 2.64944 17.2559 2.75898 17.3868C2.86852 17.5177 3.00236 17.6244 3.15252 17.7007L3.15877 17.7038L8.69236 20.5814L16.0164 6.04859L10.4338 3.15728ZM9.02485 1.66194C9.69961 1.43116 10.4347 1.48237 11.0736 1.80467L11.0804 1.80811L17.3285 5.04413C17.5029 5.13447 17.635 5.29362 17.6951 5.48582C17.7551 5.67802 17.7381 5.88715 17.6479 6.06623L9.65024 21.9355C9.46649 22.3001 9.03436 22.4446 8.67951 22.2601L2.50918 19.0514C2.18535 18.8864 1.89669 18.6559 1.66027 18.3734C1.42303 18.09 1.24324 17.76 1.13158 17.4031C1.01993 17.0463 0.97869 16.6698 1.01033 16.296C1.04188 15.9233 1.14529 15.5609 1.31443 15.2303C1.31486 15.2294 1.31529 15.2286 1.31573 15.2277L7.46099 3.04023C7.46111 3.04001 7.46122 3.03978 7.46133 3.03955C7.78935 2.38692 8.35031 1.89264 9.02485 1.66194Z" fill="#ABCE37" stroke="#ABCE37" stroke-width="2" stroke-linecap="round" stroke-linejoin="round"/>
<path fill-rule="evenodd" clip-rule="evenodd" d="M8.43523 21.1232C8.68231 20.7954 9.1392 20.7371 9.45572 20.993L23.1267 32.0471L23.138 32.0565C23.2715 32.169 23.4256 32.2522 23.5909 32.3012L38.0635 36.049C38.281 36.0958 38.5062 36.0883 38.7204 36.027C38.9344 35.9658 39.1313 35.8525 39.2946 35.6968L48.4617 26.2013L52.4416 21.3574C52.7018 21.0407 53.1607 21.0024 53.4665 21.272C53.7723 21.5416 53.8092 22.0169 53.5489 22.3336L49.5501 27.2005C49.5375 27.2159 49.5243 27.2307 49.5105 27.245L40.3133 36.7717C40.3075 36.7777 40.3017 36.7835 40.2958 36.7892C39.9593 37.1151 39.5516 37.3518 39.1076 37.4788C38.6636 37.6059 38.1965 37.6197 37.7463 37.519C37.7386 37.5172 37.731 37.5154 37.7234 37.5134L23.2277 33.7597C23.2214 33.7581 23.2151 33.7563 23.2088 33.7545C22.8503 33.651 22.516 33.4725 22.2266 33.2301L8.56095 22.1803C8.24443 21.9243 8.18814 21.4511 8.43523 21.1232Z" fill="#ABCE37" stroke="#ABCE37" stroke-width="2" stroke-linecap="round" stroke-linejoin="round"/>
<path fill-rule="evenodd" clip-rule="evenodd" d="M34.8206 6.75475C34.6566 6.75415 34.4941 6.78707 34.3424 6.85162C34.1908 6.91611 34.0529 7.0109 33.9367 7.13059C33.9366 7.1307 33.9368 7.13048 33.9367 7.13059L24.1441 17.2482C24.0175 17.3838 23.9198 17.5455 23.8575 17.7228C23.7947 17.9017 23.7693 18.0923 23.7829 18.2821C23.7965 18.4719 23.8489 18.6565 23.9366 18.8237C24.0243 18.9909 24.1452 19.137 24.2915 19.2522L25.6382 20.3113C26.8981 21.2846 28.4279 21.8104 29.9996 21.8104C31.5722 21.8104 33.1026 21.284 34.3629 20.3098C34.3631 20.3097 34.3628 20.3099 34.3629 20.3098L37.561 17.8254C37.8164 17.627 38.1667 17.6243 38.4249 17.8188L49.4216 26.1029C49.7463 26.3475 49.8181 26.8185 49.582 27.1549C49.3458 27.4913 48.8911 27.5657 48.5663 27.321L38.0039 19.3641L35.2331 21.5166C33.7215 22.6852 31.8858 23.3166 29.9996 23.3166C28.1134 23.3166 26.2778 22.6852 24.7662 21.5166L24.7614 21.5129L23.4118 20.4515C23.1016 20.2072 22.8447 19.8972 22.6587 19.5425C22.4728 19.1878 22.3617 18.7963 22.3328 18.3938C22.3039 17.9913 22.3578 17.587 22.4911 17.2078C22.6243 16.8285 22.8338 16.4829 23.1057 16.1938L23.1131 16.186L32.9108 6.06323C33.1626 5.80369 33.4613 5.59814 33.7899 5.45835C34.1181 5.31873 34.4696 5.24745 34.8244 5.24855C34.8248 5.24855 34.8253 5.24855 34.8257 5.24855L34.8232 6.00165V5.24855H34.8244H44.9952C45.3967 5.24855 45.7222 5.58572 45.7222 6.00165C45.7222 6.41758 45.3967 6.75475 44.9952 6.75475H34.8232L34.8206 6.75475Z" fill="#ABCE37"/>
<path d="M33.9367 7.13059C34.0529 7.0109 34.1908 6.91611 34.3424 6.85162C34.4941 6.78707 34.6566 6.75415 34.8206 6.75475L34.8232 6.75475H44.9952C45.3967 6.75475 45.7222 6.41758 45.7222 6.00165C45.7222 5.58572 45.3967 5.24855 44.9952 5.24855H34.8244M33.9367 7.13059C33.9368 7.13048 33.9366 7.1307 33.9367 7.13059ZM33.9367 7.13059L24.1441 17.2482C24.0175 17.3838 23.9198 17.5455 23.8575 17.7228C23.7947 17.9017 23.7693 18.0923 23.7829 18.2821C23.7965 18.4719 23.8489 18.6565 23.9366 18.8237C24.0243 18.9909 24.1452 19.137 24.2915 19.2522L25.6382 20.3113C26.8981 21.2846 28.4279 21.8104 29.9996 21.8104C31.5722 21.8104 33.1026 21.284 34.3629 20.3098M34.3629 20.3098C34.3628 20.3099 34.3631 20.3097 34.3629 20.3098ZM34.3629 20.3098L37.561 17.8254C37.8164 17.627 38.1667 17.6243 38.4249 17.8188L49.4216 26.1029C49.7463 26.3475 49.8181 26.8185 49.582 27.1549C49.3458 27.4913 48.8911 27.5657 48.5663 27.321L38.0039 19.3641L35.2331 21.5166C33.7215 22.6852 31.8858 23.3166 29.9996 23.3166C28.1134 23.3166 26.2778 22.6852 24.7662 21.5166L24.7614 21.5129L23.4118 20.4515C23.1016 20.2072 22.8447 19.8972 22.6587 19.5425C22.4728 19.1878 22.3617 18.7963 22.3328 18.3938C22.3039 17.9913 22.3578 17.587 22.4911 17.2078C22.6243 16.8285 22.8338 16.4829 23.1057 16.1938L23.1131 16.186L32.9108 6.06323C33.1626 5.80369 33.4613 5.59814 33.7899 5.45835C34.1181 5.31873 34.4696 5.24745 34.8244 5.24855M34.8244 5.24855C34.8248 5.24855 34.8253 5.24855 34.8257 5.24855L34.8232 6.00165V5.24855H34.8244Z" stroke="#ABCE37" stroke-width="2" stroke-linecap="round" stroke-linejoin="round"/>
<path fill-rule="evenodd" clip-rule="evenodd" d="M30.1792 2.55679C30.1786 2.55695 30.1781 2.55711 30.1776 2.55727L17.36 6.43937C16.9746 6.55609 16.5708 6.3271 16.4581 5.92789C16.3454 5.52867 16.5665 5.11042 16.9519 4.99369L29.7731 1.11051L29.7767 1.10942C30.3979 0.924891 31.0622 0.974936 31.6512 1.25063L31.6522 1.25109L40.2996 5.31549C40.6652 5.48736 40.8272 5.93373 40.6612 6.31248C40.4953 6.69124 40.0644 6.85896 39.6987 6.6871L31.0523 2.62317C31.0521 2.62307 31.0519 2.62298 31.0517 2.62289C30.7775 2.49471 30.4684 2.4713 30.1792 2.55679Z" fill="#ABCE37" stroke="#ABCE37" stroke-width="2" stroke-linecap="round" stroke-linejoin="round"/>
<path fill-rule="evenodd" clip-rule="evenodd" d="M12.4561 34.2724C12.7192 33.9582 13.1784 33.9244 13.4817 34.1969L19.1301 39.2709L19.1381 39.2783C19.2804 39.4099 19.4526 39.5018 19.6387 39.5453C19.6446 39.5467 19.6505 39.5482 19.6565 39.5497L27.1792 41.5172C27.5685 41.619 27.8045 42.0285 27.7062 42.4318C27.6079 42.835 27.2126 43.0794 26.8232 42.9776L19.3086 41.0122C18.8871 40.9119 18.4968 40.7032 18.1736 40.4054L12.529 35.3348C12.2257 35.0622 12.193 34.5866 12.4561 34.2724Z" fill="#ABCE37" stroke="#ABCE37" stroke-width="2" stroke-linecap="round" stroke-linejoin="round"/>
</svg>
